<svg version="1.1" xmlns="http://www.w3.org/2000/svg" xmlns:xlink="http://www.w3.org/1999/xlink" width="435.89999" height="215.1645" viewBox="0,0,435.89999,215.1645"><g transform="translate(-25.563,-11.13353)"><g data-paper-data="{&quot;isPaintingLayer&quot;:true}" fill-rule="nonzero" stroke-linejoin="miter" stroke-miterlimit="10" stroke-dasharray="" stroke-dashoffset="0" style="mix-blend-mode: normal"><path d="M197.71464,153.09539l82.26431,-0.18908c0,0 15.17981,15.90085 15.20543,27.0504c0.02496,10.85995 -15.07581,29.34619 -15.07581,29.34619l-82.26431,0.18907z" data-paper-data="{&quot;origPos&quot;:null,&quot;origRot&quot;:0}" fill="#ffffff" stroke="none" stroke-width="0" stroke-linecap="butt"/><path d="M249.68645,135.98427l36.97418,-0.08498l0.03852,16.75956l-36.97418,0.08498z" data-paper-data="{&quot;origPos&quot;:null,&quot;origRot&quot;:0}" fill="#000000" stroke="none" stroke-width="0" stroke-linecap="butt"/><path d="M250.98372,209.53848l36.97418,-0.08498l0.03852,16.75955l-36.97419,0.08498z" data-paper-data="{&quot;origPos&quot;:null,&quot;origRot&quot;:0}" fill="#000000" stroke="none" stroke-width="0" stroke-linecap="butt"/><path d="M184.75477,136.31996l36.97418,-0.08498l0.03852,16.75955l-36.97418,0.08498z" data-paper-data="{&quot;origPos&quot;:null,&quot;origRot&quot;:0}" fill="#000000" stroke="none" stroke-width="0" stroke-linecap="butt"/><path d="M185.60758,209.45243l36.97419,-0.08498l0.03852,16.75955l-36.97419,0.08498z" data-paper-data="{&quot;origPos&quot;:null,&quot;origRot&quot;:0}" fill="#000000" stroke="none" stroke-width="0" stroke-linecap="butt"/><path d="M227.83975,155.3184l30.48843,-0.07008l0.11457,49.84617l-30.48843,0.07008z" data-paper-data="{&quot;origPos&quot;:null,&quot;origRot&quot;:0}" fill="#dbdbdb" stroke="none" stroke-width="0" stroke-linecap="butt"/><path d="M276.43224,190.27401c-1.70387,0.00751 -3.10649,-4.83433 -3.13286,-10.81455c-0.02637,-5.98023 1.33351,-10.83425 3.03737,-10.84176c1.70387,-0.00751 3.10649,4.83433 3.13286,10.81455c0.02637,5.98023 -1.3335,10.83425 -3.03737,10.84176z" data-paper-data="{&quot;origPos&quot;:null,&quot;origRot&quot;:0}" fill="none" stroke="#000000" stroke-width="3" stroke-linecap="butt"/><path d="M276.36803,189.42738l0.276,-19.72215" data-paper-data="{&quot;origRot&quot;:0,&quot;origPos&quot;:null}" fill="none" stroke="#000000" stroke-width="3" stroke-linecap="round"/><text transform="translate(25.813,30.18353) scale(0.5,0.5)" font-size="40" xml:space="preserve" fill="#000000" fill-rule="nonzero" stroke="none" stroke-width="1" stroke-linecap="butt" stroke-linejoin="miter" stroke-miterlimit="10" stroke-dasharray="" stroke-dashoffset="0" font-family="Handwriting" font-weight="normal" text-anchor="start" style="mix-blend-mode: normal"><tspan x="0" dy="0">Note: When you add a character, PLEASE try to</tspan><tspan x="0" dy="46.150000000000006px">make your character in its overgead view (if you prefer)</tspan><tspan x="0" dy="46.150000000000006px">You can remove this text once you've finished.</tspan></text></g></g></svg>