<svg version="1.1" xmlns="http://www.w3.org/2000/svg" xmlns:xlink="http://www.w3.org/1999/xlink" width="13.49316" height="23.91185" viewBox="0,0,13.49316,23.91185"><g transform="translate(-233.25342,-168.6155)"><g data-paper-data="{&quot;isPaintingLayer&quot;:true}" fill-rule="nonzero" stroke-linecap="square" stroke-linejoin="miter" stroke-miterlimit="10" stroke-dasharray="" stroke-dashoffset="0" style="mix-blend-mode: normal"><path d="M239.62651,176.85124l-3.01499,0.93709c-0.29878,-0.20824 -0.6021,-0.48892 -0.90993,-0.84202c-0.29878,-0.36217 -0.44817,-0.86466 -0.44817,-1.50749c0,-1.21324 0.73338,-2.05979 2.20013,-2.53965l3.38169,-1.14081h1.11365c0.86012,0 1.53919,0.25353 2.03715,0.76055c0.50702,0.49797 0.76054,1.17703 0.76054,2.03715v15.69966c-0.22635,0.03621 -0.55681,0.09055 -0.99141,0.16298c-0.42553,0.07243 -0.86013,0.10865 -1.30379,0.10865c-0.44365,0 -0.84203,-0.03169 -1.19513,-0.09506c-0.34405,-0.06338 -0.6383,-0.18108 -0.88276,-0.35311c-0.2354,-0.18108 -0.42101,-0.42554 -0.55682,-0.73338c-0.12676,-0.31689 -0.19013,-0.72885 -0.19013,-1.23587z" fill="#7f7837" stroke="#7f7837" stroke-width="4"/><path d="M239.62651,175.70839l-3.01499,0.93709c-0.29878,-0.20824 -0.6021,-0.48892 -0.90993,-0.84202c-0.29878,-0.36217 -0.44817,-0.86466 -0.44817,-1.50749c0,-1.21324 0.73338,-2.05979 2.20013,-2.53965l3.38169,-1.14081h1.11365c0.86012,0 1.53919,0.25353 2.03715,0.76055c0.50702,0.49797 0.76054,1.17703 0.76054,2.03715v15.69966c-0.22635,0.03621 -0.55681,0.09055 -0.99141,0.16298c-0.42553,0.07243 -0.86013,0.10865 -1.30379,0.10865c-0.44365,0 -0.84203,-0.03169 -1.19513,-0.09506c-0.34405,-0.06338 -0.6383,-0.18108 -0.88276,-0.35311c-0.2354,-0.18108 -0.42101,-0.42554 -0.55682,-0.73338c-0.12676,-0.31689 -0.19013,-0.72885 -0.19013,-1.23587z" fill="#b3a84d" stroke="#b3a84d" stroke-width="4"/><path d="M239.62651,175.70839l-3.01499,0.93709c-0.29878,-0.20824 -0.6021,-0.48892 -0.90993,-0.84202c-0.29878,-0.36217 -0.44817,-0.86466 -0.44817,-1.50749c0,-1.21324 0.73338,-2.05979 2.20013,-2.53965l3.38169,-1.14081h1.11365c0.86012,0 1.53919,0.25353 2.03715,0.76055c0.50702,0.49797 0.76054,1.17703 0.76054,2.03715v15.69966c-0.22635,0.03621 -0.55681,0.09055 -0.99141,0.16298c-0.42553,0.07243 -0.86013,0.10865 -1.30379,0.10865c-0.44365,0 -0.84203,-0.03169 -1.19513,-0.09506c-0.34405,-0.06338 -0.6383,-0.18108 -0.88276,-0.35311c-0.2354,-0.18108 -0.42101,-0.42554 -0.55682,-0.73338c-0.12676,-0.31689 -0.19013,-0.72885 -0.19013,-1.23587z" fill="#ffee6e" stroke="none" stroke-width="1"/></g></g></svg>