<svg version="1.1" xmlns="http://www.w3.org/2000/svg" xmlns:xlink="http://www.w3.org/1999/xlink" width="17.60819" height="23.65783" viewBox="0,0,17.60819,23.65783"><g transform="translate(-231.1959,-168.61554)"><g data-paper-data="{&quot;isPaintingLayer&quot;:true}" fill-rule="nonzero" stroke-linecap="square" stroke-linejoin="miter" stroke-miterlimit="10" stroke-dasharray="" stroke-dashoffset="0" style="mix-blend-mode: normal"><path d="M242.431,171.95251c0.88729,0.28973 1.64331,0.68359 2.26804,1.18156c0.62473,0.49797 1.09554,1.09101 1.41243,1.77912c0.32594,0.67905 0.48891,1.41243 0.48891,2.20013c0,2.10958 -1.19513,4.11506 -3.5854,6.01641l-3.95207,3.16438h7.22511c0.12676,0.22635 0.24446,0.51155 0.35311,0.85561c0.10865,0.335 0.16297,0.70168 0.16297,1.10007c0,0.72432 -0.16297,1.24493 -0.48891,1.56182c-0.31689,0.30784 -0.73338,0.46176 -1.24946,0.46176h-10.4574c-0.44365,-0.29878 -0.79223,-0.68358 -1.04574,-1.15439c-0.24446,-0.47986 -0.36668,-1.03669 -0.36668,-1.67047c0,-0.68811 0.14034,-1.26755 0.42102,-1.73837c0.28068,-0.47082 0.5885,-0.84656 0.92351,-1.12723l4.16939,-3.55823c0.51608,-0.44365 0.94615,-0.8375 1.29021,-1.18155c0.34405,-0.3531 0.6202,-0.67 0.82845,-0.95067c0.20824,-0.28068 0.35764,-0.54324 0.44818,-0.7877c0.09054,-0.24446 0.1358,-0.47534 0.1358,-0.69263c0,-0.56135 -0.24898,-1.00047 -0.74694,-1.31736c-0.48892,-0.32595 -1.09101,-0.48891 -1.80627,-0.48891c-0.8058,0 -1.52561,0.12676 -2.15939,0.38027c-0.63378,0.24446 -1.15891,0.50702 -1.5754,0.7877c-0.34405,-0.2354 -0.62926,-0.53418 -0.8556,-0.89635c-0.2173,-0.36217 -0.32594,-0.78317 -0.32594,-1.26303c0,-1.05026 0.48892,-1.82892 1.46675,-2.33594c0.98689,-0.51608 2.31783,-0.77411 3.99282,-0.77411c0,0 2.15025,0.14933 3.0285,0.44811z" fill="#7f6237" stroke="#7f6237" stroke-width="4"/><path d="M242.431,171.06366c0.88729,0.28973 1.64331,0.68359 2.26804,1.18156c0.62473,0.49797 1.09554,1.09101 1.41243,1.77912c0.32594,0.67905 0.48891,1.41243 0.48891,2.20013c0,2.10958 -1.19513,4.11506 -3.5854,6.01641l-3.95207,3.16438h7.22511c0.12676,0.22635 0.24446,0.51155 0.35311,0.85561c0.10865,0.335 0.16297,0.70168 0.16297,1.10007c0,0.72432 -0.16297,1.24493 -0.48891,1.56182c-0.31689,0.30784 -0.73338,0.46176 -1.24946,0.46176h-10.4574c-0.44365,-0.29878 -0.79223,-0.68358 -1.04574,-1.15439c-0.24446,-0.47986 -0.36668,-1.03669 -0.36668,-1.67047c0,-0.68811 0.14034,-1.26755 0.42102,-1.73837c0.28068,-0.47082 0.5885,-0.84656 0.92351,-1.12723l4.16939,-3.55823c0.51608,-0.44365 0.94615,-0.8375 1.29021,-1.18155c0.34405,-0.3531 0.6202,-0.67 0.82845,-0.95067c0.20824,-0.28068 0.35764,-0.54324 0.44818,-0.7877c0.09054,-0.24446 0.1358,-0.47534 0.1358,-0.69263c0,-0.56135 -0.24898,-1.00047 -0.74694,-1.31736c-0.48892,-0.32595 -1.09101,-0.48891 -1.80627,-0.48891c-0.8058,0 -1.52561,0.12676 -2.15939,0.38027c-0.63378,0.24446 -1.15891,0.50702 -1.5754,0.7877c-0.34405,-0.2354 -0.62926,-0.53418 -0.8556,-0.89635c-0.2173,-0.36217 -0.32594,-0.78317 -0.32594,-1.26303c0,-1.05026 0.48892,-1.82892 1.46675,-2.33594c0.98689,-0.51608 2.31783,-0.77411 3.99282,-0.77411c0,0 2.15025,0.14933 3.0285,0.44811z" fill="#b38b4d" stroke="#b38b4d" stroke-width="4"/><path d="M239.40242,170.61549c1.14081,0 2.15033,0.14939 3.02858,0.44817c0.88729,0.28973 1.64331,0.68359 2.26804,1.18156c0.62473,0.49797 1.09554,1.09101 1.41243,1.77912c0.32594,0.67905 0.48891,1.41243 0.48891,2.20013c0,2.10958 -1.19513,4.11506 -3.5854,6.01641l-3.95207,3.16438h7.22511c0.12676,0.22635 0.24446,0.51155 0.35311,0.85561c0.10865,0.335 0.16297,0.70168 0.16297,1.10007c0,0.72432 -0.16297,1.24493 -0.48891,1.56182c-0.31689,0.30784 -0.73338,0.46176 -1.24946,0.46176h-10.4574c-0.44365,-0.29878 -0.79223,-0.68358 -1.04574,-1.15439c-0.24446,-0.47986 -0.36668,-1.03669 -0.36668,-1.67047c0,-0.68811 0.14034,-1.26755 0.42102,-1.73837c0.28068,-0.47082 0.5885,-0.84656 0.92351,-1.12723l4.16939,-3.55823c0.51608,-0.44365 0.94615,-0.8375 1.29021,-1.18155c0.34405,-0.3531 0.6202,-0.67 0.82845,-0.95067c0.20824,-0.28068 0.35764,-0.54324 0.44818,-0.7877c0.09054,-0.24446 0.1358,-0.47534 0.1358,-0.69263c0,-0.56135 -0.24898,-1.00047 -0.74694,-1.31736c-0.48892,-0.32595 -1.09101,-0.48891 -1.80627,-0.48891c-0.8058,0 -1.52561,0.12676 -2.15939,0.38027c-0.63378,0.24446 -1.15891,0.50702 -1.5754,0.7877c-0.34405,-0.2354 -0.62926,-0.53418 -0.8556,-0.89635c-0.2173,-0.36217 -0.32594,-0.78317 -0.32594,-1.26303c0,-1.05026 0.48892,-1.82892 1.46675,-2.33594c0.98689,-0.51608 2.31783,-0.77411 3.99282,-0.77411z" fill="#ffc46e" stroke="none" stroke-width="1"/></g></g></svg>