<svg version="1.1" xmlns="http://www.w3.org/2000/svg" xmlns:xlink="http://www.w3.org/1999/xlink" width="17.79833" height="24.13318" viewBox="0,0,17.79833,24.13318"><g transform="translate(-231.10084,-168.37785)"><g data-paper-data="{&quot;isPaintingLayer&quot;:true}" fill-rule="nonzero" stroke-linecap="square" stroke-linejoin="miter" stroke-miterlimit="10" stroke-dasharray="" stroke-dashoffset="0" style="mix-blend-mode: normal"><path d="M246.45097,176.53612c0,0.96878 -0.25803,1.78816 -0.77411,2.45817c-0.50702,0.67 -1.11365,1.17703 -1.81986,1.52108c0.42553,0.16297 0.81939,0.36669 1.18156,0.61115c0.36217,0.2354 0.68358,0.53418 0.96426,0.89635c0.28068,0.36217 0.49797,0.78318 0.65189,1.26305c0.16297,0.47986 0.24446,1.04121 0.24446,1.68404c0,0.86918 -0.1856,1.64783 -0.55682,2.33594c-0.37122,0.67905 -0.88729,1.25852 -1.54824,1.73838c-0.66095,0.47986 -1.44864,0.84202 -2.3631,1.08648c-0.91446,0.25351 -1.91492,0.38027 -3.00141,0.38027c-2.08243,0 -3.65783,-0.28972 -4.7262,-0.86918c-1.06838,-0.57946 -1.60256,-1.32188 -1.60256,-2.22729c0,-0.54325 0.13128,-1.00952 0.39386,-1.39884c0.26256,-0.38933 0.58399,-0.69716 0.96426,-0.92352c0.40743,0.28068 0.94615,0.57946 1.61615,0.89635c0.67,0.30784 1.54824,0.46175 2.63473,0.46175c1.0231,0 1.77912,-0.18107 2.26804,-0.54323c0.49797,-0.36217 0.74696,-0.83298 0.74696,-1.41244c0,-0.57946 -0.1992,-1.01857 -0.59757,-1.31735c-0.38933,-0.30784 -1.06385,-0.46176 -2.02357,-0.46176h-2.83843c-0.13581,-0.2173 -0.25351,-0.48439 -0.3531,-0.80128c-0.09959,-0.32594 -0.14939,-0.71074 -0.14939,-1.15438c0,-0.46176 0.04527,-0.8556 0.13581,-1.18155c0.09054,-0.335 0.21277,-0.61567 0.36669,-0.84202h2.83845c1.44864,0 2.17297,-0.5523 2.17297,-1.65688c0,-0.51608 -0.23087,-0.93257 -0.69263,-1.24946c-0.46176,-0.32594 -1.15892,-0.48892 -2.09148,-0.48892c-0.81486,0 -1.53465,0.09508 -2.15938,0.28521c-0.62473,0.19013 -1.13628,0.42554 -1.53465,0.70621c-0.34405,-0.24446 -0.62926,-0.53871 -0.85561,-0.88276c-0.2173,-0.3531 -0.32594,-0.77411 -0.32594,-1.26303c0,-1.005 0.52061,-1.7429 1.56182,-2.21371c1.05026,-0.47081 2.44912,-0.70621 4.19655,-0.70621c0,0 1.5788,0.00966 2.75063,0.25122c1.16384,0.23991 1.91869,0.71009 2.51872,1.18832c0,0 0.81798,0.73463 1.32519,1.66364c0.37596,0.6886 0.48105,1.484 0.48105,2.1662z" fill="#803737" stroke="#803737" stroke-width="4"/><path d="M246.45097,175.64723c0,0.96878 -0.25803,1.78816 -0.77411,2.45817c-0.50702,0.67 -1.11365,1.17703 -1.81986,1.52108c0.42553,0.16297 0.81939,0.36669 1.18156,0.61115c0.36217,0.2354 0.68358,0.53418 0.96426,0.89635c0.28068,0.36217 0.49797,0.78318 0.65189,1.26305c0.16297,0.47986 0.24446,1.04121 0.24446,1.68404c0,0.86918 -0.1856,1.64783 -0.55682,2.33594c-0.37122,0.67905 -0.88729,1.25852 -1.54824,1.73838c-0.66095,0.47986 -1.44864,0.84202 -2.3631,1.08648c-0.91446,0.25351 -1.91492,0.38027 -3.00141,0.38027c-2.08243,0 -3.65783,-0.28972 -4.7262,-0.86918c-1.06838,-0.57946 -1.60256,-1.32188 -1.60256,-2.22729c0,-0.54325 0.13128,-1.00952 0.39386,-1.39884c0.26256,-0.38933 0.58399,-0.69716 0.96426,-0.92352c0.40743,0.28068 0.94615,0.57946 1.61615,0.89635c0.67,0.30784 1.54824,0.46175 2.63473,0.46175c1.0231,0 1.77912,-0.18107 2.26804,-0.54323c0.49797,-0.36217 0.74696,-0.83298 0.74696,-1.41244c0,-0.57946 -0.1992,-1.01857 -0.59757,-1.31735c-0.38933,-0.30784 -1.06385,-0.46176 -2.02357,-0.46176h-2.83843c-0.13581,-0.2173 -0.25351,-0.48439 -0.3531,-0.80128c-0.09959,-0.32594 -0.14939,-0.71074 -0.14939,-1.15438c0,-0.46176 0.04527,-0.8556 0.13581,-1.18155c0.09054,-0.335 0.21277,-0.61567 0.36669,-0.84202h2.83845c1.44864,0 2.17297,-0.5523 2.17297,-1.65688c0,-0.51608 -0.23087,-0.93257 -0.69263,-1.24946c-0.46176,-0.32594 -1.15892,-0.48892 -2.09148,-0.48892c-0.81486,0 -1.53465,0.09508 -2.15938,0.28521c-0.62473,0.19013 -1.13628,0.42554 -1.53465,0.70621c-0.34405,-0.24446 -0.62926,-0.53871 -0.85561,-0.88276c-0.2173,-0.3531 -0.32594,-0.77411 -0.32594,-1.26303c0,-1.005 0.52061,-1.7429 1.56182,-2.21371c1.05026,-0.47081 2.44912,-0.70621 4.19655,-0.70621c0,0 1.5788,0.00966 2.75063,0.25122c1.16384,0.23991 1.91869,0.71009 2.51872,1.18832c0,0 0.81798,0.73463 1.32519,1.66364c0.37596,0.6886 0.48105,1.48401 0.48105,2.1662z" fill="#7f3737" stroke="#b34d4d" stroke-width="4"/><path d="M239.37525,170.37783c2.30878,0 4.06526,0.47986 5.26945,1.43959c1.20419,0.95067 1.80628,2.22729 1.80628,3.82985c0,0.96878 -0.25803,1.78816 -0.77411,2.45817c-0.50702,0.67 -1.11365,1.17703 -1.81986,1.52108c0.42553,0.16297 0.81939,0.36669 1.18156,0.61115c0.36217,0.2354 0.68358,0.53418 0.96426,0.89635c0.28068,0.36217 0.49797,0.78318 0.65189,1.26305c0.16297,0.47986 0.24446,1.04121 0.24446,1.68404c0,0.86918 -0.1856,1.64783 -0.55682,2.33594c-0.37122,0.67905 -0.88729,1.25852 -1.54824,1.73838c-0.66095,0.47986 -1.44864,0.84202 -2.3631,1.08648c-0.91446,0.25351 -1.91492,0.38027 -3.00141,0.38027c-2.08243,0 -3.65783,-0.28972 -4.7262,-0.86918c-1.06838,-0.57946 -1.60256,-1.32188 -1.60256,-2.22729c0,-0.54325 0.13128,-1.00952 0.39386,-1.39884c0.26256,-0.38933 0.58399,-0.69716 0.96426,-0.92352c0.40743,0.28068 0.94615,0.57946 1.61615,0.89635c0.67,0.30784 1.54824,0.46175 2.63473,0.46175c1.0231,0 1.77912,-0.18107 2.26804,-0.54323c0.49797,-0.36217 0.74696,-0.83298 0.74696,-1.41244c0,-0.57946 -0.1992,-1.01857 -0.59757,-1.31735c-0.38933,-0.30784 -1.06385,-0.46176 -2.02357,-0.46176h-2.83843c-0.13581,-0.2173 -0.25351,-0.48439 -0.3531,-0.80128c-0.09959,-0.32594 -0.14939,-0.71074 -0.14939,-1.15438c0,-0.46176 0.04527,-0.8556 0.13581,-1.18155c0.09054,-0.335 0.21277,-0.61567 0.36669,-0.84202h2.83845c1.44864,0 2.17297,-0.5523 2.17297,-1.65688c0,-0.51608 -0.23087,-0.93257 -0.69263,-1.24946c-0.46176,-0.32594 -1.15892,-0.48892 -2.09148,-0.48892c-0.81486,0 -1.53465,0.09508 -2.15938,0.28521c-0.62473,0.19013 -1.13628,0.42554 -1.53465,0.70621c-0.34405,-0.24446 -0.62926,-0.53871 -0.85561,-0.88276c-0.2173,-0.3531 -0.32594,-0.77411 -0.32594,-1.26303c0,-1.005 0.52061,-1.7429 1.56182,-2.21371c1.05026,-0.47081 2.44912,-0.70621 4.19655,-0.70621z" fill="#ff6e6e" stroke="none" stroke-width="1"/></g></g></svg>