<svg version="1.1" xmlns="http://www.w3.org/2000/svg" xmlns:xlink="http://www.w3.org/1999/xlink" width="101.08242" height="25.93082" viewBox="0,0,101.08242,25.93082"><g transform="translate(-189.45879,-167.8346)"><g data-paper-data="{&quot;isPaintingLayer&quot;:true}" fill-rule="nonzero" stroke-linecap="square" stroke-linejoin="miter" stroke-miterlimit="10" stroke-dasharray="" stroke-dashoffset="0" style="mix-blend-mode: normal"><path d="M204.29282,172.96923c0.14486,0.2173 0.27162,0.51155 0.38027,0.88277c0.10865,0.37122 0.16297,0.76054 0.16297,1.16797c0,0.77865 -0.1675,1.33547 -0.50249,1.67047c-0.32595,0.32594 -0.76959,0.48892 -1.33094,0.48892h-6.32876v3.40885h6.60039c0.15391,0.2173 0.2852,0.50702 0.39385,0.86918c0.11771,0.36217 0.17656,0.74696 0.17656,1.15439c0,0.76054 -0.1675,1.30831 -0.50249,1.64332c-0.32595,0.32594 -0.77412,0.48892 -1.34452,0.48892h-5.26944v6.35592c-0.21729,0.06338 -0.56135,0.12223 -1.03216,0.17656c-0.47082,0.06338 -0.93709,0.09508 -1.39884,0.09508c-0.46175,0 -0.86919,-0.03622 -1.22229,-0.10865c-0.3531,-0.06338 -0.65189,-0.1856 -0.89635,-0.36668c-0.2354,-0.18108 -0.41648,-0.43006 -0.54324,-0.74695c-0.11771,-0.32594 -0.17655,-0.75149 -0.17655,-1.27662v-13.1057c0,-0.86013 0.249,-1.53919 0.74697,-2.03716c0.50702,-0.50702 1.19061,-0.76053 2.05074,-0.76053zM212.72338,191.09992c-0.21729,0.06338 -0.56134,0.12224 -1.03216,0.17656c-0.47082,0.06338 -0.93709,0.09507 -1.39884,0.09507c-0.46175,0 -0.86919,-0.03622 -1.22229,-0.10865c-0.3531,-0.06338 -0.65189,-0.1856 -0.89635,-0.36668c-0.2354,-0.18108 -0.41649,-0.43006 -0.54324,-0.74695c-0.11771,-0.32594 -0.17655,-0.75148 -0.17655,-1.27661v-15.9034c0.22635,-0.04527 0.57946,-0.09959 1.05932,-0.16297c0.47986,-0.07243 0.94162,-0.10865 1.38527,-0.10865c0.46175,0 0.86465,0.03622 1.20871,0.10865c0.3531,0.06338 0.65189,0.18561 0.89635,0.36669c0.24446,0.18108 0.42553,0.4346 0.54324,0.76054c0.11771,0.31689 0.17656,0.73791 0.17656,1.26304zM233.1831,190.58385c-0.28068,0.28068 -0.68811,0.49798 -1.2223,0.65189c-0.53419,0.15392 -1.1725,0.23087 -1.91492,0.23087c-0.74243,0 -1.44412,-0.10864 -2.10506,-0.32594c-0.66095,-0.22636 -1.20419,-0.76054 -1.62972,-1.60256l-2.97424,-6.0843c-0.30784,-0.62473 -0.58398,-1.21323 -0.82844,-1.76553c-0.2354,-0.5523 -0.49345,-1.1906 -0.77412,-1.91492l-0.17655,0.02716c0.08149,1.08649 0.12675,2.1956 0.13581,3.32736c0.00906,1.1227 0.01359,2.22276 0.01359,3.3002v4.67188c-0.22635,0.06338 -0.56588,0.12223 -1.01857,0.17656c-0.44365,0.06338 -0.88729,0.09508 -1.33094,0.09508c-0.44365,0 -0.8375,-0.0317 -1.18155,-0.09507c-0.335,-0.05433 -0.61567,-0.17202 -0.84202,-0.3531c-0.21729,-0.18108 -0.38933,-0.42554 -0.51609,-0.73338c-0.11771,-0.31689 -0.17654,-0.72432 -0.17654,-1.22229v-15.06137c0.28068,-0.40743 0.71074,-0.71074 1.2902,-0.90992c0.58851,-0.1992 1.21324,-0.29879 1.87419,-0.29879c0.74243,0 1.44864,0.11771 2.11864,0.3531c0.67905,0.22636 1.21777,0.75148 1.61615,1.5754l3.01499,6.08431c0.29878,0.62473 0.56587,1.21323 0.80128,1.76554c0.24446,0.5523 0.50702,1.1906 0.7877,1.91493l0.16297,-0.04074c-0.08149,-1.07743 -0.13581,-2.15938 -0.16297,-3.24586c-0.01811,-1.08649 -0.02716,-2.17296 -0.02716,-3.25944v-4.87559c0.22635,-0.06338 0.56135,-0.12223 1.005,-0.17655c0.4527,-0.06338 0.90088,-0.09506 1.34453,-0.09506c0.88729,0 1.56182,0.15845 2.02358,0.47534c0.46176,0.30784 0.69264,0.95067 0.69264,1.92851zM242.36419,191.09992c-0.2173,0.06338 -0.56134,0.12224 -1.03215,0.17656c-0.47081,0.06338 -0.93709,0.09507 -1.39884,0.09507c-0.46176,0 -0.86919,-0.03622 -1.2223,-0.10865c-0.3531,-0.06338 -0.65188,-0.1856 -0.89634,-0.36668c-0.2354,-0.18108 -0.41649,-0.43006 -0.54325,-0.74695c-0.11771,-0.32594 -0.17655,-0.75148 -0.17655,-1.27661v-15.9034c0.22636,-0.04527 0.57946,-0.09959 1.05932,-0.16297c0.47986,-0.07243 0.94162,-0.10865 1.38527,-0.10865c0.46176,0 0.86465,0.03622 1.20871,0.10865c0.3531,0.06338 0.65189,0.18561 0.89635,0.36669c0.24446,0.18108 0.42554,0.4346 0.54325,0.76054c0.11771,0.31689 0.17655,0.73791 0.17655,1.26304zM251.47016,183.9563c-0.88729,-0.29879 -1.69311,-0.60209 -2.41743,-0.90992c-0.72432,-0.31689 -1.34905,-0.69263 -1.87418,-1.12722c-0.51608,-0.44365 -0.91898,-0.96878 -1.20871,-1.5754c-0.28973,-0.61568 -0.4346,-1.36716 -0.4346,-2.25445c0,-1.71121 0.65642,-3.07838 1.96926,-4.10148c1.31284,-1.0231 3.15533,-1.53465 5.52749,-1.53465c0.86013,0 1.66141,0.06338 2.40384,0.19013c0.75148,0.11771 1.38979,0.30331 1.91493,0.55683c0.53419,0.24446 0.95067,0.56588 1.24946,0.96426c0.30784,0.38933 0.46176,0.84202 0.46176,1.3581c0,0.52514 -0.12222,0.9733 -0.36668,1.34453c-0.24446,0.37122 -0.53419,0.68811 -0.86919,0.95067c-0.44365,-0.28068 -1.03669,-0.52514 -1.77911,-0.73338c-0.74243,-0.2173 -1.55729,-0.32594 -2.44458,-0.32594c-0.90541,0 -1.57088,0.12675 -1.99641,0.38027c-0.41649,0.25351 -0.62473,0.5704 -0.62473,0.95067c0,0.29879 0.13128,0.54324 0.39386,0.73337c0.26256,0.19013 0.65643,0.36669 1.18156,0.52966l1.58898,0.51608c1.89229,0.59757 3.34547,1.36716 4.35952,2.30877c1.01406,0.93257 1.52107,2.20013 1.52107,3.8027c0,1.71121 -0.67453,3.09195 -2.02357,4.14222c-1.34904,1.05026 -3.32735,1.5754 -5.93491,1.5754c-0.92351,0 -1.78365,-0.07695 -2.5804,-0.23087c-0.7877,-0.14487 -1.48032,-0.36217 -2.07789,-0.65189c-0.58851,-0.28973 -1.05027,-0.64737 -1.38527,-1.0729c-0.32594,-0.4346 -0.48892,-0.93709 -0.48892,-1.50749c0,-0.57946 0.16751,-1.0729 0.50251,-1.48033c0.34405,-0.41649 0.71527,-0.73337 1.11364,-0.95067c0.5704,0.44365 1.25851,0.82845 2.06431,1.15439c0.81486,0.31689 1.70669,0.47534 2.67548,0.47534c0.97783,0 1.66595,-0.14938 2.06432,-0.44817c0.40743,-0.30784 0.61115,-0.66095 0.61115,-1.05932c0,-0.40743 -0.16297,-0.71527 -0.48892,-0.92351c-0.31689,-0.20824 -0.76507,-0.41196 -1.34452,-0.61114zM279.20426,191.09992c-0.2173,0.06338 -0.56135,0.12224 -1.03216,0.17656c-0.47081,0.06338 -0.93709,0.09507 -1.39884,0.09507c-0.46176,0 -0.86918,-0.03622 -1.22229,-0.10865c-0.3531,-0.06338 -0.65189,-0.1856 -0.89635,-0.36668c-0.2354,-0.18108 -0.41649,-0.43006 -0.54324,-0.74695c-0.11771,-0.32594 -0.17655,-0.75148 -0.17655,-1.27661v-4.69905h-5.78553v6.92633c-0.2173,0.06338 -0.56135,0.12223 -1.03216,0.17656c-0.47081,0.06338 -0.93709,0.09508 -1.39884,0.09508c-0.46176,0 -0.86919,-0.03622 -1.22229,-0.10865c-0.3531,-0.06338 -0.65189,-0.1856 -0.89635,-0.36668c-0.2354,-0.18108 -0.41649,-0.43006 -0.54325,-0.74695c-0.11771,-0.32594 -0.17655,-0.75149 -0.17655,-1.27662v-15.90339c0.22636,-0.04527 0.57946,-0.09959 1.05932,-0.16297c0.47986,-0.07243 0.94162,-0.10865 1.38527,-0.10865c0.46176,0 0.86465,0.03622 1.20871,0.10865c0.3531,0.06338 0.65189,0.1856 0.89635,0.36669c0.24446,0.18108 0.42554,0.43459 0.54325,0.76054c0.11771,0.31689 0.17655,0.73791 0.17655,1.26305v4.82128h5.78553v-7.04856c0.22636,-0.04527 0.57946,-0.0996 1.05932,-0.16298c0.47986,-0.07243 0.94162,-0.10865 1.38527,-0.10865c0.46176,0 0.86465,0.03622 1.20871,0.10865c0.3531,0.06338 0.65189,0.18561 0.89635,0.3667c0.24446,0.18108 0.42553,0.43459 0.54324,0.76054c0.11771,0.31689 0.17656,0.73791 0.17656,1.26305zM288.26958,175.76693c-0.0181,0.86918 -0.05886,1.8108 -0.12223,2.82486c-0.05433,1.01406 -0.13128,2.0281 -0.23087,3.04215c-0.09959,1.01406 -0.22183,1.89229 -0.36669,2.63473c-0.08149,0.05433 -0.20371,0.11317 -0.36668,0.17655c-0.15392,0.06338 -0.32142,0.11319 -0.5025,0.1494c-0.18108,0.03621 -0.36216,0.0679 -0.54324,0.09507c-0.18108,0.0181 -0.34405,0.02716 -0.48892,0.02716c-0.57946,0 -1.06384,-0.09054 -1.45316,-0.27162c-0.38933,-0.18108 -0.63378,-0.53418 -0.73337,-1.05932c-0.10865,-0.46176 -0.1992,-1.16344 -0.27163,-2.10506c-0.06338,-0.94162 -0.12675,-1.96473 -0.19013,-3.06931c-0.05433,-1.10458 -0.09959,-2.20013 -0.13581,-3.28661c-0.02716,-1.08649 -0.04074,-2.01 -0.04074,-2.77053c0.39837,-0.2173 0.85108,-0.38932 1.3581,-0.51608c0.51608,-0.13581 1.02763,-0.20371 1.53466,-0.20371c0.82392,0 1.46222,0.19013 1.91493,0.5704c0.4527,0.38027 0.67906,0.96426 0.67906,1.75196c0,0 -0.01362,1.13171 -0.04078,2.00996zM282.76926,188.92696c0,-0.82392 0.25352,-1.49845 0.76054,-2.02357c0.51608,-0.53419 1.22229,-0.80128 2.11864,-0.80128c0.90541,0 1.61163,0.26709 2.11865,0.80129c0.51608,0.52514 0.77412,1.19966 0.77412,2.02358c0,0.82392 -0.25803,1.50297 -0.77411,2.03716c-0.50702,0.53419 -1.21323,0.80129 -2.11864,0.80129c-0.89635,0 -1.60256,-0.26709 -2.11864,-0.80128c-0.50702,-0.53419 -0.76055,-1.21324 -0.76055,-2.03716z" fill="#37577f" stroke="#37577f" stroke-width="4"/><path d="M204.29282,171.36923c0.14486,0.2173 0.27162,0.51155 0.38027,0.88277c0.10865,0.37122 0.16297,0.76054 0.16297,1.16797c0,0.77865 -0.1675,1.33547 -0.50249,1.67047c-0.32595,0.32594 -0.76959,0.48892 -1.33094,0.48892h-6.32876v3.40885h6.60039c0.15391,0.2173 0.2852,0.50702 0.39385,0.86918c0.11771,0.36217 0.17656,0.74696 0.17656,1.15439c0,0.76054 -0.1675,1.30831 -0.50249,1.64332c-0.32595,0.32594 -0.77412,0.48892 -1.34452,0.48892h-5.26944v6.35592c-0.21729,0.06338 -0.56135,0.12223 -1.03216,0.17656c-0.47082,0.06338 -0.93709,0.09508 -1.39884,0.09508c-0.46175,0 -0.86919,-0.03622 -1.22229,-0.10865c-0.3531,-0.06338 -0.65189,-0.1856 -0.89635,-0.36668c-0.2354,-0.18108 -0.41648,-0.43006 -0.54324,-0.74695c-0.11771,-0.32594 -0.17655,-0.75149 -0.17655,-1.27662v-13.1057c0,-0.86013 0.249,-1.53919 0.74697,-2.03716c0.50702,-0.50702 1.19061,-0.76053 2.05074,-0.76053zM212.72338,189.49992c-0.21729,0.06338 -0.56134,0.12224 -1.03216,0.17656c-0.47082,0.06338 -0.93709,0.09507 -1.39884,0.09507c-0.46175,0 -0.86919,-0.03622 -1.22229,-0.10865c-0.3531,-0.06338 -0.65189,-0.1856 -0.89635,-0.36668c-0.2354,-0.18108 -0.41649,-0.43006 -0.54324,-0.74695c-0.11771,-0.32594 -0.17655,-0.75148 -0.17655,-1.27661v-15.9034c0.22635,-0.04527 0.57946,-0.09959 1.05932,-0.16297c0.47986,-0.07243 0.94162,-0.10865 1.38527,-0.10865c0.46175,0 0.86465,0.03622 1.20871,0.10865c0.3531,0.06338 0.65189,0.18561 0.89635,0.36669c0.24446,0.18108 0.42553,0.4346 0.54324,0.76054c0.11771,0.31689 0.17656,0.73791 0.17656,1.26304zM233.1831,188.98384c-0.28068,0.28068 -0.68811,0.49798 -1.2223,0.65189c-0.53419,0.15392 -1.1725,0.23087 -1.91492,0.23087c-0.74243,0 -1.44412,-0.10864 -2.10506,-0.32594c-0.66095,-0.22636 -1.20419,-0.76054 -1.62972,-1.60256l-2.97424,-6.0843c-0.30784,-0.62473 -0.58398,-1.21323 -0.82844,-1.76553c-0.2354,-0.5523 -0.49345,-1.1906 -0.77412,-1.91492l-0.17655,0.02716c0.08149,1.08649 0.12675,2.1956 0.13581,3.32736c0.00906,1.1227 0.01359,2.22276 0.01359,3.3002v4.67188c-0.22635,0.06338 -0.56588,0.12223 -1.01857,0.17656c-0.44365,0.06338 -0.88729,0.09508 -1.33094,0.09508c-0.44365,0 -0.8375,-0.0317 -1.18155,-0.09507c-0.335,-0.05433 -0.61567,-0.17202 -0.84202,-0.3531c-0.21729,-0.18108 -0.38933,-0.42554 -0.51609,-0.73338c-0.11771,-0.31689 -0.17654,-0.72432 -0.17654,-1.22229v-15.06137c0.28068,-0.40743 0.71074,-0.71074 1.2902,-0.90992c0.58851,-0.1992 1.21324,-0.29879 1.87419,-0.29879c0.74243,0 1.44864,0.11771 2.11864,0.3531c0.67905,0.22636 1.21777,0.75148 1.61615,1.5754l3.01499,6.08431c0.29878,0.62473 0.56587,1.21323 0.80128,1.76554c0.24446,0.5523 0.50702,1.1906 0.7877,1.91493l0.16297,-0.04074c-0.08149,-1.07743 -0.13581,-2.15938 -0.16297,-3.24586c-0.01811,-1.08649 -0.02716,-2.17296 -0.02716,-3.25944v-4.87559c0.22635,-0.06338 0.56135,-0.12223 1.005,-0.17655c0.4527,-0.06338 0.90088,-0.09506 1.34453,-0.09506c0.88729,0 1.56182,0.15845 2.02358,0.47534c0.46176,0.30784 0.69264,0.95067 0.69264,1.92851zM242.36419,189.49992c-0.2173,0.06338 -0.56134,0.12224 -1.03215,0.17656c-0.47081,0.06338 -0.93709,0.09507 -1.39884,0.09507c-0.46176,0 -0.86919,-0.03622 -1.2223,-0.10865c-0.3531,-0.06338 -0.65188,-0.1856 -0.89634,-0.36668c-0.2354,-0.18108 -0.41649,-0.43006 -0.54325,-0.74695c-0.11771,-0.32594 -0.17655,-0.75148 -0.17655,-1.27661v-15.9034c0.22636,-0.04527 0.57946,-0.09959 1.05932,-0.16297c0.47986,-0.07243 0.94162,-0.10865 1.38527,-0.10865c0.46176,0 0.86465,0.03622 1.20871,0.10865c0.3531,0.06338 0.65189,0.18561 0.89635,0.36669c0.24446,0.18108 0.42554,0.4346 0.54325,0.76054c0.11771,0.31689 0.17655,0.73791 0.17655,1.26304zM251.47016,182.3563c-0.88729,-0.29879 -1.69311,-0.60209 -2.41743,-0.90992c-0.72432,-0.31689 -1.34905,-0.69263 -1.87418,-1.12722c-0.51608,-0.44365 -0.91898,-0.96878 -1.20871,-1.5754c-0.28973,-0.61568 -0.4346,-1.36716 -0.4346,-2.25445c0,-1.71121 0.65642,-3.07838 1.96926,-4.10148c1.31284,-1.0231 3.15533,-1.53465 5.52749,-1.53465c0.86013,0 1.66141,0.06338 2.40384,0.19013c0.75148,0.11771 1.38979,0.30331 1.91493,0.55683c0.53419,0.24446 0.95067,0.56588 1.24946,0.96426c0.30784,0.38933 0.46176,0.84202 0.46176,1.3581c0,0.52514 -0.12222,0.9733 -0.36668,1.34453c-0.24446,0.37122 -0.53419,0.68811 -0.86919,0.95067c-0.44365,-0.28068 -1.03669,-0.52514 -1.77911,-0.73338c-0.74243,-0.2173 -1.55729,-0.32594 -2.44458,-0.32594c-0.90541,0 -1.57088,0.12675 -1.99641,0.38027c-0.41649,0.25351 -0.62473,0.5704 -0.62473,0.95067c0,0.29879 0.13128,0.54324 0.39386,0.73337c0.26256,0.19013 0.65643,0.36669 1.18156,0.52966l1.58898,0.51608c1.89229,0.59757 3.34547,1.36716 4.35952,2.30877c1.01406,0.93257 1.52107,2.20013 1.52107,3.8027c0,1.71121 -0.67453,3.09195 -2.02357,4.14222c-1.34904,1.05026 -3.32735,1.5754 -5.93491,1.5754c-0.92351,0 -1.78365,-0.07695 -2.5804,-0.23087c-0.7877,-0.14487 -1.48032,-0.36217 -2.07789,-0.65189c-0.58851,-0.28973 -1.05027,-0.64737 -1.38527,-1.0729c-0.32594,-0.4346 -0.48892,-0.93709 -0.48892,-1.50749c0,-0.57946 0.16751,-1.0729 0.50251,-1.48033c0.34405,-0.41649 0.71527,-0.73337 1.11364,-0.95067c0.5704,0.44365 1.25851,0.82845 2.06431,1.15439c0.81486,0.31689 1.70669,0.47534 2.67548,0.47534c0.97783,0 1.66595,-0.14938 2.06432,-0.44817c0.40743,-0.30784 0.61115,-0.66095 0.61115,-1.05932c0,-0.40743 -0.16297,-0.71527 -0.48892,-0.92351c-0.31689,-0.20824 -0.76507,-0.41196 -1.34452,-0.61114zM279.20426,189.49992c-0.2173,0.06338 -0.56135,0.12224 -1.03216,0.17656c-0.47081,0.06338 -0.93709,0.09507 -1.39884,0.09507c-0.46176,0 -0.86918,-0.03622 -1.22229,-0.10865c-0.3531,-0.06338 -0.65189,-0.1856 -0.89635,-0.36668c-0.2354,-0.18108 -0.41649,-0.43006 -0.54324,-0.74695c-0.11771,-0.32594 -0.17655,-0.75148 -0.17655,-1.27661v-4.69905h-5.78553v6.92633c-0.2173,0.06338 -0.56135,0.12223 -1.03216,0.17656c-0.47081,0.06338 -0.93709,0.09508 -1.39884,0.09508c-0.46176,0 -0.86919,-0.03622 -1.22229,-0.10865c-0.3531,-0.06338 -0.65189,-0.1856 -0.89635,-0.36668c-0.2354,-0.18108 -0.41649,-0.43006 -0.54325,-0.74695c-0.11771,-0.32594 -0.17655,-0.75149 -0.17655,-1.27662v-15.90339c0.22636,-0.04527 0.57946,-0.09959 1.05932,-0.16297c0.47986,-0.07243 0.94162,-0.10865 1.38527,-0.10865c0.46176,0 0.86465,0.03622 1.20871,0.10865c0.3531,0.06338 0.65189,0.1856 0.89635,0.36669c0.24446,0.18108 0.42554,0.43459 0.54325,0.76054c0.11771,0.31689 0.17655,0.73791 0.17655,1.26305v4.82128h5.78553v-7.04856c0.22636,-0.04527 0.57946,-0.0996 1.05932,-0.16298c0.47986,-0.07243 0.94162,-0.10865 1.38527,-0.10865c0.46176,0 0.86465,0.03622 1.20871,0.10865c0.3531,0.06338 0.65189,0.18561 0.89635,0.3667c0.24446,0.18108 0.42553,0.43459 0.54324,0.76054c0.11771,0.31689 0.17656,0.73791 0.17656,1.26305zM288.26958,174.16693c-0.0181,0.86918 -0.05886,1.8108 -0.12223,2.82486c-0.05433,1.01406 -0.13128,2.0281 -0.23087,3.04215c-0.09959,1.01406 -0.22183,1.89229 -0.36669,2.63473c-0.08149,0.05433 -0.20371,0.11317 -0.36668,0.17655c-0.15392,0.06338 -0.32142,0.11319 -0.5025,0.1494c-0.18108,0.03621 -0.36216,0.0679 -0.54324,0.09507c-0.18108,0.0181 -0.34405,0.02716 -0.48892,0.02716c-0.57946,0 -1.06384,-0.09054 -1.45316,-0.27162c-0.38933,-0.18108 -0.63378,-0.53418 -0.73337,-1.05932c-0.10865,-0.46176 -0.1992,-1.16344 -0.27163,-2.10506c-0.06338,-0.94162 -0.12675,-1.96473 -0.19013,-3.06931c-0.05433,-1.10458 -0.09959,-2.20013 -0.13581,-3.28661c-0.02716,-1.08649 -0.04074,-2.01 -0.04074,-2.77053c0.39837,-0.2173 0.85108,-0.38932 1.3581,-0.51608c0.51608,-0.13581 1.02763,-0.20371 1.53466,-0.20371c0.82392,0 1.46222,0.19013 1.91493,0.5704c0.4527,0.38027 0.67906,0.96426 0.67906,1.75196c0,0 -0.01362,1.13171 -0.04078,2.00996zM282.76926,187.32696c0,-0.82392 0.25352,-1.49845 0.76054,-2.02357c0.51608,-0.53419 1.22229,-0.80128 2.11864,-0.80128c0.90541,0 1.61163,0.26709 2.11865,0.80129c0.51608,0.52514 0.77412,1.19966 0.77412,2.02358c0,0.82392 -0.25803,1.50297 -0.77411,2.03716c-0.50702,0.53419 -1.21323,0.80129 -2.11864,0.80129c-0.89635,0 -1.60256,-0.26709 -2.11864,-0.80128c-0.50702,-0.53419 -0.76055,-1.21324 -0.76055,-2.03716z" fill="#4d7bb3" stroke="#4d7bb3" stroke-width="4"/><path d="M204.29282,171.36923c0.14486,0.2173 0.27162,0.51155 0.38027,0.88277c0.10865,0.37122 0.16297,0.76054 0.16297,1.16797c0,0.77865 -0.1675,1.33547 -0.50249,1.67047c-0.32595,0.32594 -0.76959,0.48892 -1.33094,0.48892h-6.32876v3.40885h6.60039c0.15391,0.2173 0.2852,0.50702 0.39385,0.86918c0.11771,0.36217 0.17656,0.74696 0.17656,1.15439c0,0.76054 -0.1675,1.30831 -0.50249,1.64332c-0.32595,0.32594 -0.77412,0.48892 -1.34452,0.48892h-5.26944v6.35592c-0.21729,0.06338 -0.56135,0.12223 -1.03216,0.17656c-0.47082,0.06338 -0.93709,0.09508 -1.39884,0.09508c-0.46175,0 -0.86919,-0.03622 -1.22229,-0.10865c-0.3531,-0.06338 -0.65189,-0.1856 -0.89635,-0.36668c-0.2354,-0.18108 -0.41648,-0.43006 -0.54324,-0.74695c-0.11771,-0.32594 -0.17655,-0.75149 -0.17655,-1.27662v-13.1057c0,-0.86013 0.249,-1.53919 0.74697,-2.03716c0.50702,-0.50702 1.19061,-0.76053 2.05074,-0.76053zM212.72338,189.49992c-0.21729,0.06338 -0.56134,0.12224 -1.03216,0.17656c-0.47082,0.06338 -0.93709,0.09507 -1.39884,0.09507c-0.46175,0 -0.86919,-0.03622 -1.22229,-0.10865c-0.3531,-0.06338 -0.65189,-0.1856 -0.89635,-0.36668c-0.2354,-0.18108 -0.41649,-0.43006 -0.54324,-0.74695c-0.11771,-0.32594 -0.17655,-0.75148 -0.17655,-1.27661v-15.9034c0.22635,-0.04527 0.57946,-0.09959 1.05932,-0.16297c0.47986,-0.07243 0.94162,-0.10865 1.38527,-0.10865c0.46175,0 0.86465,0.03622 1.20871,0.10865c0.3531,0.06338 0.65189,0.18561 0.89635,0.36669c0.24446,0.18108 0.42553,0.4346 0.54324,0.76054c0.11771,0.31689 0.17656,0.73791 0.17656,1.26304zM233.1831,188.98384c-0.28068,0.28068 -0.68811,0.49798 -1.2223,0.65189c-0.53419,0.15392 -1.1725,0.23087 -1.91492,0.23087c-0.74243,0 -1.44412,-0.10864 -2.10506,-0.32594c-0.66095,-0.22636 -1.20419,-0.76054 -1.62972,-1.60256l-2.97424,-6.0843c-0.30784,-0.62473 -0.58398,-1.21323 -0.82844,-1.76553c-0.2354,-0.5523 -0.49345,-1.1906 -0.77412,-1.91492l-0.17655,0.02716c0.08149,1.08649 0.12675,2.1956 0.13581,3.32736c0.00906,1.1227 0.01359,2.22276 0.01359,3.3002v4.67188c-0.22635,0.06338 -0.56588,0.12223 -1.01857,0.17656c-0.44365,0.06338 -0.88729,0.09508 -1.33094,0.09508c-0.44365,0 -0.8375,-0.0317 -1.18155,-0.09507c-0.335,-0.05433 -0.61567,-0.17202 -0.84202,-0.3531c-0.21729,-0.18108 -0.38933,-0.42554 -0.51609,-0.73338c-0.11771,-0.31689 -0.17654,-0.72432 -0.17654,-1.22229v-15.06137c0.28068,-0.40743 0.71074,-0.71074 1.2902,-0.90992c0.58851,-0.1992 1.21324,-0.29879 1.87419,-0.29879c0.74243,0 1.44864,0.11771 2.11864,0.3531c0.67905,0.22636 1.21777,0.75148 1.61615,1.5754l3.01499,6.08431c0.29878,0.62473 0.56587,1.21323 0.80128,1.76554c0.24446,0.5523 0.50702,1.1906 0.7877,1.91493l0.16297,-0.04074c-0.08149,-1.07743 -0.13581,-2.15938 -0.16297,-3.24586c-0.01811,-1.08649 -0.02716,-2.17296 -0.02716,-3.25944v-4.87559c0.22635,-0.06338 0.56135,-0.12223 1.005,-0.17655c0.4527,-0.06338 0.90088,-0.09506 1.34453,-0.09506c0.88729,0 1.56182,0.15845 2.02358,0.47534c0.46176,0.30784 0.69264,0.95067 0.69264,1.92851zM242.36419,189.49992c-0.2173,0.06338 -0.56134,0.12224 -1.03215,0.17656c-0.47081,0.06338 -0.93709,0.09507 -1.39884,0.09507c-0.46176,0 -0.86919,-0.03622 -1.2223,-0.10865c-0.3531,-0.06338 -0.65188,-0.1856 -0.89634,-0.36668c-0.2354,-0.18108 -0.41649,-0.43006 -0.54325,-0.74695c-0.11771,-0.32594 -0.17655,-0.75148 -0.17655,-1.27661v-15.9034c0.22636,-0.04527 0.57946,-0.09959 1.05932,-0.16297c0.47986,-0.07243 0.94162,-0.10865 1.38527,-0.10865c0.46176,0 0.86465,0.03622 1.20871,0.10865c0.3531,0.06338 0.65189,0.18561 0.89635,0.36669c0.24446,0.18108 0.42554,0.4346 0.54325,0.76054c0.11771,0.31689 0.17655,0.73791 0.17655,1.26304zM251.47016,182.3563c-0.88729,-0.29879 -1.69311,-0.60209 -2.41743,-0.90992c-0.72432,-0.31689 -1.34905,-0.69263 -1.87418,-1.12722c-0.51608,-0.44365 -0.91898,-0.96878 -1.20871,-1.5754c-0.28973,-0.61568 -0.4346,-1.36716 -0.4346,-2.25445c0,-1.71121 0.65642,-3.07838 1.96926,-4.10148c1.31284,-1.0231 3.15533,-1.53465 5.52749,-1.53465c0.86013,0 1.66141,0.06338 2.40384,0.19013c0.75148,0.11771 1.38979,0.30331 1.91493,0.55683c0.53419,0.24446 0.95067,0.56588 1.24946,0.96426c0.30784,0.38933 0.46176,0.84202 0.46176,1.3581c0,0.52514 -0.12222,0.9733 -0.36668,1.34453c-0.24446,0.37122 -0.53419,0.68811 -0.86919,0.95067c-0.44365,-0.28068 -1.03669,-0.52514 -1.77911,-0.73338c-0.74243,-0.2173 -1.55729,-0.32594 -2.44458,-0.32594c-0.90541,0 -1.57088,0.12675 -1.99641,0.38027c-0.41649,0.25351 -0.62473,0.5704 -0.62473,0.95067c0,0.29879 0.13128,0.54324 0.39386,0.73337c0.26256,0.19013 0.65643,0.36669 1.18156,0.52966l1.58898,0.51608c1.89229,0.59757 3.34547,1.36716 4.35952,2.30877c1.01406,0.93257 1.52107,2.20013 1.52107,3.8027c0,1.71121 -0.67453,3.09195 -2.02357,4.14222c-1.34904,1.05026 -3.32735,1.5754 -5.93491,1.5754c-0.92351,0 -1.78365,-0.07695 -2.5804,-0.23087c-0.7877,-0.14487 -1.48032,-0.36217 -2.07789,-0.65189c-0.58851,-0.28973 -1.05027,-0.64737 -1.38527,-1.0729c-0.32594,-0.4346 -0.48892,-0.93709 -0.48892,-1.50749c0,-0.57946 0.16751,-1.0729 0.50251,-1.48033c0.34405,-0.41649 0.71527,-0.73337 1.11364,-0.95067c0.5704,0.44365 1.25851,0.82845 2.06431,1.15439c0.81486,0.31689 1.70669,0.47534 2.67548,0.47534c0.97783,0 1.66595,-0.14938 2.06432,-0.44817c0.40743,-0.30784 0.61115,-0.66095 0.61115,-1.05932c0,-0.40743 -0.16297,-0.71527 -0.48892,-0.92351c-0.31689,-0.20824 -0.76507,-0.41196 -1.34452,-0.61114zM279.20426,189.49992c-0.2173,0.06338 -0.56135,0.12224 -1.03216,0.17656c-0.47081,0.06338 -0.93709,0.09507 -1.39884,0.09507c-0.46176,0 -0.86918,-0.03622 -1.22229,-0.10865c-0.3531,-0.06338 -0.65189,-0.1856 -0.89635,-0.36668c-0.2354,-0.18108 -0.41649,-0.43006 -0.54324,-0.74695c-0.11771,-0.32594 -0.17655,-0.75148 -0.17655,-1.27661v-4.69905h-5.78553v6.92633c-0.2173,0.06338 -0.56135,0.12223 -1.03216,0.17656c-0.47081,0.06338 -0.93709,0.09508 -1.39884,0.09508c-0.46176,0 -0.86919,-0.03622 -1.22229,-0.10865c-0.3531,-0.06338 -0.65189,-0.1856 -0.89635,-0.36668c-0.2354,-0.18108 -0.41649,-0.43006 -0.54325,-0.74695c-0.11771,-0.32594 -0.17655,-0.75149 -0.17655,-1.27662v-15.90339c0.22636,-0.04527 0.57946,-0.09959 1.05932,-0.16297c0.47986,-0.07243 0.94162,-0.10865 1.38527,-0.10865c0.46176,0 0.86465,0.03622 1.20871,0.10865c0.3531,0.06338 0.65189,0.1856 0.89635,0.36669c0.24446,0.18108 0.42554,0.43459 0.54325,0.76054c0.11771,0.31689 0.17655,0.73791 0.17655,1.26305v4.82128h5.78553v-7.04856c0.22636,-0.04527 0.57946,-0.0996 1.05932,-0.16298c0.47986,-0.07243 0.94162,-0.10865 1.38527,-0.10865c0.46176,0 0.86465,0.03622 1.20871,0.10865c0.3531,0.06338 0.65189,0.18561 0.89635,0.3667c0.24446,0.18108 0.42553,0.43459 0.54324,0.76054c0.11771,0.31689 0.17656,0.73791 0.17656,1.26305zM288.31032,172.15693c0,0.46176 -0.01358,1.13174 -0.04074,2.00999c-0.0181,0.86918 -0.05886,1.8108 -0.12223,2.82486c-0.05433,1.01406 -0.13128,2.0281 -0.23087,3.04215c-0.09959,1.01406 -0.22183,1.89229 -0.36669,2.63473c-0.08149,0.05433 -0.20371,0.11317 -0.36668,0.17655c-0.15392,0.06338 -0.32142,0.11319 -0.5025,0.1494c-0.18108,0.03621 -0.36216,0.0679 -0.54324,0.09507c-0.18108,0.0181 -0.34405,0.02716 -0.48892,0.02716c-0.57946,0 -1.06384,-0.09054 -1.45316,-0.27162c-0.38933,-0.18108 -0.63378,-0.53418 -0.73337,-1.05932c-0.10865,-0.46176 -0.1992,-1.16344 -0.27163,-2.10506c-0.06338,-0.94162 -0.12675,-1.96473 -0.19013,-3.06931c-0.05433,-1.10458 -0.09959,-2.20013 -0.13581,-3.28661c-0.02716,-1.08649 -0.04074,-2.01 -0.04074,-2.77053c0.39837,-0.2173 0.85108,-0.38932 1.3581,-0.51608c0.51608,-0.13581 1.02763,-0.20371 1.53466,-0.20371c0.82392,0 1.46222,0.19013 1.91493,0.5704c0.4527,0.38027 0.67906,0.96426 0.67906,1.75196zM282.76926,187.32696c0,-0.82392 0.25352,-1.49845 0.76054,-2.02357c0.51608,-0.53419 1.22229,-0.80128 2.11864,-0.80128c0.90541,0 1.61163,0.26709 2.11865,0.80129c0.51608,0.52514 0.77412,1.19966 0.77412,2.02358c0,0.82392 -0.25803,1.50297 -0.77411,2.03716c-0.50702,0.53419 -1.21323,0.80129 -2.11864,0.80129c-0.89635,0 -1.60256,-0.26709 -2.11864,-0.80128c-0.50702,-0.53419 -0.76055,-1.21324 -0.76055,-2.03716z" fill="#6eb0ff" stroke="none" stroke-width="1"/></g></g></svg>