<svg version="1.1" xmlns="http://www.w3.org/2000/svg" xmlns:xlink="http://www.w3.org/1999/xlink" width="51.49303" height="25.47371" viewBox="0,0,51.49303,25.47371"><g transform="translate(-214.25348,-167.83457)"><g data-paper-data="{&quot;isPaintingLayer&quot;:true}" fill-rule="nonzero" stroke-linecap="square" stroke-linejoin="miter" stroke-miterlimit="10" stroke-dasharray="" stroke-dashoffset="0" style="mix-blend-mode: normal"><path d="M233.69153,187.77718c0,0.62473 -0.11318,1.09101 -0.33953,1.39885c-0.21729,0.29879 -0.56587,0.58851 -1.04573,0.86918c-0.28068,0.16297 -0.63379,0.32141 -1.05932,0.47534c-0.41649,0.14487 -0.87825,0.27163 -1.38527,0.38028c-0.49797,0.10865 -1.02311,0.19013 -1.57541,0.24446c-0.5523,0.06338 -1.10005,0.09507 -1.6433,0.09507c-1.44864,0 -2.80674,-0.19466 -4.07431,-0.58398c-1.25852,-0.38933 -2.35858,-0.97783 -3.30019,-1.76553c-0.93256,-0.79675 -1.67046,-1.78817 -2.21371,-2.97424c-0.53418,-1.18608 -0.80128,-2.56229 -0.80128,-4.12864c0,-1.64783 0.29425,-3.0829 0.88277,-4.30519c0.58851,-1.22229 1.3717,-2.24087 2.34953,-3.05573c0.97783,-0.81486 2.09148,-1.42149 3.34094,-1.81986c1.25852,-0.40743 2.54871,-0.61114 3.8706,-0.61114c1.9104,0 3.42243,0.30784 4.53607,0.92351c1.11365,0.60662 1.67047,1.40337 1.67047,2.39026c0,0.52514 -0.13128,0.97783 -0.39384,1.3581c-0.25351,0.38027 -0.5523,0.68358 -0.89635,0.90994c-0.50702,-0.30784 -1.13628,-0.60662 -1.88776,-0.89634c-0.75148,-0.28973 -1.59804,-0.4346 -2.53965,-0.4346c-1.69311,0 -3.03762,0.48439 -4.03356,1.45318c-0.98689,0.95973 -1.48033,2.29067 -1.48033,3.99282c0,0.92351 0.13581,1.7248 0.40743,2.40385c0.27162,0.67 0.63831,1.22229 1.10007,1.65689c0.46175,0.42553 0.99143,0.74696 1.58899,0.96426c0.60662,0.20824 1.24945,0.31237 1.9285,0.31237c0.44365,0 0.83297,-0.04074 1.16797,-0.12223c0.34405,-0.08149 0.60662,-0.17202 0.7877,-0.27161v-2.82486h-3.2187c-0.11771,-0.22635 -0.23541,-0.52061 -0.35311,-0.88277c-0.10865,-0.36217 -0.16297,-0.74243 -0.16297,-1.14081c0,-0.72432 0.16751,-1.24492 0.5025,-1.56181c0.335,-0.32595 0.76053,-0.48892 1.27661,-0.48892h5.09289c0.60662,0 1.07291,0.1675 1.39886,0.5025c0.335,0.32595 0.5025,0.79223 0.5025,1.39885zM236.25501,181.61139c0,-1.56634 0.24446,-2.95161 0.73338,-4.1558c0.48892,-1.20419 1.15891,-2.21371 2.01,-3.02857c0.86012,-0.81486 1.86513,-1.43053 3.01499,-1.84702c1.15891,-0.42553 2.4129,-0.63831 3.76195,-0.63831c1.34,0 2.58494,0.21277 3.7348,0.63832c1.15891,0.41649 2.16845,1.03216 3.02858,1.84702c0.86919,0.81486 1.54824,1.82439 2.03715,3.02858c0.49797,1.20419 0.74696,2.58946 0.74696,4.1558c0,1.56634 -0.24446,2.95614 -0.73338,4.16938c-0.47986,1.21324 -1.14534,2.22729 -1.99641,3.04215c-0.85108,0.81486 -1.8606,1.43507 -3.02857,1.86061c-1.16797,0.41649 -2.431,0.62473 -3.7891,0.62473c-1.36716,0 -2.63473,-0.21277 -3.80269,-0.63831c-1.16797,-0.4346 -2.17296,-1.06385 -3.01499,-1.88777c-0.84203,-0.82392 -1.50297,-1.83796 -1.98283,-3.04215c-0.47986,-1.20419 -0.7198,-2.58039 -0.7198,-4.12864zM241.67384,181.61139c0,1.82891 0.37122,3.19606 1.11365,4.10147c0.74243,0.89635 1.73838,1.34453 2.98783,1.34453c1.25852,0 2.25898,-0.44817 3.00141,-1.34452c0.74243,-0.90541 1.11365,-2.27256 1.11365,-4.10147c0,-1.8108 -0.36668,-3.1689 -1.10006,-4.07431c-0.73338,-0.90541 -1.72931,-1.35811 -2.98783,-1.35811c-1.24945,0 -2.24993,0.44818 -3.00141,1.34453c-0.75148,0.89635 -1.12722,2.25899 -1.12722,4.0879zM263.51563,173.29978c0,0.46175 -0.01357,1.13175 -0.04073,2.01c-0.0181,0.86919 -0.05886,1.8108 -0.12223,2.82485c-0.05433,1.01405 -0.13128,2.0281 -0.23087,3.04216c-0.09959,1.01405 -0.22182,1.89229 -0.36668,2.63472c-0.08149,0.05433 -0.20371,0.11318 -0.36668,0.17656c-0.15392,0.06338 -0.32142,0.11318 -0.5025,0.14939c-0.18108,0.03621 -0.36216,0.06791 -0.54324,0.09507c-0.18108,0.01811 -0.34405,0.02716 -0.48892,0.02716c-0.57946,0 -1.06385,-0.09055 -1.45317,-0.27163c-0.38933,-0.18108 -0.63379,-0.53418 -0.73338,-1.05932c-0.10865,-0.46175 -0.19919,-1.16344 -0.27162,-2.10506c-0.06338,-0.94161 -0.12676,-1.96473 -0.19013,-3.06932c-0.05433,-1.10459 -0.09959,-2.20012 -0.13581,-3.28661c-0.02716,-1.08648 -0.04074,-2.01 -0.04074,-2.77054c0.39837,-0.21729 0.85108,-0.38932 1.3581,-0.51607c0.51608,-0.13581 1.02763,-0.20371 1.53466,-0.20371c0.82392,0 1.46222,0.19013 1.91493,0.5704c0.4527,0.38027 0.67905,0.96426 0.67905,1.75196zM257.97457,188.46981c0,-0.82392 0.25352,-1.49845 0.76054,-2.02357c0.51608,-0.53418 1.22229,-0.80128 2.11864,-0.80128c0.90541,0 1.61163,0.26709 2.11865,0.80129c0.51608,0.52514 0.77412,1.19966 0.77412,2.02358c0,0.82392 -0.25804,1.50297 -0.77411,2.03715c-0.50702,0.53419 -1.21323,0.80129 -2.11864,0.80129c-0.89635,0 -1.60256,-0.2671 -2.11864,-0.80128c-0.50702,-0.53419 -0.76054,-1.21323 -0.76054,-2.03715z" fill="#447f37" stroke="#447f37" stroke-width="4"/><path d="M233.69154,186.63433c0,0.62473 -0.11318,1.09101 -0.33953,1.39885c-0.21729,0.29879 -0.56587,0.58851 -1.04573,0.86918c-0.28068,0.16297 -0.63379,0.32141 -1.05932,0.47534c-0.41649,0.14487 -0.87825,0.27163 -1.38527,0.38028c-0.49797,0.10865 -1.02311,0.19013 -1.57541,0.24446c-0.5523,0.06338 -1.10005,0.09507 -1.6433,0.09507c-1.44864,0 -2.80674,-0.19466 -4.07431,-0.58398c-1.25852,-0.38933 -2.35858,-0.97783 -3.30019,-1.76553c-0.93256,-0.79675 -1.67046,-1.78817 -2.21371,-2.97424c-0.53418,-1.18608 -0.80128,-2.56229 -0.80128,-4.12864c0,-1.64783 0.29425,-3.0829 0.88277,-4.30519c0.58851,-1.22229 1.3717,-2.24087 2.34953,-3.05573c0.97783,-0.81486 2.09148,-1.42149 3.34094,-1.81986c1.25852,-0.40743 2.54871,-0.61114 3.8706,-0.61114c1.9104,0 3.42243,0.30784 4.53607,0.92351c1.11365,0.60662 1.67047,1.40337 1.67047,2.39026c0,0.52514 -0.13128,0.97783 -0.39384,1.3581c-0.25351,0.38027 -0.5523,0.68358 -0.89635,0.90994c-0.50702,-0.30784 -1.13628,-0.60662 -1.88776,-0.89634c-0.75148,-0.28973 -1.59804,-0.4346 -2.53965,-0.4346c-1.69311,0 -3.03762,0.48439 -4.03356,1.45318c-0.98689,0.95973 -1.48033,2.29067 -1.48033,3.99282c0,0.92351 0.13581,1.7248 0.40743,2.40385c0.27162,0.67 0.63831,1.22229 1.10007,1.65689c0.46175,0.42553 0.99143,0.74696 1.58899,0.96426c0.60662,0.20824 1.24945,0.31237 1.9285,0.31237c0.44365,0 0.83297,-0.04074 1.16797,-0.12223c0.34405,-0.08149 0.60662,-0.17202 0.7877,-0.27161v-2.82486h-3.2187c-0.11771,-0.22635 -0.23541,-0.52061 -0.35311,-0.88277c-0.10865,-0.36217 -0.16297,-0.74243 -0.16297,-1.14081c0,-0.72432 0.16751,-1.24492 0.5025,-1.56181c0.335,-0.32595 0.76053,-0.48892 1.27661,-0.48892h5.09289c0.60662,0 1.07291,0.1675 1.39886,0.5025c0.335,0.32595 0.5025,0.79223 0.5025,1.39885zM236.25501,180.46854c0,-1.56634 0.24446,-2.95161 0.73338,-4.1558c0.48892,-1.20419 1.15891,-2.21371 2.01,-3.02857c0.86012,-0.81486 1.86513,-1.43053 3.01499,-1.84702c1.15891,-0.42553 2.4129,-0.63831 3.76195,-0.63831c1.34,0 2.58494,0.21277 3.7348,0.63832c1.15891,0.41649 2.16845,1.03216 3.02858,1.84702c0.86919,0.81486 1.54824,1.82439 2.03715,3.02858c0.49797,1.20419 0.74696,2.58946 0.74696,4.1558c0,1.56634 -0.24446,2.95614 -0.73338,4.16938c-0.47986,1.21324 -1.14534,2.22729 -1.99641,3.04215c-0.85108,0.81486 -1.8606,1.43507 -3.02857,1.86061c-1.16797,0.41649 -2.431,0.62473 -3.7891,0.62473c-1.36716,0 -2.63473,-0.21277 -3.80269,-0.63831c-1.16797,-0.4346 -2.17296,-1.06385 -3.01499,-1.88777c-0.84203,-0.82392 -1.50297,-1.83796 -1.98283,-3.04215c-0.47986,-1.20419 -0.7198,-2.58039 -0.7198,-4.12864zM241.67385,180.46854c0,1.82891 0.37122,3.19606 1.11365,4.10147c0.74243,0.89635 1.73838,1.34453 2.98783,1.34453c1.25852,0 2.25898,-0.44817 3.00141,-1.34452c0.74243,-0.90541 1.11365,-2.27256 1.11365,-4.10147c0,-1.8108 -0.36668,-3.1689 -1.10006,-4.07431c-0.73338,-0.90541 -1.72931,-1.35811 -2.98783,-1.35811c-1.24945,0 -2.24993,0.44818 -3.00141,1.34453c-0.75148,0.89635 -1.12722,2.25899 -1.12722,4.0879zM263.51563,172.15693c0,0.46175 -0.01357,1.13175 -0.04073,2.01c-0.0181,0.86919 -0.05886,1.8108 -0.12223,2.82485c-0.05433,1.01405 -0.13128,2.0281 -0.23087,3.04216c-0.09959,1.01405 -0.22182,1.89229 -0.36668,2.63472c-0.08149,0.05433 -0.20371,0.11318 -0.36668,0.17656c-0.15392,0.06338 -0.32142,0.11318 -0.5025,0.14939c-0.18108,0.03621 -0.36216,0.06791 -0.54324,0.09507c-0.18108,0.01811 -0.34405,0.02716 -0.48892,0.02716c-0.57946,0 -1.06385,-0.09055 -1.45317,-0.27163c-0.38933,-0.18108 -0.63379,-0.53418 -0.73338,-1.05932c-0.10865,-0.46175 -0.19919,-1.16344 -0.27162,-2.10506c-0.06338,-0.94161 -0.12676,-1.96473 -0.19013,-3.06932c-0.05433,-1.10459 -0.09959,-2.20012 -0.13581,-3.28661c-0.02716,-1.08648 -0.04074,-2.01 -0.04074,-2.77054c0.39837,-0.21729 0.85108,-0.38932 1.3581,-0.51607c0.51608,-0.13581 1.02763,-0.20371 1.53466,-0.20371c0.82392,0 1.46222,0.19013 1.91493,0.5704c0.4527,0.38027 0.67905,0.96426 0.67905,1.75196zM257.97457,187.32696c0,-0.82392 0.25352,-1.49845 0.76054,-2.02357c0.51608,-0.53418 1.22229,-0.80128 2.11864,-0.80128c0.90541,0 1.61163,0.26709 2.11865,0.80129c0.51608,0.52514 0.77412,1.19966 0.77412,2.02358c0,0.82392 -0.25804,1.50297 -0.77411,2.03715c-0.50702,0.53419 -1.21323,0.80129 -2.11864,0.80129c-0.89635,0 -1.60256,-0.2671 -2.11864,-0.80128c-0.50702,-0.53419 -0.76054,-1.21323 -0.76054,-2.03715z" fill="#60b34d" stroke="#60b34d" stroke-width="4"/><path d="M233.69154,186.63433c0,0.62473 -0.11318,1.09101 -0.33953,1.39885c-0.21729,0.29879 -0.56587,0.58851 -1.04573,0.86918c-0.28068,0.16297 -0.63379,0.32141 -1.05932,0.47534c-0.41649,0.14487 -0.87825,0.27163 -1.38527,0.38028c-0.49797,0.10865 -1.02311,0.19013 -1.57541,0.24446c-0.5523,0.06338 -1.10005,0.09507 -1.6433,0.09507c-1.44864,0 -2.80674,-0.19466 -4.07431,-0.58398c-1.25852,-0.38933 -2.35858,-0.97783 -3.30019,-1.76553c-0.93256,-0.79675 -1.67046,-1.78817 -2.21371,-2.97424c-0.53418,-1.18608 -0.80128,-2.56229 -0.80128,-4.12864c0,-1.64783 0.29425,-3.0829 0.88277,-4.30519c0.58851,-1.22229 1.3717,-2.24087 2.34953,-3.05573c0.97783,-0.81486 2.09148,-1.42149 3.34094,-1.81986c1.25852,-0.40743 2.54871,-0.61114 3.8706,-0.61114c1.9104,0 3.42243,0.30784 4.53607,0.92351c1.11365,0.60662 1.67047,1.40337 1.67047,2.39026c0,0.52514 -0.13128,0.97783 -0.39384,1.3581c-0.25351,0.38027 -0.5523,0.68358 -0.89635,0.90994c-0.50702,-0.30784 -1.13628,-0.60662 -1.88776,-0.89634c-0.75148,-0.28973 -1.59804,-0.4346 -2.53965,-0.4346c-1.69311,0 -3.03762,0.48439 -4.03356,1.45318c-0.98689,0.95973 -1.48033,2.29067 -1.48033,3.99282c0,0.92351 0.13581,1.7248 0.40743,2.40385c0.27162,0.67 0.63831,1.22229 1.10007,1.65689c0.46175,0.42553 0.99143,0.74696 1.58899,0.96426c0.60662,0.20824 1.24945,0.31237 1.9285,0.31237c0.44365,0 0.83297,-0.04074 1.16797,-0.12223c0.34405,-0.08149 0.60662,-0.17202 0.7877,-0.27161v-2.82486h-3.2187c-0.11771,-0.22635 -0.23541,-0.52061 -0.35311,-0.88277c-0.10865,-0.36217 -0.16297,-0.74243 -0.16297,-1.14081c0,-0.72432 0.16751,-1.24492 0.5025,-1.56181c0.335,-0.32595 0.76053,-0.48892 1.27661,-0.48892h5.09289c0.60662,0 1.07291,0.1675 1.39886,0.5025c0.335,0.32595 0.5025,0.79223 0.5025,1.39885zM236.25501,180.46854c0,-1.56634 0.24446,-2.95161 0.73338,-4.1558c0.48892,-1.20419 1.15891,-2.21371 2.01,-3.02857c0.86012,-0.81486 1.86513,-1.43053 3.01499,-1.84702c1.15891,-0.42553 2.4129,-0.63831 3.76195,-0.63831c1.34,0 2.58494,0.21277 3.7348,0.63832c1.15891,0.41649 2.16845,1.03216 3.02858,1.84702c0.86919,0.81486 1.54824,1.82439 2.03715,3.02858c0.49797,1.20419 0.74696,2.58946 0.74696,4.1558c0,1.56634 -0.24446,2.95614 -0.73338,4.16938c-0.47986,1.21324 -1.14534,2.22729 -1.99641,3.04215c-0.85108,0.81486 -1.8606,1.43507 -3.02857,1.86061c-1.16797,0.41649 -2.431,0.62473 -3.7891,0.62473c-1.36716,0 -2.63473,-0.21277 -3.80269,-0.63831c-1.16797,-0.4346 -2.17296,-1.06385 -3.01499,-1.88777c-0.84203,-0.82392 -1.50297,-1.83796 -1.98283,-3.04215c-0.47986,-1.20419 -0.7198,-2.58039 -0.7198,-4.12864zM241.67385,180.46854c0,1.82891 0.37122,3.19606 1.11365,4.10147c0.74243,0.89635 1.73838,1.34453 2.98783,1.34453c1.25852,0 2.25898,-0.44817 3.00141,-1.34452c0.74243,-0.90541 1.11365,-2.27256 1.11365,-4.10147c0,-1.8108 -0.36668,-3.1689 -1.10006,-4.07431c-0.73338,-0.90541 -1.72931,-1.35811 -2.98783,-1.35811c-1.24945,0 -2.24993,0.44818 -3.00141,1.34453c-0.75148,0.89635 -1.12722,2.25899 -1.12722,4.0879zM263.51563,172.15693c0,0.46175 -0.01357,1.13175 -0.04073,2.01c-0.0181,0.86919 -0.05886,1.8108 -0.12223,2.82485c-0.05433,1.01405 -0.13128,2.0281 -0.23087,3.04216c-0.09959,1.01405 -0.22182,1.89229 -0.36668,2.63472c-0.08149,0.05433 -0.20371,0.11318 -0.36668,0.17656c-0.15392,0.06338 -0.32142,0.11318 -0.5025,0.14939c-0.18108,0.03621 -0.36216,0.06791 -0.54324,0.09507c-0.18108,0.01811 -0.34405,0.02716 -0.48892,0.02716c-0.57946,0 -1.06385,-0.09055 -1.45317,-0.27163c-0.38933,-0.18108 -0.63379,-0.53418 -0.73338,-1.05932c-0.10865,-0.46175 -0.19919,-1.16344 -0.27162,-2.10506c-0.06338,-0.94161 -0.12676,-1.96473 -0.19013,-3.06932c-0.05433,-1.10459 -0.09959,-2.20012 -0.13581,-3.28661c-0.02716,-1.08648 -0.04074,-2.01 -0.04074,-2.77054c0.39837,-0.21729 0.85108,-0.38932 1.3581,-0.51607c0.51608,-0.13581 1.02763,-0.20371 1.53466,-0.20371c0.82392,0 1.46222,0.19013 1.91493,0.5704c0.4527,0.38027 0.67905,0.96426 0.67905,1.75196zM257.97457,187.32696c0,-0.82392 0.25352,-1.49845 0.76054,-2.02357c0.51608,-0.53418 1.22229,-0.80128 2.11864,-0.80128c0.90541,0 1.61163,0.26709 2.11865,0.80129c0.51608,0.52514 0.77412,1.19966 0.77412,2.02358c0,0.82392 -0.25804,1.50297 -0.77411,2.03715c-0.50702,0.53419 -1.21323,0.80129 -2.11864,0.80129c-0.89635,0 -1.60256,-0.2671 -2.11864,-0.80128c-0.50702,-0.53419 -0.76054,-1.21323 -0.76054,-2.03715z" fill="#8aff6d" stroke="none" stroke-width="1"/></g></g></svg>