<svg version="1.1" xmlns="http://www.w3.org/2000/svg" xmlns:xlink="http://www.w3.org/1999/xlink" width="447.5" height="337.26512" viewBox="0,0,447.5,337.26512"><g transform="translate(-13.75,-20.64065)"><g data-paper-data="{&quot;isPaintingLayer&quot;:true}" fill-rule="nonzero" stroke-linejoin="miter" stroke-miterlimit="10" stroke-dasharray="" stroke-dashoffset="0" style="mix-blend-mode: normal"><path d="M156.625,191.5c1.50464,-2.90897 3.72602,-4.94925 5.23771,-8.12712c0.28558,-0.60034 0.49671,-1.24836 0.67179,-1.92105c1.34925,-6.94978 3.32623,-15.09803 3.9655,-21.95321c0.58668,-6.29128 0.18316,-11.22544 1.48549,-17.40153c1.52763,-7.24462 4.04345,-13.87963 6.71374,-20.66056c-0.5952,-3.62978 0.71081,-7.39037 0.80076,-11.08931c0.20467,-8.41634 -1.65124,-17.08601 0.39063,-25.25348c1.13153,-4.52612 2.24272,-7.7021 4.09396,-10.56259c0.63259,-4.92082 1.47222,-9.83929 3.64041,-14.03112c2.03072,-3.92606 6.25836,-6.56994 8.94102,-9.92136c2.71764,-3.39512 4.47903,-6.50743 7.59023,-9.46927c5.97746,-5.6905 14.21652,-8.18808 21.64211,-11.35454c6.00818,-2.56204 10.99698,-6.43617 17.79539,-7.36421c7.57376,-1.03388 15.50433,-0.33821 22.97486,-0.39062c6.07202,-0.0426 11.91823,0.27336 17.43139,3.125c7.35021,3.80183 18.65024,18.92548 22.375,26.375c1.62871,3.25742 1.7411,6.83528 3,10c0.03399,0.08544 0.63537,2.07986 0.798,2.1395c7.7295,2.83473 16.39381,4.27209 24.39039,6.10693c0.48121,0.11042 7.78695,2.23489 8.43798,2.25356c21.02533,0.60293 48.26724,-6.65661 61.76299,14.5005c4.36092,6.83656 6.67067,14.25604 6.73563,22.4995c0.03042,3.86004 1.05588,21.29822 -0.39062,29.90625c-0.98996,5.89114 -4.88364,11.34048 -5.81305,17.13053c-1.83462,11.42935 -7.72649,20.83463 -16.8209,27.92636c-2.2895,1.78533 -6.56447,2.94702 -9.11253,4.01753c-2.83032,1.18909 -5.24821,3.33094 -8.23377,4.32613c-4.01064,1.33688 -8.73599,2.09758 -12.77031,3.56158c-6.73169,2.44285 -13.18745,4.92948 -20.13305,6.7196c-2.01479,0.51928 -3.96208,2.58024 -5.96749,3.33923c-7.58262,2.86981 -14.89881,6.27306 -21.85626,10.57265c-1.39697,0.86331 -2.36095,6.49497 -2.86982,7.91778c-0.44554,1.24571 2.60085,0.50381 3.8735,0.86529c4.57808,1.30035 8.72979,1.77276 13.23393,3.13651c12.4056,3.75611 24.57848,3.6095 37.52335,4.63595c4.97956,0.39485 7.49834,0.97583 13.36657,0.94463c2.34375,-0.01246 4.90704,-1.15576 7.368,-1.15576c9.26353,0 19.94074,-0.41165 29.11425,2.39754c10.69187,3.27416 26.27322,14.08204 33.45135,22.7828c4.15931,5.04159 5.07146,12.82583 6.03686,19.00497c1.04628,6.69678 2.82744,11.67351 -1.63932,18.37365c-0.25483,0.38224 -0.51659,0.75675 -0.785,1.1234c-0.28622,5.33655 -0.85344,11.56332 -2.26889,15.10254l0.00002,-0.00006c-5.51636,13.79326 -18.96425,24.42327 -31.8068,31.24587c-5.27434,2.80199 -13.40258,4.09124 -19.5,4.125c-10.99983,0.06091 -22.00006,0.03639 -33,0c-7.95296,-0.02631 -15.47085,-1.55853 -23.52451,-1c-4.19073,0.29063 -7.49681,2.18364 -11.56924,2.60938c-5.35475,0.55979 -10.81062,-0.3229 -16.14706,0.39063c-3.25182,0.43479 -6.24804,2.009 -9.40704,2.89448c-7.8799,2.20874 -17.54164,4.26129 -25.74969,4.26129c-12.12184,0 -11.88832,-2.63848 -24.32556,-5.29603c-3.71363,-0.79352 -7.57307,-0.58199 -11.35304,-0.94609c-8.11922,-0.78207 -16.42742,-2.80818 -24.57664,-2.91364c-14.12441,-0.18279 -28.25119,-0.01526 -42.37677,0c-2.33942,0.00253 -4.90911,1.15576 -7.368,1.15576c-8.41395,0 -17.0908,0.82011 -25.632,0.84424c-2.53847,0.00717 -5.35157,1.01674 -7.98132,1c-7.95154,-0.05062 -15.90622,-0.21149 -23.85511,0c-13.55879,0.36075 -26.14961,2.70264 -39.13403,-1.875c-8.05277,-2.839 -17.98509,-16.84717 -21.36068,-23.94466c-2.01811,-4.24327 -3.7715,-9.70939 -4.2487,-14.27409c-1.11274,-10.64415 -1.73968,-22.10178 -2.26655,-32.66555c-0.67032,-13.43976 -3.18719,-35.75072 3.51525,-50.42104c1.23454,-2.70216 3.4283,-7.90851 5.26693,-10.27279c2.33545,-3.00314 7.67924,-4.93647 9.50603,-7.82527c3.99884,-6.32358 7.5898,-12.34261 14.32037,-16.2563c11.38804,-6.62191 26.65863,-5.11771 38.96193,-5.4653c4.82345,-0.13627 5.8237,-2.86212 12.80542,3.125c2.87323,2.46391 5.9437,4.71937 8.59375,7.42188c1.05692,1.07784 5.25652,10.13124 6.70751,12.58562c0.4487,0.75899 0.45473,1.98027 1.26771,2.32154c2.42107,1.01632 5.0861,1.37533 7.69182,1.69887c1.63311,0.20278 4.78078,1.65039 5.74494,0.84709c0.95034,-0.79179 1.66468,-1.61325 2.21008,-2.4617c-1.75894,-6.97149 -0.69117,-15.04428 2.40919,-21.03832zM210.80681,204.62915c-0.27286,1.23946 -0.74598,2.42475 -1.30771,3.58818c-0.03748,4.40138 -1.21233,8.53145 -3.245,12.11061c-0.77159,1.35863 -1.66678,2.63788 -2.67028,3.82246c-5.12645,16.2474 -18.07715,34.86286 -33.57201,39.60784c-9.55234,2.9252 -20.26159,1.30016 -29.94972,0.01363c-9.72706,-1.2917 -20.23715,-2.97987 -29.05003,-7.66062c-4.57076,-2.42765 -8.29058,-6.08448 -11.3133,-10.24373c-1.01013,-1.38994 -1.86689,-2.88672 -2.72932,-4.37283c-0.39446,-0.67972 -0.50694,-2.42288 -1.19045,-2.03503c-1.61071,0.91397 -2.02341,3.11007 -3.18636,4.55136c-1.13384,1.40521 -5.04801,3.54564 -5.09262,4.739c-0.32376,8.66165 -0.36293,17.34301 0,26.00311c0.26313,6.27878 1.28924,12.50246 1.87593,18.7593c0.19533,2.0831 -0.40089,6.08093 0.12407,7.48759c0.21747,0.58273 1.24579,0.04742 1.86597,0c3.42631,-0.26196 8.20424,-0.98164 12.13403,-1c15.72364,-0.07348 30.87713,-0.55486 46.52451,-1c5.61999,-0.15988 11.27583,-2.15576 16.87303,-2.15576c27.7577,0 49.60868,-0.34495 75.36943,3.38302c4.05794,0.58725 10.44031,0.27273 14.83138,1.28325c4.50597,1.03696 8.73063,3.07134 13.18933,4.29569c2.27593,0.62496 5.49908,-1.47276 7.58319,-2.11299c2.76025,-0.84794 6.12849,-0.01196 8.86994,-0.6932c3.18393,-0.7912 6.24804,-2.009 9.40704,-2.89448c6.31436,-1.76992 13.40375,-1.07583 19.69937,-1.10552c5.40024,-0.02547 11.02769,-2.92099 16.65277,-3c18.30165,-0.25707 41.17035,4.55218 58.21969,0.55867c5.5362,-1.29676 4.1434,-7.60663 4.66754,-11.84156c-0.95156,-0.64461 -1.80576,-1.19773 -2.03768,-1.32995c-3.44177,-1.96215 -7.91733,-0.40499 -11.87909,-0.38716c-2.34293,0.01054 -4.90744,1.15576 -7.368,1.15576c-4.86776,0 -9.73585,-0.04954 -14.60246,-0.15576c-2.64472,-0.05773 -5.204,-0.98484 -7.83428,-1.26679c-7.72858,-0.82846 -15.38202,-0.31992 -23.07197,-1.12383c-7.68644,-0.80354 -15.25638,-3.16473 -22.67737,-5.06356c-3.1238,-0.7993 -7.1936,-1.97141 -10.47332,-2.54582c-2.68295,-0.4699 -5.93224,0.14678 -8.57218,-0.6932c-5.04499,-1.60522 -8.54791,-4.90443 -12.94334,-7.64218c-3.24871,-2.0235 -8.24179,-2.29184 -10.88066,-4.57087c-6.18851,-5.34462 -8.14009,-9.12285 -10.15625,-17.1875c-1.51025,-6.041 0.39881,-11.23268 0.60938,-16.98389c0.15632,-4.26968 -0.30925,-7.66371 0.39062,-11.82861c0.85169,-5.0683 3.5715,-9.76526 4.67442,-14.74419c2.05266,-9.26637 3.91177,-16.18147 11.95953,-22.3127c4.04614,-3.08257 8.78947,-4.24874 13.38421,-6.1921c4.93345,-2.08663 8.90794,-5.61819 13.74323,-7.82338c5.63902,-2.57175 11.09825,-4.76161 16.66764,-7.38205c12.42444,-5.8458 25.95706,-7.93384 38.4631,-13.54433c0.57731,-0.25899 0.77871,-2.40795 1.00015,-3.00068c1.23246,-3.29885 3.43465,-7.0621 3.71708,-10.59643c0.19909,-2.49135 2.36568,-6.69162 0,-7.49788c-6.94128,-2.36568 -14.66711,0.08086 -22,0c-4.57831,-0.05048 -9.16224,-1.66117 -13.4675,-2.84747c-7.89248,-2.17473 -16.14423,-4.21152 -24.08795,-6.15253c-4.97224,-1.21495 -10.01083,-0.65814 -14.94454,-3.125c-6.71482,-3.35741 -18.09462,-13.03294 -21.375,-19.375c-2.53858,-4.90793 -2.04021,-10.9551 -5.08814,-15.52458c-0.60738,-0.91059 -0.31849,-2.74781 -1.38914,-2.97542c-2.14484,-0.45599 -4.39709,-0.22464 -6.57834,0c-1.67092,0.17208 -4.13449,2.53047 -5.78462,3.21192c-2.93608,1.21249 -6.12609,1.90187 -8.84815,3.53926c-1.15999,0.69776 -1.592,2.19096 -2.43662,3.24882c-0.38029,0.47631 -1.16264,0.74332 -1.23485,1.34853c-0.44089,3.69519 -1.58784,7.46012 -3.33101,10.96513c-0.16896,0.7806 -0.37438,1.54761 -0.61438,2.29918c0.67811,2.32281 1.07829,4.80096 1.18027,7.38713c0.24404,6.18883 -0.20597,17.92661 -1.84167,24.10369c-2.21065,8.34837 -6.91338,15.93108 -8.76049,24.38256c-0.97083,4.44206 -0.21113,9.00776 -0.66221,13.51851c-0.62122,6.21221 -2.15405,12.83546 -3.51393,19.21093c-0.09962,2.48832 -0.53592,4.96242 -1.20177,7.41161c0.67575,3.55989 0.30399,7.38151 -0.71314,12.00184z" fill="#b3b3b3" stroke="#747474" stroke-width="3.5" stroke-linecap="butt"/><path d="M178.39586,117.6422h47.6667" fill="none" stroke="#ffe700" stroke-width="2" stroke-linecap="round"/><path d="M39.5,56c0,-2.76142 2.23858,-5 5,-5c2.76142,0 5,2.23858 5,5c0,2.76142 -2.23858,5 -5,5c-2.76142,0 -5,-2.23858 -5,-5z" fill="#ffe600" stroke="none" stroke-width="0.5" stroke-linecap="butt"/><path d="M106.5,105c0,-2.76142 2.23858,-5 5,-5c2.76142,0 5,2.23858 5,5c0,2.76142 -2.23858,5 -5,5c-2.76142,0 -5,-2.23858 -5,-5z" fill="#ffe600" stroke="none" stroke-width="0.5" stroke-linecap="butt"/><path d="M43.5,169c0,-2.76142 2.23858,-5 5,-5c2.76142,0 5,2.23858 5,5c0,2.76142 -2.23858,5 -5,5c-2.76142,0 -5,-2.23858 -5,-5z" fill="#ffe600" stroke="none" stroke-width="0.5" stroke-linecap="butt"/><path d="M416.50001,204c0,-2.76142 2.23858,-5 5,-5c2.76142,0 5,2.23858 5,5c0,2.76142 -2.23858,5 -5,5c-2.76142,0 -5,-2.23858 -5,-5z" fill="#ffe600" stroke="none" stroke-width="0.5" stroke-linecap="butt"/><path d="M220.50001,265c0,-2.76142 2.23858,-5 5,-5c2.76142,0 5,2.23858 5,5c0,2.76142 -2.23858,5 -5,5c-2.76142,0 -5,-2.23858 -5,-5z" fill="#ffe600" stroke="none" stroke-width="0.5" stroke-linecap="butt"/><path d="M56,103c0,-4.14214 3.35786,-7.5 7.5,-7.5c4.14214,0 7.5,3.35786 7.5,7.5c0,4.14214 -3.35786,7.5 -7.5,7.5c-4.14214,0 -7.5,-3.35786 -7.5,-7.5z" fill="#ffe600" stroke="none" stroke-width="0.5" stroke-linecap="butt"/><path d="M156,42c0,-4.14214 3.35786,-7.5 7.5,-7.5c4.14214,0 7.5,3.35786 7.5,7.5c0,4.14214 -3.35786,7.5 -7.5,7.5c-4.14214,0 -7.5,-3.35786 -7.5,-7.5z" fill="#ffe600" stroke="none" stroke-width="0.5" stroke-linecap="butt"/><path d="M281.00001,124c0,-4.14214 3.35786,-7.5 7.5,-7.5c4.14214,0 7.5,3.35786 7.5,7.5c0,4.14214 -3.35786,7.5 -7.5,7.5c-4.14214,0 -7.5,-3.35786 -7.5,-7.5z" fill="#ffe600" stroke="none" stroke-width="0.5" stroke-linecap="butt"/><path d="M228.00001,168c0,-4.14214 3.35786,-7.5 7.5,-7.5c4.14214,0 7.5,3.35786 7.5,7.5c0,4.14214 -3.35786,7.5 -7.5,7.5c-4.14214,0 -7.5,-3.35786 -7.5,-7.5z" fill="#ffe600" stroke="none" stroke-width="0.5" stroke-linecap="butt"/><path d="M355.00001,47c0,-4.14214 3.35786,-7.5 7.5,-7.5c4.14214,0 7.5,3.35786 7.5,7.5c0,4.14214 -3.35786,7.5 -7.5,7.5c-4.14214,0 -7.5,-3.35786 -7.5,-7.5z" fill="#ffe600" stroke="none" stroke-width="0.5" stroke-linecap="butt"/><path d="M416.75001,63c0,-2.07107 1.67893,-3.75 3.75,-3.75c2.07107,0 3.75,1.67893 3.75,3.75c0,2.07107 -1.67893,3.75 -3.75,3.75c-2.07107,0 -3.75,-1.67893 -3.75,-3.75z" fill="#ffe600" stroke="none" stroke-width="0.5" stroke-linecap="butt"/><path d="M436.75001,103c0,-2.07107 1.67893,-3.75 3.75,-3.75c2.07107,0 3.75,1.67893 3.75,3.75c0,2.07107 -1.67893,3.75 -3.75,3.75c-2.07107,0 -3.75,-1.67893 -3.75,-3.75z" fill="#ffe600" stroke="none" stroke-width="0.5" stroke-linecap="butt"/><path d="M432.75001,141c0,-2.07107 1.67893,-3.75 3.75,-3.75c2.07107,0 3.75,1.67893 3.75,3.75c0,2.07107 -1.67893,3.75 -3.75,3.75c-2.07107,0 -3.75,-1.67893 -3.75,-3.75z" fill="#ffe600" stroke="none" stroke-width="0.5" stroke-linecap="butt"/><path d="M418.75001,169c0,-2.07107 1.67893,-3.75 3.75,-3.75c2.07107,0 3.75,1.67893 3.75,3.75c0,2.07107 -1.67893,3.75 -3.75,3.75c-2.07107,0 -3.75,-1.67893 -3.75,-3.75z" fill="#ffe600" stroke="none" stroke-width="0.5" stroke-linecap="butt"/><path d="M13.75,308c0,-2.07107 1.67893,-3.75 3.75,-3.75c2.07107,0 3.75,1.67893 3.75,3.75c0,2.07107 -1.67893,3.75 -3.75,3.75c-2.07107,0 -3.75,-1.67893 -3.75,-3.75z" fill="#ffe600" stroke="none" stroke-width="0.5" stroke-linecap="butt"/><path d="M13.75,236c0,-2.07107 1.67893,-3.75 3.75,-3.75c2.07107,0 3.75,1.67893 3.75,3.75c0,2.07107 -1.67893,3.75 -3.75,3.75c-2.07107,0 -3.75,-1.67893 -3.75,-3.75z" fill="#ffe600" stroke="none" stroke-width="0.5" stroke-linecap="butt"/><path d="M25.75,152c0,-2.07107 1.67893,-3.75 3.75,-3.75c2.07107,0 3.75,1.67893 3.75,3.75c0,2.07107 -1.67893,3.75 -3.75,3.75c-2.07107,0 -3.75,-1.67893 -3.75,-3.75z" fill="#ffe600" stroke="none" stroke-width="0.5" stroke-linecap="butt"/><path d="M24.75,105c0,-2.07107 1.67893,-3.75 3.75,-3.75c2.07107,0 3.75,1.67893 3.75,3.75c0,2.07107 -1.67893,3.75 -3.75,3.75c-2.07107,0 -3.75,-1.67893 -3.75,-3.75z" fill="#ffe600" stroke="none" stroke-width="0.5" stroke-linecap="butt"/><path d="M443.75001,341c0,-4.83249 3.91751,-8.75 8.75,-8.75c4.83249,0 8.75,3.91751 8.75,8.75c0,4.83249 -3.91751,8.75 -8.75,8.75c-4.83249,0 -8.75,-3.91751 -8.75,-8.75z" fill="#ffe600" stroke="none" stroke-width="0.5" stroke-linecap="butt"/></g></g></svg>