<svg version="1.1" xmlns="http://www.w3.org/2000/svg" xmlns:xlink="http://www.w3.org/1999/xlink" width="466.81152" height="340.29961" viewBox="0,0,466.81152,340.29961"><g transform="translate(-6.59426,-9.8502)"><g data-paper-data="{&quot;isPaintingLayer&quot;:true}" fill-rule="nonzero" stroke-linejoin="miter" stroke-miterlimit="10" stroke-dasharray="" stroke-dashoffset="0" style="mix-blend-mode: normal"><path d="M131.01182,226.99774c1.5562,0.47655 5.05954,2.4854 6.99355,2.75822c3.23758,0.4567 6.08083,-0.16728 9.40091,0.39063c6.23383,1.04755 15.48846,4.86715 20.06918,8.64624c7.75758,6.4 10.76129,13.26098 12.00895,22.80688c0.64212,4.91291 -1.0012,11.94896 -1.0012,11.94896c0,0 -3.96302,9.80061 -2.40255,14.57823c0.64932,1.98799 2.43292,5.75308 3.64128,7.57251c1.69561,2.55309 6.09028,1.54633 6.8724,1.33947c3.7217,-0.98433 7.50655,-1.45023 11.22918,-2.32903c3.96113,-0.93509 6.78025,-3.07221 10.17651,-4.8289c4.4456,-2.29945 9.19564,-2.21945 13.39609,-5.02389c0.80167,-0.53524 3.02605,-2.97578 3.12849,-3.06424c1.11277,-0.96103 3.0454,-1.26768 4.26456,-1.79931c0.62778,-0.27375 6.73869,-4.76444 7.90189,-5.78391c9.8383,-8.62261 27.20026,-19.50743 39.29719,-23.21186c11.22388,-3.43707 33.38261,-1.39755 40.11425,-1.39755c6.30311,0 11.47198,2.54993 16.98875,5.00053c5.1809,2.30141 10.90273,3.77721 15.90879,6.28024c6.05782,3.02891 10.97532,7.95001 16.68569,11.25125c2.84449,1.64445 6.67647,1.7696 9.72,2.90667c8.12157,3.03424 15.25366,7.36147 23.6061,9.95886c2.05722,0.63975 5.83242,2.79664 8.15382,2.79777c0.62177,0.00031 1.2271,-0.5288 1.82824,-0.37c1.1689,0.30879 2.33164,0.74611 3.49742,1.16087c-0.00437,-0.61036 -0.00215,-1.22053 0.00873,-1.83042c0.03998,-2.24214 0.94966,-4.41083 1,-6.65277c0.11439,-5.095 -1.06522,-20.58993 0.39063,-29.25348c1.06814,-6.35639 6.29429,-12.81964 6.60938,-19.15069c0.86383,-17.35699 -0.15576,-37.16704 -0.15576,-54.54551c0,-2.45908 1.15232,-5.02818 1.15576,-7.368c0.01522,-10.35301 0.01522,-20.70607 0,-31.05909c-0.01337,-9.08825 -4.65071,-17.89385 -5.60937,-27.06421c-0.96905,-9.26962 -0.15276,-18.64057 -0.39062,-27.95767c-0.00683,-0.26749 -0.40494,-0.35195 -0.62685,-0.50147c-3.01821,-2.03373 -6.39828,-3.27493 -9.17275,-5.67108c-1.87613,-1.62029 -3.46289,-3.81341 -4.68689,-5.77603c-0.78265,-1.25495 -2.94878,-0.23685 -4.41976,-0.39062c-2.16298,-0.22612 -4.92518,-1.11734 -6.99944,-1.89229c-15.55207,-5.81029 -26.93457,-5.45166 -44.09431,-5.71708c-3.52895,-0.05459 -6.68144,-1.79857 -10.05694,-2c-3.28264,-0.19589 -6.57784,-0.07662 -9.86542,0c-5.63148,0.13125 -15.78562,2.30333 -20.43822,4.7096c-0.69552,0.35971 1.10415,1.19865 1.84386,1.45553c0.99685,0.34618 2.04265,0.554 3.01673,0.95987c2.69277,1.12198 6.93124,5.80837 8.59375,7.42188c2.38288,2.31265 5.69052,5.32587 8,8c2.06741,2.39384 1.46467,6.95494 3.45261,9.64415c3.76961,5.09939 9.47691,8.60552 12.32864,14.30898c2.67264,5.34527 5.19092,11.92064 8.57732,16.77293c1.70515,2.44327 4.00803,4.56419 5.42268,7.22707c1.04743,1.97163 1.21627,4.40094 2.05476,6.45783c8.29406,20.34593 7.26362,44.30816 -5.56993,62.44706c-3.51374,4.96631 -10.70812,15.32356 -15.85983,17.47011c-4.89238,2.0385 -10.04647,2.57225 -14.77424,4.71297c-10.23177,4.63291 -20.30779,8.29458 -31.72576,8.41203c-11.3556,0.11681 -22.71249,-0.04484 -34.06861,0c-3.54179,0.01398 -8.076,0.4155 -11.56052,-0.69321c-6.17595,-1.96508 -9.68595,-5.98942 -14.50342,-9.99721c-12.45217,-10.35932 -20.13932,-24.30795 -26.74246,-38.80958c-2.75068,-6.04096 -2.38758,-13.97811 -5.79585,-19.64409c-5.2936,-8.80018 -10.56772,-18.93111 -12.93852,-28.94966c-0.73839,-3.12029 -0.23802,-5.89571 -0.39062,-9.1365c-0.17771,-3.77403 -2.98664,-7.89752 -3.69772,-11.74693c-0.46476,-2.51596 -4.00323,-4.25298 -5.17728,-6.52281c-2.55943,-4.94822 -1.92777,-10.5063 -6.33962,-14.35928c-3.85149,-3.36361 -12.32218,-4.19178 -16.56347,-5.73249c-26.83548,-9.74838 -57.10834,-2.40534 -85.64218,-1.40823c-1.20146,0.04198 -1.50451,1.88833 -2.09628,2.93479c-1.68984,2.98825 -4.25661,8.96647 -5.22869,12.54071c-0.48765,1.79305 0.70228,3.66682 0.74523,5.5245c0.11498,4.97339 0.57697,13.1482 -0.39062,18.90625c-0.39764,2.3663 -2.12174,5.83322 -1.59623,7.98044c1.49146,6.09419 4.14263,12.13869 4.14263,18.51086c0,3.97702 0.12978,8.48484 -0.54639,12.5087c-0.68769,4.09239 -2.7807,6.46624 -1.62059,10.56219c2.11819,7.47863 1.72209,12.9172 2.01122,20.78015c0.03541,0.96298 0.40698,2.32672 1.32739,2.58473c0.14115,2.18718 0.23267,4.39828 1.56019,6.01379c2.27624,2.77005 6.21328,3.6159 9.5106,5.02377c0.30658,0.1309 0.45749,-0.7337 0.77499,-0.63208c0.27742,0.08879 -0.27039,0.72435 -0.02027,0.87363c2.39651,1.4303 4.90141,2.73903 7.54958,3.62007c0.34267,0.114 0.32223,-1.16974 0.57895,-0.91575c0.52767,0.52208 0.01852,1.73796 0.64865,2.13032c2.26936,1.41308 4.89715,2.19101 7.46811,2.92381c0.74001,0.21093 1.55956,-0.33196 2.30429,-0.13838c2.88554,0.75001 5.11902,3.23262 8,4c1.70852,0.45508 3.53023,0.32039 5.29753,0.26751c0.14696,-0.00439 -0.0247,-0.5034 0.10216,-0.42908c0.69913,0.40963 1.10702,1.25623 1.85231,1.57423c2.11587,0.90281 4.62978,0.74143 6.65202,1.83801c1.14627,0.62158 2.28869,1.25221 3.43584,1.87366c4.0613,-0.11956 8.13079,0.36256 11.46946,1.38496zM470.50003,242.75596c0.11914,17.65822 0.15576,36.94384 0.15576,54.60246c0,14.61212 -11.20906,28.66023 -23.65576,35.27254c-1.90109,1.00995 -4.32146,0.96258 -6.20421,1.97407c-4.8043,2.58108 -9.63331,5.14029 -15.29579,5.15093c-6.33332,0.01189 -12.66679,0.03897 -19,0c-1.1698,-0.0072 -2.35836,0.61174 -3.49385,0.33046c-4.77805,-1.18358 -9.7994,-3.95847 -14.38192,-5.77999c-5.70405,-2.26732 -12.10892,-2.91782 -17.62423,-5.67547c-4.18014,-2.09007 -8.56238,-4.61375 -12.88275,-6.41723c-5.62934,-2.3499 -12.52205,-2.80485 -17.8846,-5.92307c-3.48373,-2.02571 -5.78187,-5.6002 -9.04523,-7.74014c-3.15095,-2.06622 -6.94804,-2.19865 -10.18741,-3.91956c-2.71231,-1.44091 -6.1012,-4.82306 -9.4017,-4.875c-7.39795,-0.11643 -14.81558,-0.51368 -22.1966,0c-2.79437,0.19448 -5.9667,3.7835 -8.41374,5.11124c-7.48827,4.06305 -13.92734,9.52904 -20.51254,14.8519c-4.35323,3.51874 -9.89805,5.89039 -14.66284,8.83142c-1.03324,0.63776 -2.76901,2.54066 -3.81259,3.08044c-3.55215,1.83732 -7.38999,2.05426 -10.97241,3.63479c-5.75519,2.53915 -11.49644,5.5348 -17.6219,7.2073c-4.61161,1.25916 -9.3906,1.72186 -13.96721,2.98906c-10.57916,2.92924 -22.77697,4.32055 -33.45028,1.05208c-10.06265,-3.08147 -26.99087,-13.80885 -28.81773,-25.43971c-0.12344,-0.78587 -1.18,-1.11194 -1.54548,-1.81852c-1.34127,-2.59312 -2.38726,-5.73124 -2.73437,-8.59375c-1.11105,-9.16231 -0.03751,-18.66925 -0.39062,-27.7991c-0.04515,-1.16746 -0.04832,-2.86548 -1.12476,-3.31962c-1.80562,-0.76177 -3.8904,-0.55425 -5.78093,-1.07044c-2.42405,-0.66186 -4.63357,-2.06401 -7.04143,-2.68917c-1.70476,-0.01006 -3.37408,-0.15219 -4.95912,-0.41855c-8.45672,-1.42108 -16.59837,-5.57131 -24.77026,-7.56326c-5.17892,-1.2624 -10.95324,0.08025 -16.22974,-1.43674c-6.69115,-1.9237 -19.80455,-5.61592 -25.3611,-9.07468c-1.92624,-1.19902 -4.21973,-3.63052 -6.29551,-5.21315c-0.31594,-0.14334 -0.62841,-0.29217 -0.93714,-0.44654c-6.29581,-3.14791 -13.03429,-7.53128 -17.46314,-12.89957c-2.78693,-3.3781 -4.95041,-9.92835 -5.64624,-14.06918c-0.4387,-2.61066 0.16284,-6.12042 -0.39062,-8.64592c-0.31944,-1.45764 -1.81249,-3.16677 -2.30679,-4.63121c-2.40277,-7.11855 -1.43508,-15.97314 -1.69321,-23.04546c-0.18899,-5.17804 -2.8517,-10.27586 -3,-15.58366c-0.10212,-3.65515 -0.21932,-7.2765 0.39063,-10.90625c0.23525,-1.39993 2.49478,-6.76682 2.30584,-7.38839c-2.56979,-8.45432 -3.85224,-15.42924 -3.85224,-24.30782c0,-7.10041 2.58208,-13.45122 2.15577,-20.74477c-0.13085,-2.23869 -0.93703,-4.41116 -1,-6.65278c-0.10526,-3.74727 0.47755,-7.51346 0.12456,-11.24555c-0.072,-0.76123 -0.63887,-1.50611 -0.45502,-2.2483c1.11524,-4.50217 3.69722,-8.00037 5.33862,-12.02967c7.48407,-18.37195 21.30504,-42.4312 43.99185,-42.47647c32.96894,-0.0658 66.19543,-3.72734 98.90625,0.39063c5.25897,0.66205 9.95468,3.53264 15.03224,4.90322c15.68033,4.23259 25.13874,8.67286 36.73918,21.02848c5.65124,6.01913 10.47002,15.51427 12.77644,23.06194c0.92756,3.03541 3.96445,5.3742 5.42088,8.11573c2.40229,4.52195 4.26496,14.45079 5.88322,19.98821c1.0302,3.52518 0.34963,7.51233 1.24178,10.84227c1.04701,3.90791 3.09699,8.2824 5.21975,11.65439c0.47508,0.75466 3.1463,3.53116 3.65525,4.51513c2.05397,3.97101 2.42946,8.14863 3.70558,12.36038c1.62633,5.36757 2.20236,12.03067 5.04647,16.89269c1.08473,1.85435 3.5618,3.23871 4.7258,5.20681c1.56804,2.65126 2.56373,4.84559 3.85004,7.58681c0.10276,0.21898 0.32479,0.44911 0.56663,0.45331c8.52462,0.14781 17.05362,0.17614 25.5777,0c7.14008,-0.14754 12.58273,-3.40398 19.14099,-5.75822c1.82799,-0.6562 6.42517,-1.51335 6.51179,-4.31117c0.13227,-4.27244 0.05739,-8.54936 0,-12.82346c-0.02364,-1.76023 -2.14948,-3.05538 -2.96314,-4.13172c-2.52587,-3.34134 -8.02679,-14.13439 -9.76035,-18.14209c-1.31159,-3.03218 -5.0408,-5.31187 -7.23965,-7.85791c-3.17124,-3.67196 -4.90771,-9.44304 -7.72036,-13.44071c-2.00919,-2.85571 -9.08186,-6.26331 -11.99417,-8.85704c-5.43628,-4.84158 -13.00145,-13.7859 -16.19733,-20.17767c-2.19342,-4.38684 -3.16208,-9.69397 -3.125,-14.51086c0.11047,-14.35152 -1.34246,-20.28922 2.46531,-32.25648c1.45208,-4.56367 7.04603,-8.26254 10.35161,-11.42681c3.55146,-3.39964 8.75716,-6.33718 13.71917,-6.42786c2.00306,-0.03661 10.65242,-3.66692 13.95212,-4.63621c8.71215,-2.55919 19.29119,-5.14226 28.51179,-5.24178c5.53407,-0.05973 11.06806,-0.15577 16.60246,-0.15577c3.76071,0 7.35793,2.03635 10.89966,2.15577c6.82875,0.23024 13.66613,-0.10936 20.49788,0c8.65105,0.13847 26.52544,4.66631 34.54217,7.82024c4.44925,1.75041 9.93088,0.79129 14.95783,3.30476c6.63155,3.31577 12.43871,7.57946 18.2996,12.09898c1.87145,1.44313 3.51513,3.93295 5.67931,5.06463c5.85005,3.05907 11.23203,6.58179 15.48422,11.73597c10.07501,12.21214 5.83157,38.70846 6.03686,50.32266c0.02459,1.39132 0.59778,2.72384 0.74547,4.10752c0.34582,3.23983 2.57905,5.82899 3.56132,8.91612c0.6026,1.89387 1.84897,16.13663 1.84897,19.02667c0,11.68997 0,24.51495 0,36.20492c0,2.45878 -1.15381,5.02883 -1.15576,7.368c-0.01497,17.95599 0.15576,37.67601 0.15576,55.632c0,1.31239 -0.14609,2.59993 -0.39654,3.86668c0.15046,1.13884 0.23258,2.31629 0.24077,3.53086z" fill="#999999" stroke="#737373" stroke-width="3.5" stroke-linecap="butt"/><path d="M422.39587,140.64221h47.6667" fill="none" stroke="#ffe700" stroke-width="2" stroke-linecap="round"/></g></g></svg>