<svg version="1.1" xmlns="http://www.w3.org/2000/svg" xmlns:xlink="http://www.w3.org/1999/xlink" width="368.58758" height="336.8083" viewBox="0,0,368.58758,336.8083"><g transform="translate(-61.7744,-8.23173)"><g data-paper-data="{&quot;isPaintingLayer&quot;:true}" fill-rule="nonzero" stroke-linejoin="miter" stroke-miterlimit="10" stroke-dasharray="" stroke-dashoffset="0" style="mix-blend-mode: normal"><path d="M409.27604,321.93385c-2.52288,2.33982 -6.15453,4.15029 -8.78097,6.08781c-1.11643,0.82358 -2.11186,2.41126 -3.49505,2.98759c-2.96809,1.2367 -5.88505,2.68233 -9.00614,3.45546c-0.7422,0.18385 -1.48783,-0.37539 -2.2483,-0.45501c-3.4865,-0.36503 -9.5246,0.86338 -13.15076,1.62027c-8.77149,1.83087 -17.15793,2.71761 -26.03785,3.50429c-1.95824,0.17348 -4.1877,1.40416 -6.15069,1.60938c-9.63134,1.00686 -23.26726,1.38035 -32.90625,1.39063c-25.6765,0.02736 -51.35303,-0.01531 -77.02954,0c-2.33892,0.00139 -4.90934,1.15576 -7.368,1.15576c-25.05817,0 -52.54437,-0.09435 -77.60246,-0.15576c-3.86201,-0.00947 -9.06177,-0.55814 -12.62913,-1.6932c-3.87051,-1.23153 -6.35728,-3.57842 -9.68346,-5.51224c-7.9618,-4.62895 -18.92469,-9.35873 -26.32674,-14.63097c-2.0988,-1.49491 -4.06136,-4.26204 -6.18096,-5.62853c-2.81979,-1.81791 -7.54689,-5.47177 -9.05472,-9.03506c-2.13647,-5.04888 -5.25911,-9.68462 -6.88322,-14.98821c-0.35888,-1.17194 -0.54837,-2.58136 -0.71577,-4.05573c-2.29118,-2.09746 -4.09791,-4.64722 -5.45113,-7.43431c-1.96003,-3.56708 -3.07488,-7.66422 -3.07488,-12.02175c-0.15607,-2.51796 -0.24464,-5.03807 -0.28758,-7.55961c-0.52224,-2.57884 -1.02781,-5.27568 -1.68804,-8.19657c-0.57431,-2.54077 -2.05516,-4.90759 -2.15923,-7.51038c-0.23888,-5.97434 1.39094,-11.37992 4.39765,-15.77931c0.74586,-7.63478 2.87564,-14.51581 3.7372,-22.42962c0.45514,-4.18067 -0.21406,-8.30518 0.07364,-12.44192c0.88935,-12.78786 1.3656,-25.46843 3.11942,-38.18346c1.14793,-8.3224 4.619,-18.92406 4.80695,-27.37462c0.74006,-33.27507 -9.00965,-79.20327 21.07276,-103.95262c2.76053,-2.27114 5.15916,-4.94098 8.43927,-6.68313c13.33798,-7.08414 39.7785,-10.80961 53.39366,-5.60584c8.50032,3.24886 15.16426,9.05153 22.22414,14.49158c6.05486,4.66562 12.8152,9.43505 19.08484,13.88651c2.29873,1.63211 5.94811,3.64362 7.87218,4.78709c2.44697,1.45422 6.16082,0.87504 8.41316,2.67691c2.35921,1.88737 5.74457,5.35262 8.46595,7.3115c9.03265,6.50179 25.74065,13.28919 34.93974,16.84641c7.19883,2.78374 12.48921,9.64071 20.59643,9.71708c26.1648,0.24648 52.33198,-0.05751 78.49788,0c3.2946,0.00724 6.8468,0.82442 10.01291,1.1766c8.35352,0.92919 23.77149,0.31823 32.48709,4.9484c2.40917,1.27987 4.36234,3.74887 6.75335,5.03198c3.09181,1.65918 6.69505,4.96502 8.70979,7.8676c7.67343,11.05494 11.61542,23.49312 9.64624,36.88167c-0.52749,3.58642 -3.31273,7.10532 -3.60937,10.55853c-0.76393,8.89282 -0.01459,17.73615 -4.125,26.03522c-5.74313,11.5956 -14.48419,23.55261 -26.96931,28.21708c-5.03369,1.8806 -14.01065,4.37076 -18.99944,4.89229c-2.60548,0.27238 -5.27512,-0.0954 -7.84931,0.39063c-11.32741,2.13871 -22.16839,5.96323 -34.05694,6c-23.33322,0.07217 -46.66678,0.07217 -70,0c-7.21753,-0.02232 -14.12114,-3.55622 -21.05694,-4c-3.01254,-0.19275 -6.03743,-0.01241 -9.0561,0c-0.03195,0.00013 0.06572,0.01443 0.08847,0.03686c0.9374,0.92453 2.00065,1.71671 2.9256,2.6537c2.59681,2.63061 5.88948,3.49733 8.96648,5.50818c6.8033,4.44604 13.33978,3.89814 21.03875,5.19188c2.80894,0.47202 5.88576,1.55417 8.74652,1.60938c13.71637,0.26469 27.58583,0.01629 41.27816,-1c24.72497,-1.83517 48.5424,-11.55955 73.82733,-1.9272c12.87334,4.90413 24.46065,15.51848 28.49529,28.86381c1.69253,5.59836 0.91591,9.72134 1.74644,15.41488c1.17694,8.06836 4.94986,16.97087 2.3068,25.27763c-0.7204,2.2641 -2.74628,4.79774 -3.36483,6.95123c-0.22984,0.8002 -0.45284,1.58869 -0.67255,2.36419c-0.30635,7.95444 -3.64879,16.36199 -8.49339,20.85506zM118.80682,260.50512c1.52447,4.15982 2.27282,8.45294 3.41029,12.72343c0.41498,1.55797 1.09346,5.4861 3.16625,6.43187c3.85006,1.7567 7.57963,4.11174 11.29701,6.11315c3.55513,1.91405 8.72404,7.34137 12.57108,7.36068c23.75908,0.11927 47.51876,0.01531 71.27813,0c2.33897,-0.00151 4.90932,-1.15576 7.368,-1.15576c25.43538,0 53.336,0.41599 78.77005,0.15576c16.74747,-0.17135 33.481,-2.20277 49.92616,-4.60937c4.13366,-0.60493 8.22933,-1.39279 12.37686,-1.9907c0.75052,-3.78645 1.96891,-6.53305 1.08433,-11.1617c-0.10393,-0.54382 -0.40402,-5.22715 -0.55494,-5.23823c-16.05215,-1.17846 -32.0752,2.57085 -47.89003,4.65985c-5.86449,0.77465 -12.20529,1.31019 -18.10997,1.34015c-20.26301,0.10283 -35.36598,-0.06905 -54.04494,-2.99598c-8.16586,-1.27956 -17.94321,-2.24358 -25.45506,-6.12902c-1.44928,-0.74963 -3.75956,-3.35257 -4.98698,-4.04131c-3.89334,-2.18466 -7.63031,-3.30698 -11.38052,-6.03243c-2.42152,-1.75983 -4.40597,-4.81061 -6.81084,-6.34664c-3.77972,-2.41417 -7.16108,-4.18818 -10.4154,-8.00149c-1.5234,-1.78507 -2.32198,-5.69931 -3.31169,-8.01528c-0.60676,-1.41984 -2.57509,-2.27138 -3.5577,-3.46242c-1.32661,-1.60801 -2.24353,-4.54227 -3.02871,-6.45189c-3.59474,-8.74277 -6.32139,-16.23334 -4.57637,-25.84855c3.33596,-18.38143 13.49655,-22.00724 28.89287,-30.99092c4.72401,-2.75644 8.06141,-5.33431 13.76909,-6.29343c7.81303,-1.31292 22.4949,-0.45984 26.90625,-0.39062c6.68711,0.10493 12.58565,3.88241 19.25425,4c21.82711,0.3849 43.66604,0.46921 65.4915,0c0.27199,-0.00585 16.79036,-2.34699 17.993,-2.59856c4.1952,-0.87758 6.30734,-2.58767 10.355,-3.01081c3.94398,-0.4123 10.44482,0.314 14.01395,-2.08675c3.91363,-2.63248 1.54815,-9.50592 1.8923,-13.30387c0.17315,-1.91087 0.51306,-3.80914 0.95389,-5.67652c0.26237,-1.11144 1.96236,-3.04798 0.85278,-3.31813c-3.67614,-0.89503 -7.53122,-0.73626 -11.29427,-1.12943c-33.59585,-3.51016 -78.49713,8.39024 -112.69275,-7.51525c-3.29589,-1.53303 -7.92228,-5.86486 -10.86818,-7.05386c-11.9093,-4.80676 -25.36034,-10.37796 -36.37336,-17.21528c-4.1614,-2.58356 -9.02972,-6.30302 -13.41835,-8.90181c-5.92377,-3.50784 -12.45372,-6.17931 -18.15977,-10.18973c-7.17377,-5.042 -14.22421,-10.37889 -21.33656,-15.5192c-2.44373,-1.76616 -5.84732,-6.99454 -9.18795,-6.4808c-3.6384,0.55953 -8.96448,0.72323 -12.15521,2.78826c-1.83951,1.19053 -3.31951,6.07053 -3.32028,8.28938c-0.00689,19.97412 0.0785,39.94839 0,59.92236c-0.03976,10.11668 -3.52263,22.07039 -5.33939,32.27156c-2.6217,14.7209 -2.40976,30.89881 -2.66061,45.72844c-0.15031,8.88604 -3.83282,17.31554 -4,26.24689c-0.11888,6.35088 0.13561,12.71054 0.23251,19.06479c1.08758,2.01685 2.3255,4.01598 3.07429,6.05919z" fill="#999999" stroke="#737373" stroke-width="3.5" stroke-linecap="butt"/><path d="M75.39586,146.51632h48.6667" fill="none" stroke="#ffe700" stroke-width="2" stroke-linecap="round"/></g></g></svg>