<svg version="1.1" xmlns="http://www.w3.org/2000/svg" xmlns:xlink="http://www.w3.org/1999/xlink" width="465.54157" height="364.05747" viewBox="0,0,465.54157,364.05747"><g transform="translate(-7.20841,2.22611)"><g data-paper-data="{&quot;isPaintingLayer&quot;:true}" fill-rule="nonzero" stroke-linejoin="miter" stroke-miterlimit="10" stroke-dasharray="" stroke-dashoffset="0" style="mix-blend-mode: normal"><path d="M120.48705,315.16792c0.08726,-0.02835 0.17491,-0.0572 0.26293,-0.08654c1.16435,-0.38812 3.99844,-4.60636 4.8401,-5.4099c1.9097,-1.82321 3.29388,-4.54023 4.9099,-6.5901c3.4311,-4.35224 8.84732,-9.21896 12.0901,-12.4099c5.60746,-5.51782 12.30301,-8.92046 18.9586,-12.9586c16.14342,-9.79469 30.13247,-21.75949 50.06643,-14.47687c17.0215,6.21859 23.02652,15.22737 34.61551,29.25621c2.14728,2.59935 4.77302,7.28126 7.44475,8.94193c0.39745,0.24705 6.26609,0.52886 6.86224,0.14035c1.12704,-0.73449 1.72286,-7.04772 1.72286,-7.04772c0,0 4.10256,-7.00642 7.51838,-12.42615c3.45543,-5.48257 6.59308,-7.9622 10.81728,-12.48078c11.1846,-11.96404 20.12864,-18.71727 37.41948,-16.18691c12.7921,1.87201 22.43341,6.86065 30.63161,16.97305c5.17906,6.38832 7.47578,14.71698 12.28549,21.27249c0.61499,0.83822 2.70901,5.41028 5.07755,6.32437c4.79519,1.85062 8.65195,1.16183 14.35117,1.07853c3.34136,-0.04883 5.76543,-8.05163 6.59542,-9.72523c0.79355,-1.60012 0.58915,-4.66881 1.16075,-6.53538c2.02103,-6.59976 4.78488,-12.47012 5.8824,-19.46733c1.15577,-7.36854 5.0484,-17.55879 0.74754,-23.7114c-0.69769,-0.99808 -4.06903,-2.62651 -4.42293,-2.91343c-4.19217,-3.39863 -8.1519,-7.21465 -11.73451,-11.23733c-8.75263,-9.82774 -10.15031,-30.66049 -6.4725,-42.67051c5.15887,-16.84647 23.97945,-23.99557 37.34263,-32.54612c5.02766,-3.217 6.07314,-9.5423 11.84534,-12.67812c2.27402,-7.46483 4.28798,-15.11965 4.69444,-22.87731c0.32035,-6.11427 0.29948,-12.25264 0,-18.36797c-0.39454,-8.05648 -6.25184,-20.65631 -8.1415,-28.66101c-0.66938,-2.83552 -2.13108,-9.52431 -4.56829,-9.60886c-11.05883,-0.38367 -27.63466,4.08398 -39.12148,6.62359c-6.62161,1.46396 -13.82582,0.40563 -20.5175,1.37641c-1.3388,0.19422 -8.9038,1.67941 -10.13685,2.44226c-2.79466,1.72895 -5.87081,3.9612 -9.04817,4.93386c-4.54355,1.39088 -9.58041,3.07113 -13.4557,6.15851c-2.10744,1.67896 -3.58512,6.22909 -4.95454,8.51136c-5.56413,9.27315 -0.10217,21.62882 -0.05597,32.4431c0.0101,2.36443 1.14019,4.82041 1.14019,7.2687c0,4.50544 0.11479,9.0158 0.16038,13.52385c0.06162,0.06983 0.1229,0.14002 0.18381,0.21055c2.5724,2.97857 3.43993,8.98013 3.51563,13.00781c0.08384,4.46104 0.67176,14.42593 -0.35156,20.51563c-1.46729,8.73169 -7.68965,16.64125 -13.28161,23.06226c-13.22223,15.18251 -41.4603,16.13354 -59.86682,15.92212c-2.49274,-0.02863 -7.04341,-0.23832 -10.8907,-0.58263c-1.64148,0.38114 -3.35186,0.58263 -5.1093,0.58263c-1.31888,0 -2.61125,-0.11348 -3.86789,-0.3312c-4.34094,-0.0718 -8.74495,-0.5091 -12.90199,-0.6688c-3.64183,-0.13991 -7.16729,0.17211 -10.74575,-0.35156c-2.27282,-0.33261 -4.72069,-1.63177 -6.91473,-1.64844c-4.53183,-0.03443 -8.6746,-0.85514 -13.16867,-1c-5.31733,-0.17139 -16.65698,0.86836 -23.9166,-0.35156c-5.29365,-0.88955 -8.24814,-3.38116 -12.66753,-5.82574c-2.83942,-1.57062 -6.20312,-2.18887 -8.99224,-4.17547c-6.63288,-4.72438 -11.41104,-11.98008 -14.70073,-19.18102c-4.72866,-10.35078 -4.74298,-28.15729 -1.50628,-38.72683c3.81809,-12.46809 17.87826,-31.02978 28.20701,-38.38662c3.22497,-2.29704 7.33943,-3.89565 10.83622,-5.75288c10.17891,-5.40628 24.70553,-8.9324 32.42926,-17.00979c4.93901,-5.16515 8.9106,-6.45156 5.30629,-15.38023c-2.76391,-6.84681 -6.00932,-14.21349 -10.8709,-19.85918c-0.38894,-0.45167 -1.15738,-0.34776 -1.75343,-0.35069c-23.25344,-0.11403 -46.50748,-0.04656 -69.76115,0c-2.36256,0.00473 -4.82151,1.14019 -7.2687,1.14019c-12.97994,0 -26.23823,2.05489 -39.08186,4.45237c-0.91173,0.17019 -3.81784,1.34201 -4.45352,1.83912c-1.37161,1.07261 -1.75505,6.97355 -1.98045,8.80451c-1.04711,8.50578 -3.39919,16.69755 -3.72638,25.26381c-0.14466,3.78726 -1.91683,7.62007 -2,11.25196c-0.1736,7.58069 0.10149,15.16604 0,22.74804c-0.02903,2.16902 -0.89044,4.26391 -1,6.43035c-0.18738,3.7054 0.49054,7.43802 0.12137,11.12974c-0.17498,1.74984 -2.18931,4.43982 -1.70653,5.93576c0.56878,1.76244 2.8498,3.07169 3.98359,4.3845c4.32934,5.01293 10.13575,7.46505 15.60158,11.11964c7.5315,5.03576 16.45636,8.44322 22.9785,14.78908c3.23617,3.14871 6.04344,8.36055 8.24264,11.73017c5.52871,8.4711 6.73021,19.87505 8.39349,29.33426c3.76515,21.41273 -3.40396,40.48001 -19.01579,54.72775c-7.84081,7.15572 -14.31577,8.9898 -19.90808,19.99774c-0.25056,0.4932 -0.26932,1.29798 -0.14675,2.28149c1.38044,1.3117 2.69717,2.6922 3.94037,4.1317c3.05985,3.54298 3.41636,12.8515 8.89597,16.97542c1.39222,1.04778 6.34794,0.66763 7.63528,0.88395c7.67243,1.28929 15.82598,-0.73371 23.47023,0.66965c0.3357,0.01447 0.66949,0.0363 1.00121,0.06533zM440.64842,234.06577c1.00551,9.61842 -0.86473,18.69143 -1.64844,28.53625c-0.54403,6.83397 -1.17376,13.39594 -3.15463,20.0945c-1.20931,4.08943 -3.11791,8.20663 -3.9914,12.34509c-2.69383,12.76303 -9.27238,29.74104 -19.7761,38.4066c-2.80077,2.31064 -6.54073,3.15939 -9.74269,4.87135c-2.65483,1.41943 -4.62498,3.16242 -7.45453,4.06273c-18.73623,5.96153 -42.70219,2.44368 -58.43021,-9.56297c-5.01436,-3.82793 -7.45108,-8.67776 -11.2534,-13.72108c-2.28692,-3.03332 -4.73669,-5.1537 -6.37781,-8.65367c-0.98417,-2.09891 -1.29052,-2.58273 -2.25358,-4.69141c-0.65512,-1.43443 -1.01267,-6.8022 -2.12516,-5.68455c-7.13019,7.16321 -6.15217,7.83451 -10.25299,15.76277c-2.03511,3.93455 -6.14029,7.24487 -8.819,10.7013c-2.62609,3.38854 -4.41201,6.73617 -7.29895,10.10433c-8.70315,10.15386 -21.16048,13.86265 -34.12964,12.56573c-2.4688,-0.24688 -5.00536,-1.45527 -7.37867,-2.12137c-3.85972,-1.08327 -7.57073,-0.94225 -11.31124,-2.8125c-6.72171,-3.36085 -14.99636,-10.50906 -19.61682,-16.10962c-2.38135,-2.88648 -6.27086,-8.74675 -8.84724,-13.95811c-1.43197,-2.89652 -1.45079,-5.7605 -2.98842,-7.4005c-1.61053,-1.71776 -4.01167,0.96424 -4.01167,0.96424c0,0 -2.73174,1.15782 -4.14137,1.61391c-4.32169,1.3983 -9.61054,6.14266 -13.56832,8.49618c-7.40303,4.40226 -10.04734,6.79533 -16.53557,13.48563c-1.57442,1.62346 -1.80594,4.1407 -3.17376,5.79866c-1.82748,2.21513 -4.86868,4.5014 -6.8024,6.50288c-9.26357,9.58819 -13.14334,16.00155 -27.62463,16.41924c-2.07834,0.05995 -4.71735,0.08605 -7.55682,-0.07767c-0.59046,0.04892 -1.1874,0.07505 -1.78992,0.07748c-8.0248,0.90643 -16.64775,-0.03615 -22.28329,0.00019c-7.40917,0.04777 -21.81906,-1.58454 -28.05978,-4.8125c-8.59444,-4.4454 -15.57792,-12.78973 -21.61682,-20.10962c-2.25947,-2.73876 -2.20223,-6.96641 -4.11665,-9.74189c-0.48577,-0.49027 -0.94915,-1.00277 -1.38846,-1.53583c-2.2232,-2.69765 -3.83023,-5.92208 -4.60572,-9.4579c-0.04741,-0.06289 -0.0947,-0.12574 -0.14186,-0.18855c-6.54302,-8.713 -6.52067,-14.82882 -6.52067,-25.39592c0,-15.70448 13.97246,-33.98025 24.73029,-44.16769c5.26519,-4.98603 10.91276,-8.35815 15.24789,-14.07761c2.16656,-2.85841 -1.7926,-19.43498 -2.04672,-20.70119c-0.54145,-2.69786 -2.79913,-3.32928 -4.77203,-4.59016c-4.88177,-3.11995 -9.84056,-6.00727 -14.85841,-8.82102c-12.25816,-6.87373 -21.64187,-13.56676 -29.32284,-24.9126c-2.02287,-2.98806 -5.36172,-5.52089 -7.02549,-8.73751c-6.89866,-13.33742 0.83147,-31.6802 1.1875,-45.68035c0.18908,-7.43503 -0.14019,-14.87443 -0.14019,-22.31186c0,-3.59821 2.09801,-7.10942 2.14019,-10.48573c0.12359,-9.89283 2.17898,-18.92561 4,-28.54194c1.57655,-8.32534 0.82899,-20.77263 6.63318,-27.80801c2.04851,-2.48305 4.98544,-4.76512 7.3602,-6.7353c2.23119,-1.85107 2.97661,-3.34251 5.45707,-4.92475c5.52836,-3.52644 11.89339,-7.66866 18.08334,-9.63819c5.69967,-1.81353 15.20175,-1.43411 21.73827,-2.62388c36.3977,-6.62506 73.08762,-4.10725 110.22794,-4c6.91091,0.01996 14.63961,1.6104 21.06231,4.37539c7.58612,3.26585 12.27004,10.12697 16.43585,16.80939c14.37697,23.06225 27.37514,49.72374 12.62646,76.37752c-2.91222,5.26295 -7.42493,8.98448 -11.63932,13.27221c-3.35718,3.41561 -5.97887,7.46888 -9.90741,10.53231c-2.94525,2.29668 -10.4988,4.39157 -12.77113,5.44372c-3.35587,1.55385 -6.22453,3.8667 -9.46759,5.58958c-4.88377,2.59451 -10.09862,4.39675 -15,7c-1.33124,0.70706 -3.17953,0.67631 -4.12691,1.84874c-1.67559,2.07362 -3.37014,4.32655 -5.06502,6.42653c-1.20913,1.49813 -4.51655,4.9537 -4.64723,6.79106c-0.19649,2.76268 -0.02364,5.53942 0,8.30898c0.00476,0.55783 1.05343,0.37139 1.56231,0.59996c1.03443,0.46462 1.85585,1.5802 2.98897,1.62461c5.50818,0.21587 11.03793,-0.232 16.53647,0.15877c5.63073,0.40016 11.31247,0.60575 16.92788,1.19279c1.84744,0.19313 4.38212,1.61961 6.25425,1.64844c5.91236,0.09103 12.99017,0.06794 19.07534,0.72938c10.55647,-2.01295 23.81055,0.48197 32.3849,0.27062c2.57652,-0.06351 9.82406,-0.75827 12.88156,-2.96876c-1.66724,-3.14207 -2.61169,-6.72636 -2.61169,-10.53124c-0.59664,-8.3083 0.04552,-16.65952 0,-24.98909c-0.01293,-2.3654 -1.14019,-4.81984 -1.14019,-7.2687c0,-12.2428 -2.37557,-36.48154 2.76407,-51.70843c2.2152,-6.56283 7.92195,-14.25744 11.63819,-20.08334c4.96124,-7.77768 14.69554,-11.54924 22.40274,-15.68862c12.7938,-6.87129 24.89361,-11.80558 39.31956,-14.41027c2.94473,-0.53169 5.95539,-0.13973 8.9166,-0.35156c8.54101,-0.61098 18.12203,-1.99621 26.55477,-3.7078c17.35788,-3.52311 25.07894,-6.80082 44.55988,-3.94064c6.48247,0.95175 11.74652,4.94961 15.67833,9.91606c3.24892,4.10386 7.46307,7.47506 9.93066,12.17008c6.81118,12.95946 7.44621,17.77173 11.77822,29.90374c2.80232,7.84803 6.53829,19.79076 6.59717,28.15857c0.05395,7.66648 0.05698,15.33355 0,23c-0.05406,7.27319 -2.05697,16.8116 -3.35156,24.51562c-0.48769,2.90217 -2.33726,5.58202 -2.74147,8.41473c-0.53536,3.75175 -2.01374,6.96386 -2.90696,10.53675c-0.78553,3.14212 -0.56954,6.33606 -1.62388,9.49911c-3.5202,10.56061 -9.37872,16.88869 -18.72948,22.18427c-3.56245,2.01751 -9.33097,1.66895 -12.6198,4.0212c-1.13913,0.81473 -5.92337,0.71939 -5.92337,0.71939c0,0 3.06554,10.35945 3.89653,11.10893c0,0 12.76698,18.05275 13.64843,26.4844z" fill="#ffde00" stroke="#bfa600" stroke-width="3.5" stroke-linecap="butt"/><path d="M268.64586,103.01635h48.6667" fill="none" stroke="#c500ff" stroke-width="2" stroke-linecap="round"/></g></g></svg>