<svg version="1.1" xmlns="http://www.w3.org/2000/svg" xmlns:xlink="http://www.w3.org/1999/xlink" width="632.87761" height="469.18258" viewBox="0,0,632.87761,469.18258"><g transform="translate(76.43878,54.06118)"><g data-paper-data="{&quot;isPaintingLayer&quot;:true}" fill-rule="nonzero" stroke-linejoin="miter" stroke-miterlimit="10" stroke-dasharray="" stroke-dashoffset="0" style="mix-blend-mode: normal"><g fill="#ffffff" stroke="#ffffff" stroke-width="15" stroke-linecap="round"><g><path d="M251.12796,-1.24335l0.86072,47.75659l-82.26071,-43.63742l-80.53927,44.53849l-84.59696,-44.53849l-73.53051,38.61719v-48.65766l71.80905,-38.23102l84.71992,44.66722l80.53927,-44.66722l82.99849,44.15232"/><path d="M548.93881,-24.02749v47.37042l-38.73263,-20.59584l-80.53927,44.53849l-84.59696,-44.53849l-84.71992,44.53849l-0.86072,-47.75659l1.72145,-1.28724l82.13776,-43.76615l84.71992,44.66722l80.53927,-44.66722l40.33111,21.49691"/></g><g><path d="M256.41526,118.34122l0.73777,47.75659l-82.13776,-43.76615l-80.53927,44.66722l-84.71992,-44.66722l-78.69486,41.44912v-48.65766l77.09636,-40.93422l84.59696,44.53849l80.53927,-44.53849l83.12145,44.15232"/><path d="M548.93881,92.72515v47.2417l-33.44532,-17.76391l-80.53927,44.53849l-84.71992,-44.53849l-84.71992,44.53849l-0.73777,-47.75659l1.5985,-1.28724l82.26071,-43.76615l84.59696,44.66722l80.53927,-44.66722l35.16675,18.7937"/></g><g><path d="M-65.00405,353.77736l82.26071,-43.76615l84.59696,44.53849l80.53927,-44.53849l83.12145,44.15232l0.86072,47.75659l-82.13776,-43.63742l-80.53927,44.53849l-84.71992,-44.53849l-84.71992,44.53849l-0.86072,-47.75659z"/><path d="M548.93881,323.78467v47.37042l-24.34622,-13.00112l-80.53927,44.53849l-84.71992,-44.53849l-84.71992,44.53849l-0.73777,-47.75659l1.5985,-1.28724l82.26071,-43.76615l84.59696,44.66722l80.53927,-44.66722l26.06767,13.90219"/></g><g><path d="M260.22704,234.70769l0.86072,47.75659l-82.26071,-43.63742l-80.53927,44.53849l-84.59696,-44.53849l-82.6296,43.50871v-48.78638l80.90815,-42.9938l84.71992,44.66722l80.53927,-44.66722l82.99849,44.15232"/><path d="M548.93881,207.16076v47.2417l-29.63353,-15.70433l-80.53927,44.53849l-84.59696,-44.53849l-84.71992,44.53849l-0.86072,-47.75659l1.72145,-1.28724l82.13776,-43.76615l84.71992,44.66722l80.53927,-44.66722l31.23203,16.73411"/></g></g><path d="M222.76037,299.16393c0.12887,0 0.25752,0.00098 0.38594,0.00292l1.01161,-0.15868l1.09738,0.27869c2.53474,0.25115 4.95816,0.88088 7.21292,1.83186l2.69535,0.68453l1.27384,1.43027c0.45219,0.29609 0.89421,0.60644 1.32541,0.93041h10.89042l0.56497,-0.17976l0.36183,-0.18092l3.66855,-1.39754l1.83527,-0.28789l1.77026,-0.56327l0.1116,-0.01116l0.29465,-0.25446l3.01673,-0.95986l5.98942,-2.49559l1.51094,0.30578l5.07722,-1.69241l3.82932,-0.86469l0.08711,-0.00119l0.08301,-0.02641l3.90625,-0.39062h7.98914l0.61332,-0.15576l0.993,0.15576h0.40454l3.90625,0.39063l1.77026,0.56327l0.29395,0.04611h29.02954l3.90625,0.39063l0.08301,0.02641l0.08711,0.00119l2.5764,0.58177h3.33636l0.61332,-0.15576l0.993,0.15576h0.40454l3.90625,0.39063l1.77026,0.56327l0.29395,0.04611h19.52742l1.99033,-0.75822l1.83528,-0.28789l1.77026,-0.56327l0.51354,-0.05135l0.86917,-0.33111l1.61784,-0.72524l1.31448,-0.43816l0.41087,-0.20544l1.31724,-0.5018l0.10483,-0.06471l1.12725,-0.40465l0.60068,-0.22883l2.00119,-1.26391l3.05372,-3.13854l1.71128,-0.71303l1.08381,-0.68452l2,-1l1.65681,-0.63116l0.50841,-0.22791l2.37581,-1.94384l0.39315,-0.20335l1.74617,-1.50806l0.68565,-0.21816l0.87239,-0.8488l0.95061,-0.97701l0.63068,-1.26136l2.09632,-3.31916l0.06075,-0.06244l0.04003,-0.07738l1.36903,-1.67326l0.43388,-0.86776l0.68451,-1.0838l0.71304,-1.71128l0.87345,-0.84984l0.21468,-0.67473l0.57406,-0.6647l0.30094,-0.72225v-2.85168l-0.67651,-0.21526l-1.83528,-0.28789l-0.03346,-0.01275l-1.361,-0.1361l-0.08301,-0.02641l-0.08711,-0.00119l-3.82932,-0.86469l-1.52343,-0.50781l-1.04637,-0.20927h-2.52451l-3.90625,-0.39062l-0.08301,-0.02641l-0.08711,-0.00119l-3.82932,-0.86469l-2.08915,-0.69638l-0.08279,-0.0207h-3.9115l-0.61333,0.15577l-0.993,-0.15577h-0.40454l-3.90625,-0.39062l-1.77026,-0.56327l-0.29395,-0.04611h-0.02954l-3.90625,-0.39062l-0.08301,-0.02641l-0.08711,-0.00119l-2.5764,-0.58177h-7.34722l-3.90625,-0.39062l-0.08301,-0.02641l-0.08711,-0.00119l-2.5764,-0.58177h-15.34722l-3.90625,-0.39062l-0.08301,-0.02641l-0.08711,-0.00119l-3.82932,-0.86469l-0.00758,-0.00253l-0.12694,-0.01857l-0.86604,-0.08661l-0.23355,-0.07431l-1.92359,-0.2815l-1.01425,-0.25357h-1.92236l-3.90625,-0.39062l-0.08301,-0.02641l-0.08711,-0.00119l-3.82932,-0.86469l-1.68949,-0.56316l-0.00727,0.00185l-0.993,-0.15577h-0.40454l-3.90625,-0.39062l-1.77026,-0.56327l-0.29395,-0.04611h-1.02954l-3.90625,-0.39062l-0.08301,-0.02641l-0.08711,-0.00119l-2.5764,-0.58177h-3.34722l-3.90625,-0.39062l-0.08301,-0.02641l-0.08711,-0.00119l-3.82932,-0.86469l-0.0328,-0.01093l-0.96776,-0.09678l-0.08301,-0.02641l-0.08711,-0.00119l-3.82932,-0.86469l-9,-3l-1.59965,-0.71708h-0.48379l-0.61333,0.15577l-0.993,-0.15577h-0.40454l-3.90625,-0.39062l-1.77026,-0.56327l-1.83528,-0.28788l-0.38939,-0.14834l-0.00507,-0.00051l-1.77026,-0.56327l-1.83527,-0.28788l-3.66855,-1.39755l-0.36183,-0.18091l-0.95783,-0.30477l-0.37578,-0.32453l-1.18761,-0.29691l-1.3267,-0.47625l-0.1217,-0.01909l-1.11923,-0.42637l-1.12725,-0.40466l-0.10483,-0.06471l-1.31724,-0.50181l-2,-1l-1.31433,-0.83011l-1.37283,-0.72931l-1.70496,-1.13664l-1.71846,-0.85923l-0.97643,-0.27069l-1.3595,-1.0876l-1.87266,-1.18273l-1.82337,-1.7741l-1.54942,-1.23954l-0.58082,-0.15698l-4.24103,-4.91066l-2.26898,-2.20766l-0.33781,-0.81072l-0.57406,-0.6647l-0.95987,-3.01673l-2.49559,-5.98941l0.45502,-2.2483l-0.12456,-1.24556v-11.98913l-0.15577,-0.61333l0.15577,-0.993v-0.40455l0.39063,-3.90625l0.56327,-1.77026l0.28789,-1.83527l1.39754,-3.66855l0.18091,-0.36183l0.30477,-0.95783l0.41361,-0.47891l2.10071,-4.20143l2.09632,-3.31916l0.06075,-0.06244l0.04002,-0.07738l2.48592,-3.03834l2,-2l3.03835,-2.48593l0.07738,-0.04002l0.06243,-0.06075l3.31916,-2.09632l0.20143,-0.10071l0.47892,-0.41361l0.95783,-0.30476l0.36183,-0.18092l3.66855,-1.39754l1.83527,-0.28788l0.94426,-0.30045l0.82656,-0.37052l0.36291,-0.12097l0.04278,-0.03695l0.95783,-0.30476l0.36183,-0.18092l3.66855,-1.39754l1.27174,-0.19949l0.41478,-0.13198l0.84984,-0.87345l0.81072,-0.3378l0.6647,-0.57407l3.01673,-0.95986l2.48595,-1.03581l0.358,-0.29291l0.39315,-0.20335l1.74617,-1.50806l3.03861,-0.96682l2.83227,-1.46497l1.61814,-0.1184l3.49919,-1.33302l1.64153,-0.2575l4.89135,-2.44567l0.47891,-0.41361l0.95783,-0.30476l0.36183,-0.18092l2.1,-0.8l1.9,-1.2l0.86775,-0.43388l1.67327,-1.36903l0.07738,-0.04002l0.06243,-0.06075l3.31916,-2.09632l2.86775,-1.43388l1.67327,-1.36903l0.07738,-0.04002l0.06243,-0.06075l1.38855,-0.87697l2.47164,-2.02225l0.39315,-0.20335l1.74617,-1.50806l3.03861,-0.96682l2.83227,-1.46497l2.30108,-0.16837l0.42179,-0.13421l0.00507,-0.0005l0.38939,-0.14834l0.79929,-0.12538l1.99247,-1.0585l0.23207,-0.16913l0.55257,-0.2477l0.53476,-0.2841l0.27598,-0.07934l2.21895,-0.9947l1.21608,-0.40536l0.0503,-0.04115l1.65006,-0.85347l1.50131,-1.09417l3.58227,-1.60585l0.38378,-0.12793l0.04105,-0.02123l2.14547,-1.28728l0.8354,-0.72148l1.73751,-0.55284l1.45066,-0.68427l2.18687,-0.5175l0.25746,-0.17164l1.37283,-0.72931l1.31433,-0.83011l0.86775,-0.43388l0.54152,-0.44306l1.90357,-1.56365l0.94027,-0.62684l4.54751,-4.54751l0.41659,-0.99981l3.54171,-3.446l0.39781,-0.40885l0.06048,-0.14515l1.24782,-1.2141l1.40587,-1.7115l1.98656,-1.58925l1.82337,-1.7741l1.87266,-1.18273l1.3595,-1.0876l0.96368,-0.26716l1.66434,-1.36174l0.39315,-0.20335l1.74617,-1.50806l2.16228,-0.68799l1.3623,-1.40014l0.81072,-0.3378l0.6647,-0.57407l3.01673,-0.95986l5.98942,-2.49559l0.18015,0.03646l14.13336,-7.06668l1.04733,-0.39898l0.4937,-0.40393l1.65006,-0.85347l1.50131,-1.09417l1.89607,-0.84996l0.52926,-1.66339l-0.24663,-1.09224l-4.44535,-8.89069l-1.11289,-0.59123l-3.51524,-2.34349l-1.29377,-0.41166l-0.29395,-0.04611h-33.05908l-0.29395,0.04611l-1.77026,0.56327l-3.90625,0.39063h-0.40454l-0.993,0.15577l-0.61332,-0.15577h-1.44597l-2.43319,0.65985l-1.96095,0.32682l-0.60685,0.19309l-0.36183,0.18092l-3.66855,1.39754l-1.83528,0.28789l-1.77026,0.56327l-3.90625,0.39063h-0.40454l-0.993,0.15577l-0.61332,-0.15577h-13.98914l-1.93443,-0.19344l-0.2446,0.01545l-0.86118,-0.12603l-0.86604,-0.0866l-0.23355,-0.07431l-1.92359,-0.2815l-1.01425,-0.25357h-8.92236l-3.90625,-0.39062l-0.08301,-0.02641l-0.08711,-0.0012l-3.82932,-0.86469l-4.13913,-1.37971l-4.06515,-0.67753l-0.96456,-0.26158l-0.98886,-0.14471l-1.73268,-0.43317l-0.93042,-0.09304l-0.27827,0.00828l-0.44825,-0.08094l-0.45324,-0.04532l-0.26529,-0.08441l-2.69649,-0.48687l-3.63335,-1.0381h-5.84585l-2.5764,0.58177l-0.08711,0.0012l-0.08301,0.02641l-3.90625,0.39063h-9.92236l-9.01425,2.25357l-1.92359,0.2815l-0.23355,0.07431l-0.86603,0.0866l-0.86119,0.12603l-0.2446,-0.01545l-1.93443,0.19344h-3.93094l-3.95909,0.65985l-2.0579,0.13495l-2.05208,0.2052h-40l-1.76416,-0.17641l-1.77137,-0.07485l-5.24116,-0.74874h-11.57053l-2.5764,0.58177l-0.08711,0.0012l-0.08302,0.02641l-3.90625,0.39063h-0.52451l-2.57259,0.51452l-1.96848,0.19299l-3.02873,1.00958l-3.82932,0.86469l-0.08711,0.0012l-0.08302,0.02641l-3.90625,0.39062h-2.34722l-1.36961,0.30927l-0.10283,0.05141l-1.31724,0.50181l-0.10483,0.06471l-1.12725,0.40465l-1.11923,0.42637l-0.12171,0.01909l-1.32669,0.47625l-2.20043,0.55011l-0.31823,0.16906l-1.04473,0.90227l-1.62979,0.51857l-0.46958,0.24947l-3.261,0.93753l-3.23337,1.0288l-0.51354,0.05136l-2.88092,1.0975l-1.83527,0.28789l-0.61533,0.19579l2.81382,3.2581l0.21468,0.67474l0.87345,0.84984l0.33781,0.81072l0.57406,0.6647l0.55373,1.7403l1.73486,2.12038l0.85348,1.65006l1.09417,1.5013l1.10851,2.47283l1.94384,2.3758l0.85348,1.65006l1.09417,1.5013l0.44594,0.99479l1.94282,0.61817l0.6647,0.57407l0.81072,0.3378l2.20766,2.26898l0.7597,0.6561l0.96292,0.32097l2.21895,0.9947l0.27598,0.07934l0.53476,0.2841l0.55257,0.2477l0.23207,0.16913l2.14748,1.14084l1.70496,1.13664l0.60787,0.30394l1.31433,0.83011l1.37283,0.72931l4.70496,3.13664l0.60787,0.30394l1.08381,0.68451l1.71128,0.71303l3.05372,3.13855l0.23501,0.14842l1.71128,0.71303l3.446,3.54171l0.51389,0.50001l1.72239,1.40923l1.31772,0.54905l3.446,3.54171l3.54172,3.446l0.41659,0.99981l1.29794,1.29794l2.48592,3.03834l0.20336,0.39316l1.50805,1.74616l0.96683,3.03861l1.46497,2.83227l0.15811,2.16089l0.25217,0.56254l1.12097,3.36291l0.03695,0.04278l0.30477,0.95783l0.18091,0.36183l1.39754,3.66855l0.28789,1.83527l0.56327,1.77026l0.00051,0.00507l0.14834,0.3894l0.28789,1.83527l0.56327,1.77026l0.39063,3.90625v0.40455l0.15577,0.993l-0.15577,0.61333v18.97826l0.15577,0.61333l-0.15577,0.993v0.40454l-0.39062,3.90625l-0.56327,1.77027l-0.04611,0.29394v2.01868l0.15577,0.61333l-0.15577,0.993v0.40454l-0.39062,3.90625l-0.56327,1.77027l-0.28789,1.83527l-1.39754,3.66854l-0.18091,0.36184l-0.30477,0.95782l-0.25446,0.29465l-0.01116,0.1116l-0.56327,1.77027l-0.28789,1.83527l-1.09749,2.88092l-0.05136,0.51353l-0.02641,0.08302l-0.00119,0.08711l-0.86469,3.82932l-0.3641,1.09232l-0.04618,0.63111l-0.46179,0.89279l-0.12793,0.38378l-1.60584,3.58227l-1.09417,1.5013l-0.85348,1.65005l-2.48592,3.03835l-0.28606,0.28606l-0.59202,0.8123l-0.23766,0.14139l-0.35541,0.47389l-0.24338,0.58411l-0.72041,0.70095l-0.24273,0.32363l-2.65625,2.89063l-1.51278,1.07826l-1.33147,1.29549l-1.38854,0.87697l-1.33989,1.09627l-1.90356,1.56365l-0.94027,0.62685l-2.24956,2.24956l-3.03835,2.48593l-0.07738,0.04002l-0.06244,0.06076l-1.38854,0.87697l-2.47164,2.02226l-0.07738,0.04002l-0.06244,0.06076l-3.31916,2.09631l-0.20143,0.10072l-0.47892,0.4136l-0.95782,0.30477l-0.36184,0.18091l-2.1,0.8l-1.9,1.2l-2,1l-1.6568,0.63117l-1.34898,0.60472l-0.30704,0.2047l-1.37283,0.72931l-1.28,0.80842l-2.21467,1.661l-1.92133,1.16174l-1.89833,1.19894l-2.55477,1.27738l-1.42648,1.03965l-2.22366,2.28543l-2.12976,0.88739l-0.35771,0.26071l-0.442,0.19814l-2.3683,2.36829l-1.9066,1.55994l-1.90357,1.56365l-3,2l-0.66863,0.35521l-0.09931,0.0993l-0.32354,0.54382l-0.8123,0.59202l-0.28606,0.28606l-3.03835,2.48592l-1.65006,0.85348l-1.5013,1.09417l-1.23944,0.55561l-0.64768,0.53202l-0.60085,0.80113l-1.19963,1.30548l-0.14915,0.1823l-0.04185,0.41848l-0.13421,0.4218l-0.16837,2.30108l-1.46497,2.83227l-0.84183,2.64574v0.85877l0.5,0.15909l0.29464,0.25446l0.11161,0.01116l1.77026,0.56327l0.15387,0.02414l0.90305,-0.11288l1.64372,0.47257l0.5291,0.05291l3.23337,1.02881l3.261,0.93753l0.46958,0.24947l1.62979,0.51856l1.04473,0.90228l0.32277,0.17147l0.21434,0.14289l2.82385,0.94128l0.02197,0.00985l0.97859,0.09785l1.77026,0.56327l0.29394,0.04611h0.02954l3.90625,0.39063l1.77026,0.56327l0.29394,0.04611h23.05908l0.29395,-0.04611l1.77026,-0.56327l3.2254,-0.32254l2.16906,-0.8263l1.83527,-0.28789l1.77026,-0.56327l3.90625,-0.39062h0.40454l0.993,-0.15576l0.61332,0.15576h16.97827l0.61333,-0.15576l0.993,0.15576h0.40454l3.90625,0.39063l1.77026,0.56327l1.83528,0.28789l0.38939,0.14834l0.00507,0.0005l1.71834,0.54674l2.29904,-0.51914l0.08711,-0.00119l0.08301,-0.02641l3.90625,-0.39062h11.52451l0.09636,-0.01927l2.97594,-3.34141l11.00565,-2.79508l2.24668,0.35242c1.03203,-0.12979 2.08363,-0.19666 3.15086,-0.19666zM220.66329,352.67845l-10,2l-2.45169,0.24036l-2.45122,0.24512h-10.34722l-2.5764,0.58177l-0.08711,0.00119l-0.08302,0.02641l-3.90625,0.39063h-4.98914l-0.61332,0.15577l-0.993,-0.15577h-0.40454l-3.90625,-0.39062l-1.77026,-0.56327l-1.83527,-0.28789l-0.3894,-0.14834l-0.00507,-0.00051l-1.77026,-0.56327l-0.29395,-0.04611h-11.52741l-1.99033,0.75822l-1.83528,0.28789l-1.77026,0.56327l-3.90625,0.39063h-0.40454l-0.993,0.15577l-0.15048,-0.03822l-1.54574,0.49183l-3.90625,0.39063h-0.40454l-0.993,0.15577l-0.61333,-0.15577h-26.97827l-0.61333,0.15577l-0.993,-0.15577h-0.40454l-3.90625,-0.39062l-1.77027,-0.56327l-0.29394,-0.04611h-0.02954l-3.90625,-0.39062l-1.77027,-0.56327l-1.83527,-0.28789l-0.03347,-0.01275l-1.36099,-0.1361l-1.77027,-0.56327l-1.83527,-0.28789l-3.66855,-1.39754l-0.36183,-0.18091l-0.95782,-0.30477l-0.04278,-0.03695l-3.36292,-1.12097l-2.21895,-0.9947l-0.27599,-0.07935l-0.53476,-0.28409l-0.55257,-0.2477l-0.01251,-0.00912l-0.17605,-0.05602l-1.83527,-0.28789l-0.3894,-0.14834l-0.00506,-0.00051l-0.08302,-0.02641l-0.08711,-0.00119l-3.82932,-0.86469l-3,-1l-1.61784,-0.72524l-1.6568,-0.63117l-0.86183,-0.43091l-1.09745,-0.34919l-1.07003,-0.30763l-0.2842,0.05752l-1.07787,-0.44912l-0.8289,-0.23831l-0.46959,-0.24947l-1.62978,-0.51857l-0.47827,-0.41305l-1.505,-0.62708l-3.01673,-0.95987l-0.6647,-0.57406l-0.81072,-0.3378l-2.20765,-2.26898l-4.91067,-4.24104l-0.15698,-0.58081l-1.23954,-1.54943l-1.7741,-1.82338l-1.18273,-1.87266l-1.0876,-1.3595l-0.15242,-0.5498l-0.18789,-0.21756l-0.30476,-0.95783l-0.18092,-0.36183l-1.39754,-3.66854l-0.28789,-1.83528l-0.56327,-1.77027l-0.0005,-0.00506l-0.14834,-0.38939l-0.28789,-1.83528l-0.56327,-1.77027l-0.39062,-3.90625v-0.40454l-0.15576,-0.993l0.15576,-0.61332v-13.98914l0.39063,-3.90625l0.02642,-0.08301l0.00119,-0.08711l0.86469,-3.82932l0.01093,-0.0328l0.09678,-0.96776l0.13421,-0.42179l0.16837,-2.30108l1.46496,-2.83227l0.96683,-3.03861l0.2009,-0.23262l0.06422,-0.16856l0.0005,-0.00507l0.56327,-1.77026l0.28789,-1.83528l1.39754,-3.66855l0.18092,-0.36183l0.30476,-0.95783l0.41361,-0.47891l0.10071,-0.20143l2.09632,-3.31916l0.06075,-0.06244l0.04002,-0.07738l2.48592,-3.03834l2.74368,-2.74369l1.93398,-2.57864l2.65625,-2.89062l0.25053,-0.17857l0.1922,-0.24024l3.03351,-2.49182l0.94027,-0.62685l0.24956,-0.24956l3.03835,-2.48593l1.65006,-0.85348l1.50131,-1.09417l0.44199,-0.19814l0.3683,-0.36829l3.03835,-2.48593l0.07738,-0.04002l0.06244,-0.06075l3.31916,-2.09632l0.37136,-0.18568l2.70941,-2.70941l0.32354,-0.54383l0.8123,-0.59202l0.28606,-0.28605l3.03835,-2.48593l1.65006,-0.85348l0.50671,-0.3693l2.50713,-2.57677l1.71128,-0.71303l1.08381,-0.68452l5.98374,-2.99186l2.1966,-1.64746l1.92133,-1.16173l1.89833,-1.19895l0.60787,-0.30393l1.70496,-1.13664l2.14748,-1.14084l0.23207,-0.16914l0.55257,-0.2477l0.53476,-0.2841l0.27599,-0.07934l1.60104,-0.71771l0.88428,-0.7235l0.39316,-0.20335l1.74617,-1.50806l3.0386,-0.96682l1.61778,-0.83678l0.45298,-0.28609l1.71296,-1.71296l1.9066,-1.55994l1.90357,-1.56365l0.94027,-0.62685l0.24957,-0.24956l1.69204,-1.3844l0.22741,-1.44973l1.39754,-3.66855l0.05142,-0.10282l0.59219,-2.62252l1,-3l0.71708,-1.59965v-0.48379l-0.15577,-0.61333l0.15577,-0.993v-0.40455l0.39063,-3.90625l0.56327,-1.77026l0.04611,-0.29394v-15.05909l-0.04611,-0.29394l-0.30044,-0.94427l-0.37052,-0.82656l-1.12098,-3.36292l-0.03695,-0.04278l-0.30477,-0.95782l-0.18091,-0.36184l-0.24056,-0.63148l-0.42643,-0.52119l-0.63003,-0.51548l-1.31772,-0.54905l-3.05372,-3.13854l-0.23501,-0.14843l-1.71128,-0.71303l-3.41675,-3.51166l-4.18029,-2.78686l-0.60787,-0.30394l-1.31433,-0.83011l-1.37283,-0.72931l-0.30705,-0.2047l-1.34898,-0.60472l-1.6568,-0.63117l-6,-3l-1.08381,-0.68451l-1.71128,-0.71303l-0.84985,-0.87345l-0.67473,-0.21469l-0.47892,-0.4136l-1.31201,-0.656l-0.97643,-0.27069l-1.35949,-1.0876l-1.87266,-1.18273l-1.82338,-1.7741l-1.98656,-1.58925l-1.40587,-1.7115l-1.24782,-1.2141l-0.38971,-0.9353l-1.0635,-1.59524l-2.58365,-3.44488l-2.03125,-3.35937l-0.02868,-0.08226l-0.05131,-0.0704l-0.55561,-1.23944l-1.13441,-1.38102l-2,-3l-1.14084,-2.14747l-0.16914,-0.23207l-0.19813,-0.442l-0.3683,-0.3683l-2.48592,-3.03835l-0.20336,-0.39315l-1.50805,-1.74617l-0.21469,-0.67473l-0.87345,-0.84985l-0.33781,-0.81072l-0.57406,-0.66471l-0.32281,-1.01454l-0.38497,-0.52822l-2.95191,-3.68989l-0.52604,-1.89749l-0.65635,-1.46417l-0.43816,-1.31448l-1.20544,-2.41088l-0.5018,-1.31724l-0.06471,-0.10483l-0.40465,-1.12726l-0.42637,-1.11922l-0.0191,-0.12171l-0.47625,-1.32669l-0.43772,-1.75089l-1.06694,-2.80071l-0.28789,-1.83527l-0.56327,-1.77027l-0.39062,-3.90625v-0.40454l-0.15576,-0.993l0.15576,-0.61333v-12.97826l-0.15576,-0.61332l0.15576,-0.993v-0.40454l0.39063,-3.90625l0.56327,-1.77027l0.28789,-1.83527l1.39754,-3.66855l0.18092,-0.36183l0.30476,-0.95783l0.41361,-0.47891l1.10071,-2.20143l0.68451,-1.0838l0.71303,-1.71128l3.54171,-3.44599l3.446,-3.54172l1.71128,-0.71303l1.08381,-0.68452l2.20143,-1.10071l0.47892,-0.41361l0.95782,-0.30476l0.36183,-0.18092l3.66855,-1.39754l1.83527,-0.28788l1.77027,-0.56327l3.90625,-0.39062h0.40454l0.993,-0.15576l0.30553,0.07759l1.78514,-0.68005l1.83527,-0.28788l1.77027,-0.56327l3.2254,-0.32254l2.16906,-0.82631l1.83527,-0.28788l0.17605,-0.05601l0.01251,-0.00912l0.55257,-0.2477l0.53476,-0.2841l0.27599,-0.07934l2.21895,-0.9947l3,-1l0.93761,-0.21172l0.90469,-0.32476l1.18762,-0.2969l0.37578,-0.32454l0.95782,-0.30476l0.36183,-0.18092l3.66855,-1.39754l1.83527,-0.28788l1.77027,-0.56327l0.96776,-0.09678l0.03279,-0.01093l3.82932,-0.86468l0.08711,-0.00119l0.08302,-0.02642l3.90625,-0.39062h1.94306l2.15125,-0.71708l3.82932,-0.86468l0.08711,-0.00119l0.08301,-0.02642l2.95528,-0.29553l3.04807,-0.60961l2.45169,-0.24036l1.27957,-0.12796l3.09527,-0.69893l0.08711,-0.00119l0.08301,-0.02642l3.90625,-0.39062h17l1.76416,0.17642l1.77138,0.07484l5.24116,0.74874h36.15424l3.95909,-0.65985l2.0579,-0.13495l2.05208,-0.20521h2.92236l9.01425,-2.25356l1.92359,-0.2815l0.23355,-0.07432l0.86604,-0.0866l0.86119,-0.12603l0.2446,0.01545l1.93443,-0.19345h9.34723l2.5764,-0.58176l0.08711,-0.0012l0.08301,-0.02642l3.90625,-0.39062h13l2.72649,0.27265l0.27827,-0.00828l0.44825,0.08094l0.45324,0.04532l0.26529,0.08441l2.69649,0.48687l4.26622,1.21892l0.04478,-0.00283l0.86118,0.12603l0.86604,0.0866l0.23355,0.07431l1.92359,0.2815l3.03141,0.75785l5.01518,0.83587l1.88779,0.51194l1.90793,0.43082l2.15125,0.71708h7.94306l1.93443,0.19344l0.2446,-0.01545l0.86118,0.12603l0.86604,0.0866l0.23355,0.07431l1.92359,0.2815l1.01425,0.25356h7.42023l1.43854,-0.54802l0.16472,-0.08433l0.19666,-0.05334l0.19041,-0.07254l0.18282,-0.02868l3.219,-0.87294l3.0488,-0.50813l1.54938,-0.59024l1.83528,-0.28788l1.77026,-0.56327l3.90625,-0.39062h0.40454l0.993,-0.15576l0.61333,0.15576h2.01867l0.29395,-0.04611l1.77026,-0.56327l3.90625,-0.39062h0.40454l0.993,-0.15576l0.61333,0.15576h36.97827l0.61332,-0.15576l0.993,0.15576h0.40454l3.90625,0.39063l1.77026,0.56327l1.83528,0.28788l0.03346,0.01275l1.361,0.1361l1.77026,0.56327l1.83528,0.28788l3.66855,1.39754l0.36183,0.18092l0.95783,0.30476l0.47892,0.41361l2.20142,1.10071l1.31434,0.83011l1.37283,0.72931l3.30705,2.2047l1.34898,0.60472l1.65681,0.63116l4,2l1.05836,0.66844l2.21443,0.59849l4.24103,4.91067l2.26898,2.20765l0.33781,0.81073l0.57406,0.6647l0.95987,3.01673l2.49559,5.98941l-0.03646,0.18016l5.16739,10.33479l0.41361,0.47891l0.30477,0.95783l0.18091,0.36183l1.39754,3.66855l0.28789,1.83527l0.56327,1.77027l0.09678,0.96777l0.01093,0.0328l0.86469,3.82932l0.00119,0.08711l0.02641,0.08301l0.39063,3.90625v4.98914l0.15577,0.61333l-0.15577,0.993v0.40454l-0.39062,3.90625l-0.56327,1.77027l-0.04611,0.29394v0.02954l-0.03637,0.36368l0.17122,1.36976l-0.47257,1.64372l-0.05291,0.52909l-1.0288,3.23338l-0.93754,3.261l-0.24946,0.46958l-0.51857,1.62978l-0.71738,0.83065l-1.23043,3.42763l-0.63664,1.03137l-1.32741,3.18578l-1.60021,1.55697l-1.17275,1.89986l-2.82197,1.98689l-0.8687,0.84522l-1.10887,0.70034l-1.71296,1.71296l-1.9066,1.55994l-1.90357,1.56365l-3,2l-2.14747,1.14084l-0.23207,0.16913l-0.55256,0.2477l-0.53476,0.2841l-0.19284,0.05543l-0.56848,0.46512l-1.65006,0.85348l-1.50131,1.09417l-3.58227,1.60585l-0.38378,0.12792l-0.89279,0.46179l-0.39947,0.02923l-16.25073,8.12537l-0.47892,0.4136l-0.67473,0.21469l-0.84984,0.87345l-1.71128,0.71303l-1.08381,0.68451l-0.20142,0.10072l-0.47892,0.4136l-0.95783,0.30477l-0.36183,0.18091l-2.1,0.8l-0.33824,0.21362l-0.43266,0.52672l-1.56832,1.25466l-2.06345,2.52199l-9,9l-1.9066,1.55994l-1.90357,1.56365l-0.94027,0.62685l-0.24956,0.24956l-3.03835,2.48593l-0.07738,0.04002l-0.06243,0.06076l-3.31916,2.09631l-2.60787,1.30394l-1.70496,1.13664l-1.37283,0.72931l-1.31434,0.83011l-0.20142,0.10072l-0.47892,0.4136l-0.95783,0.30477l-0.36183,0.18091l-3.66855,1.39755l-0.70077,0.10993l-0.94862,0.56918l-1.27488,0.60135l-0.09956,0.07256l-1.0929,0.48992l-0.16134,0.07611l-0.5944,0.48633l-1.65006,0.85348l-1.50131,1.09417l-3.58227,1.60584l-0.38378,0.12793l-0.89279,0.46179l-0.6311,0.04618l-0.91618,0.3054l-0.21434,0.14289l-1.37283,0.72931l-1.31434,0.83011l-0.20142,0.10072l-0.47892,0.4136l-0.95783,0.30477l-0.36183,0.18091l-3.66855,1.39755l-1.83528,0.28788l-0.73499,0.23386l-2.30221,1.88362l-0.07738,0.04002l-0.06243,0.06076l-3.31916,2.09631l-2.86775,1.43388l-1.67327,1.36903l-0.07738,0.04002l-0.06243,0.06076l-3.31916,2.09631l-0.86775,0.43388l-1.67327,1.36903l-0.39315,0.20335l-1.74617,1.50805l-3.03861,0.96683l-2.83227,1.46497l-1.5709,0.11494l-4.0793,2.03966l-0.47892,0.4136l-0.95783,0.30477l-0.36183,0.18091l-3.66855,1.39755l-1.27174,0.19949l-0.69788,0.22205l-0.36183,0.18091l-2.1,0.8l-1.68325,1.06311l0.1147,0.01799l1.11922,0.42637l1.12725,0.40466l0.10483,0.06471l1.31724,0.5018l0.41088,0.20544l4.34727,1.44909l0.96776,0.09677l0.08301,0.02642l0.08711,0.00119l2.5764,0.58176h3.34722l3.90625,0.39063l0.08301,0.02642l0.08711,0.00119l2.2251,0.50244l0.30099,-0.07644l0.993,0.15576h0.40454l3.90625,0.39063l1.77026,0.56327l0.29395,0.0461h0.01868l0.61332,-0.15576l0.993,0.15576h0.40454l3.90625,0.39063l1.77026,0.56327l1.83528,0.28788l1.99034,0.75822h0.49787l1.93443,0.19344l0.2446,-0.01545l0.86118,0.12603l0.86604,0.0866l0.23355,0.07432l1.92359,0.2815l1.73268,0.43317l2.11018,0.21102l0.08301,0.02642l0.08711,0.00119l2.5764,0.58176h15.34722l3.90625,0.39063l0.08301,0.02642l0.08711,0.00119l2.5764,0.58176h7.34722l3.90625,0.39063l0.08301,0.02642l0.08711,0.00119l2.5764,0.58176h0.34722l3.90625,0.39063l1.77026,0.56327l0.29395,0.0461h5.02954l1.93443,0.19344l0.2446,-0.01545l0.86118,0.12603l0.86604,0.0866l0.23355,0.07432l1.92359,0.2815l4,1l0.70635,0.25356h1.23025l2.45121,0.24513l2.45169,0.24036l5,1l1.48644,0.45504l0.7823,0.17664l2.7346,0.27346l1.54574,0.49183l0.15047,-0.03821l0.993,0.15576h0.40454l3.90625,0.39063l1.77026,0.56327l1.83528,0.28788l3.66855,1.39754l0.36183,0.18092l0.69788,0.22205l1.27174,0.19949l0.38939,0.14834l0.00507,0.00051l1.77026,0.56327l1.83528,0.28788l3.66855,1.39754l0.36183,0.18092l0.95783,0.30476l0.47892,0.41361l2.20142,1.10071l1.08381,0.68452l1.71128,0.71303l3.44599,3.54172l3.54172,3.44599l0.71303,1.71128l0.68451,1.0838l1.10071,2.20143l0.41361,0.47891l0.30477,0.95783l0.18091,0.36183l1.39754,3.66855l0.28789,1.83527l0.56327,1.77026l0.39063,3.90625v0.40455l0.15577,0.993l-0.15577,0.61333v3.97826l0.15577,0.61333l-0.15577,0.993v0.40454l-0.39062,3.90625l-0.56327,1.77027l-0.04611,0.29394v7.09815l0.13544,0.23576l-0.13544,1.85096v2.84467l-0.39062,3.90625l-0.13421,0.4218l-0.16837,2.30108l-1.02532,1.98227l-0.71584,1.71802l-0.69064,2.17057l-0.41305,0.47827l-0.62708,1.505l-0.95987,3.01673l-0.57406,0.66471l-0.33781,0.81072l-0.87345,0.84984l-0.21469,0.67473l-0.57406,0.66471l-0.33781,0.81072l-2.26898,2.20766l-1.24752,1.4445l-1.18227,1.87192l-0.06075,0.06244l-0.04003,0.07738l-1.36903,1.67327l-1.43388,2.86775l-0.68451,1.08381l-0.71303,1.71128l-2.94318,2.86364l-0.05682,0.13636l-2.02116,1.96654l-1.96654,2.02117l-0.11649,0.04854l-0.56088,0.68552l-0.20431,0.75592l-1.41172,1.21921l-0.00436,0.00534l-2,2l-3.03835,2.48592l-0.39315,0.20336l-1.74617,1.50805l-2.45635,0.78157l-0.17615,0.14469l-3,2l-2.14747,1.14085l-0.23207,0.16913l-0.55256,0.2477l-0.53476,0.28409l-0.23298,0.06698l-2.19222,2.25312l-1.71128,0.71303l-1.08381,0.68451l-0.12797,0.06399l-1.17167,0.72325l-1.24138,1.01567l-2.49284,1.2894l-2.38821,1.47421l-1.50962,0.54191l-1.61953,0.83769l-1.10087,0.08055l-1.21575,0.30393l-0.78897,0.30056l-1.61784,0.72524l-1.31448,0.43816l-0.6123,0.30615l-0.47892,0.41361l-0.95783,0.30477l-0.36183,0.18091l-3.66855,1.39754l-1.83528,0.28789l-1.77026,0.56327l-0.51354,0.05136l-2.88092,1.09749l-1.83528,0.28789l-1.77026,0.56327l-3.90625,0.39063h-0.40454l-0.993,0.15577l-0.61332,-0.15577h-24.97827l-0.61333,0.15577l-0.993,-0.15577h-0.40454l-3.90625,-0.39062l-1.77026,-0.56327l-0.29395,-0.04611h-5.02954l-3.90625,-0.39062l-0.08301,-0.02641l-0.08711,-0.00119l-2.5764,-0.58177h-27.33636l-0.61333,0.15577l-0.993,-0.15577h-0.40454l-3.90625,-0.39062l-1.77026,-0.56327l-0.29395,-0.04611h-1.9726l-1.69372,0.56458l-0.38779,0.39856l-0.81072,0.3378l-0.66471,0.57406l-3.01673,0.95987l-5.98942,2.49559l-1.58506,-0.32079l-0.23228,0.03643l-1.77026,0.56327l-1.86947,0.18695l-2.52499,0.9619l-1.83528,0.28789l-1.77026,0.56327l-0.00507,0.00051l-0.38939,0.14834l-1.83528,0.28789l-1.77026,0.56327l-3.90625,0.39063h-0.40454l-0.993,0.15577l-0.61333,-0.15577h-14.97827l-0.61332,0.15577l-0.993,-0.15577h-0.40454l-3.90625,-0.39062l-1.77026,-0.56327l-1.83527,-0.28789l-0.03347,-0.01275l-1.361,-0.1361l-1.77026,-0.56327l-0.58876,-0.09235z" fill="#a5a5a5" stroke="#7d7d7d" stroke-width="3" stroke-linecap="butt"/><path d="M236.50002,352.5v-47" fill="none" stroke="#ffe600" stroke-width="3" stroke-linecap="round"/></g></g></svg>