<svg version="1.1" xmlns="http://www.w3.org/2000/svg" xmlns:xlink="http://www.w3.org/1999/xlink" width="445.4385" height="351.42057" viewBox="0,0,445.4385,351.42057"><g transform="translate(-21.65279,-5.73898)"><g data-paper-data="{&quot;isPaintingLayer&quot;:true}" fill-rule="nonzero" stroke-linejoin="miter" stroke-miterlimit="10" stroke-dasharray="" stroke-dashoffset="0" style="mix-blend-mode: normal"><path d="M191.59311,191.60525c1.99391,2.23159 10.45117,4.82578 13.79372,5.58469c2.3093,0.52432 4.7809,1.35763 6.90719,2.42078c0.55106,0.27553 3.85554,2.83495 4.41773,1.84852c2.37328,-4.16415 3.20686,-9.33764 4.29757,-13.9107c0.89369,-3.747 2.90742,-6.86089 3.78523,-10.53517c1.07829,-4.51343 0.71387,-9.31896 1.19391,-13.9109c0.49013,-4.68847 1.96537,-9.37278 2.58954,-14.06492c0.28131,-2.11473 0.02163,-4.33169 0.66639,-6.36528c1.68055,-5.30048 4.13265,-11.42077 4.24597,-17.20209c0.21179,-10.80537 0.2371,-18.0636 3.64104,-28.14825c1.71437,-5.07906 5.18974,-9.26157 8.442,-13.33462c2.10299,-2.63374 3.42347,-6.05839 5.86031,-8.49949c5.14566,-5.15467 10.27116,-10.45622 15.6482,-15.43102c6.50594,-6.01926 13.48915,-11.49119 22.09887,-14.12773c9.83887,-3.01294 27.47632,-1.3778 34.61832,-1.3778c3.68353,0 7.28261,2.05527 10.74573,2.12532c23.01229,0.46544 28.20256,-0.57569 45.23449,0.98588c13.01602,1.19337 25.41775,3.95295 38.49665,6.3097c10.73997,1.93528 20.49714,4.18165 28.83187,11.75386c7.22724,6.56605 12.11751,16.11117 14.82701,25.40799c2.23637,7.67344 1.97369,15.70475 2.93682,23.52842c3.64004,29.56846 -14.32188,46.12524 -38.57096,59.84748c-3.76769,2.13209 -7.24178,4.85348 -11.23123,6.60149c-7.71768,3.38157 -16.23433,5.80283 -24.32015,8.27894c-1.33955,0.41021 -2.31405,0.0701 -3.57004,0.84067c-1.57377,0.96553 -3.41686,2.06024 -5.18717,2.65778c-13.38367,4.51749 -16.19279,0.83698 -34.14005,8.14908c-1.30006,0.52967 -0.265,2.83287 0,4.21145c0.65001,3.3815 2.15462,5.65065 4.10479,8.396c0.83528,1.17586 1.63513,3.90774 2.68912,4.78895c8.75485,7.31966 19.34611,11.21273 29.17872,16.43508c5.41123,2.87404 10.42544,6.33761 15.78065,9.44536c3.16597,1.83728 7.58978,3.88851 10.15938,6.65915c12.78761,13.78809 11.88148,31.52281 12.02809,49.06231c0.03968,4.74751 -0.91933,9.98286 -3.08086,14.30593c-3.68183,7.36366 -10.57055,12.46745 -16.95175,17.29706c-12.61597,9.54839 -24.41092,18.65809 -40.00363,22.78705c-2.8862,0.76427 -5.97018,0.83133 -8.9433,0.82978c-18.66016,-0.00973 -39.14647,0.15356 -57.80663,0.15356c-6.82923,0 -15.4168,-2.51841 -21.88002,-3.24529c-9.7592,-1.09756 -19.41671,-1.09148 -29.24195,-0.85178c-20.38429,0.4973 -40.7737,1.1622 -61.1632,0.99023c-6.48067,0.5784 -13.13793,0.08667 -18.24249,-0.00436c-2.21048,-0.03942 -4.35575,-0.80076 -6.55881,-0.98588c-23.29686,-1.95755 -47.06306,-5.57114 -66.70424,-18.9342c-4.96216,-3.37605 -10.79254,-4.41542 -15.26829,-8.89116c-5.27115,-5.27115 -6.29467,-12.00788 -9.9962,-18.02198c-1.30639,-2.12258 -6.73727,-5.41727 -8.03958,-6.94328c-1.63759,-1.91887 -2.88107,-6.48108 -3.84304,-8.80348c-3.94084,-9.51403 -4.77115,-21.68922 -1.74143,-31.58288c2.25377,-7.35977 7.02134,-13.6925 9.57128,-20.98956c0.76344,-2.1847 0.69842,-4.79624 2.14412,-6.60337c1.58998,-1.98748 4.06234,-3.41465 4.97887,-5.78912c2.60242,-6.74209 7.33602,-14.52245 7.71429,-21.79127c0.12492,-2.40043 0.17282,-4.81357 0,-7.21102c-0.38776,-0.32332 -0.76544,-0.65832 -1.1325,-1.00446c-1.06876,-0.45562 -2.12456,-0.97948 -3.16151,-1.57202c-3.2399,-1.85137 -5.4187,-5.25979 -7.31705,-8.47238c-3.6579,-6.19028 -1.59211,-8.45404 -3.08086,-13.90659c-0.65588,-2.40218 -2.467,-4.84642 -3.21665,-7.29442c-1.34262,-4.38438 -1.6152,-9.01717 -2.70454,-13.42972c-0.31639,-1.28158 -1.98446,-2.19294 -2.73272,-3.36598c-1.48791,-2.33258 -2.63224,-4.86928 -4.05243,-7.24372c-0.61677,-1.03119 -2.84754,-1.89457 -3.54107,-2.53842c-2.48009,-2.30243 -5.74467,-5.43246 -7.31705,-8.47238c-1.97163,-3.81181 -4.4161,-11.99022 -6.61722,-14.98031c-2.57694,-3.5006 -4.55487,-7.15559 -5.67121,-11.66219c-0.20532,-0.82883 0.67003,-1.71171 0.4175,-2.52739c-2.38856,-7.71536 -3.20586,-15.17086 -3.20586,-23.22403c0,-5.25051 1.50901,-12.09093 3.10159,-17.18211c0.75517,-2.41413 0.4686,-5.37603 1.2368,-7.88464c1.71212,-5.59101 4.96281,-10.40436 7.98522,-15.35126c2.24608,-3.67626 3.92108,-8.48258 6.61276,-11.74521c6.72558,-8.15221 18.1205,-14.63415 28.65835,-16.40494c8.6404,-1.45194 19.05368,-1.75963 27.54003,0.83913c3.96588,1.21447 7.31049,3.10912 11.30633,4.27271c5.7571,1.67647 9.84207,4.14669 15.42658,6.44273c1.67288,0.6878 3.45814,1.08828 5.28239,1.38892c0.18185,-0.00395 0.36419,-0.00595 0.54698,-0.00595c3.08507,0 6.03776,0.56682 8.75959,1.602c1.24036,0.35928 2.43713,0.82974 3.56387,1.47886c0.96506,0.55599 1.8331,1.24858 2.66193,1.99642c1.35262,1.03733 2.5946,2.21173 3.70517,3.50244c0.92292,0.79706 1.81464,1.76272 2.32094,2.87571c8.07977,4.80998 18.3704,13.31842 23.34031,20.13758c3.23853,4.44355 6.95269,15.54519 8.67679,21.1753c0.92288,3.01369 1.22909,6.29847 1.22424,9.38817c-0.051,32.51098 -14.40258,68.49503 0.1368,97.57377c1.21543,2.30858 2.07528,4.83352 2.50671,7.50198c1.2133,1.28774 2.40569,2.61321 3.59694,3.94646zM220.13843,303.00453c14.59283,-0.23391 29.08971,-1.87934 43.69839,-0.92324c3.76015,0.24609 10.76923,0.48139 15.794,1.20984c3.54728,0.51426 13.37393,2.66717 17.91242,2.67103c1.04626,0.00089 48.42589,6.71348 62.45601,-4.20021c4.18246,-3.25344 9.26837,-5.62171 12.49975,-9.82123c1.30575,-1.69696 0.26422,-4.29873 0,-6.42355c-0.21003,-1.68909 -8.43008,-3.84115 -9.36583,-4.32516c-0.93748,-0.4849 -2.54893,-2.22079 -3.51427,-2.83692c-3.91015,-2.49565 -9.5398,-5.11357 -13.30909,-7.2649c-4.83419,-2.75913 -11.06983,-5.39919 -15.82629,-8.97813c-14.57312,-10.96535 -25.70795,-25.8804 -31.24186,-43.27269c-2.66385,-8.3721 -0.78716,-25.38173 0.68757,-34.04762c1.02982,-6.05151 3.79422,-10.23889 7.36256,-14.98997c12.91084,-17.19018 34.31057,-17.95773 54.38547,-22.8371c3.44167,-0.83653 5.9267,-2.8645 9.21563,-3.97464c5.84367,-1.97246 12.66336,-3.42842 18.459,-5.33388c6.4755,-2.12897 22.87441,-9.81149 26.5257,-15.41739c0.49716,-0.76331 -0.50148,-3.99305 -0.60077,-4.67149c-0.67557,-4.61643 -0.38165,-9.26481 -1.18961,-13.86789c-0.27157,-1.54717 -3.00598,-0.94167 -4.55222,-1.21846c-9.1881,-1.64478 -18.37908,-3.27343 -27.5664,-4.92257c-4.39884,-0.7896 -9.42416,-1.50613 -13.79228,-1.58794c-12.09652,-0.22656 -25.57942,0.15356 -37.67807,0.15356c-3.71739,0 -7.24238,-1.98648 -10.74573,-2.12532c-5.62906,-0.22308 -11.31767,-0.75422 -16.90043,0c-0.50124,0.06772 -4.83949,4.2958 -5.67322,5.12544c-3.66459,3.64662 -7.34629,8.1321 -10.28985,12.26475c-1.16607,1.63713 -3.97909,3.93 -4.10479,6.32698c-0.38887,7.41529 0.20388,14.46214 -1.3982,21.70845c-0.96048,4.34432 -1.04209,10.57342 -2.24284,14.34722c-1.77369,5.57445 -3.74405,10.8099 -4.24597,16.78322c-0.65558,7.80204 -0.87916,15.95636 -3.19599,23.52205c-2.13815,6.98221 -5.10752,13.80306 -7.4956,20.78171c-1.82065,5.32046 -3.57509,13.61637 -7.09053,18.12457c-4.71104,6.04143 -12.43611,11.10207 -19.18825,14.68914c-7.83664,4.16321 -17.76877,3.26317 -26.12573,3.08086c-8.14881,-0.17777 -15.47223,-3.29731 -22.78766,-6.09212c-17.20829,-6.57431 -24.44776,-10.32561 -37.54351,-24.12163c-0.09204,-0.09696 -0.18495,-0.1936 -0.27865,-0.28993c-3.09245,-1.9833 -5.7127,-4.63861 -7.65461,-7.75981c-0.7331,-0.97514 -1.36969,-2.01322 -1.85606,-3.14332c-1.35753,-3.15432 -1.96053,-6.74593 -1.85861,-10.38455c-13.63811,-31.66836 -3.7588,-111.05343 -3.76315,-113.04695c-0.00936,-4.29193 -4.77438,-7.62872 -7.58404,-10.09061c-3.57371,-3.13137 -8.00214,-5.34959 -11.86179,-8.06631c-2.43563,-0.58118 -4.81499,-1.25418 -7.08713,-1.94635l-0.00003,-0.00004c-9.60011,-2.92444 -18.58891,-9.4617 -28.8589,-9.41375c-0.43439,0.00202 -0.5289,0.69265 -0.74296,1.07064c-1.28347,2.26647 -3.28861,4.86897 -4.29453,7.18194c-1.35031,3.10485 -1.12444,7.58924 -1.68407,10.91956c-0.16935,1.00782 -1.41399,3.35864 -1.09518,4.35432c1.98074,6.18619 3.65063,12.88201 7.86252,17.98453c0.97062,1.17586 1.04154,3.76517 1.92017,4.6084c5.19883,4.98937 7.68934,8.84647 10.9916,15.29396c0.45118,0.88091 4.19836,5.5305 4.74928,6.53799c2.32652,4.25453 4.44672,8.90116 5.77814,13.59047c1.05856,3.72829 0.76855,8.11452 2.38787,11.62332c1.0607,2.29834 2.04998,4.75882 2.87915,7.31505c1.50881,0.88738 2.92578,1.8872 4.22063,2.98704c5.84584,4.96544 10.15149,14.72621 12.00515,21.9692c1.65614,6.47122 0.39882,22.32009 0.38511,23.56862c-0.09238,8.4104 -2.88599,15.58092 -5.76221,23.25803c-2.14374,5.722 -3.91517,11.96966 -6.42023,17.55789c-1.68297,3.75432 -4.10255,6.78783 -6.40558,10.10388c-2.69354,3.87833 -4.00403,9.22634 -6.04903,13.63005c-0.69271,1.49168 2.0733,2.55367 3.10904,3.83124c0.84805,1.04606 1.47923,2.25181 2.16606,3.41013c1.25783,2.12131 3.78291,9.25084 5.72686,10.66155c14.82222,10.75634 38.26798,14.5503 55.68547,15.14904c5.30907,0.1825 10.76089,-0.797 15.98081,-0.01397c12.02551,-0.07287 24.05319,0.20671 36.07743,0.01397z" fill="#ffffff" stroke="#dadada" stroke-width="3.5" stroke-linecap="butt"/><path d="M181.31256,123.01635h-48.6667" fill="none" stroke="#ffe700" stroke-width="2" stroke-linecap="round"/></g></g></svg>