<svg version="1.1" xmlns="http://www.w3.org/2000/svg" xmlns:xlink="http://www.w3.org/1999/xlink" width="473.1276" height="343.43293" viewBox="0,0,473.1276,343.43293"><g transform="translate(-1.10669,-4.9497)"><g data-paper-data="{&quot;isPaintingLayer&quot;:true}" fill-rule="nonzero" stroke-linejoin="miter" stroke-miterlimit="10" stroke-dasharray="" stroke-dashoffset="0" style="mix-blend-mode: normal"><path d="M474.23426,305.63815c0,37.51288 -14.31027,37.44076 -39.0274,40.23456c-40.85023,4.61734 -110.12623,-7.1775 -190.20683,-7.1775c-30.09507,0 -19.86101,-63.6702 -46.26185,-107.12249c-3.34408,-5.50392 -39.25989,-1.67267 -44.71494,-3.69883c-5.80893,-2.15761 -18.22933,1.84647 -24.01444,-3.84284c-22.50742,-22.13472 -25.40245,-11.69875 -37.61535,-30.38782c-7.4482,-11.39778 -8.84861,-24.40095 -15.15709,-34.78685c-5.00416,-8.23855 -12.75397,1.57706 -17.21748,-6.48161c-3.24907,-5.86606 -15.42582,0.45064 -18.46574,-5.08255c-7.28018,-13.25121 -24.80732,-12.38683 -30.6594,-22.2058c-15.07838,-25.29941 -11.91502,-47.78414 3.88108,-68.69751c13.42751,-17.77747 12.47769,-22.53742 22.98854,-29.3064c3.59337,-2.31413 15.23421,-8.49012 24.42287,-9.51942c32.73887,-3.66735 74.18402,-22.49762 124.62263,-5.82689c27.77582,9.18033 24.67464,2.69151 59.41699,15.52937c17.745,6.55707 73.04205,51.64585 85.3658,51.64585c128.53474,0 142.64264,127.21596 142.64264,226.72673z" fill="#fff9bf" stroke="none" stroke-width="0" stroke-linecap="butt"/><path d="M409.5,220.2765c-0.37942,-2.52282 -1.88058,-4.88284 -2.13485,-7.42557c-0.97835,-9.78353 1.6367,-10.74098 -5.16369,-17.03684c-1.4067,-1.30234 -4.18535,-1.50295 -5.67688,-2.73347c-1.55684,-1.28439 -2.47919,-3.36056 -4.26851,-4.29423c-0.85041,-0.44375 -3.14731,-1.28001 -3.73149,-1.70577c-8.08099,-5.88953 -14.89802,-13.55144 -22.48719,-20.14872c-2.36487,-2.05579 -4.33259,-4.69869 -7.10985,-6.1498c-7.33799,-3.83407 -16.05876,-5.43802 -23.06816,-9.63337c-12.26605,-7.34162 -24.41486,-15.44702 -36.93184,-22.36663c-8.35857,-4.62077 -17.17139,-8.76181 -25.60787,-13.30394c-9.07761,-4.88731 -16.75182,-11.97071 -25.1703,-17.73429c-3.15845,-2.16238 -7.52059,-4.05403 -10.9167,-6.0917c-1.60813,-0.96488 -7.49647,-7.07875 -8.41078,-7.29991c-7.4648,-1.80564 -14.96742,-1.41028 -22.43184,-2.57494c-9.20106,-1.43562 -18.7546,-2.67426 -27.95342,-4.40629c-20.31502,-3.82508 -41.45293,1.2844 -62.01275,-0.33992c-7.65725,-0.60496 -15.29486,-1.48016 -22.96373,-1.91364c-3.62457,-0.20488 -7.26377,-0.14898 -10.89107,0c-1.07966,0.04434 -12.60168,2.69477 -13.24158,3.45827c-1.11649,1.33215 -2.87558,2.3862 -3.23997,4.08572c-0.17399,0.81152 -1.2275,2.31658 -0.40933,2.45601c4.8704,0.82996 9.88144,-0.04669 14.82182,0c6.87603,0.06498 13.85802,1.81969 20.65277,2c17.09924,0.45375 34.34019,-1.48787 46.93577,12.40644c10.19212,11.24303 16.63203,23.95806 15.28739,39.08115c-0.74065,8.32999 -1.07088,14.92233 -5.35329,22.12702c-0.65168,1.09637 -4.35481,5.52977 -3.27374,6.71028c0.52893,0.57758 3.07097,0.55497 3.8805,0.68805c5.19573,0.85411 10.71623,1.26237 15.97543,0.98706c1.48233,-0.0776 0.97395,-2.80589 1.53449,-4.18034c1.98393,-4.86457 4.16376,-9.52559 7.68301,-13.49733c5.57947,-6.29685 10.41944,-15.18445 18.17767,-19.19733c9.93207,-5.13728 29.9811,-4.96221 40,0c11.21661,5.55542 20.71488,13.78035 32,19c3.8975,1.80269 6.53035,6.41948 10.30898,8.32864c8.61424,4.35236 22.27509,10.57116 30.16645,16.58322c1.86484,1.42074 3.12617,3.73196 4.94959,5.08708c9.80407,7.28617 20.85976,15.38483 24.83321,27.36427c3.36332,10.13998 2.0019,30.14854 -2.88322,40.01179c-2.23365,4.50983 -5.57137,8.398 -7.76376,12.98796c-1.98026,4.14584 -5.25816,7.88749 -8.43357,11.18971c-1.30698,1.35918 -2.63134,2.70295 -4,4c-0.50523,0.4788 -2.3113,1.28603 -1.61618,1.32233c8.96729,0.46827 17.9591,-0.03954 26.93851,0c6.93926,0.03055 15.54462,1.77002 21.24689,2c9.24352,0.37281 18.50238,-0.07507 27.75311,0c3.93572,0.03194 7.87588,1.95469 11.65277,2c0.43443,0.00521 0.86938,-0.00277 1.30479,-0.02252c0.52494,-1.87667 0.96394,-3.75274 0.98688,-5.56444c0.11478,-9.06289 -1.15356,-18.58567 0.95389,-27.51298c0.90413,-3.82998 0.73607,-7.47717 1.4156,-11.14612c-1.2744,-5.0349 -1.24337,-10.47648 -2.31394,-17.59492zM403.5,332.11748c-3.57247,-0.08773 -7.05504,-1.97404 -10.47549,-2c-8.84125,-0.06711 -17.6831,0.03951 -26.52451,0c-7.01201,-0.03133 -14.91233,-1.87013 -21.24689,-2c-23.55452,-0.48291 -49.7961,0.15576 -73.35557,0.15576c-6.42014,0 -10.81629,-3.64138 -15.29924,-4.15576c-8.45363,-0.97 -12.81251,-0.10477 -19.8979,-6.22398c-4.07976,-3.52343 -6.47424,-8.58453 -7.91748,-13.87033c-1.08147,-3.96084 -2.13449,-9.35457 -1.85113,-13.23071c0.56322,-7.7045 5.01697,-16.02641 11.11509,-20.76873c0.66848,-0.51986 1.71166,-0.13746 2.28731,-0.84197c1.41198,-1.72805 3.31217,-3.74381 5.19039,-5.02742c4.23576,-2.89479 9.85995,-2.87845 14.12408,-5.18222c4.70557,-2.54227 8.32395,-6.27672 12.66215,-9.28907c6.31191,-4.38284 14.35055,-7.03723 18.07796,-14.05353c0.82485,-1.55266 6.46825,-8.95622 4.89451,-10.12086c-4.87794,-3.60991 -7.60803,-6.0263 -11.96439,-9.53089c-8.2079,-6.60305 -19.64233,-10.06162 -28.31839,-15.59593c-2.1515,-1.3724 -3.03504,-2.92387 -4.93506,-4.34359c-0.6052,-0.45221 -2.5096,-0.75049 -3.06544,-1.04578c-7.30806,-3.88241 -13.84635,-11.51213 -21.88045,-14.34851c-1.07587,-0.37983 -1.54386,1.68035 -2.3134,2.5227c-1.17601,1.28728 -0.35748,4.91542 -0.99935,6.57993c-0.59265,1.53686 -1.53361,2.91587 -2.27025,4.38915c-5.13509,10.27017 -10.10352,17.03178 -20.37986,22.34713c-8.52817,4.41112 -25.08815,2.69158 -32.65669,2.6346c-15.33371,-0.11544 -30.77921,-3.24096 -44.62712,-9.36271c-2.7337,-1.20849 -6.04101,-1.34635 -8.87288,-2.76229c-19.39693,-9.69846 -16.52035,-30.37548 -11.14304,-47.27563c1.68031,-5.28098 5.45623,-9.94991 7.26975,-15.39047c0.52088,-1.56265 0.83063,-3.20311 1.49829,-4.7089c0.42223,-0.95226 2.91363,-2.42053 1.875,-2.5c-4.98543,-0.38145 -10.00107,0.10328 -15,0c-6.20637,-0.12823 -12.32353,-1.81965 -18.55644,-2c-6.22641,-0.18016 -18.98676,0.97261 -27.34981,-0.39062c-15.90452,-2.59254 -30.42024,-13.32786 -35.40055,-28.98025c-2.74055,-8.61315 -0.59539,-22.32852 0.11794,-31.16506c0.57892,-7.17146 4.09198,-13.07691 7.71161,-19.04318c6.10784,-10.06761 16.14139,-21.14399 27.84812,-24.72768c2.30958,-0.70701 4.95155,-0.6245 7.31662,-1.38449c6.82148,-2.192 14.06451,-4.21606 21.3125,-4.30872c16.83482,-0.21521 20.03645,1.56668 39.03986,2c20.31476,0.46322 40.64019,-0.0625 60.96014,0c10.43694,0.0321 21.92445,3.57157 32.06906,5c12.15167,1.71104 26.56782,0.32037 37.68921,6.0728c5.8895,3.04629 10.84813,7.30574 15.41274,12.07504c2.10606,2.2005 8.70303,4.80152 12.19504,7.23673c9.30759,6.49082 18.04019,13.70994 28.20642,18.9508c12.62438,6.50808 24.58489,13.11599 36.67751,20.46466c4.98096,3.02693 10.94629,7.61721 16.50447,9.76579c8.85772,3.42406 18.00247,6.57066 26.11306,11.63291c10.65467,6.65015 18.49646,16.90447 28.47482,24.15766c15.82334,11.50186 31.31582,21.53441 40.53267,40.1436c3.67657,7.42315 2.71368,14.32914 3.125,22.34099c0.12952,2.52278 1.88184,4.89549 2.13485,7.42557c0.30418,3.04176 -0.85993,6.35541 0.15433,9.39945c0.47486,0.93199 0.89298,1.89772 1.24981,2.89264c0.94576,2.63696 1.46101,5.47898 1.46101,8.44135c0,3.04877 -0.54574,5.97007 -1.54486,8.67155c0.57477,4.68454 0.30358,9.6224 -0.39982,13.80827c-0.22592,1.34445 -1.09357,2.92104 -1.11088,4.28732c-0.06857,5.41386 0.90535,18.0305 -0.39062,25.74271c-0.64194,3.82014 -2.55181,7.94417 -2.61238,11.79482c-0.07135,4.53599 0.37341,10.36275 -0.00053,15.99517c-0.01522,2.35921 -0.35723,4.64086 -0.98302,6.80196c-0.48936,1.98988 -1.17847,3.86181 -2.14145,5.53333c-0.56395,0.97889 -1.26647,1.85937 -2.02501,2.70006c-1.05219,1.372 -2.24341,2.63177 -3.55261,3.75824c-0.98755,1.14348 -2.23025,2.23977 -3.68881,2.63397c-3.70159,2.16617 -8.01009,3.40772 -12.60856,3.40772c-4.98998,0 -9.6385,-1.46195 -13.54062,-3.98091c-1.23026,-0.61306 -2.38088,-1.35991 -3.48603,-2.32356c-3.8875,0.23617 -7.61166,0.25045 -10.9148,0.16934z" fill="#b3b3b3" stroke="#747474" stroke-width="3.5" stroke-linecap="butt"/><path d="M265.32664,331.72636c-2.60888,7.82664 -10.43552,5.21776 -10.43552,5.21776l-4.7284,-1.80877c-1.16545,-1.06141 -2.3309,-2.12283 -3.49635,-3.18424c-0.88809,-0.88809 -1.38855,-2.23786 -2.50365,-2.81576c-0.93588,-0.48502 -2.09612,-0.45767 -3,-1c-0.80845,-0.48507 -1.21666,-1.47534 -2,-2c-4.03272,-2.70101 -10.46599,-1.24576 -14.26818,-4.96466c-4.34863,-4.25337 -3.64454,-9.81313 -3.64454,-15.05321c0,-10.75069 1,-21.25251 1,-32c0,0 0,-8.25 8.25,-8.25c3.35852,0 5.3498,1.36723 6.53045,2.98851c0.62612,-1.29559 1.26001,-2.5873 1.84754,-3.89564c2.73205,-6.08388 4.45405,-13.4411 11.46487,-16.46487c1.89434,-0.81703 4.10476,-0.41866 6.15714,-0.62799c0,0 8.25,0 8.25,8.25c0,6.72849 -5.48759,7.9694 -7.51169,8.19825c-0.46427,0.54672 -1.07495,1.00919 -1.43063,1.63063c-0.92536,1.61676 -0.93492,3.62339 -1.68567,5.32826c-1.13749,2.58313 -4.00528,6.89976 -4.47853,10.16437c-0.73991,5.10404 -0.75033,10.38064 -2.78394,15.31845c2.54976,2.32138 4.53012,4.63813 5.65834,8.02277c0.88462,0.71881 1.23906,1.92329 1.98983,2.78095c0.14472,0.16533 0.38584,-0.31394 0.60118,-0.27031c1.0331,0.20933 2.00931,0.63995 3,1c1.58602,0.57641 3.25985,0.97746 4.7284,1.80877c0.82047,0.46445 1.22986,1.45614 2,2c1.38564,0.97851 3.32365,0.68546 4.96932,1.09688l3.30228,1.09435c0,0 1.49686,0.49895 2.96316,1.71507c1.77031,0.42453 3.00424,1.24715 3.00424,1.24715c1.68723,1.1471 2.99245,2.8293 4.76101,3.84655c0.91373,0.52556 2.10702,0.43991 3,1c0.45713,0.28672 0.46729,0.98736 0.81986,1.39586c0.14099,0.16336 -0.10476,-0.41866 -0.15714,-0.62799h3c0,0 8.25,0 8.25,8.25c0,8.25 -8.25,8.25 -8.25,8.25h-3c-2.05238,-0.20933 -4.20761,0.04684 -6.15714,-0.62799c-1.29474,-0.44818 -1.99659,-1.91391 -3.18014,-2.60414c-0.91056,-0.53102 -2.10304,-0.44631 -3,-1c-1.89635,-1.17061 -3.36714,-2.94406 -5.23899,-4.15345c0,0 -0.40885,-0.27257 -0.96046,-0.78444c-0.66274,-0.11688 -1.07214,-0.25334 -1.07214,-0.25334l-2.05246,-0.68903c-0.05365,0.75885 -0.21537,1.58133 -0.51202,2.47127z" fill="#fff9bf" stroke="none" stroke-width="0.5" stroke-linecap="butt"/><path d="M411.25,340.11748c0,-4.46882 3.5531,-8.10777 7.98839,-8.24593c1.7038,-0.46943 3.45874,-0.82005 4.92432,-1.77194c0.72466,-0.47067 1.04483,-1.442 1.79573,-1.86957c1.5599,-0.88822 3.44146,-1.1094 5,-2c0.81859,-0.46776 1.17679,-1.54042 2,-2c2.79054,-1.55789 6.07112,-2.06912 8.9169,-3.52366c1.07017,-0.54698 1.92204,-1.46855 3,-2c0.70751,-0.34882 1.54636,-0.33629 2.28737,-0.60677c1.17791,-0.42996 1.17226,-2.23469 1.95721,-3.21254c1.29939,-1.6187 2.55389,-1.64846 2.13007,-3.76959v-2c0,0 0,-8.25 8.25,-8.25c8.25,0 8.25,8.25 8.25,8.25v2c-0.27203,6.03409 -2.1566,9.57523 -5.86993,14.23041c-1.88897,2.3681 -3.5239,5.10482 -6.04279,6.78746c-4.11038,2.74577 -9.60743,3.38573 -13.79573,5.86957c-0.81093,0.48092 -1.18141,1.53224 -2,2c-1.55854,0.8906 -3.44273,1.10717 -5,2c-0.88648,0.50825 -1.31868,1.62063 -2.20427,2.13043c-2.87813,1.65684 -6.19073,2.40656 -9.27331,3.64206c0,0 -1.79619,0.71848 -3.9969,0.5898c-0.02234,0.00018 -0.04469,0.00027 -0.06707,0.00027c-4.55635,0 -8.25,-3.69365 -8.25,-8.25z" fill="#fff9bf" stroke="none" stroke-width="0.5" stroke-linecap="butt"/><path d="M460.06256,225.6422h-47.6667" fill="none" stroke="#ffe700" stroke-width="2" stroke-linecap="round"/><path d="M456.16667,299.78415l-4.66667,12l-7.33333,7.66667l-11,6.33333l-10.66667,5.66667h-9.33333" fill="none" stroke="#747474" stroke-width="3.5" stroke-linecap="round"/><path d="M299.16666,327.78415l-6.33333,-3.66667l-4.66667,-0.33333l-11.33333,-6.66667l-13.33333,-4.66667l-9,-6l-7.66667,-10l0.66667,-9l10,-24l3.33333,-1.33333l4.66667,-7" fill="none" stroke="#747474" stroke-width="3.5" stroke-linecap="round"/></g></g></svg>