<svg version="1.1" xmlns="http://www.w3.org/2000/svg" xmlns:xlink="http://www.w3.org/1999/xlink" width="413.3705" height="352.5772" viewBox="0,0,413.3705,352.5772"><g transform="translate(-33.31477,-3.72738)"><g data-paper-data="{&quot;isPaintingLayer&quot;:true}" fill-rule="nonzero" stroke-linejoin="miter" stroke-miterlimit="10" stroke-dasharray="" stroke-dashoffset="0" style="mix-blend-mode: normal"><path d="M44.99999,221.41265l0.03637,-0.36368l-0.17122,-1.36976l0.47257,-1.64371l0.05291,-0.5291l1.0288,-3.23337l0.58057,-2.01939v-31.73384l-0.39357,-1.23693l-0.24947,-0.46958l-0.93754,-3.26101l-1.0288,-3.23337l-0.05291,-0.5291l-0.47257,-1.64371l0.17122,-1.36976l-0.03637,-0.36368v-54.34723l-0.58177,-2.5764l-0.00119,-0.08711l-0.02641,-0.08302l-0.39062,-3.90625v-56.98913l-0.15576,-0.61332l0.15576,-0.993v-0.40454l0.39063,-3.90625l0.56327,-1.77027l0.28789,-1.83527l1.39754,-3.66855l0.18092,-0.36183l0.30476,-0.95783l0.03695,-0.04278l0.12097,-0.36291l1.60584,-3.58227l0.2607,-0.35771l0.8874,-2.12975l2.28543,-2.22366l1.87811,-2.57694l1.76837,-1.05207l0.60981,-0.59333l0.50001,-0.51389l2.24374,-2.74235l2,-2l3.03835,-2.48592l0.07738,-0.04002l0.06244,-0.06075l3.31916,-2.09631l2,-1l1.65681,-0.63116l1.61784,-0.72524l3,-1l3.82932,-0.86469l0.08711,-0.00119l0.08302,-0.02641l1.361,-0.1361l0.03346,-0.01275l1.27174,-0.19949l0.69788,-0.22205l0.36183,-0.18092l3.66855,-1.39754l1.83527,-0.28789l1.77027,-0.56327l3.88833,-0.38883l0.62038,-0.15756l0.39754,0.06236l0.39754,-0.06236l0.62038,0.15756l3.88833,0.38883l1.77027,0.56327l1.83527,0.28789l3.66855,1.39754l0.36183,0.18092l0.95783,0.30476l0.47891,0.41361l0.89135,0.44568l1.64152,0.25749l0.38939,0.14834l0.00506,0.00051l0.08302,0.02641l0.08711,0.00119l3.82932,0.86469l3,1l1.61784,0.72524l1.65681,0.63116l8,4l3.31916,2.09631l0.06244,0.06075l0.07738,0.04002l1.67326,1.36903l0.86776,0.43388l3.31916,2.09631l0.06244,0.06075l0.07738,0.04002l1.44376,1.18126l1.42871,0.22411l0.03346,0.01275l1.361,0.1361l0.08302,0.02641l0.08711,0.00119l3.82932,0.86469l2.15125,0.71708h7.93219l0.61332,-0.15576l0.993,0.15576h0.40454l3.90625,0.39063l1.77027,0.56327l1.83527,0.28789l0.38939,0.14834l0.00506,0.00051l0.08302,0.02641l0.08711,0.00119l3.82932,0.86469l2.08915,0.69638l0.80122,0.20031l2.11018,0.21102l1.77027,0.56327l1.83527,0.28789l3.66855,1.39754l0.36183,0.18092l0.95783,0.30476l0.47891,0.41361l0.20143,0.10071l0.82913,0.52366l0.50232,0.0788l3.66855,1.39754l0.36183,0.18092l0.95783,0.30476l0.47891,0.41361l0.20143,0.10071l3.31916,2.09631l0.06244,0.06075l0.07738,0.04002l2.47164,2.02225l1.38854,0.87697l1.82338,1.7741l1.98656,1.58925l1.40587,1.7115l1.24782,1.2141l0.38971,0.93531l1.44841,2.17261l0.51639,0.97203l1.84594,2.25615l0.20336,0.39315l1.50805,1.74617l0.96683,3.0386l1.46497,2.83227l0.1184,1.61814l1.33303,3.49919l0.19949,1.27174l0.22205,0.69788l0.18092,0.36183l1.39754,3.66855l0.28789,1.83527l0.56327,1.77027l0.0357,0.35703l0.49036,0.85359l-0.17113,2.33873l0.03569,0.3569v0.40454l0.15576,0.993l-0.15756,0.62038l-0.38883,3.88833l-0.13421,0.4218l-0.16837,2.30108l-1.46497,2.83227l-0.96683,3.0386l-1.50805,1.74617l-0.20336,0.39315l-2.48592,3.03835l-0.71297,0.71297l-0.70034,1.10887l-0.06075,0.06244l-0.04002,0.07738l-2.48592,3.03835l-2,2l-2.03381,1.66403l-0.68072,1.63373l-2.28543,2.22366l-1.87811,2.57694l-1.98285,1.17967l-0.31725,0.30867l-0.28953,0.18286l-0.33497,1.05277l-1.50805,1.74617l-0.20336,0.39315l-1.36903,1.67326l-0.43388,0.86776l-0.68451,1.08381l-0.71303,1.71128l-3.54172,3.446l-0.50001,0.51389l-1.04234,1.27398l-0.2697,2.69696l-0.13421,0.4218l-0.10297,1.40721l1.80814,0.90407l3.31916,2.09631l0.06244,0.06075l0.07738,0.04002l1.42217,1.16359h0.93851l0.36368,0.03637l1.36976,-0.17122l1.64371,0.47257l0.5291,0.05291l3.23337,1.0288l3.26101,0.93754l0.46958,0.24947l1.23693,0.39357h7.24008l2.5764,-0.58177l0.08711,-0.00119l0.08302,-0.02641l0.00506,-0.00051l0.38939,-0.14834l1.83527,-0.28789l0.34318,-0.10919l0.83333,-0.7197l1.62979,-0.51857l0.46958,-0.24947l3.26101,-0.93754l1.09745,-0.34919l3.72959,-1.86479l1.67326,-1.36903l1.65006,-0.85348l0.50671,-0.3693l2.50713,-2.57677l0.99981,-0.41659l1.44055,-1.44055l0.44131,-1.63285l4.91067,-4.24103l1.71137,-1.75891l0.74933,-1.67157l0.07935,-0.27599l0.28409,-0.53477l0.2477,-0.55257l0.16914,-0.23207l1.14084,-2.14747l0.2047,-0.30704l1.48532,-3.31341l0.2607,-0.35771l0.8874,-2.12975l2.28543,-2.22366l1.87811,-2.57694l1.98285,-1.17967l0.31725,-0.30867l3.31916,-2.09631l0.37136,-0.18568l0.13131,-0.13131l3.03835,-2.48592l0.07738,-0.04002l0.06244,-0.06075l3.28483,-2.07463l0.79331,-0.59498l0.74369,-0.74369l2.1971,-1.79762l1.00578,-1.22442l0.05118,-0.07676l0.06048,-0.05917l0.0537,-0.06538l0.07204,-0.05763l2.62002,-2.56307l2.07274,-1.65819l1.30702,-1.59116l1.09627,-1.33989l0.87697,-1.38854l1.7741,-1.82338l1.58925,-1.98656l1.7115,-1.40587l0.54368,-0.55878l0.40823,-0.49697l1.55994,-1.9066l4,-4l3.03835,-2.48592l0.07738,-0.04002l0.06244,-0.06075l1.10887,-0.70034l3.71297,-3.71297l1.9066,-1.55994l1.90357,-1.56364l3,-2l1.37283,-0.72932l0.46553,-0.29402l3.05372,-3.13854l1.71128,-0.71303l1.08381,-0.68451l0.86776,-0.43388l1.67326,-1.36903l0.07738,-0.04002l0.06244,-0.06075l1.38854,-0.87697l2.47164,-2.02225l1.65006,-0.85348l1.5013,-1.09417l3.58227,-1.60584l0.38378,-0.12793l0.89279,-0.46179l0.39948,-0.02923l0.30251,-0.15125l0.49489,-0.70289l1.55155,-0.95775l1.24138,-1.01567l2.49284,-1.2894l2.38821,-1.4742l1.50962,-0.54191l1.61953,-0.83769l1.10088,-0.08055l3.46486,-0.86622l0.97729,-0.14302l3.57431,-1.36164l1.83527,-0.28789l1.77027,-0.56327l3.90625,-0.39062h0.40454l0.993,-0.15576l0.61332,0.15576h0.01868l0.29394,-0.04611l1.77027,-0.56327l3.90625,-0.39062h0.40454l0.993,-0.15576l0.61332,0.15576h33.98913l0.36368,0.03637l1.36976,-0.17122l1.64371,0.47257l0.5291,0.05291l3.23337,1.0288l3.26101,0.93754l0.46958,0.24947l1.62979,0.51857l1.04473,0.90227l0.32277,0.17147l1.70496,1.13664l4.60787,2.30394l1.08381,0.68451l1.71128,0.71303l3.05372,3.13854l0.20955,0.13235l2.21443,0.59849l4.24103,4.91067l2.26898,2.20766l0.3378,0.81072l0.57406,0.6647l0.95987,3.01673l1.0862,2.60688l0.43961,0.69605l1.10071,2.20143l0.41361,0.47891l0.30476,0.95783l0.18092,0.36183l1.39754,3.66855l0.28789,1.83527l0.56327,1.77027l0.39063,3.90625v0.40454l0.15576,0.993l-0.15576,0.61332v14.97827l0.15576,0.61332l-0.15576,0.993v0.40454l-0.39062,3.90625l-0.56327,1.77027l-0.28789,1.83527l-0.54132,1.42097l0.11356,0.5611l-2.49559,5.98941l-0.95987,3.01673l-0.57406,0.6647l-0.3378,0.81072l-2.26898,2.20766l-1.24753,1.44451l-1.18226,1.87191l-1.7741,1.82338l-1.58925,1.98656l-1.7115,1.40587l-1.2141,1.24782l-0.93531,0.38971l-0.11288,0.07526l-0.38087,0.38087l-2.39112,4.78224l-0.43816,1.31448l-1.60584,3.58227l-0.2607,0.35771l-0.8874,2.12975l-2.28543,2.22366l-1.87811,2.57694l-1.98285,1.17967l-0.31725,0.30867l-0.75702,0.47812l-0.47812,0.75702l-0.06075,0.06244l-0.04002,0.07738l-2.48592,3.03835l-0.13131,0.13131l-1.18568,2.37136l-0.68451,1.08381l-0.71303,1.71128l-2.92105,2.84211l-0.1548,0.30959l-0.27791,2.77913l-0.01726,0.05424l2.89115,1.20465l3.01673,0.95987l0.23263,0.20091l3.05734,1.1647l1.25104,-0.07237l3.25286,1.93525l1.19409,0.53528l1.30811,0.95337l4.00352,2.38184l0.8332,1.14323l1.14323,0.8332l2.38184,4.00352l0.95337,1.30811l0.53528,1.19409l1.93525,3.25286l-0.06514,1.12605l0.35838,0.41496l0.30476,0.95783l0.18092,0.36183l1.39754,3.66855l0.28789,1.83527l0.56327,1.77027l0.01116,0.11161l0.25446,0.29464l0.30476,0.95783l0.18092,0.36183l1.39754,3.66855l0.28789,1.83527l0.56327,1.77027l0.27346,2.73461l0.69893,3.09527l0.00119,0.08711l0.02641,0.08302l0.39063,3.90625v11.98913l0.15576,0.61332l-0.15576,0.993v0.40454l-0.39062,3.90625l-0.56327,1.77027l-0.28789,1.83527l-1.39754,3.66855l-0.18092,0.36183l-0.30476,0.95783l-0.41361,0.47891l-2.10071,4.20143l-2.09631,3.31916l-0.06075,0.06244l-0.04002,0.07738l-0.86554,1.05788l-0.2043,0.75593l-1.41171,1.21921l-0.00437,0.00534l-2,2l-3.03835,2.48592l-0.39315,0.20336l-1.74617,1.50805l-3.0386,0.96683l-2.83227,1.46497l-2.16089,0.15811l-0.56254,0.25217l-3,1l-3.82932,0.86469l-0.08711,0.00119l-0.08302,0.02641l-0.00506,0.00051l-0.38939,0.14834l-1.83527,0.28789l-1.77027,0.56327l-3.2254,0.32254l-0.15731,0.05993l-1.61784,0.72524l-9,3l-3.82932,0.86469l-0.08711,0.00119l-0.08302,0.02641l-1.361,0.1361l-0.03346,0.01275l-1.83527,0.28789l-1.77027,0.56327l-3.90625,0.39063h-0.40454l-0.993,0.15576l-0.61332,-0.15576h-4.33636l-2.5764,0.58177l-0.08711,0.00119l-0.08302,0.02641l-3.90625,0.39063h-8.98913l-0.61332,0.15576l-0.993,-0.15576h-0.40454l-3.90625,-0.39062l-1.77027,-0.56327l-1.83527,-0.28789l-2.88092,-1.09749l-0.51354,-0.05135l-0.08302,-0.02641l-0.08711,-0.00119l-2.5764,-0.58177h-6.33636l-0.61332,0.15576l-0.993,-0.15576h-0.40454l-3.90625,-0.39062l-1.77027,-0.56327l-1.83527,-0.28789l-0.03346,-0.01275l-1.361,-0.1361l-0.08302,-0.02641l-0.08711,-0.00119l-2.5764,-0.58177h-2.34723l-0.36368,-0.03637l-1.36976,0.17122l-1.64371,-0.47257l-0.5291,-0.05291l-3.23337,-1.0288l-2.01939,-0.58057h-0.83012l-0.61332,0.15576l-0.993,-0.15576h-0.40454l-3.90625,-0.39062l-1.77027,-0.56327l-0.29394,-0.04611h-17.52742l-1.99033,0.75822l-1.83527,0.28789l-1.77027,0.56327l-3.90625,0.39063h-0.02954l-0.29394,0.04611l-1.77027,0.56327l-1.52913,0.15291l-5.39821,2.69911l-0.47891,0.41361l-0.95783,0.30476l-0.36183,0.18092l-2.89271,1.10198l-0.02327,0.03684l-0.06075,0.06244l-0.04002,0.07738l-1.28452,1.56997l-0.2697,2.69696l-0.56327,1.77027l-0.28789,1.83527l-1.39754,3.66855l-0.18092,0.36183l-0.30476,0.95783l-0.41361,0.47891l-0.30615,0.6123l-0.43816,1.31448l-0.72524,1.61784l-0.33112,0.86918l-0.05135,0.51354l-1.0288,3.23337l-0.93754,3.26101l-0.24947,0.46958l-0.51857,1.62979l-0.90227,1.04473l-0.17147,0.32277l-0.2047,0.30704l-1.48532,3.31341l-0.2607,0.35771l-0.8874,2.12975l-2.28543,2.22366l-1.87811,2.57694l-0.62303,0.37066l-0.08282,0.30644l-1.41171,1.21921l-0.00437,0.00534l-2,2l-3.03835,2.48592l-0.39315,0.20336l-1.74617,1.50805l-2.66667,0.84848l-1.33333,1.15152l-3.0386,0.96683l-2.83227,1.46497l-2.30108,0.16837l-0.4218,0.13421l-0.63724,0.06372l-1.08867,0.68758l-0.20143,0.10071l-0.47891,0.41361l-0.95783,0.30476l-0.36183,0.18092l-3.66855,1.39754l-1.83527,0.28789l-1.77027,0.56327l-2.37351,0.23735l-0.03274,0.02827l-0.95783,0.30476l-0.36183,0.18092l-3.66855,1.39754l-1.83527,0.28789l-0.73499,0.23386l-2.30221,1.88362l-0.07738,0.04002l-0.06244,0.06075l-3.31916,2.09631l-0.20143,0.10071l-0.47891,0.41361l-0.67473,0.21469l-0.84984,0.87345l-0.81072,0.3378l-0.6647,0.57406l-3.01673,0.95987l-5.98941,2.49559l-1.27407,-0.25785l-2.03944,1.28807l-0.86776,0.43388l-1.67326,1.36903l-0.07738,0.04002l-0.06244,0.06075l-3.31916,2.09631l-0.86776,0.43388l-1.67326,1.36903l-0.07738,0.04002l-0.06244,0.06075l-3.31916,2.09631l-2,1l-1.65681,0.63116l-1.61784,0.72524l-0.36291,0.12097l-0.04278,0.03695l-0.95783,0.30476l-0.36183,0.18092l-3.66855,1.39754l-1.83527,0.28789l-1.77027,0.56327l-3.90625,0.39063h-0.40454l-0.993,0.15576l-0.61332,-0.15576h-5.01868l-0.29394,0.04611l-1.77027,0.56327l-0.00506,0.00051l-0.38939,0.14834l-1.83527,0.28789l-1.77027,0.56327l-3.90625,0.39063h-0.40454l-0.993,0.15576l-0.61332,-0.15576h-12.98913l-1.24556,-0.12456l-2.2483,0.45501l-5.98941,-2.49559l-2.62387,-0.83487h-9.89286l-3.90625,-0.39062l-0.08302,-0.02641l-0.08711,-0.00119l-3.82932,-0.86469l-0.03279,-0.01093l-0.96776,-0.09678l-1.77027,-0.56327l-1.83527,-0.28789l-2.52499,-0.9619l-1.86947,-0.18695l-1.77027,-0.56327l-1.83527,-0.28789l-0.38939,-0.14834l-0.00506,-0.00051l-1.77027,-0.56327l-1.83527,-0.28789l-3.66855,-1.39754l-0.36183,-0.18092l-0.95783,-0.30476l-0.47891,-0.41361l-0.20143,-0.10071l-1.05836,-0.66844l-2.21443,-0.59849l-4.24103,-4.91067l-2.26898,-2.20766l-0.3378,-0.81072l-0.57406,-0.6647l-0.95987,-3.01673l-2.42751,-5.82603l-0.70076,-0.68182l-0.3378,-0.81072l-0.57406,-0.6647l-0.95987,-3.01673l-1.70781,-4.09875l-0.42045,-0.40909l-0.3378,-0.81072l-0.57406,-0.6647l-0.95987,-3.01673l-2.49559,-5.98941l0.14214,-0.70234l-1.11848,-2.16239l-0.16837,-2.30108l-0.13421,-0.4218l-0.00051,-0.00506l-0.14834,-0.38939l-0.28789,-1.83527l-0.56327,-1.77027l-0.39062,-3.90625v-0.40454l-0.15576,-0.993l0.15576,-0.61332v-9.98913l0.39063,-3.90625l0.02641,-0.08302l0.00119,-0.08711l0.86469,-3.82932l0.56316,-1.68949l-0.00185,-0.00727l0.15576,-0.993v-0.40454l0.39063,-3.90625l0.56327,-1.77027l0.28789,-1.83527l0.14834,-0.38939l0.00051,-0.00506l0.56327,-1.77027l0.28789,-1.83527l1.39754,-3.66855l0.18092,-0.36183l0.30476,-0.95783l0.03695,-0.04278l0.12097,-0.36291l1.60584,-3.58227l2.11124,-2.89682zM90.87499,298.91265l0.4566,1.43504l1.84874,0.70428l0.10283,0.05141l1.36961,0.30927h12.34723l3.90625,0.39063l0.08302,0.02641l0.08711,0.00119l2.67482,0.60399l1.74266,-0.35268l5.5931,2.33046h2.94259l0.29394,-0.04611l1.77027,-0.56327l0.00506,-0.00051l0.38939,-0.14834l1.83527,-0.28789l1.77027,-0.56327l3.90625,-0.39062h0.40454l0.993,-0.15576l0.61332,0.15576h3.14987l0.19995,-0.16359l0.07738,-0.04002l0.06244,-0.06075l3.31916,-2.09631l0.86776,-0.43388l1.67326,-1.36903l0.07738,-0.04002l0.06244,-0.06075l3.31916,-2.09631l0.86776,-0.43388l1.67326,-1.36903l1.65006,-0.85348l1.5013,-1.09417l3.58227,-1.60584l0.38378,-0.12793l0.89279,-0.46179l0.63111,-0.04618l2.79101,-0.93034l0.0423,-0.01763l0.6647,-0.57406l3.01673,-0.95987l0.8915,-0.37146l0.72426,-0.59493l3,-2l1.37283,-0.72932l1.31434,-0.83011l2,-1l1.65681,-0.63116l1.61784,-0.72524l3,-1l2.62253,-0.59218l0.30425,-0.15213l0.47891,-0.41361l0.95783,-0.30476l0.36183,-0.18092l3.66855,-1.39754l1.83527,-0.28789l1.77027,-0.56327l1.06399,-0.1064l1.34226,-1.15923l4.7089,-1.49829l1.39159,-0.48514l0.68242,-2.04726l0.72524,-1.61784l0.63116,-1.65681l0.20544,-0.41088l0.43816,-1.31448l0.72524,-1.61784l0.19552,-0.51325l0.18695,-1.86947l0.56327,-1.77027l0.28789,-1.83527l0.01275,-0.03346l0.1361,-1.361l0.56327,-1.77027l0.28789,-1.83527l1.39754,-3.66855l0.18092,-0.36183l0.30476,-0.95783l0.41361,-0.47891l0.10071,-0.20143l2.09631,-3.31916l0.06075,-0.06244l0.04002,-0.07738l2.48592,-3.03835l1.71297,-1.71297l0.70034,-1.10887l0.06075,-0.06244l0.04002,-0.07738l2.48592,-3.03835l4,-4l1.9066,-1.55994l1.90357,-1.56364l3,-2l1.37283,-0.72932l1.31434,-0.83011l0.20143,-0.10071l0.47891,-0.41361l0.95783,-0.30476l0.36183,-0.18092l3.66855,-1.39754l1.64152,-0.25749l6.89135,-3.44568l0.47891,-0.41361l0.95783,-0.30476l0.36183,-0.18092l3.66855,-1.39754l1.83527,-0.28789l1.77027,-0.56327l3.90625,-0.39062h0.02954l0.29394,-0.04611l1.77027,-0.56327l1.86947,-0.18695l2.52499,-0.9619l1.83527,-0.28789l1.77027,-0.56327l3.90625,-0.39062h0.40454l0.993,-0.15576l0.61332,0.15576h22.97827l0.61332,-0.15576l0.993,0.15576h0.40454l3.90625,0.39063l1.77027,0.56327l0.29394,0.04611h5.02954l0.36368,0.03637l1.36976,-0.17122l1.64371,0.47257l0.5291,0.05291l3.23337,1.0288l2.1042,0.60496l3.66243,0.36624l0.08302,0.02641l0.08711,0.00119l3.09527,0.69893l2.73461,0.27346l1.77027,0.56327l0.29394,0.04611h8.02954l3.90625,0.39063l0.08302,0.02641l0.08711,0.00119l3.09527,0.69893l2.73461,0.27346l1.77027,0.56327l1.83527,0.28789l1.99033,0.75822h1.8451l2.5764,-0.58177l0.08711,-0.00119l0.08302,-0.02641l3.90625,-0.39062h6.02954l0.29394,-0.04611l1.77027,-0.56327l2.39633,-0.23963l3.9187,-1.30623l0.6123,-0.30615l0.47891,-0.41361l0.95783,-0.30476l0.36183,-0.18092l3.66855,-1.39754l1.83527,-0.28789l1.03885,-0.33054l-0.02306,-0.23064l-0.33112,-0.86918l-0.44468,-0.99197l-2.06348,-0.65656l-0.23263,-0.20091l-3.44771,-1.31341l-0.36183,-0.18092l-0.95783,-0.30476l-0.47891,-0.41361l-0.25073,-0.12537l-0.39948,-0.02923l-0.89279,-0.46179l-0.38378,-0.12793l-3.58227,-1.60584l-1.5013,-1.09417l-1.65006,-0.85348l-3.03835,-2.48592l-0.28605,-0.28605l-0.8123,-0.59201l-0.32354,-0.54383l-6.5781,-6.5781l-2.48592,-3.03835l-0.04002,-0.07738l-0.06075,-0.06244l-2.09631,-3.31916l-0.10071,-0.20143l-0.41361,-0.47891l-0.30476,-0.95783l-0.18092,-0.36183l-1.39754,-3.66855l-0.28789,-1.83527l-0.56327,-1.77027l-0.39062,-3.90625v-0.40454l-0.15576,-0.993l0.15576,-0.61332v-7.98913l0.39063,-3.90625l0.02641,-0.08302l0.00119,-0.08711l0.86469,-3.82932l0.71708,-2.15125v-1.94306l0.39063,-3.90625l0.13421,-0.4218l0.16837,-2.30108l1.46497,-2.83227l0.96683,-3.0386l1.50805,-1.74617l0.20336,-0.39315l1.36903,-1.67326l1.43388,-2.86776l0.68451,-1.08381l0.71303,-1.71128l3.13854,-3.05372l0.29402,-0.46553l0.72932,-1.37283l2,-3l1.56364,-1.90357l0.43576,-0.53259l0.26716,-0.96368l1.0876,-1.3595l1.18273,-1.87266l1.7741,-1.82338l1.58925,-1.98656l1.7115,-1.40587l0.19817,-0.20367l2.63068,-5.26136l0.83011,-1.31434l0.72932,-1.37283l2,-3l1.56364,-1.90357l1.55994,-1.9066l4,-4l1.14876,-0.93989l0.52891,-1.26939v-5.11305h-25.02954l-0.29394,0.04611l-1.77027,0.56327l-3.90625,0.39063h-0.40454l-0.15867,0.02489l-1.925,0.73333l-1.83527,0.28789l-0.33725,0.10731l-2.47176,1.64784l-1.37283,0.72932l-1.31434,0.83011l-4,2l-1.04733,0.39898l-0.49369,0.40393l-0.07738,0.04002l-0.06244,0.06075l-1.38854,0.87697l-2.47164,2.02225l-0.07738,0.04002l-0.06244,0.06075l-2.47036,1.56023l-3.05372,3.13854l-1.71128,0.71303l-1.08381,0.68451l-2.37136,1.18568l-4.13131,4.13131l-3.03835,2.48592l-0.07738,0.04002l-0.06244,0.06075l-1.0873,0.68671l-0.61095,0.91643l-2.49182,3.03352l-0.78245,0.62596l-0.62596,0.78245l-1.42573,1.17113l-1.79762,2.1971l-0.24957,0.24957l-0.62685,0.94027l-2.32646,2.83221l-0.05118,0.07676l-0.06048,0.05917l-0.0537,0.06538l-0.07204,0.05763l-2.62002,2.56307l-1.57279,1.25823l-0.08145,0.19547l-1.24782,1.2141l-1.40587,1.7115l-1.98656,1.58925l-1.82338,1.7741l-1.38854,0.87697l-0.80548,0.65903l-1.30548,1.19963l-4,3l-1.89311,1.14467l-1.33582,1.09294l-1.19426,0.981l-0.85443,1.90603l-0.07935,0.27599l-0.28409,0.53477l-0.2477,0.55257l-0.16914,0.23207l-1.14084,2.14747l-1.13664,1.70496l-1.30394,2.60787l-2.09631,3.31916l-0.06075,0.06244l-0.04002,0.07738l-0.86554,1.05788l-0.2043,0.75593l-1.41171,1.21921l-0.00437,0.00534l-2,2l-3.03835,2.48592l-0.39315,0.20336l-1.74617,1.50805l-0.02884,0.00918l-4.79349,4.79349l-1.2455,1.01904l-0.65615,1.10289l-2.57694,1.87811l-2.22366,2.28543l-2.12975,0.8874l-0.35771,0.2607l-1.24402,0.55767l-0.60462,0.49469l-0.07738,0.04002l-0.06244,0.06075l-3.31916,2.09631l-8.20143,4.10071l-0.47891,0.41361l-0.95783,0.30476l-0.36183,0.18092l-3.66855,1.39754l-0.63234,0.09919l-0.15941,0.08469l-0.23207,0.16914l-0.55257,0.2477l-0.53477,0.28409l-0.27599,0.07935l-2.21895,0.9947l-3,1l-3.82932,0.86469l-0.08711,0.00119l-0.08302,0.02641l-0.00506,0.00051l-0.38939,0.14834l-1.83527,0.28789l-1.77027,0.56327l-0.96776,0.09678l-0.03279,0.01093l-3.82932,0.86469l-0.08711,0.00119l-0.08302,0.02641l-3.90625,0.39063h-12.98913l-0.61332,0.15576l-0.993,-0.15576h-0.40454l-3.90625,-0.39062l-1.77027,-0.56327l-0.15387,-0.02414l-0.90305,0.11288l-1.64371,-0.47257l-0.5291,-0.05291l-3.23337,-1.0288l-2.63753,-0.75829l-2.1291,-0.21291l-1.77027,-0.56327l-1.83527,-0.28789l-0.38939,-0.14834l-0.00506,-0.00051l-1.77027,-0.56327l-1.83527,-0.28789l-3.66855,-1.39754l-0.36183,-0.18092l-0.95783,-0.30476l-0.47891,-0.41361l-4.20143,-2.10071l-3.31916,-2.09631l-0.06244,-0.06075l-0.07738,-0.04002l-0.88428,-0.7235l-0.99993,-0.44825l-1.65681,-0.63116l-4,-2l-1.08381,-0.68451l-1.71128,-0.71303l-1.3623,-1.40014l-2.16228,-0.688l-0.6647,-0.57406l-0.81072,-0.3378l-2.20766,-2.26898l-4.91067,-4.24103l-0.25151,-0.93057l-2.61788,-2.54713l-0.71303,-1.71128l-0.68451,-1.08381l-0.10071,-0.20143l-0.41361,-0.47891l-0.30476,-0.95783l-0.18092,-0.36183l-1.39754,-3.66855l-0.16216,-1.03374l-0.41008,-0.98419l0.08795,-0.43459l-0.36687,-1.15302l-0.39062,-3.90625v-0.40454l-0.15576,-0.993l0.15576,-0.61332v-6.97827l-0.15576,-0.61332l0.15576,-0.993v-0.40454l0.39063,-3.90625l0.56327,-1.77027l0.28789,-1.83527l0.14834,-0.38939l0.00051,-0.00506l0.13421,-0.4218l0.16837,-2.30108l1.32608,-2.56376l0.37134,-3.71336l0.08845,-0.27798l-0.04729,-0.14079l0.71424,-2.57637l0.09575,-0.61041l0.14834,-0.38939l0.00051,-0.00506l0.26399,-0.82969l1.81069,-6.53141l0.44413,-0.55516l0.21556,-0.67749l4.43007,-5.12956l0.54391,-0.67988l0.14889,-0.1223l2.29901,-2.66201l0.88529,-0.23927l1.74324,-1.69613l1.06214,-1.68173l0.88745,-2.78913l1.50805,-1.74617l0.20336,-0.39315l2.48592,-3.03835l2.01148,-2.01148l1.21306,-1.4046l0.26248,-0.07094l1.81092,-1.81092l0.41659,-0.99981l1.01879,-0.99125l-3.11904,-0.77976l-0.90469,-0.32476l-0.93761,-0.21172l-0.03279,-0.01093l-0.96776,-0.09678l-1.77027,-0.56327l-0.29394,-0.04611h-10.02954l-3.90625,-0.39062l-0.08302,-0.02641l-0.08711,-0.00119l-3.82932,-0.86469l-2.60422,-0.86807l-2.39633,-0.23963l-1.77027,-0.56327l-0.15387,-0.02414l-0.90305,0.11288l-1.64371,-0.47257l-0.5291,-0.05291l-3.23337,-1.0288l-3.26101,-0.93754l-0.46958,-0.24947l-1.62979,-0.51857l-1.04473,-0.90227l-0.32277,-0.17147l-1.70496,-1.13664l-0.60787,-0.30394l-3.31916,-2.09631l-0.06244,-0.06075l-0.07738,-0.04002l-1.67326,-1.36903l-0.86776,-0.43388l-3.31916,-2.09631l-0.06244,-0.06075l-0.07738,-0.04002l-1.67326,-1.36903l-2.31454,-1.15727l-0.27913,-0.02791l-1.77027,-0.56327l-1.83527,-0.28789l-0.38939,-0.14834l-0.00506,-0.00051l-1.77027,-0.56327l-1.83527,-0.28789l-0.47776,-0.182l-0.1042,0.03316l-0.00506,0.00051l-0.38939,0.14834l-0.51179,0.08028v46.50872l0.58177,2.5764l0.00119,0.08711l0.02641,0.08302l0.39063,3.90625v51.84099l0.58057,2.01939l1.0288,3.23337l0.05291,0.5291l0.47257,1.64371l-0.0996,0.79681l0.21831,0.87324l0.2815,1.92359l0.07431,0.23355l0.0866,0.86604l0.12603,0.86118l-0.01545,0.2446l0.19344,1.93443v41l-0.03637,0.36368l0.17122,1.36976l-0.47257,1.64371l-0.05291,0.5291l-1.0288,3.23337l-0.58057,2.01939v24.9096l0.13544,0.23576l-0.13544,1.85096v2.84467l-0.39062,3.90625l-0.13421,0.4218l-0.16837,2.30108l-1.46497,2.83227l-0.96683,3.0386l-1.50805,1.74617l-0.20336,0.39315l-2.48592,3.03835l-0.82826,0.82826l-0.24003,2.40032l-0.56327,1.77027l-0.28789,1.83527l-0.75822,1.99033v1.39073l0.84183,2.64575l1.46497,2.83227l0.03008,0.4111l0.0238,0.03769l1.10071,2.20143l0.41361,0.47891l0.30476,0.95783l0.18092,0.36183l1.31341,3.44771z" fill="#85c5ca" stroke="#547d7f" stroke-width="3" stroke-linecap="butt"/><path d="M95.66666,197.20369h-47.33333" fill="#ffe800" stroke="#ffe600" stroke-width="2.5" stroke-linecap="round"/></g></g></svg>