<svg version="1.1" xmlns="http://www.w3.org/2000/svg" xmlns:xlink="http://www.w3.org/1999/xlink" width="447.91481" height="339.9281" viewBox="0,0,447.91481,339.9281"><g transform="translate(-21.13144,-17.60522)"><g data-paper-data="{&quot;isPaintingLayer&quot;:true}" fill-rule="nonzero" stroke-linejoin="miter" stroke-miterlimit="10" stroke-dasharray="" stroke-dashoffset="0" style="mix-blend-mode: normal"><path d="M437.93544,341.02516c-9.51223,4.75612 -20.25282,2.66244 -30.41345,3.125c-2.33313,0.10621 -3.35792,1.63222 -5.48745,2.3098c-2.52492,0.80338 -14.48846,2.35047 -17.03568,2.35047c-6.85149,0 -14.37745,0 -21.22894,0c-7.45816,0 -14.69148,-2.98295 -22.30169,-3.15877c-15.40807,-0.35597 -30.82442,-0.04492 -46.23653,0c-10.69049,0.03116 -18.54744,-2.49217 -26.02514,-10.54687c-5.74219,-6.18528 -9.80549,-16.50871 -9.91226,-24.96364c-0.13021,-10.31109 -0.68154,-20.67725 0.39063,-30.93328c0.93238,-8.91883 5.35783,-17.88051 5.61538,-26.80984c0.55763,-19.33332 5.77493,-43.05952 24.33017,-53.20615c7.83209,-4.28285 17.11547,-8.53801 26.19535,-8.64533c11.96727,-0.14144 20.34256,8.07477 29.16692,-0.01017c3.06044,-2.804 5.95186,-10.56449 6.21669,-14.55194c0.03751,-0.56482 -1.08412,-0.33708 -1.59833,-0.57376c-1.40864,-0.64837 -2.89337,-1.15643 -4.21716,-1.96406c-2.2459,-1.3702 -5.39726,-4.9245 -8.05177,-5.22291c-3.14468,-0.35352 -6.67996,-2.7441 -9.60891,-2.75224c-21.74434,-0.06039 -43.49404,-0.4751 -65.23327,0c-0.76838,0.01679 0.28731,1.84867 -0.44546,4.15165c-0.89458,2.81155 -2.39611,5.69084 -4.1432,8.01019c-5.00203,6.64047 -1.01383,12.54101 -1.01383,19.79126c0,8.61984 1.04153,25.2895 -4.12257,33.89383c-2.99531,4.99073 -6.54504,7.75504 -11.11196,11.16376c-3.23844,2.41714 -5.71523,6.52979 -9.43324,8.4529c-6.27484,3.2456 -15.14192,4.56691 -22.10726,5.73738c-4.98861,0.83829 -10.33674,0.72926 -15.32001,0c-1.02024,-0.1493 -7.07726,-1.73089 -7.12979,-1.11088c-0.64847,7.65527 0.11133,15.36617 0,23.04805c-0.07863,5.426 -1.95732,10.79082 -3.003,16.06895c-1.00985,5.09729 -0.63394,11.18044 -2.19471,16.0857c-1.29558,4.07182 -4.19288,6.52022 -5.86739,10.11753c-1.04253,2.23965 -1.35875,5.42281 -2.57042,7.76536c-1.6755,3.2393 -5.15888,6.19426 -7.68435,8.66469c-5.28375,5.16858 -10.0287,10.88534 -16.70566,14.22382c-9.91329,4.95664 -21.14856,2.49095 -31.70946,3.125c-1.08846,0.06535 -2.00436,0.86556 -3.0373,1.21492c-4.47092,1.51213 -9.0579,2.00782 -13.78927,1.78808c-6.76639,-0.31425 -15.60009,-1.57017 -21.50901,-4.6265c-0.87963,-0.45498 -4.0243,-3.35103 -4.60102,-3.72553c-2.18644,-1.41976 -5.2916,-1.98672 -7.59283,-3.2963c-0.7426,-0.4226 -6.02107,-4.49571 -6.63164,-4.81732c-6.92379,-3.64702 -15.39926,-9.94308 -19.07803,-17.05537c-4.18484,-8.09069 -2.21112,-15.99055 -3.125,-24.61632c-0.15932,-1.50374 -2.89309,-6.19187 -3.26273,-7.39892c-0.92233,-3.01191 -0.38094,-6.68434 -1.25069,-9.48758c-7.13786,-23.0058 -13.77604,-46.75861 -10.16145,-71.20325c1.76585,-11.94205 5.01312,-28.33544 13.86625,-37.18857c4.87033,-4.87033 12.81611,-7.09849 16.66072,-11.24369c8.61771,-9.29149 11.19596,-9.82854 22.65727,-12.84774c4.63051,-1.21979 8.69463,-3.07491 13.51764,-3.15357c6.68146,-0.10896 13.36559,0.10994 20.04703,0c4.62292,-0.07607 9.37368,-3.04926 14.99686,-3.003c6.42686,0.05286 15.40012,4.79216 19.27836,-0.33294c1.16441,-1.53877 1.75739,-8.17649 1.75882,-8.26765c0.30107,-19.18567 0.04496,-38.37613 0,-57.56411c-0.02285,-9.74973 2.32404,-17.37667 8.54137,-24.91282c1.70006,-2.06068 4.03599,-3.54716 5.68506,-5.64888c6.00708,-7.65591 11.77989,-15.76061 20.7961,-20.26872c9.56271,-4.78136 18.98275,-2.15695 29.27521,-3.125c5.27497,-0.49613 10.7686,-2.98888 16.25782,-3.003c17.69792,-0.04555 35.39947,0.35259 53.09393,0c15.34018,-0.30568 30.6633,-1.70512 46.00517,-1.5015c5.063,0.0672 9.53736,2.73422 14.4875,3.003c2.47066,0.13415 5.08157,0.15705 7.7171,0.25349c1.06437,-0.23528 2.13633,-0.40925 3.21696,-0.40925c9.72184,0 20.41233,0.09598 30.13399,0.15576c5.13291,0.03157 10.13062,1.84244 15.01914,3.15357c3.39721,0.91115 7.10995,1.18465 10.56377,2.09738c10.29318,2.72014 17.93992,6.8823 27.59001,11.62791c4.12539,2.02874 9.60697,2.08385 13.35506,5.17603c2.54093,2.09627 4.89144,4.44678 6.98771,6.98771c9.17823,11.12513 8.69713,26.27878 8.69713,39.60491c0,3.25257 -1.63306,6.4713 -1.65727,9.59111c-0.08481,10.93118 -0.07143,21.86326 0,32.79454c0.03494,5.34627 2.98282,10.59537 3.003,16.06895c0.12541,34.00892 -0.24445,68.01919 0,102.02746c0.0213,2.96351 1.48846,6.01838 1.5015,9.08365c0.06174,14.51438 0.74286,29.04805 0,43.54354c0,4.37324 -1.1229,8.4842 -3.09611,12.06031c-1.60373,3.48842 -3.82978,6.6388 -6.68827,8.3937c-4.90189,6.96958 -11.8854,12.76264 -19.23213,16.43601zM281.29129,70.87689c-20.73028,0.03794 -41.85847,-1.86204 -62.14431,2.40768c-4.90282,1.03194 -11.82415,-0.7651 -15.89313,0.59532c-4.03185,1.34801 -1.69889,3.60839 -3.10153,5.49194c-0.25104,0.33711 -3.46556,3.26755 -3.47064,3.44559c-1.06372,37.26781 5.78965,61.232 -11.47431,91.44393c-6.2609,10.95658 -20.13331,17.33008 -32.14196,19.34803c-7.25791,1.21963 -18.89523,0.37789 -24.21288,0.39062c-5.05355,0.0121 -10.40529,2.94061 -15.7294,3.003c-6.15477,0.07213 -12.32331,-0.3986 -18.46558,0c-4.35153,0.28239 -9.43801,5.57663 -12.71196,7.81327c-1.91297,1.30687 -4.30356,2.01673 -5.86672,3.72668c-1.24381,1.36061 -2.47679,7.5566 -2.52031,9.07266c-0.15904,5.54054 -0.5653,11.11454 0,16.62845c1.84008,17.94796 4.13641,20.19288 9.22759,36.45985c0.80767,2.58059 0.12396,5.56693 1.28292,8.01c1.2259,2.58418 2.38765,4.54133 3.26273,7.39892c1.25529,4.09918 0.26599,10.25219 1.24178,13.31981c0.34024,1.06962 4.8732,3.28774 5.42822,3.50793c1.50981,0.599 7.99921,4.15954 8.48766,4.04773c3.77907,-0.86501 6.68474,-2.24678 10.63367,-2.32765c5.32081,-0.10895 13.34926,3.86825 15.94686,-0.77668c3.66468,-6.55305 8.55493,-21.5449 8.60269,-29.33132c0.14875,-24.25258 -4.48983,-39.92469 9.91226,-58.44423c10.98626,-14.12716 29.61699,-10.66881 45.11777,-10.54687c3.68104,0.02896 7.25218,1.80086 10.84,0.95389c1.0628,-0.25089 2.88355,0.33931 3.19904,-0.70614c0.96447,-3.19602 -0.61058,-5.90184 -1.11088,-8.87904c-0.93401,-5.55819 -0.54639,-12.2552 -0.54639,-17.52372c0,-10.05081 5.8878,-17.82339 8.81127,-26.72375c1.35187,-4.1157 0.61066,-9.08691 2.27324,-13.24633c6.2579,-15.65593 24.2327,-23.99746 40.10615,-23.965c27.15858,0.05554 54.69185,-4.11006 81.47496,0.39063c9.24069,1.55282 18.01181,5.46366 26.31551,9.41454c5.46041,2.59805 11.20958,4.49868 16.81278,6.83335c1.95435,0.81431 3.26345,2.87378 4.88634,4.22002c2.268,1.88138 5.2193,3.12304 7.39569,5.35989c3.52435,3.62224 8.5586,11.5355 10.03528,16.17648c4.21412,13.24438 -2.54228,26.913 -6.2921,39.1495c-2.34684,7.65823 -4.26861,15.25043 -9.06357,21.9956c-2.76642,3.89158 -5.74834,8.41001 -9.51302,11.62283c-0.58162,0.49636 -1.50137,0.32246 -2.21443,0.59849c-2.47485,0.95804 -4.66654,2.53425 -7.06436,3.67144c-6.04757,2.86812 -13.33958,5.79809 -20.08539,5.79809c-9.69349,0 -19.39001,-0.41426 -29.08005,-0.15576c-0.86978,0.0232 -1.92858,0.14939 -2.47631,0.82544c-3.19018,3.93754 -1.9504,10.66295 -1.9504,14.81906c0,8.61382 -3.2326,18.14578 -5.0785,26.49494c-0.51515,2.33004 -3.31312,12.40216 -1.08327,12.96567c10.84524,2.74071 22.37246,-0.04409 33.55856,0c6.60731,0.02604 13.80382,0.77987 20.42277,1.89213c1.34907,0.2267 2.91657,1.08602 4.28732,1.11088c4.54689,0.08244 9.09601,0.08244 13.6429,0c4.63596,-0.08406 8.78097,-3.56633 13.29632,-4.11388c6.99071,-0.84772 14.24755,0.56445 21.14907,-0.35298c-0.28338,-11.75003 1.42139,-23.5692 1.30073,-30.51857c-0.05184,-2.98568 -1.49572,-6.00406 -1.5015,-9.08365c-0.06327,-33.68266 0.07239,-67.36552 0,-101.04816c-0.01146,-5.33375 -2.95445,-10.608 -3.003,-16.06895c-0.11689,-13.14827 -0.15576,-27.49571 -0.15576,-40.6445c0,-3.30451 1.40743,-6.40359 1.65727,-9.59111c0.65553,-8.36343 -18.4323,-10.67995 -25.62292,-12.26971c-2.93254,-0.64835 -6.5222,-2.52319 -9.51178,-2.58477c-7.7528,-0.15969 -15.50934,-0.0841 -23.26333,0c-1.36475,0.0148 -2.94443,0.88521 -4.28732,1.11088c-7.73605,1.29998 -16.9433,1.84643 -24.32902,0c-3.67558,-0.9189 -6.97581,-2.31055 -9.8232,-4.09199c-12.05299,0.21317 -23.73185,1.45749 -35.8201,1.47961z" fill="#9a9a9a" stroke="#737373" stroke-width="3.5" stroke-linecap="butt"/><path d="M415.64586,177.01635h48.6667" fill="none" stroke="#ffe700" stroke-width="2" stroke-linecap="round"/></g></g></svg>