<svg version="1.1" xmlns="http://www.w3.org/2000/svg" xmlns:xlink="http://www.w3.org/1999/xlink" width="477.3705" height="342.55693" viewBox="0,0,477.3705,342.55693"><g transform="translate(-1.3148,-8.70576)"><g data-paper-data="{&quot;isPaintingLayer&quot;:true}" fill-rule="nonzero" stroke-linejoin="miter" stroke-miterlimit="10" stroke-dasharray="" stroke-dashoffset="0" style="mix-blend-mode: normal"><path d="M18.99998,195.59756v-36.98913l-0.15576,-0.61332l0.15576,-0.993v-0.40454l0.39063,-3.90625l0.56327,-1.77027l0.28789,-1.83527l0.01275,-0.03346l0.1361,-1.361l0.56327,-1.77027l0.04611,-0.29394v-0.01868l-0.15576,-0.61332l0.15576,-0.993v-0.40454l0.39063,-3.90625l0.56327,-1.77027l0.28789,-1.83527l0.75822,-1.99033v-29.49788l0.19344,-1.93443l-0.01545,-0.2446l0.12603,-0.86118l0.0866,-0.86604l0.07431,-0.23355l0.2815,-1.92359l1,-4l0.73082,-2.03585l0.67746,-2.05422l4,-9l0.86832,-1.524l0.77701,-1.57252l5,-8l0.78395,-1.01373l0.6822,-1.08481l3.47023,-4.46173l0.9029,-2.3701l0.18092,-0.36183l0.30476,-0.95783l0.41361,-0.47891l0.10071,-0.20143l0.8509,-1.34725l0.15681,-0.47043l0.04618,-0.63111l0.46179,-0.89279l0.12793,-0.38378l1.60584,-3.58227l0.80986,-1.11121l0.49865,-1.62892l0.0445,-0.2837l0.21557,-0.56588l0.17725,-0.57902l0.13905,-0.25126l0.86567,-2.27239l1.43092,-2.86183l0.34919,-1.09745l0.93754,-3.26101l0.24947,-0.46958l0.51857,-1.62979l0.90227,-1.04473l0.17147,-0.32277l1.13664,-1.70496l0.30394,-0.60787l0.83011,-1.31434l0.72932,-1.37283l3.24189,-4.86283l0.46562,-1.72279l2.66201,-2.29901l0.1223,-0.14889l0.67988,-0.54391l5.12956,-4.43007l0.67473,-0.21469l0.84984,-0.87345l0.81072,-0.3378l0.6647,-0.57406l3.01673,-0.95987l5.98941,-2.49559l2.2483,0.45501l1.24556,-0.12456h35l1.24556,0.12456l2.2483,-0.45501l5.98941,2.49559l3.01673,0.95987l0.6647,0.57406l0.81072,0.3378l2.20766,2.26898l4.91067,4.24103l0.42397,1.56868l0.98178,0.62007l1.82338,1.7741l1.98656,1.58925l1.17113,1.42573l2.1971,1.79762l2,2l2.48592,3.03835l0.04002,0.07738l0.06075,0.06244l2.09631,3.31916l0.18568,0.37136l1.13131,1.13131l2.48592,3.03835l0.20336,0.39315l1.50805,1.74617l0.96683,3.0386l1.46497,2.83227l0.00164,0.02239l0.49282,0.73924l0.72932,1.37283l0.83011,1.31434l3.43388,6.86776l1.36903,1.67326l0.04002,0.07738l0.06075,0.06244l2.09631,3.31916l2.10071,4.20143l0.41361,0.47891l0.30476,0.95783l0.18092,0.36183l1.39754,3.66855l0.28789,1.83527l0.56327,1.77027l0.39063,3.90625v0.40454l0.15576,0.993l-0.08689,0.34214l0.83251,2.91379l2.19237,1.89341l0.51821,1.91736l0.62566,0.76469l1.56364,1.90357l0.6246,0.9369l0.78881,0.59161l3.28483,2.07463l0.06244,0.06075l0.07738,0.04002l0.40602,0.3322l0.46645,0.07317l0.03346,0.01275l1.361,0.1361l0.4218,0.13421l2.30108,0.16837l2.83227,1.46497l3.0386,0.96683l1.51514,1.30853l0.61587,0.23462l1.12726,0.40466l0.10483,0.06471l1.31724,0.50181l1.11059,0.55529l0.97642,0.27069l1.3595,1.0876l1.87266,1.18273l1.8016,1.75291l1.76229,0.2579l0.46571,0.11643l0.07336,-0.01863l0.993,0.15576h0.40454l3.90625,0.39063l1.77027,0.56327l0.29394,0.04611h3.82951l6.42195,-2.40823l1.94809,-0.51636l1.92709,-0.58993l3.47378,-0.69476l5.83791,-1.94597l6.41088,-3.20544l2.27239,-0.86567l0.25126,-0.13905l0.57902,-0.17725l0.56588,-0.21557l0.2837,-0.0445l2.32519,-0.71179l0.61985,-0.12397l1.41555,-1.16277l0.94027,-0.62685l0.24957,-0.24957l1.37219,-1.1227l1.30548,-1.19963l4,-3l1.63061,-0.98595l0.69172,-0.69172l1.9066,-1.55994l1.90357,-1.56364l2.63141,-1.75428l0.99848,-1.21554l1.55994,-1.9066l2,-2l0.64531,-0.52798l0.56974,-0.60876l7.37355,-6.45185l7.15508,-7.15508l1.93398,-2.57864l1.19963,-1.30548l1.1227,-1.37219l4.74369,-4.74369l1.93398,-2.57864l2.65625,-2.89062l0.25053,-0.17857l0.19219,-0.24024l1.80527,-1.4829l1.67433,-1.62908l3.446,-3.54172l1.31772,-0.54905l2.01838,-1.6514l0.07738,-0.04002l0.06244,-0.06075l1.38854,-0.87697l2.47164,-2.02225l0.39315,-0.20336l1.74617,-1.50805l0.67473,-0.21469l0.84984,-0.87345l2.12975,-0.8874l0.35771,-0.2607l3.58227,-1.60584l2.69869,-0.89956l1.71315,-0.71381l0.68795,0.13923l1.72953,-0.39054l0.08711,-0.00119l0.08302,-0.02641l3.90625,-0.39062h8.98913l0.61332,-0.15576l0.993,0.15576h0.40454l3.90625,0.39063l1.77027,0.56327l1.83527,0.28789l3.66855,1.39754l0.36183,0.18092l0.95783,0.30476l0.47891,0.41361l0.20143,0.10071l1.31434,0.83011l1.37283,0.72932l3,2l1.90357,1.56364l0.54151,0.44306l2.86776,1.43388l1.08381,0.68451l1.71128,0.71303l3.446,3.54172l2.37021,2.30615l1.51781,1.21425l1.40587,1.7115l1.24782,1.2141l0.06048,0.14515l0.3978,0.40885l1.10795,1.07801l0.92375,0.24966l4.24103,4.91067l2.26898,2.20766l0.3378,0.81072l0.57406,0.6647l0.95987,3.01673l2.49559,5.98941l-0.32079,1.58506l0.00604,0.03853l0.34496,0.68993l0.63116,1.65681l0.72524,1.61784l0.12097,0.36291l0.03695,0.04278l0.30476,0.95783l0.18092,0.36183l1.39754,3.66855l0.28789,1.83527l0.56327,1.77027l0.39063,3.90625v0.40454l0.15576,0.993l-0.15576,0.61332v2.01868l0.04611,0.29394l0.56327,1.77027l0.39063,3.90625v0.40454l0.15576,0.993l-0.15576,0.61332v4.91149l0.25356,1.01425l0.2815,1.92359l0.07431,0.23355l0.0866,0.86604l0.12603,0.86118l-0.01545,0.2446l0.19344,1.93443v7l-0.39062,3.90625l-0.02641,0.08302l-0.00119,0.08711l-0.69893,3.09527l-0.27346,2.73461l-0.56327,1.77027l-0.28789,1.83527l-0.14834,0.38939l-0.00051,0.00506l-0.02641,0.08302l-0.00119,0.08711l-0.86469,3.82932l-1,3l-0.72524,1.61784l-0.63116,1.65681l-1.53496,3.06992l-1.6138,4.03451l-0.92256,1.77132l-0.85203,1.80631l-1.30454,2.17423l-0.75699,2.64945l-0.069,0.94305l-0.74817,1.44646l-0.96925,2.44109l-1.05987,1.5955l-1.16883,3.06818l-0.18092,0.36183l-0.22205,0.69788l-0.19949,1.27174l-0.75822,1.99033v4.49788l-0.33133,3.31333l2.30695,2.30695l0.99981,0.41659l0.04488,0.04613l0.88539,0.19993l2.17565,0.72522l3.8249,0.38249l1.77027,0.56327l1.83527,0.28789l0.38939,0.14834l0.00506,0.00051l1.77027,0.56327l1.83527,0.28789l3.66855,1.39754l0.36183,0.18092l0.95783,0.30476l0.47891,0.41361l6.20143,3.10071l3.31916,2.09631l0.06244,0.06075l0.07738,0.04002l1.67326,1.36903l1.27863,0.63932l1.31448,0.43816l1.61784,0.72524l1.65681,0.63116l4,2l1.9,1.2l2.1,0.8l0.36183,0.18092l0.95783,0.30476l0.47891,0.41361l0.20143,0.10071l1.31434,0.83011l1.37283,0.72932l1.70496,1.13664l0.60787,0.30394l1.08381,0.68451l1.71128,0.71303l3.446,3.54172l0.51389,0.50001l2.74235,2.24374l4,4l2.48592,3.03835l0.04002,0.07738l0.06075,0.06244l2.09631,3.31916l0.10071,0.20143l0.41361,0.47891l0.30476,0.95783l0.18092,0.36183l1.2,3.15l1.8,2.85l0.10071,0.20143l0.41361,0.47891l0.30476,0.95783l0.18092,0.36183l1.39754,3.66855l0.28789,1.83527l0.56327,1.77027l0.39063,3.90625v0.40454l0.15576,0.993l-0.15576,0.61332v7.97827l0.15576,0.61332l-0.15576,0.993v0.40454l-0.39062,3.90625l-0.56327,1.77027l-0.28789,1.83527l-1.39754,3.66855l-0.02465,0.04931l-0.02923,0.39948l-0.40197,0.77715l-0.02982,0.09372l-0.03695,0.04278l-0.12097,0.36291l-1.60584,3.58227l-1.09417,1.5013l-0.85348,1.65006l-1.84594,2.25615l-0.51639,0.97203l-1.13664,1.70496l-0.30394,0.60787l-2.09631,3.31916l-0.06075,0.06244l-0.04002,0.07738l-2.48592,3.03835l-3,3l-1.9066,1.55994l-0.12862,0.10565l-0.86643,1.45633l-2.57694,1.87811l-2.22366,2.28543l-2.12975,0.8874l-0.35771,0.2607l-3.58227,1.60584l-0.84108,0.28036l-1.42529,1.16615l-0.07738,0.04002l-0.06244,0.06075l-1.38854,0.87697l-2.47164,2.02225l-0.07738,0.04002l-0.06244,0.06075l-1.87191,1.18226l-1.44451,1.24753l-2.20766,2.26898l-0.81072,0.3378l-0.6647,0.57406l-1.01454,0.32281l-0.52821,0.38497l-3.6899,2.95192l-1.29979,0.36034l-0.32824,0.26856l-1.65006,0.85348l-1.5013,1.09417l-3.58227,1.60584l-0.38378,0.12793l-0.89279,0.46179l-0.63111,0.04618l-0.39537,0.13179l-4.31789,1.72715l-0.70732,0.20403l-0.67175,0.30113l-1.31448,0.43816l-2.6123,1.30615l-0.47891,0.41361l-0.95783,0.30476l-0.36183,0.18092l-3.66855,1.39754l-1.83527,0.28789l-1.77027,0.56327l-0.00506,0.00051l-0.38939,0.14834l-1.83527,0.28789l-1.77027,0.56327l-0.97859,0.09786l-0.02197,0.00985l-3,1l-1.51635,0.3424l-1.48644,0.45503l-2.37134,0.47427l-2.01977,0.76944l-1.83527,0.28789l-1.77027,0.56327l-3.90625,0.39063h-0.40454l-0.993,0.15576l-0.61332,-0.15576h-25.51365l-1.98924,0.39785l-1.17375,0.29344l-2.80071,1.06694l-1.83527,0.28789l-1.77027,0.56327l-3.77685,0.37768l-1.06601,0.2665l-1.92359,0.2815l-0.23355,0.07431l-0.86604,0.0866l-0.86118,0.12603l-0.2446,-0.01545l-1.93443,0.19344h-19l-3.90625,-0.39062l-0.08302,-0.02641l-0.08711,-0.00119l-3.82932,-0.86469l-3,-1l-1.61784,-0.72524l-1.65681,-0.63116l-2.04931,-1.02465l-0.39948,-0.02923l-0.89279,-0.46179l-0.38378,-0.12793l-3.58227,-1.60584l-1.5013,-1.09417l-1.65006,-0.85348l-3.03835,-2.48592l-0.24957,-0.24957l-3.11288,-2.07526l-0.93531,-0.38971l-1.17882,-1.21156l-1.0261,-0.39089l-2,-1l-1.31434,-0.83011l-1.37283,-0.72932l-1.70496,-1.13664l-0.60787,-0.30394l-1.31434,-0.83011l-1.36829,-0.7269l-1.66528,-0.41632l-1.10088,-0.08055l-1.61953,-0.83769l-1.50962,-0.54191l-2.38821,-1.4742l-2.49284,-1.2894l-1.24138,-1.01567l-1.55155,-0.95775l-0.31919,-0.45334l-0.74806,-0.47246l-0.05572,-0.05421l-1.06215,-0.68843l-5,-4l-2.62002,-2.56307l-0.07204,-0.05763l-0.0537,-0.06538l-0.06048,-0.05917l-0.05118,-0.07676l-2.32646,-2.83221l-2,-3l-0.17147,-0.32277l-0.90227,-1.04473l-0.51857,-1.62979l-0.24947,-0.46958l-0.63531,-2.20976l-0.59666,-0.69087l-0.51857,-1.62979l-0.24947,-0.46958l-0.93754,-3.26101l-1.0288,-3.23337l-0.05291,-0.5291l-0.47257,-1.64371l0.135,-1.08001l-0.05963,-0.26409l-0.45503,-1.48644l-0.67675,-3.38373l-0.16942,-0.33883l-0.39898,-1.04733l-0.40393,-0.49369l-0.04002,-0.07738l-0.06075,-0.06244l-2.09631,-3.31916l-0.32282,-0.64563l-2.41025,-2.08158l-0.41246,-1.52611l-0.36879,-0.42702l-0.67782,-2.1303l-0.6367,-0.65439l-1.7115,-1.40587l-1.58925,-1.98656l-1.7741,-1.82338l-0.70034,-1.10887l-1.42593,-1.42593l-1.10887,-0.70034l-0.03522,-0.03427l-0.94854,-0.39523l-3.01673,-0.95987l-0.6647,-0.57406l-0.81072,-0.3378l-2.20766,-2.26898l-4.91067,-4.24103l-0.25151,-0.93057l-2.61788,-2.54713l-0.54905,-1.31772l-1.6514,-2.01838l-0.04002,-0.07738l-0.06075,-0.06244l-0.00322,-0.0051l-1.40893,-0.4483l-1.83527,-0.28789l-0.38939,-0.14834l-0.00506,-0.00051l-1.77027,-0.56327l-0.29394,-0.04611h-5.52742l-1.99033,0.75822l-1.83527,0.28789l-0.34318,0.10919l-0.83333,0.7197l-3.0386,0.96683l-2.83227,1.46497l-2.30108,0.16837l-0.4218,0.13421l-0.00506,0.00051l-0.38939,0.14834l-1.83527,0.28789l-0.83588,0.26596l-0.47072,0.2973l-1.69225,2.0683l-0.13131,0.13131l-0.18568,0.37136l-2.09631,3.31916l-0.06075,0.06244l-0.04002,0.07738l-2.02225,2.47164l-0.87697,1.38854l-0.06075,0.06244l-0.04002,0.07738l-1.36903,1.67326l-0.43388,0.86776l-2.09631,3.31916l-0.06075,0.06244l-0.04002,0.07738l-2.48592,3.03835l-1.13131,1.13131l-2.18568,4.37136l-0.51328,0.8127l-0.41007,0.86936l-0.05298,0.08831l-0.66726,2.95499l-0.86807,2.60422l-0.23963,2.39633l-0.56327,1.77027l-0.28789,1.83527l-1.39754,3.66855l-0.18092,0.36183l-0.30476,0.95783l-0.14137,0.16369l-0.12426,1.24256l-0.13421,0.4218l-0.16837,2.30108l-1.46497,2.83227l-0.96683,3.0386l-0.83231,0.96373l-0.3256,1.44196l-1,3l-0.72524,1.61784l-0.33112,0.86918l-0.05135,0.51354l-0.56327,1.77027l-0.28789,1.83527l-1.39754,3.66855l-0.18092,0.36183l-0.30476,0.95783l-0.41361,0.47891l-1.10071,2.20143l-2.09631,3.31916l-0.06075,0.06244l-0.04002,0.07738l-0.40393,0.49369l-0.39898,1.04733l-2,4l-2.09631,3.31916l-0.06075,0.06244l-0.04002,0.07738l-2.02225,2.47164l-0.87697,1.38854l-1.7741,1.82338l-1.58925,1.98656l-1.7115,1.40587l-1.2141,1.24782l-0.93531,0.38971l-0.11288,0.07526l-0.24957,0.24957l-2.74235,2.24374l-0.51389,0.50001l-3.446,3.54172l-1.71128,0.71303l-1.08381,0.68451l-0.20143,0.10071l-0.47891,0.41361l-0.95783,0.30476l-0.36183,0.18092l-3.66855,1.39754l-1.03374,0.16216l-0.98419,0.41008l-0.43459,-0.08795l-1.15302,0.36687l-3.90625,0.39063h-0.40454l-0.993,0.15576l-0.61332,-0.15576h-4.33636l-2.5764,0.58177l-0.08711,0.00119l-0.08302,0.02641l-3.90625,0.39063h-3.34723l-2.5764,0.58177l-0.08711,0.00119l-0.08302,0.02641l-3.90625,0.39063h-7.06861l-0.23576,0.13544l-1.85096,-0.13544h-2.84467l-3.90625,-0.39062l-0.4218,-0.13421l-2.30108,-0.16837l-2.83227,-1.46497l-3.0386,-0.96683l-1.74617,-1.50805l-0.39315,-0.20336l-3.03835,-2.48592l-2,-2l-0.00437,-0.00534l-1.41171,-1.21921l-0.2043,-0.75593l-0.86554,-1.05788l-0.04002,-0.07738l-0.06075,-0.06244l-0.81113,-1.28429l-0.67664,-0.78347l-0.14889,-0.1223l-0.54391,-0.67988l-4.43007,-5.12956l-0.05734,-0.1802l-2.16141,-1.86668l-0.59849,-2.21443l-0.63506,-1.00551l-0.64812,-0.27005l-2.22366,-2.28543l-2.57694,-1.87811l-1.17967,-1.98285l-0.30867,-0.31725l-2.09631,-3.31916l-1.27217,-2.54435l-0.94891,-1.59498l0.0157,-0.27144l-0.89533,-1.79066l-0.41361,-0.47891l-0.30476,-0.95783l-0.18092,-0.36183l-1.39754,-3.66855l-0.28789,-1.83527l-0.26596,-0.83588l-1.04861,-1.6603l-1.10071,-2.20143l-0.41361,-0.47891l-0.30476,-0.95783l-0.18092,-0.36183l-1.39754,-3.66855l-0.28789,-1.83527l-0.56327,-1.77027l-0.39062,-3.90625v-0.40454l-0.15576,-0.993l0.15576,-0.61332v-8.01868l-0.04611,-0.29394l-0.56327,-1.77027l-0.39062,-3.90625v-0.40454l-0.15576,-0.993l0.15576,-0.61332v-5.97827l-0.15576,-0.61332l0.15576,-0.993v-0.40454l0.39063,-3.90625l0.56327,-1.77027l0.28789,-1.83527l0.14834,-0.38939l0.00051,-0.00506l0.56327,-1.77027l0.28789,-1.83527l1.39754,-3.66855l0.18092,-0.36183l0.30476,-0.95783l0.41361,-0.47891l0.10071,-0.20143l1.2,-1.9l0.8,-2.1l0.18092,-0.36183l0.22205,-0.69788l0.19949,-1.27174l1.39754,-3.66855l0.18092,-0.36183l0.30476,-0.95783l0.14394,-0.16667l0.15049,-0.47296l0.93754,-3.26101l0.24947,-0.46958l0.51857,-1.62979l0.90227,-1.04473l0.17147,-0.32277l1.44841,-2.17261l0.38971,-0.93531l0.95241,-0.92667l0.01072,-0.06836v-5.05908l-1.15576,-7.368l2.15602,-8.48931c-0.00017,-0.0377 -0.00025,-0.07541 -0.00025,-0.11315zM56.30683,255.22669l-1.46497,2.83227l-0.96683,3.0386l-0.875,1.01316v0.51638l0.04611,0.29394l0.56327,1.77027l0.39063,3.90625v0.40454l0.15576,0.993l-0.15576,0.61332v4.47598l0.875,1.01316l0.96683,3.0386l1.46497,2.83227l0.16837,2.30108l0.13421,0.4218l0.00051,0.00506l0.14834,0.38939l0.04279,0.27277l1.97501,1.43942l1.05207,1.76837l0.59333,0.60981l3.54172,3.446l0.71032,1.70478l4.42029,3.81752l0.16941,0.62681l1.73684,-0.17368h3.34723l2.5764,-0.58177l0.08711,-0.00119l0.08302,-0.02641l3.90625,-0.39062h0.93851l0.29042,-0.23761l0.29578,-0.24296l0.2492,-0.30458l0.38108,-0.73676l0.12793,-0.38378l1.60584,-3.58227l1.09417,-1.5013l0.85348,-1.65006l0.13813,-0.16883l0.26724,-1.70364l1.39754,-3.66855l0.18092,-0.36183l0.30476,-0.95783l0.25446,-0.29464l0.01116,-0.11161l0.02641,-0.08302l0.00119,-0.08711l0.86469,-3.82932l0.36411,-1.09232l0.04618,-0.63111l0.46179,-0.89279l0.12793,-0.38378l1.60584,-3.58227l0.10725,-0.14716l0.2869,-1.27057l1,-3l0.72524,-1.61784l0.19552,-0.51325l0.18695,-1.86947l0.56327,-1.77027l0.28789,-1.83527l0.86325,-2.26603l0.126,-0.53245l0.1596,-1.59598l0.85096,-2.67445l0.6463,-2.73114l0.68427,-1.45065l0.55284,-1.73751l0.72148,-0.8354l2.22222,-3.7037l3.57062,-7.14124l2.09631,-3.31916l0.06075,-0.06244l0.04002,-0.07738l2.48592,-3.03835l1.13131,-1.13131l0.18568,-0.37136l2.09631,-3.31916l0.06075,-0.06244l0.04002,-0.07738l2.02225,-2.47164l0.87697,-1.38854l0.06075,-0.06244l0.04002,-0.07738l1.84594,-2.25615l0.51639,-0.97203l2,-3l1.56364,-1.90357l1.09627,-1.33989l0.87697,-1.38854l0.06075,-0.06244l0.04002,-0.07738l2.48592,-3.03835l2,-2l3.03835,-2.48592l0.07738,-0.04002l0.06244,-0.06075l3.31916,-2.09631l0.86776,-0.43388l1.67326,-1.36903l0.39315,-0.20336l1.74617,-1.50805l3.0386,-0.96683l2.83227,-1.46497l2.30108,-0.16837l0.4218,-0.13421l0.00506,-0.00051l0.38939,-0.14834l1.83527,-0.28789l0.34318,-0.10919l0.83333,-0.7197l3.0386,-0.96683l2.83227,-1.46497l2.30108,-0.16837l0.4218,-0.13421l0.00506,-0.00051l0.38939,-0.14834l1.83527,-0.28789l0.94426,-0.30045l0.82656,-0.37053l3,-1l3.82932,-0.86469l0.08711,-0.00119l0.08302,-0.02641l3.90625,-0.39062h11.98913l0.61332,-0.15576l0.993,0.15576h0.40454l3.90625,0.39063l1.77027,0.56327l1.83527,0.28789l0.38939,0.14834l0.00506,0.00051l1.77027,0.56327l0.29394,0.04611h0.02954l3.90625,0.39063l1.77027,0.56327l1.83527,0.28789l0.38939,0.14834l0.00506,0.00051l0.4218,0.13421l2.30108,0.16837l2.83227,1.46497l3.0386,0.96683l1.74617,1.50805l0.39315,0.20336l2.01838,1.6514l1.31772,0.54905l3.446,3.54172l3.54172,3.446l0.54905,1.31772l1.6514,2.01838l0.04002,0.07738l0.06075,0.06244l0.87697,1.38854l0.13477,0.16472l0.22388,0.07124l0.47891,0.41361l0.20143,0.10071l3.31916,2.09631l0.06244,0.06075l0.07738,0.04002l2.47164,2.02225l1.38854,0.87697l0.06244,0.06075l0.07738,0.04002l3.03835,2.48592l6,6l1.79762,2.1971l0.29578,0.24296l1.9066,1.55994l4,4l2.48592,3.03835l0.04002,0.07738l0.06075,0.06244l1.02708,1.6262l2.80231,2.42018l0.41246,1.52611l0.36879,0.42702l1.59505,5.01302l0.69354,0.84766l0.85348,1.65006l1.09417,1.5013l1.60584,3.58227l0.12793,0.38378l0.46179,0.89279l0.02923,0.39948l0.02465,0.04931l0.63116,1.65681l0.72524,1.61784l1,3l0.3424,1.51635l0.45503,1.48644l0.69476,3.47378l0.50781,1.52343l0.66252,2.93402l0.33466,0.21136l0.19143,0.04323l3,1l2.21895,0.9947l0.27599,0.07935l0.53477,0.28409l0.55257,0.2477l0.23207,0.16914l2.14747,1.14084l1.70496,1.13664l0.60787,0.30394l1.31434,0.83011l1.37283,0.72932l0.17261,0.11508l1.1317,0.47154l3.58645,1.28744l1.03137,0.63665l3.18579,1.32741l1.55696,1.60021l1.89986,1.17275l1.45795,2.07071l1.97731,1.31821l1.27021,1.04339l1.04262,0.39719l0.72136,0.36068h11.02066l1.01425,-0.25356l1.92359,-0.2815l0.23355,-0.07431l0.86604,-0.0866l0.71506,-0.10464l1.26176,-0.45294l4,-1l0.59016,-0.08637l0.57032,-0.17459l5,-1l2.45169,-0.24036l2.45122,-0.24512h25.41634l1.68076,-0.51452l3.38373,-0.67675l0.33883,-0.16942l3.66855,-1.39754l1.83527,-0.28789l1.77027,-0.56327l1.361,-0.1361l0.03346,-0.01275l1.64152,-0.25749l2.68993,-1.34496l1.65681,-0.63116l1.61784,-0.72524l2.30304,-0.76768l3.73976,-1.4959l0.22358,-0.18293l1.25909,-0.65126l0.07079,-0.08617l0.67988,-0.54391l5.12956,-4.43007l0.67473,-0.21469l0.84984,-0.87345l1.71128,-0.71303l1.08381,-0.68451l0.86776,-0.43388l1.67326,-1.36903l0.07738,-0.04002l0.06244,-0.06075l1.38854,-0.87697l2.47164,-2.02225l0.07738,-0.04002l0.06244,-0.06075l3.31916,-2.09631l2.87323,-1.43661l1.11759,-0.91802l1.2141,-1.24782l0.32943,-0.13726l0.98138,-1.47207l0.30394,-0.60787l0.68656,-1.08706l-0.20088,-0.2326l-0.30476,-0.95783l-0.18092,-0.36183l-0.40128,-1.05337l-0.79271,-0.81473l-0.07445,-0.00545l-2.83227,-1.46497l-3.0386,-0.96683l-1.74617,-1.50805l-0.39315,-0.20336l-1.42529,-1.16615l-0.84108,-0.28036l-1.61784,-0.72524l-1.65681,-0.63116l-6,-3l-3.31916,-2.09631l-0.06244,-0.06075l-0.07738,-0.04002l-1.67326,-1.36903l-1.55768,-0.77884l-0.10019,-0.01572h-0.02954l-3.90625,-0.39062l-0.08302,-0.02641l-0.08711,-0.00119l-3.82932,-0.86469l-2.17565,-0.72522l-3.8249,-0.38249l-1.15302,-0.36687l-0.43459,0.08795l-0.98419,-0.41008l-1.03374,-0.16216l-3.66855,-1.39754l-0.36183,-0.18092l-0.95783,-0.30476l-0.47891,-0.41361l-0.20143,-0.10071l-1.08381,-0.68451l-1.71128,-0.71303l-3.446,-3.54172l-0.51389,-0.50001l-2.74235,-2.24374l-3.29794,-3.29794l-0.99981,-0.41659l-3.446,-3.54172l-3.54172,-3.446l-0.71303,-1.71128l-0.68451,-1.08381l-4.10071,-8.20143l-0.41361,-0.47891l-0.30476,-0.95783l-0.18092,-0.36183l-1.39754,-3.66855l-0.28789,-1.83527l-0.56327,-1.77027l-0.39062,-3.90625v-0.40454l-0.15576,-0.993l0.15576,-0.61332v-3.98913l0.39063,-3.90625l0.02641,-0.08302l0.00119,-0.08711l0.58177,-2.5764v-4.33636l-0.15576,-0.61332l0.15576,-0.993v-0.40454l0.39063,-3.90625l0.56327,-1.77027l0.28789,-1.83527l1.39754,-3.66855l0.18092,-0.36183l0.22205,-0.69788l0.19949,-1.27174l1.33303,-3.49919l0.1184,-1.61814l1.46497,-2.83227l0.96683,-3.0386l1.307,-1.51337l0.5299,-1.85466l0.86056,-2.16734l0.06543,-0.27647l0.28029,-0.59421l0.24245,-0.61062l0.15721,-0.23665l0.99485,-2.10907l1.96937,-3.28228l1.25604,-3.14009l0.48075,-0.92303l0.37049,-0.97254l0.72339,-1.44678l0.02791,-0.27913l0.56327,-1.77027l0.28789,-1.83527l0.01275,-0.03346l0.1361,-1.361l0.02641,-0.08302l0.00119,-0.08711l0.58177,-2.5764v-0.26959l-0.25356,-1.01425l-0.2815,-1.92359l-0.07431,-0.23355l-0.0866,-0.86604l-0.12603,-0.86118l0.01545,-0.2446l-0.19344,-1.93443v-6.02954l-0.04611,-0.29394l-0.56327,-1.77027l-0.39062,-3.90625v-0.40454l-0.15576,-0.993l0.15576,-0.61332v-0.93219l-0.15524,-0.46573l-0.30615,-0.6123l-0.41361,-0.47891l-0.30476,-0.95783l-0.18092,-0.36183l-1.39754,-3.66855l-0.03004,-0.19151l-0.95285,-1.16459l-1.56833,-1.25466l-1.40587,-1.7115l-1.24782,-1.2141l-0.00323,-0.00776l-1.21397,-0.60698l-1.80538,-1.14024l-1.8586,1.52067l-1.25466,1.56833l-1.7115,1.40587l-0.98622,1.01362l-0.2033,0.27107l-1.19963,1.30548l-1.1227,1.37219l-4.74369,4.74369l-1.93398,2.57864l-1.19963,1.30548l-1.1227,1.37219l-9,9l-0.64531,0.52798l-0.56974,0.60876l-7.10232,6.21453l-0.55904,0.83856l-1.56364,1.90357l-1.55994,1.9066l-2,2l-3.03835,2.48592l-0.07738,0.04002l-0.06244,0.06075l-3.31916,2.09631l-0.37136,0.18568l-1.13131,1.13131l-3.03835,2.48592l-0.07738,0.04002l-0.06244,0.06075l-3.28483,2.07463l-0.79331,0.59498l-0.74369,0.74369l-1.9066,1.55994l-1.90357,1.56364l-0.94027,0.62685l-0.24957,0.24957l-3.03835,2.48592l-0.07738,0.04002l-0.06244,0.06075l-3.31916,2.09631l-4,2l-2.27239,0.86567l-0.25126,0.13905l-0.57902,0.17725l-0.56588,0.21557l-0.2837,0.0445l-2.32519,0.71179l-1.71706,0.34341l-5.0055,2.50275l-1.65681,0.63116l-1.61784,0.72524l-9,3l-1.51635,0.3424l-1.48644,0.45503l-3.01768,0.60354l-6.10714,2.29018l-0.44876,0.11895l-0.42364,0.18991l-3,1l-3.82932,0.86469l-0.08711,0.00119l-0.08302,0.02641l-3.90625,0.39063h-9.98913l-0.61332,0.15576l-0.993,-0.15576h-0.40454l-3.90625,-0.39062l-1.77027,-0.56327l-0.29394,-0.04611h-0.02954l-1.93443,-0.19344l-0.2446,0.01545l-0.86118,-0.12603l-0.86604,-0.0866l-0.23355,-0.07431l-1.92359,-0.2815l-1.01425,-0.25356h-1.92236l-3.90625,-0.39062l-0.4218,-0.13421l-2.30108,-0.16837l-2.83227,-1.46497l-3.0386,-0.96683l-1.74617,-1.50805l-0.39315,-0.20336l-0.32824,-0.26856l-1.29979,-0.36034l-3.6899,-2.95192l-1.75775,-1.28107l-1.04327,-0.37451l-1.60081,-0.98816l-1.15271,-0.18082l-0.38939,-0.14834l-0.00506,-0.00051l-1.77027,-0.56327l-1.83527,-0.28789l-3.66855,-1.39754l-0.36183,-0.18092l-0.95783,-0.30476l-0.47891,-0.41361l-2.20143,-1.10071l-3.31916,-2.09631l-0.06244,-0.06075l-0.07738,-0.04002l-2.46757,-2.01892l-1.89311,-1.14467l-4,-3l-1.30548,-1.19963l-1.37219,-1.1227l-3,-3l-1.55994,-1.9066l-1.13875,-1.3863l-1.07676,-0.29102l-3.07736,-3.56326l-3.56326,-3.07736l-0.41246,-1.52611l-0.36879,-0.42702l-1.66972,-5.24769l-0.25654,-0.38481l-0.17147,-0.32277l-0.90227,-1.04473l-0.51857,-1.62979l-0.24947,-0.46958l-0.93754,-3.26101l-1.0288,-3.23337l-0.05291,-0.5291l-0.47257,-1.64371l0.06122,-0.48977l-0.96447,-3.37564l-0.48687,-2.69649l-0.08441,-0.26529l-0.04532,-0.45324l-0.08093,-0.44825l0.00828,-0.27827l-0.06311,-0.63112l-0.37313,-0.45605l-0.04002,-0.07738l-0.06075,-0.06244l-2.09631,-3.31916l-4.18568,-8.37136l-0.13131,-0.13131l-2.48592,-3.03835l-0.20336,-0.39315l-1.50805,-1.74617l-0.96683,-3.0386l-0.29051,-0.56166l-1.03125,-1.26042l-0.04002,-0.07738l-0.06075,-0.06244l-1.64879,-2.61058l-0.40973,-0.39865l-1.98656,-1.58925l-1.17113,-1.42573l-1.17713,-0.9631l-1.22925,-0.51219h-10.30271l-0.44965,1.18034l-0.18092,0.36183l-0.30476,0.95783l-0.41361,0.47891l-0.60346,1.20693l-0.34341,1.71706l-0.10698,0.34948l-0.10074,1.37674l-0.78575,1.51912l-0.15565,0.50845l-1.64294,2.96882l-0.31339,0.60589l-0.10227,1.39773l-1.46497,2.83227l-0.96683,3.0386l-1.50805,1.74617l-0.20336,0.39315l-0.0985,0.12039l-1.19009,3.74029l-1.28701,1.49022l-0.85418,1.35829l-6.21313,7.98831l-3.3892,5.42273l-2.13147,4.79581v30.44464l-0.39062,3.90625l-0.02641,0.08302l-0.00119,0.08711l-0.86469,3.82932l-0.56316,1.68949l0.00185,0.00727l-0.15576,0.993v0.40454l-0.39062,3.90625l-0.56327,1.77027l-0.28789,1.83527l-0.01275,0.03346l-0.1361,1.361l-0.56327,1.77027l-0.04611,0.29394v35.02954c0,2.87566 -0.48553,5.63793 -1.37907,8.20928l0.37907,3.79072v0.40454l0.15576,0.993l-0.15576,0.61332v8.97827l0.15576,0.61332l-0.15576,0.993v0.40454l-0.39062,3.90625l-0.56327,1.77027l-0.28789,1.83527l-0.14834,0.38939l-0.00051,0.00506l-0.56327,1.77027l-0.28789,1.83527l-0.14834,0.38939l-0.00051,0.00506l-0.36687,1.15302l0.08795,0.43459l-0.41008,0.98419l-0.16216,1.03374l-1.39754,3.66855l-0.18092,0.36183l-0.30476,0.95783l-0.41361,0.47891l-0.10071,0.20143l-0.68451,1.08381l-0.71303,1.71128l-2.1952,2.13587l-0.40725,1.06904l-0.18092,0.36183l-0.22205,0.69788l-0.19949,1.27174l-1.33303,3.49919z" fill="#a5a5a5" stroke="#7e7e7e" stroke-width="3" stroke-linecap="butt"/><path d="M67.66666,191.20369h-47.33333" fill="#ffe800" stroke="#ffe600" stroke-width="2.5" stroke-linecap="round"/><path d="M93.45868,194.45002v-33.78467h10.34733v33.78467z" fill="#cf8100" stroke="none" stroke-width="0" stroke-linecap="butt"/><path d="M119.26468,161.10169c0,7.40153 -9.23741,13.40167 -20.63233,13.40167c-11.39492,0 -20.63233,-6.00013 -20.63233,-13.40167c0,-7.40153 9.23741,-13.40167 20.63233,-13.40167c11.39492,0 20.63233,6.00013 20.63233,13.40167z" fill="#33ff00" stroke="none" stroke-width="0" stroke-linecap="butt"/><g stroke="none" stroke-width="0" stroke-linecap="butt"><path d="M315.42517,172.87502v-27.47137h7.61031v27.47137z" fill="#33ff00"/><path d="M316.03065,164.26814l14.06396,-9.35506l4.21492,6.33651l-14.06396,9.35506z" data-paper-data="{&quot;origRot&quot;:0,&quot;index&quot;:null}" fill="#33ff00"/><path d="M317.47263,170.41904l-14.06396,-9.35506l4.21491,-6.33651l14.06397,9.35506z" data-paper-data="{&quot;origRot&quot;:0,&quot;index&quot;:null}" fill="#33ff00"/><path d="M305.86587,143.09271c0,-5.84328 5.98347,-10.58019 13.36445,-10.58019c7.38099,0 13.36445,4.73691 13.36445,10.58019c0,5.84328 -5.98347,10.58019 -13.36445,10.58019c-7.38099,0 -13.36445,-4.73691 -13.36445,-10.58019z" fill="#ffb134"/></g><path d="M260.87529,201.87502v-20.9977h5.81693v20.9977z" fill="#33ff00" stroke="none" stroke-width="0" stroke-linecap="butt"/><path d="M261.33808,195.29637l10.74977,-7.15052l3.22167,4.8433l-10.74977,7.15052z" data-paper-data="{&quot;origRot&quot;:0,&quot;index&quot;:null}" fill="#33ff00" stroke="none" stroke-width="0" stroke-linecap="butt"/><path d="M262.44025,199.9978l-10.74977,-7.15052l3.22166,-4.8433l10.74978,7.15052z" data-paper-data="{&quot;origRot&quot;:0,&quot;index&quot;:null}" fill="#33ff00" stroke="none" stroke-width="0" stroke-linecap="butt"/><path d="M253.56866,179.11095c0,-4.4663 4.57345,-8.08695 10.2151,-8.08695c5.64165,0 10.2151,3.62065 10.2151,8.08695c0,4.4663 -4.57345,8.08695 -10.2151,8.08695c-5.64165,0 -10.2151,-3.62065 -10.2151,-8.08695z" fill="#ffe700" stroke="none" stroke-width="0" stroke-linecap="butt"/><path d="M302.10386,226.87502v-20.66521h5.72482v20.66521z" fill="#33ff00" stroke="none" stroke-width="0" stroke-linecap="butt"/><path d="M302.55932,220.40054l10.57955,-7.0373l3.17065,4.76661l-10.57955,7.0373z" data-paper-data="{&quot;origRot&quot;:0,&quot;index&quot;:null}" fill="#33ff00" stroke="none" stroke-width="0" stroke-linecap="butt"/><path d="M303.64405,225.02752l-10.57955,-7.0373l3.17065,-4.76661l10.57955,7.0373z" data-paper-data="{&quot;origRot&quot;:0,&quot;index&quot;:null}" fill="#33ff00" stroke="none" stroke-width="0" stroke-linecap="butt"/><path d="M294.91292,204.47142c0,-4.39558 4.50103,-7.9589 10.05335,-7.9589c5.55231,0 10.05335,3.56332 10.05335,7.9589c0,4.39558 -4.50103,7.9589 -10.05335,7.9589c-5.55231,0 -10.05335,-3.56332 -10.05335,-7.9589z" fill="#00a7ff" stroke="none" stroke-width="0" stroke-linecap="butt"/><path d="M228.11157,85.87502v-26.11014h7.23321v26.11014z" fill="#33ff00" stroke="none" stroke-width="0" stroke-linecap="butt"/><path d="M228.68705,77.69462l13.36708,-8.8915l4.00606,6.02253l-13.36708,8.8915z" data-paper-data="{&quot;origRot&quot;:0,&quot;index&quot;:null}" fill="#33ff00" stroke="none" stroke-width="0" stroke-linecap="butt"/><path d="M230.05757,83.54073l-13.36708,-8.8915l4.00606,-6.02253l13.36709,8.8915z" data-paper-data="{&quot;origRot&quot;:0,&quot;index&quot;:null}" fill="#33ff00" stroke="none" stroke-width="0" stroke-linecap="butt"/><path d="M219.02595,57.56845c0,-5.55374 5.68698,-10.05593 12.70223,-10.05593c7.01525,0 12.70223,4.50219 12.70223,10.05593c0,5.55374 -5.68698,10.05593 -12.70223,10.05593c-7.01525,0 -12.70223,-4.50219 -12.70223,-10.05593z" fill="#ff8cdc" stroke="none" stroke-width="0" stroke-linecap="butt"/><path d="M437.0419,174.87501v-23.66475h6.55578v23.66475z" fill="#33ff00" stroke="none" stroke-width="0" stroke-linecap="butt"/><path d="M437.56348,167.46076l12.11516,-8.05876l3.63087,5.45848l-12.11516,8.05876z" data-paper-data="{&quot;origRot&quot;:0,&quot;index&quot;:null}" fill="#33ff00" stroke="none" stroke-width="0" stroke-linecap="butt"/><path d="M438.80565,172.75935l-12.11516,-8.05876l3.63086,-5.45848l12.11517,8.05876z" data-paper-data="{&quot;origRot&quot;:0,&quot;index&quot;:null}" fill="#33ff00" stroke="none" stroke-width="0" stroke-linecap="butt"/><path d="M428.80721,149.21954c0,-5.0336 5.15436,-9.11413 11.51258,-9.11413c6.35823,0 11.51258,4.08053 11.51258,9.11413c0,5.0336 -5.15436,9.11413 -11.51258,9.11413c-6.35823,0 -11.51258,-4.08053 -11.51258,-9.11413z" fill="#ffffff" stroke="none" stroke-width="0" stroke-linecap="butt"/><path d="M432.632,83.45001v-38.12067h11.67533v38.12067z" fill="#cf8100" stroke="none" stroke-width="0" stroke-linecap="butt"/><path d="M461.75,45.82168c0,8.35146 -10.42296,15.12167 -23.28033,15.12167c-12.85737,0 -23.28033,-6.7702 -23.28033,-15.12167c0,-8.35146 10.42296,-15.12167 23.28033,-15.12167c12.85737,0 23.28033,6.7702 23.28033,15.12167z" fill="#33ff00" stroke="none" stroke-width="0" stroke-linecap="butt"/></g></g></svg>