<svg version="1.1" xmlns="http://www.w3.org/2000/svg" xmlns:xlink="http://www.w3.org/1999/xlink" width="453.81509" height="352.45456" viewBox="0,0,453.81509,352.45456"><g transform="translate(-1.66818,-3.95617)"><g data-paper-data="{&quot;isPaintingLayer&quot;:true}" fill-rule="nonzero" stroke-linejoin="miter" stroke-miterlimit="10" stroke-dasharray="" stroke-dashoffset="0" style="mix-blend-mode: normal"><path d="M32.56757,224.48097c0.22046,-7.13059 0,-14.26799 0,-21.40198c-0.97154,-2.66843 -1.5015,-5.54903 -1.5015,-8.55341c0,-2.78436 0.45518,-5.46241 1.2952,-7.96379c0.46423,-1.44173 1.04816,-2.84485 1.7436,-4.18908c-0.02277,-0.95573 -0.03446,-1.91008 -0.0358,-2.86214c-0.0371,-26.35671 0.05152,-52.71353 0,-79.07021c-0.01054,-5.39292 1.22114,-11.55935 3.96681,-16.28122c4.66719,-8.0264 13.70331,-14.29227 22.53041,-16.99538c1.72195,-0.52731 4.15722,-0.39607 5.7653,-1.06713c6.08712,-2.54019 10.79431,-6.18826 17.35976,-7.29153c23.66829,-3.97726 26.33655,9.9036 49.69934,4.40938c4.53024,-1.06538 12.88745,-5.73706 16.34618,-9.40393c5.33107,-5.65188 4.80276,-11.11777 5.62336,-14.43047c1.69211,-6.83097 5.52426,-13.03152 10.87733,-17.59989c0.58162,-0.49636 1.50137,-0.32246 2.21443,-0.59849c8.48667,-3.28528 13.77109,-7.82921 23.25857,-7.81226c28.37876,0.0507 56.75788,-0.11878 85.13644,-0.00597c2.18998,-0.3902 4.41999,-0.84104 6.67516,-1.54648c4.235,-1.32475 8.28781,-2.91244 12.78414,-2.95205c13.47813,-0.11873 26.95745,0.06007 40.43597,0c3.08193,-0.01373 8.74379,-3.15877 13.51412,-3.15877c11.66235,0 24.47778,0.10059 36.14,0.15576c4.09525,0.01937 8.2967,1.31999 12.28721,1.5015c16.01903,0.72863 31.44498,-1.93645 44.20796,9.91226c19.37228,17.98455 7.08969,39.00824 6.04237,61.10678c-0.25813,5.44654 -0.0831,10.90595 0,16.35797c0.0477,3.12976 1.65727,6.33091 1.65727,9.59111c0,25.50887 -0.23956,53.48875 -0.15576,78.99748c0.00446,1.3582 0.88633,2.95108 1.11088,4.28732c0.64838,3.85845 0.20568,6.8166 0.39062,10.7277c0.06581,1.39159 0.88043,2.91598 1.11088,4.28732c1.23545,7.35206 1.34942,16.24401 -0.85115,23.43005c-5.36477,17.51883 -23.74362,27.73265 -40.87299,30.6111c-4.99097,0.83869 -9.1312,0.04685 -14.34212,0.39063c-3.04851,0.20112 -5.96566,1.49263 -9.08365,1.5015c-22.02193,0.06265 -44.04408,0.04075 -66.06607,0c-4.4234,-0.00819 -10.41808,-0.96461 -13.97542,-4.03686c-5.2934,-4.57157 -10.8224,-9.68882 -14.56528,-15.7018c-2.98762,-4.79966 -4.11119,-10.89112 -5.16681,-16.21942c-1.59756,-8.06376 -2.72516,-14.47869 -4.13252,-22.63765c-1.26593,-7.33909 0.5778,-16.89142 0.5778,-16.89142c0,0 5.46485,-12.17209 4.64278,-15.89039c-0.13148,-0.5947 -13.09629,1.53807 -13.52654,1.55729c-4.76985,0.21299 -8.89148,-0.29654 -13.91406,-0.26985c-17.67307,0.09393 -21.4137,-0.96542 -39.0679,-0.61058c-2.77968,0.05587 -7.39639,-0.16542 -11.99687,-1.98286c-4.53354,-1.791 -10.00131,-3.83018 -12.72982,-3.55656c-0.66511,0.0667 -2.7904,-0.40348 -3.89768,2.74343c-2.08949,5.93833 -1.04292,13.85817 -0.81905,14.87074c1.48214,6.70382 0.50695,13.72775 0.41823,20.59289c-0.02122,1.64216 -0.21526,3.28299 -0.48548,4.9029c-0.28414,1.70336 -0.87728,3.35877 -1.01602,5.08009c-0.39928,4.95382 0.40788,8.69093 -0.39062,13.44277c-0.0319,0.18983 -0.90085,2.46184 -0.75366,2.98404c0.15429,0.54739 0.65214,0.72354 0.91316,1.13273c0.85366,1.33828 0.91824,3.74484 2.47188,4.0703c12.52487,2.62375 28.87708,-4.01899 40.75495,-6.64505c6.56491,-1.45143 13.44279,-0.36246 20.166,-0.41823c3.53622,-0.02934 8.08165,-0.41371 11.56052,0.6932c9.49335,3.02061 19.16156,12.68882 22.18217,22.18217c1.07097,3.36589 0.82864,7.82633 0.82864,11.32476c0,5.93134 0.77592,16.70883 -0.62092,24.2313c-1.97761,10.65013 -3.43342,17.4816 -6.48242,27.49065c-0.5469,1.79531 -1.79559,3.58626 -2.21575,5.38898c-0.27066,1.16127 -0.16887,3.78363 -0.51856,4.88263c-2.0043,6.29923 -5.21065,12.32899 -8.64818,17.95535c-0.63853,1.0451 -1.44065,4.14343 -2.07237,4.88366c-2.08731,2.44584 -4.68482,4.40834 -7.11833,6.51001c-3.55724,3.07216 -9.55207,4.02903 -13.97542,4.03686c-23.02299,0.04078 -46.04614,0.06643 -69.06907,0c-3.72573,-0.01075 -7.41564,-1.37426 -11.07807,-1.5015c-8.8145,-0.30624 -17.63996,0.07478 -26.45947,0c-3.36088,-0.0285 -6.70775,-1.44524 -9.983,-1.5015c-17.57177,-0.30182 -37.11117,0.15576 -54.68553,0.15576c-3.28434,0 -6.42988,-1.52046 -9.59111,-1.65727c-8.9318,-0.38652 -16.4237,-1.42029 -23.79988,-7.03987c-4.28978,-3.26819 -7.71358,-7.93157 -9.88676,-12.7858c-0.88707,-1.98144 -1.84785,-6.61718 -2.87853,-7.87051c-4.20486,-5.11319 -4.31305,-12.46592 -4.26529,-18.75173c0.04455,-5.86354 -0.10653,-11.72839 0,-17.59113c0.1463,-8.05128 2.63663,-16.11244 3.003,-24.09866c0.26502,-5.7771 -1.012,-11.73462 0.39063,-17.34513c0.34442,-1.37766 0.73579,-2.70686 1.1787,-3.98164c-0.29049,-5.32876 1.25362,-10.38672 1.43368,-16.21077zM134.39414,301.65772c3.38417,0.01486 6.67156,1.39343 9.983,1.5015c6.24304,0.20374 20.71675,-1.0165 30.16302,0.34015c17.95513,2.57868 46.377,14.52039 57.7379,0.329c1.13303,-1.41532 5.20304,-15.13545 5.42764,-16.0988c0.89403,-3.83462 4.23632,-12.68719 1.98326,-15.91631c-1.71988,-2.46495 -8.43267,7.03547 -11.33669,7.81048c-6.76359,1.80503 -11.05627,1.56108 -17.9798,2.57428c-4.11738,0.60254 -8.30216,0.45957 -12.44931,0.28707c-6.61574,-0.27518 -16.59698,0.41716 -23.61159,-2.09115c-7.62741,-2.72743 -15.22261,-8.91046 -20.34002,-14.83588c-1.82182,-2.10947 -1.61431,-5.45867 -3.2299,-7.75175c-0.36091,-0.51225 -1.17529,-0.51529 -1.61558,-0.96117c-3.14905,-3.18909 -5.26241,-6.72113 -6.91748,-10.87033c-2.96054,-7.42196 -3.72293,-15.9144 -2.39379,-23.82396c0.45383,-2.70068 2.53924,-5.6187 2.61238,-8.21033c0.15631,-5.53841 1.13454,-10.44363 1.5015,-15.88443c0.60605,-8.98569 -1.30566,-18.94198 -1.5015,-28.00211c-0.12552,-5.8071 -2.7295,-11.68143 -3.003,-17.57046c-0.639,-13.75873 5.51072,-29.15221 19.46049,-33.59078c2.24046,-0.71287 4.68989,-0.40866 7.04101,-0.41823c14.13566,-0.05755 36.38238,-0.71615 36.38238,-0.71615l32.25066,-1.48678l21.67277,-0.0304l21.56927,-0.15643l21.02213,0.31162c0,0 13.28071,2.67983 16.52288,5.47989c8.89234,7.67975 8.75324,10.23672 9.21355,22.04582c0.19167,4.91729 1.34517,9.93041 1.5015,15.01502c0.23819,7.74712 4.25172,14.98496 5.66585,22.46949c1.13295,5.99632 1.4542,12.70336 3.70684,18.45516c0.69969,1.78657 1.2446,3.63645 1.68543,5.50382c0.25089,1.0628 -2.58538,4.56613 -1.49386,4.59904c0.8211,0.02475 3.84224,-1.35243 4.66343,-1.33145c14.92166,0.38123 29.85651,0.15564 44.78175,-0.06856c2.96161,-0.04449 6.02453,-1.44381 9.08365,-1.5015c2.79404,-0.05269 9.27909,2.76206 9.05025,-0.0231c-2.9227,-35.57155 -2.36403,-51.82452 -2.51871,-98.91547c-0.01023,-3.11355 -1.65727,-6.34334 -1.65727,-9.59111c0,-8.4368 -0.91068,-18.60319 0.64125,-27.52938c0.41413,-2.38196 0.98483,-4.73446 1.42244,-7.11221c0.39933,-2.16972 -2.97306,-10.73895 -4.11193,-12.62843c-0.86433,-1.434 -8.0595,4.73038 -12.11023,4.5985c-9.87819,-0.3216 -19.76703,-0.05976 -29.65027,0c-1.64334,0.00994 -3.03345,1.28003 -4.60479,1.76123c-3.05518,0.93558 -6.38941,1.25382 -9.52266,1.24178c-13.30877,-0.05114 -26.61787,-0.06006 -39.92661,0c-2.54265,0.01147 -5.54201,2.16399 -8.21033,2.61238c-5.70845,0.95926 -13.02755,2.60054 -19.55551,1.89142c-22.49312,-0.11261 -48.0261,-3.05358 -70.45885,-1.4993c-1.5221,0.10546 3.29225,6.68946 3.13485,8.26347c-0.33704,3.37042 -1.67071,7.77524 -3.25985,10.76656c-6.55965,12.34758 -13.67448,24.63657 -28.47926,27.12439c-26.49127,4.45164 -53.75539,-0.89851 -80.58713,0.39063c-2.95484,0.14197 -5.31394,2.60268 -7.9378,3.9689c-0.49333,0.25687 -1.49195,0.19002 -1.49243,0.74621c-0.01855,21.74898 -0.27818,43.49975 0,65.24696c0.13481,10.53908 4.66027,15.97504 4.66027,25.05409c0,4.69096 1.30728,8.94631 1.34574,13.61747c0.11949,14.51402 0.06174,29.02916 0,43.54354c-0.01321,3.10484 -1.3626,6.05591 -1.5015,9.08365c-0.20529,4.47492 0.10086,8.96039 0,13.43888c-0.06807,3.02241 -1.37623,5.63955 -1.5015,8.56145c-0.14778,3.44692 0.02338,6.69473 -0.40196,10.00197c15.82458,0.03242 31.64952,-0.08936 47.47403,-0.01987z" fill="#999999" stroke="#737373" stroke-width="3.5" stroke-linecap="butt"/><path d="M35.89586,184.01636h48.6667" fill="none" stroke="#ffe700" stroke-width="2" stroke-linecap="round"/><g stroke="none" stroke-linecap="butt"><path d="M128.85398,293.14117v-20.02562h8.68581v20.02562z" fill="#cc7800" stroke-width="0"/><path d="M147.27032,271.94684c0,4.46391 -6.39533,3.58145 -13.59089,3.58145c-7.19556,0 -13.51126,1.20673 -13.51126,-3.25718c0,-4.46391 6.07443,-10.9779 13.26999,-10.9779c7.19556,0 13.83216,6.18972 13.83216,10.65363z" fill="#ff0000" stroke-width="0"/><path d="M126.64899,266.58763c0,-0.79871 0.64748,-1.44619 1.44619,-1.44619c0.79871,0 1.44619,0.64748 1.44619,1.44619c0,0.79871 -0.64748,1.44618 -1.44619,1.44618c-0.79871,0 -1.44619,-0.64747 -1.44619,-1.44618z" fill="#ffffff" stroke-width="0.5"/><path d="M134.362,265.78418c0,-0.79871 0.64747,-1.44619 1.44618,-1.44619c0.79871,0 1.44619,0.64747 1.44619,1.44619c0,0.79871 -0.64748,1.44619 -1.44619,1.44619c-0.79871,0 -1.44618,-0.64748 -1.44618,-1.44619z" fill="#ffffff" stroke-width="0.5"/><path d="M131.46962,269.96209c0,-0.79871 0.64748,-1.44618 1.44619,-1.44618c0.79871,0 1.44619,0.64747 1.44619,1.44618c0,0.79871 -0.64748,1.44619 -1.44619,1.44619c-0.79871,0 -1.44619,-0.64748 -1.44619,-1.44619z" fill="#ffffff" stroke-width="0.5"/><path d="M124.39937,272.85447c0,-0.79871 0.64748,-1.44619 1.44619,-1.44619c0.79871,0 1.44618,0.64748 1.44618,1.44619c0,0.79871 -0.64747,1.44619 -1.44618,1.44619c-0.79871,0 -1.44619,-0.64747 -1.44619,-1.44619z" fill="#ffffff" stroke-width="0.5"/><path d="M140.78949,268.67662c0,-0.79871 0.64748,-1.44619 1.44619,-1.44619c0.79871,0 1.44619,0.64747 1.44619,1.44619c0,0.79871 -0.64748,1.44619 -1.44619,1.44619c-0.79871,0 -1.44619,-0.64748 -1.44619,-1.44619z" fill="#ffffff" stroke-width="0.5"/><path d="M135.96887,272.3724c0,-0.79871 0.64747,-1.44619 1.44618,-1.44619c0.79871,0 1.44619,0.64747 1.44619,1.44619c0,0.79871 -0.64748,1.44619 -1.44619,1.44619c-0.79871,0 -1.44618,-0.64748 -1.44618,-1.44619z" fill="#ffffff" stroke-width="0.5"/></g><g stroke="none" stroke-linecap="butt"><path d="M98.97568,205.64118v-22.61175h9.80751v22.61175z" fill="#cc7800" stroke-width="0"/><path d="M119.77032,181.70976c0,5.04039 -7.22122,4.04396 -15.34602,4.04396c-8.1248,0 -15.25612,1.36258 -15.25612,-3.67781c0,-5.04039 6.85889,-12.3956 14.98369,-12.3956c8.1248,0 15.61845,6.98906 15.61845,12.02945z" fill="#ff0000" stroke-width="0"/><path d="M96.48593,175.65852c0,-0.90186 0.7311,-1.63296 1.63296,-1.63296c0.90185,0 1.63294,0.7311 1.63294,1.63296c0,0.90186 -0.73109,1.63295 -1.63294,1.63295c-0.90185,0 -1.63296,-0.73109 -1.63296,-1.63295z" fill="#ffffff" stroke-width="0.5"/><path d="M105.195,174.7513c0,-0.90186 0.7311,-1.63294 1.63295,-1.63294c0.90185,0 1.63295,0.73109 1.63295,1.63294c0,0.90186 -0.73109,1.63296 -1.63295,1.63296c-0.90185,0 -1.63295,-0.7311 -1.63295,-1.63296z" fill="#ffffff" stroke-width="0.5"/><path d="M101.9291,179.46872c0,-0.90186 0.73109,-1.63295 1.63295,-1.63295c0.90185,0 1.63295,0.73109 1.63295,1.63295c0,0.90186 -0.73109,1.63295 -1.63295,1.63295c-0.90185,0 -1.63295,-0.73109 -1.63295,-1.63295z" fill="#ffffff" stroke-width="0.5"/><path d="M93.94579,182.73464c0,-0.90186 0.7311,-1.63296 1.63295,-1.63296c0.90185,0 1.63295,0.7311 1.63295,1.63296c0,0.90186 -0.73109,1.63294 -1.63295,1.63294c-0.90185,0 -1.63295,-0.73109 -1.63295,-1.63294z" fill="#ffffff" stroke-width="0.5"/><path d="M112.45256,178.01722c0,-0.90186 0.73109,-1.63295 1.63294,-1.63295c0.90185,0 1.63296,0.73109 1.63296,1.63295c0,0.90186 -0.7311,1.63295 -1.63296,1.63295c-0.90185,0 -1.63294,-0.7311 -1.63294,-1.63295z" fill="#ffffff" stroke-width="0.5"/><path d="M107.00939,182.19033c0,-0.90186 0.73109,-1.63295 1.63295,-1.63295c0.90185,0 1.63295,0.7311 1.63295,1.63295c0,0.90186 -0.7311,1.63295 -1.63295,1.63295c-0.90185,0 -1.63295,-0.73109 -1.63295,-1.63295z" fill="#ffffff" stroke-width="0.5"/></g><g stroke="none" stroke-linecap="butt"><path d="M10.67447,204.14118v-20.76452h9.0063v20.76452z" fill="#cc7800" stroke-width="0"/><path d="M29.77032,182.16482c0,4.62862 -6.63129,3.71359 -14.09235,3.71359c-7.46106,0 -14.00979,1.25126 -14.00979,-3.37736c0,-4.62862 6.29856,-11.38296 13.75962,-11.38296c7.46106,0 14.34253,6.4181 14.34253,11.04673z" fill="#ff0000" stroke-width="0"/><path d="M8.38812,176.60788c0,-0.82818 0.67137,-1.49955 1.49955,-1.49955c0.82818,0 1.49954,0.67137 1.49954,1.49955c0,0.82818 -0.67136,1.49955 -1.49954,1.49955c-0.82818,0 -1.49955,-0.67137 -1.49955,-1.49955z" fill="#ffffff" stroke-width="0.5"/><path d="M16.38571,175.77483c0,-0.82818 0.67137,-1.49955 1.49955,-1.49955c0.82818,0 1.49955,0.67137 1.49955,1.49955c0,0.82818 -0.67137,1.49955 -1.49955,1.49955c-0.82818,0 -1.49955,-0.67137 -1.49955,-1.49955z" fill="#ffffff" stroke-width="0.5"/><path d="M13.38662,180.10685c0,-0.82818 0.67136,-1.49954 1.49954,-1.49954c0.82818,0 1.49955,0.67136 1.49955,1.49954c0,0.82818 -0.67137,1.49955 -1.49955,1.49955c-0.82818,0 -1.49954,-0.67137 -1.49954,-1.49955z" fill="#ffffff" stroke-width="0.5"/><path d="M6.05549,183.10595c0,-0.82818 0.67137,-1.49955 1.49955,-1.49955c0.82818,0 1.49954,0.67137 1.49954,1.49955c0,0.82818 -0.67136,1.49955 -1.49954,1.49955c-0.82818,0 -1.49955,-0.67137 -1.49955,-1.49955z" fill="#ffffff" stroke-width="0.5"/><path d="M23.05037,178.77388c0,-0.82818 0.67136,-1.49954 1.49954,-1.49954c0.82818,0 1.49955,0.67136 1.49955,1.49954c0,0.82818 -0.67137,1.49955 -1.49955,1.49955c-0.82818,0 -1.49954,-0.67137 -1.49954,-1.49955z" fill="#ffffff" stroke-width="0.5"/><path d="M18.05188,182.60608c0,-0.82818 0.67137,-1.49955 1.49955,-1.49955c0.82818,0 1.49955,0.67137 1.49955,1.49955c0,0.82818 -0.67137,1.49955 -1.49955,1.49955c-0.82818,0 -1.49955,-0.67137 -1.49955,-1.49955z" fill="#ffffff" stroke-width="0.5"/></g><g stroke="none" stroke-linecap="butt"><path d="M219.94719,220.64118v-28.30997h12.27903v28.30997z" fill="#cc7800" stroke-width="0"/><path d="M245.98214,190.67902c0,6.31058 -9.04099,5.06304 -19.21327,5.06304c-10.17228,0 -19.1007,1.70594 -19.1007,-4.60464c0,-6.31058 8.58734,-15.51932 18.75962,-15.51932c10.17228,0 19.55435,8.75033 19.55435,15.06091z" fill="#ff0000" stroke-width="0"/><path d="M216.83003,183.10277c0,-1.12912 0.91533,-2.04447 2.04446,-2.04447c1.12912,0 2.04445,0.91534 2.04445,2.04447c0,1.12912 -0.91533,2.04445 -2.04445,2.04445c-1.12912,0 -2.04446,-0.91533 -2.04446,-2.04445z" fill="#ffffff" stroke-width="0.5"/><path d="M227.7338,181.96701c0,-1.12912 0.91533,-2.04446 2.04445,-2.04446c1.12912,0 2.04446,0.91534 2.04446,2.04446c0,1.12912 -0.91533,2.04446 -2.04446,2.04446c-1.12912,0 -2.04445,-0.91533 -2.04445,-2.04446z" fill="#ffffff" stroke-width="0.5"/><path d="M223.64489,187.87317c0,-1.12912 0.91532,-2.04445 2.04445,-2.04445c1.12912,0 2.04446,0.91533 2.04446,2.04445c0,1.12912 -0.91534,2.04446 -2.04446,2.04446c-1.12912,0 -2.04445,-0.91533 -2.04445,-2.04446z" fill="#ffffff" stroke-width="0.5"/><path d="M213.64976,191.96208c0,-1.12912 0.91534,-2.04446 2.04446,-2.04446c1.12912,0 2.04445,0.91534 2.04445,2.04446c0,1.12912 -0.91533,2.04446 -2.04445,2.04446c-1.12912,0 -2.04446,-0.91533 -2.04446,-2.04446z" fill="#ffffff" stroke-width="0.5"/><path d="M236.82028,186.05592c0,-1.12912 0.91533,-2.04445 2.04445,-2.04445c1.12912,0 2.04446,0.91533 2.04446,2.04445c0,1.12912 -0.91534,2.04446 -2.04446,2.04446c-1.12912,0 -2.04445,-0.91533 -2.04445,-2.04446z" fill="#ffffff" stroke-width="0.5"/><path d="M230.00542,191.28059c0,-1.12912 0.91533,-2.04445 2.04445,-2.04445c1.12912,0 2.04446,0.91532 2.04446,2.04445c0,1.12912 -0.91534,2.04446 -2.04446,2.04446c-1.12912,0 -2.04445,-0.91534 -2.04445,-2.04446z" fill="#ffffff" stroke-width="0.5"/></g><g stroke="none" stroke-linecap="butt"><path d="M224.75906,109.11586v-21.99024h9.53794v21.99025z" fill="#cc7800" stroke-width="0"/><path d="M244.98214,85.84224c0,4.90185 -7.02274,3.93281 -14.92423,3.93281c-7.90149,0 -14.83678,1.32512 -14.83678,-3.57673c0,-4.90185 6.67036,-12.05489 14.57184,-12.05489c7.90149,0 15.18917,6.79697 15.18917,11.69882z" fill="#ff0000" stroke-width="0"/><path d="M222.33775,79.95727c0,-0.87707 0.711,-1.58807 1.58807,-1.58807c0.87706,0 1.58806,0.71101 1.58806,1.58807c0,0.87707 -0.711,1.58807 -1.58806,1.58807c-0.87706,0 -1.58807,-0.711 -1.58807,-1.58807z" fill="#ffffff" stroke-width="0.5"/><path d="M230.80744,79.07501c0,-0.87707 0.711,-1.58807 1.58807,-1.58807c0.87706,0 1.58807,0.71101 1.58807,1.58807c0,0.87707 -0.71101,1.58807 -1.58807,1.58807c-0.87706,0 -1.58807,-0.711 -1.58807,-1.58807z" fill="#ffffff" stroke-width="0.5"/><path d="M227.63131,83.66276c0,-0.87707 0.71099,-1.58807 1.58806,-1.58807c0.87706,0 1.58807,0.711 1.58807,1.58807c0,0.87707 -0.711,1.58807 -1.58807,1.58807c-0.87706,0 -1.58806,-0.71101 -1.58806,-1.58807z" fill="#ffffff" stroke-width="0.5"/><path d="M219.86742,86.83891c0,-0.87707 0.71101,-1.58807 1.58807,-1.58807c0.87706,0 1.58807,0.71101 1.58807,1.58807c0,0.87707 -0.711,1.58807 -1.58807,1.58807c-0.87706,0 -1.58807,-0.711 -1.58807,-1.58807z" fill="#ffffff" stroke-width="0.5"/><path d="M237.86551,82.25114c0,-0.87707 0.711,-1.58806 1.58807,-1.58806c0.87706,0 1.58807,0.71099 1.58807,1.58806c0,0.87707 -0.71101,1.58807 -1.58807,1.58807c-0.87706,0 -1.58807,-0.71101 -1.58807,-1.58807z" fill="#ffffff" stroke-width="0.5"/><path d="M232.57196,86.30956c0,-0.87707 0.711,-1.58806 1.58807,-1.58806c0.87706,0 1.58807,0.71099 1.58807,1.58806c0,0.87707 -0.71101,1.58807 -1.58807,1.58807c-0.87706,0 -1.58807,-0.711 -1.58807,-1.58807z" fill="#ffffff" stroke-width="0.5"/></g><g stroke="none" stroke-linecap="butt"><path d="M358.28439,202.11583v-30.11809h13.06327v30.11809z" fill="#cc7800" stroke-width="0"/><path d="M385.98214,170.24002c0,6.71363 -9.61843,5.38642 -20.44039,5.38642c-10.82196,0 -20.32063,1.8149 -20.32063,-4.89873c0,-6.71363 9.1358,-16.51051 19.95776,-16.51051c10.82196,0 20.80325,9.30919 20.80325,16.02282z" fill="#ff0000" stroke-width="0"/><path d="M354.96814,162.17995c0,-1.20124 0.97379,-2.17504 2.17503,-2.17504c1.20124,0 2.17503,0.9738 2.17503,2.17504c0,1.20124 -0.97379,2.17503 -2.17503,2.17503c-1.20124,0 -2.17503,-0.97379 -2.17503,-2.17503z" fill="#ffffff" stroke-width="0.5"/><path d="M366.56831,160.97158c0,-1.20124 0.97379,-2.17504 2.17503,-2.17504c1.20124,0 2.17504,0.97379 2.17504,2.17504c0,1.20124 -0.9738,2.17504 -2.17504,2.17504c-1.20124,0 -2.17503,-0.97379 -2.17503,-2.17504z" fill="#ffffff" stroke-width="0.5"/><path d="M362.21825,167.25501c0,-1.20124 0.97379,-2.17503 2.17503,-2.17503c1.20124,0 2.17503,0.97379 2.17503,2.17503c0,1.20124 -0.97379,2.17504 -2.17503,2.17504c-1.20124,0 -2.17503,-0.9738 -2.17503,-2.17504z" fill="#ffffff" stroke-width="0.5"/><path d="M351.58474,171.60509c0,-1.20124 0.9738,-2.17504 2.17504,-2.17504c1.20124,0 2.17503,0.9738 2.17503,2.17504c0,1.20124 -0.97379,2.17503 -2.17503,2.17503c-1.20124,0 -2.17504,-0.97379 -2.17504,-2.17503z" fill="#ffffff" stroke-width="0.5"/><path d="M376.23513,165.32163c0,-1.20124 0.9738,-2.17503 2.17504,-2.17503c1.20124,0 2.17503,0.97378 2.17503,2.17503c0,1.20124 -0.97379,2.17503 -2.17503,2.17503c-1.20124,0 -2.17504,-0.97379 -2.17504,-2.17503z" fill="#ffffff" stroke-width="0.5"/><path d="M368.98502,170.88006c0,-1.20124 0.97379,-2.17503 2.17503,-2.17503c1.20124,0 2.17504,0.97378 2.17504,2.17503c0,1.20124 -0.9738,2.17504 -2.17504,2.17504c-1.20124,0 -2.17503,-0.97379 -2.17503,-2.17504z" fill="#ffffff" stroke-width="0.5"/></g><g stroke="none" stroke-linecap="butt"><path d="M334.24584,117.11586v-32.33477h14.02472v32.33477z" fill="#cc7800" stroke-width="0"/><path d="M363.98214,82.89396c0,7.20775 -10.32634,5.78285 -21.94479,5.78285c-11.61845,0 -21.81622,1.94848 -21.81622,-5.25928c0,-7.20775 9.80819,-17.72567 21.42665,-17.72567c11.61845,0 22.33437,9.99435 22.33437,17.2021z" fill="#ff0000" stroke-width="0"/><path d="M330.68551,74.24067c0,-1.28965 1.04546,-2.33513 2.33511,-2.33513c1.28965,0 2.3351,1.04548 2.3351,2.33513c0,1.28965 -1.04546,2.33511 -2.3351,2.33511c-1.28965,0 -2.33511,-1.04546 -2.33511,-2.33511z" fill="#ffffff" stroke-width="0.5"/><path d="M343.13946,72.94339c0,-1.28965 1.04547,-2.33512 2.33512,-2.33512c1.28965,0 2.33512,1.04547 2.33512,2.33512c0,1.28965 -1.04547,2.33512 -2.33512,2.33512c-1.28965,0 -2.33512,-1.04547 -2.33512,-2.33512z" fill="#ffffff" stroke-width="0.5"/><path d="M338.46924,79.68927c0,-1.28965 1.04546,-2.33511 2.3351,-2.33511c1.28965,0 2.33511,1.04546 2.33511,2.33511c0,1.28965 -1.04546,2.33513 -2.33511,2.33513c-1.28965,0 -2.3351,-1.04548 -2.3351,-2.33513z" fill="#ffffff" stroke-width="0.5"/><path d="M327.0531,84.35952c0,-1.28965 1.04548,-2.33512 2.33513,-2.33512c1.28965,0 2.33511,1.04547 2.33511,2.33512c0,1.28965 -1.04546,2.33512 -2.33511,2.33512c-1.28965,0 -2.33513,-1.04547 -2.33513,-2.33512z" fill="#ffffff" stroke-width="0.5"/><path d="M353.51775,77.61361c0,-1.28965 1.04547,-2.3351 2.33512,-2.3351c1.28965,0 2.33511,1.04546 2.33511,2.3351c0,1.28965 -1.04546,2.33512 -2.33511,2.33512c-1.28965,0 -2.33512,-1.04547 -2.33512,-2.33512z" fill="#ffffff" stroke-width="0.5"/><path d="M345.73403,83.5811c0,-1.28965 1.04546,-2.33511 2.33511,-2.33511c1.28965,0 2.33512,1.04546 2.33512,2.33511c0,1.28965 -1.04547,2.33511 -2.33512,2.33511c-1.28965,0 -2.33511,-1.04546 -2.33511,-2.33511z" fill="#ffffff" stroke-width="0.5"/></g><g stroke="none" stroke-linecap="butt"><path d="M69.43858,55.11586v-21.25135h9.21746v21.25135z" fill="#cc7800" stroke-width="0"/><path d="M88.98214,32.62423c0,4.73714 -6.78677,3.80066 -14.42275,3.80066c-7.63599,0 -14.33826,1.28059 -14.33826,-3.45655c0,-4.73714 6.44623,-11.64983 14.08222,-11.64983c7.63599,0 14.67879,6.56857 14.67879,11.30572z" fill="#ff0000" stroke-width="0"/><path d="M67.09863,26.93704c0,-0.84759 0.68711,-1.53471 1.53471,-1.53471c0.84759,0 1.5347,0.68712 1.5347,1.53471c0,0.84759 -0.68711,1.5347 -1.5347,1.5347c-0.84759,0 -1.53471,-0.68711 -1.53471,-1.5347z" fill="#ffffff" stroke-width="0.5"/><path d="M75.28372,26.08439c0,-0.84759 0.68711,-1.5347 1.53471,-1.5347c0.84759,0 1.53471,0.68711 1.53471,1.5347c0,0.84759 -0.68711,1.53471 -1.53471,1.53471c-0.84759,0 -1.53471,-0.68711 -1.53471,-1.53471z" fill="#ffffff" stroke-width="0.5"/><path d="M72.21432,30.51801c0,-0.84759 0.68711,-1.5347 1.5347,-1.5347c0.84759,0 1.53471,0.68711 1.53471,1.5347c0,0.84759 -0.68711,1.53471 -1.53471,1.53471c-0.84759,0 -1.5347,-0.68712 -1.5347,-1.53471z" fill="#ffffff" stroke-width="0.5"/><path d="M64.7113,33.5874c0,-0.84759 0.68712,-1.53471 1.53471,-1.53471c0.84759,0 1.5347,0.68712 1.5347,1.53471c0,0.84759 -0.68711,1.5347 -1.5347,1.5347c-0.84759,0 -1.53471,-0.68711 -1.53471,-1.5347z" fill="#ffffff" stroke-width="0.5"/><path d="M82.10464,29.15383c0,-0.84759 0.68711,-1.5347 1.53471,-1.5347c0.84759,0 1.53471,0.6871 1.53471,1.5347c0,0.84759 -0.68711,1.53471 -1.53471,1.53471c-0.84759,0 -1.53471,-0.68712 -1.53471,-1.53471z" fill="#ffffff" stroke-width="0.5"/><path d="M76.98895,33.07585c0,-0.84759 0.68711,-1.5347 1.53471,-1.5347c0.84759,0 1.53471,0.68711 1.53471,1.5347c0,0.84759 -0.68711,1.5347 -1.53471,1.5347c-0.84759,0 -1.53471,-0.68711 -1.53471,-1.5347z" fill="#ffffff" stroke-width="0.5"/></g><g stroke="none" stroke-linecap="butt"><path d="M330.43858,305.11582v-21.25135h9.21745v21.25135z" fill="#cc7800" stroke-width="0"/><path d="M349.98214,282.62424c0,4.73714 -6.78677,3.80066 -14.42276,3.80066c-7.63599,0 -14.33826,1.2806 -14.33826,-3.45655c0,-4.73714 6.44623,-11.64983 14.08222,-11.64983c7.63599,0 14.6788,6.56858 14.6788,11.30572z" fill="#ff0000" stroke-width="0"/><path d="M328.09863,276.93701c0,-0.8476 0.68711,-1.53471 1.5347,-1.53471c0.8476,0 1.5347,0.68712 1.5347,1.53471c0,0.8476 -0.6871,1.5347 -1.5347,1.5347c-0.8476,0 -1.5347,-0.6871 -1.5347,-1.5347z" fill="#ffffff" stroke-width="0.5"/><path d="M336.28372,276.08439c0,-0.8476 0.68711,-1.5347 1.5347,-1.5347c0.8476,0 1.53471,0.68711 1.53471,1.5347c0,0.8476 -0.68712,1.53471 -1.53471,1.53471c-0.8476,0 -1.5347,-0.68711 -1.5347,-1.53471z" fill="#ffffff" stroke-width="0.5"/><path d="M333.21432,280.51797c0,-0.8476 0.6871,-1.5347 1.5347,-1.5347c0.8476,0 1.53471,0.6871 1.53471,1.5347c0,0.8476 -0.68711,1.53472 -1.53471,1.53472c-0.8476,0 -1.5347,-0.68712 -1.5347,-1.53472z" fill="#ffffff" stroke-width="0.5"/><path d="M325.7113,283.58745c0,-0.8476 0.68712,-1.53471 1.53471,-1.53471c0.8476,0 1.5347,0.68712 1.5347,1.53471c0,0.8476 -0.6871,1.5347 -1.5347,1.5347c-0.8476,0 -1.53471,-0.68711 -1.53471,-1.5347z" fill="#ffffff" stroke-width="0.5"/><path d="M343.10464,279.15383c0,-0.8476 0.68711,-1.5347 1.53471,-1.5347c0.8476,0 1.53471,0.6871 1.53471,1.5347c0,0.8476 -0.68712,1.53471 -1.53471,1.53471c-0.8476,0 -1.53471,-0.68712 -1.53471,-1.53471z" fill="#ffffff" stroke-width="0.5"/><path d="M337.98895,283.07589c0,-0.8476 0.68711,-1.5347 1.53471,-1.5347c0.8476,0 1.53471,0.6871 1.53471,1.5347c0,0.8476 -0.68711,1.5347 -1.53471,1.5347c-0.8476,0 -1.53471,-0.68711 -1.53471,-1.5347z" fill="#ffffff" stroke-width="0.5"/></g><g stroke="none" stroke-linecap="butt"><path d="M395.24584,335.11582v-32.33477h14.02472v32.33477z" fill="#cc7800" stroke-width="0"/><path d="M424.98214,300.89396c0,7.20775 -10.32634,5.78285 -21.94479,5.78285c-11.61845,0 -21.81622,1.94848 -21.81622,-5.25928c0,-7.20775 9.80819,-17.72568 21.42665,-17.72568c11.61845,0 22.33436,9.99435 22.33436,17.2021z" fill="#ff0000" stroke-width="0"/><path d="M391.68551,292.24069c0,-1.28965 1.04546,-2.33512 2.33511,-2.33512c1.28965,0 2.33511,1.04547 2.33511,2.33512c0,1.28965 -1.04546,2.33511 -2.33511,2.33511c-1.28965,0 -2.33511,-1.04546 -2.33511,-2.33511z" fill="#ffffff" stroke-width="0.5"/><path d="M404.13946,290.94336c0,-1.28965 1.04546,-2.33511 2.33511,-2.33511c1.28965,0 2.33512,1.04546 2.33512,2.33511c0,1.28965 -1.04547,2.33511 -2.33512,2.33511c-1.28965,0 -2.33511,-1.04546 -2.33511,-2.33511z" fill="#ffffff" stroke-width="0.5"/><path d="M399.46924,297.68926c0,-1.28965 1.04546,-2.33511 2.33511,-2.33511c1.28965,0 2.33511,1.04546 2.33511,2.33511c0,1.28965 -1.04546,2.33513 -2.33511,2.33513c-1.28965,0 -2.33511,-1.04548 -2.33511,-2.33513z" fill="#ffffff" stroke-width="0.5"/><path d="M388.0531,302.35952c0,-1.28965 1.04547,-2.33512 2.33512,-2.33512c1.28965,0 2.33511,1.04547 2.33511,2.33512c0,1.28965 -1.04546,2.33511 -2.33511,2.33511c-1.28965,0 -2.33512,-1.04546 -2.33512,-2.33511z" fill="#ffffff" stroke-width="0.5"/><path d="M414.51775,295.61362c0,-1.28965 1.04546,-2.33511 2.33511,-2.33511c1.28965,0 2.33512,1.04546 2.33512,2.33511c0,1.28965 -1.04547,2.33512 -2.33512,2.33512c-1.28965,0 -2.33511,-1.04547 -2.33511,-2.33512z" fill="#ffffff" stroke-width="0.5"/><path d="M406.73403,301.5811c0,-1.28965 1.04546,-2.33511 2.33511,-2.33511c1.28965,0 2.33512,1.04546 2.33512,2.33511c0,1.28965 -1.04547,2.33511 -2.33512,2.33511c-1.28965,0 -2.33511,-1.04546 -2.33511,-2.33511z" fill="#ffffff" stroke-width="0.5"/></g></g></g></svg>