<svg version="1.1" xmlns="http://www.w3.org/2000/svg" xmlns:xlink="http://www.w3.org/1999/xlink" width="110.42964" height="90.39874" viewBox="0,0,110.42964,90.39874"><g transform="translate(-184.75477,-135.89929)"><g data-paper-data="{&quot;isPaintingLayer&quot;:true}" fill-rule="nonzero" stroke-linejoin="miter" stroke-miterlimit="10" stroke-dasharray="" stroke-dashoffset="0" style="mix-blend-mode: normal"><path d="M197.71465,153.09539l82.26431,-0.18908c0,0 15.17981,15.90085 15.20543,27.0504c0.02496,10.85995 -15.07581,29.34619 -15.07581,29.34619l-82.26431,0.18907z" data-paper-data="{&quot;origPos&quot;:null,&quot;origRot&quot;:0}" fill="#ffc866" stroke="none" stroke-width="0" stroke-linecap="butt"/><path d="M249.68646,135.98427l36.97418,-0.08498l0.03852,16.75956l-36.97418,0.08498z" data-paper-data="{&quot;origPos&quot;:null,&quot;origRot&quot;:0}" fill="#000000" stroke="none" stroke-width="0" stroke-linecap="butt"/><path d="M250.98373,209.53848l36.97418,-0.08498l0.03852,16.75955l-36.97419,0.08498z" data-paper-data="{&quot;origPos&quot;:null,&quot;origRot&quot;:0}" fill="#000000" stroke="none" stroke-width="0" stroke-linecap="butt"/><path d="M184.75478,136.31996l36.97418,-0.08498l0.03852,16.75955l-36.97418,0.08498z" data-paper-data="{&quot;origPos&quot;:null,&quot;origRot&quot;:0}" fill="#000000" stroke="none" stroke-width="0" stroke-linecap="butt"/><path d="M185.60759,209.45243l36.97419,-0.08498l0.03852,16.75955l-36.97419,0.08498z" data-paper-data="{&quot;origPos&quot;:null,&quot;origRot&quot;:0}" fill="#000000" stroke="none" stroke-width="0" stroke-linecap="butt"/><path d="M227.83976,155.3184l30.48843,-0.07008l0.11457,49.84617l-30.48843,0.07008z" data-paper-data="{&quot;origPos&quot;:null,&quot;origRot&quot;:0}" fill="#dbac58" stroke="none" stroke-width="0" stroke-linecap="butt"/><path d="M276.43226,190.27399c-1.7039,0.0075 -3.1065,-4.8343 -3.1329,-10.8145c-0.0263,-5.9803 1.3335,-10.8343 3.0374,-10.8418c1.7039,-0.0075 3.1065,4.8343 3.1329,10.8146c0.0263,5.9802 -1.3335,10.8342 -3.0374,10.8417z" data-paper-data="{&quot;origPos&quot;:null,&quot;origRot&quot;:0}" fill="none" stroke="#000000" stroke-width="3" stroke-linecap="butt"/><path d="M276.64405,169.70519l-0.276,19.7222" data-paper-data="{&quot;origRot&quot;:0,&quot;origPos&quot;:null}" fill="none" stroke="#000000" stroke-width="3" stroke-linecap="round"/><g data-paper-data="{&quot;origPos&quot;:null}" stroke-width="0.5"><g data-paper-data="{&quot;origPos&quot;:null}" stroke-linecap="butt"><path d="M244.25897,177.91479c0.895,0.382 0.9467,2.3378 0.0566,2.9948c-1.7169,1.1851 -4.0465,0.5145 -6.0777,0.6118c-4.4754,0.2142 -9.0028,1.1494 -13.4465,0.5683c-1.4888,-0.2059 -3.3321,-1.5589 -3.6932,-3.1248c-0.1912,-0.925 1.5052,-1.6862 2.5885,-1.8626c2.9422,-0.4797 5.8582,0.1592 8.9663,0.3242c1.6832,0.0886 3.3247,0.4062 5.0481,0.4333c2.147,0.1367 4.589,-0.7776 6.5579,0.055z" fill="#faa51d" stroke="#000000"/><path d="M224.21607,177.35429c0.9434,-0.2598 1.966,-0.1096 2.9102,-0.0423c1.3526,0.0965 3.5516,0.3127 4.0404,0.5031c0.3274,0.133 -1.6731,-0.3713 -2.0785,0.1925c-0.5647,0.785 -0.6763,2.1318 -0.1178,2.9459c0.5405,0.7547 2.7252,0.5655 2.7113,0.7584c-0.014,0.1928 -1.9053,0.3303 -2.8299,0.4021c-0.3315,0.0259 -0.6409,-0.0131 -0.9983,-0.0496c-1.3993,-0.1449 -2.9472,0.1485 -4.2004,-0.4674c-1.0628,-0.5224 -2.3838,-1.6583 -2.2184,-2.7802c0.1506,-1.0144 1.7748,-1.2065 2.7814,-1.4625z" fill="#ffffff" stroke="none"/></g><path d="M269.53436,188.36159c0.6431,-1.3644 0.8847,-8.1574 5.026,-5.4942c4.1397,2.6619 0.078,8.164 -1.4936,9.9096c-1.5729,1.7436 -3.1421,0.3361 -4.8636,-0.2216c-3.1962,-1.0386 -5.8972,-1.2146 -6.6456,-4.5774c-0.7506,-3.3612 2.7206,-2.742 4.5336,-2.0366c1.4662,0.5703 3.0891,1.1764 3.6571,1.3886" data-paper-data="{&quot;origPos&quot;:null}" fill="#faa51d" stroke="#000000" stroke-linecap="butt"/><path d="M270.36367,170.60399c-0.5679,0.2121 -2.1909,0.8182 -3.6571,1.3886c-1.8129,0.7054 -5.2841,1.3246 -4.5336,-2.0366c0.7485,-3.3628 3.4494,-3.5389 6.6457,-4.5775c1.7214,-0.5576 3.2906,-1.9652 4.8635,-0.2216c1.5717,1.7456 5.6333,7.2477 1.4937,9.9097c-4.1413,2.6632 -4.383,-4.1298 -5.026,-5.4943" data-paper-data="{&quot;origPos&quot;:null}" fill="#faa51d" stroke="#000000" stroke-linecap="butt"/><g data-paper-data="{&quot;origPos&quot;:null}"><path d="M245.98047,158.58059c2.2471,-0.8519 4.8643,-0.4485 7.0827,0.5011c2.7826,1.1949 5.1028,3.4913 7.5119,5.4495c1.9972,1.7428 4.4901,3.1256 5.6876,5.6374c1.4091,2.9657 2.3136,6.7487 1.5561,10.0226c-1.1708,5.0625 -3.7453,9.9281 -6.9219,13.7805c-2.3201,2.6734 -5.738,3.9648 -8.9067,5.0113c-2.2225,0.7328 -4.7458,1.0533 -6.9757,0.2503c-2.4543,-0.9545 -4.884,-2.7711 -6.3851,-5.2616c-2.3083,-3.8336 -3.914,-8.4037 -4.5611,-13.0292c-0.4206,-3.0115 0.6763,-6.047 1.3414,-8.9572c0.6472,-2.4002 1.1527,-5.0687 2.5759,-6.8903c2.1814,-2.8138 4.9525,-5.3596 7.9949,-6.5144z" fill="#faa51d" stroke="#faa51d" stroke-linecap="round"/><path d="M255.31307,198.07349c-1.4813,0.7124 -3.4248,2.2602 -4.5971,1.0115c-1.5364,-1.4268 -1.1757,-4.4125 -1.2065,-6.7429c-0.0127,-0.9344 0.7965,-1.6521 0.9766,-2.5623c0.437,-2.2118 0.9574,-4.4744 0.8622,-6.7429c-0.0989,-2.3546 -1.1757,-4.5393 -1.4367,-6.878c-0.3541,-3.165 -0.6344,-6.3949 -0.4021,-9.5748c0.0996,-1.3636 0.6766,-2.6837 1.3791,-3.7761c0.7526,-1.1707 1.6846,-2.3829 2.8729,-2.8318c0.7288,-0.2778 1.2988,0.7485 1.8967,1.2134c1.0341,0.7744 2.0066,1.4674 2.9882,2.1581c0.9339,0.8158 1.932,1.5372 2.758,2.36c1.524,1.5495 3.2422,3.0653 4.2525,5.0572c1.2848,2.5327 2.1942,5.5898 2.2984,8.4287c0.0726,1.9796 -1.0399,3.795 -1.7239,5.5964c-1.2651,3.0317 -2.1687,6.4356 -4.1372,8.901c-1.7653,2.202 -4.3961,3.2353 -6.7811,4.3826z" fill="#ffffff" stroke="#ffffff" stroke-linecap="round"/><path d="M245.23887,158.11189c2.4765,-0.7455 5.2452,-0.8145 7.7003,0c3.0457,1.2299 5.6683,3.6994 8.2748,5.8665c2.1134,1.9311 4.5008,3.8569 5.7462,6.6079c1.4576,3.2246 2.5447,7.2867 1.6669,10.7891c-1.3345,5.3268 -4.4306,9.8715 -7.7577,13.6204c-2.5643,3.0034 -5.9317,5.1492 -9.4242,6.0688c-2.5574,0.673 -5.342,-0.2413 -7.8152,-1.2811c-2.1159,-0.8929 -4.4676,-2.3464 -5.8041,-4.5853c-2.0444,-3.4253 -3.0444,-7.4184 -3.7925,-11.3956c-0.6668,-3.5414 -1.0702,-7.2054 -0.5175,-10.7213c0.4793,-3.0465 1.8679,-6.0175 3.5057,-8.496c1.5019,-2.1146 2.4235,-2.7203 3.7925,-3.8434c1.3861,-1.0468 2.1662,-1.8733 4.4248,-2.63z" fill="none" stroke="#000000" stroke-linecap="round"/><g stroke-linecap="butt"><path d="M248.98837,181.36639c3.9406,-0.1137 7.1754,1.8695 7.2366,4.7519c0.0611,2.8835 -3.1294,5.0293 -7.0713,5.1405c-3.9443,0.1189 -6.9173,-1.8901 -6.9785,-4.7741c-0.0623,-2.8786 2.8696,-5.0043 6.8132,-5.1184" fill="#ffffff" stroke="#000000"/><path d="M253.17107,184.91139c0.6767,0.4912 0.9151,1.4793 0.5281,2.2131c-0.3849,0.7304 -1.2487,0.9278 -1.9249,0.437c-0.6771,-0.4912 -0.9131,-1.4867 -0.5282,-2.2172c0.387,-0.7337 1.2483,-0.9245 1.925,-0.4329" fill="#000000" stroke="none"/></g><path d="M256.54535,175.95579c0.1096,-1.8039 0.0332,-4.4527 0.7489,-4.5299c0.7177,-0.0821 3.3846,1.9537 3.4269,3.2073c0.0419,1.2569 -2.3127,5.7967 -3.6152,5.7552c-1.3029,-0.0361 -0.6615,-2.7678 -0.5606,-4.4326" fill="#5e4a42" stroke="#000000" stroke-linecap="butt"/><path d="M259.93367,182.93759c0,0 1.424,-4.3338 1.847,-5.9653c0.4227,-1.63 0.9381,-4.5981 0.9381,-4.5981c0,0 3.5093,3.7855 2.2812,7.7024c-1.227,3.9172 -3.3752,3.6398 -5.0663,2.861z" fill="none" stroke="#231f20" stroke-linecap="butt"/><g fill="#000000" stroke="none" stroke-linecap="butt"><path d="M259.11747,163.98689l-0.6077,-0.4981c0.0164,-0.0275 1.6188,-2.7256 2.2373,-4.2813c0.7123,-1.7879 0.794,-3.4671 0.7957,-3.4843l0.7398,0.0447c-0.0036,0.0751 -0.0906,1.8663 -0.8641,3.8077c-0.6451,1.6234 -2.234,4.2985 -2.3009,4.4113z"/><path d="M260.04035,165.62269l-0.423,-0.7144c0.0238,-0.0193 2.3238,-1.8975 3.3641,-3.1048c1.1966,-1.387 1.7695,-2.9287 1.776,-2.9443l0.6808,0.3431c-0.0255,0.0689 -0.6365,1.7136 -1.9361,3.2196c-1.085,1.2602 -3.3657,3.1224 -3.4618,3.2008z"/></g><g fill="#000000" stroke="none" stroke-linecap="butt"><path d="M257.91757,192.59769c0.0288,0.1329 0.7129,3.2931 0.829,5.0794c0.1415,2.1367 -0.3148,3.8491 -0.334,3.9205l-0.7058,-0.2634c0.0036,-0.0173 0.4312,-1.6222 0.3011,-3.5902c-0.112,-1.7116 -0.8014,-4.8988 -0.8088,-4.9317z"/><path d="M259.46257,191.56209c0.0665,0.1132 1.6423,2.7986 2.2791,4.4265c0.7645,1.9467 0.8429,3.7383 0.8458,3.8134l-0.7399,0.0398c-0.0016,-0.0173 -0.0751,-1.6968 -0.7788,-3.4897c-0.611,-1.5597 -2.2,-4.2685 -2.2163,-4.2959z"/></g><path d="M237.32357,182.03269l5.5738,9.6421l-12.6422,3.2369z" fill="#faa51d" stroke="#000000" stroke-linecap="round"/><path d="M230.47227,160.14929l12.6422,3.2364l-5.5743,9.6426z" fill="#faa51d" stroke="#000000" stroke-linecap="round"/><g stroke-linecap="butt"><path d="M248.98837,164.56969c3.9406,-0.1137 7.1754,1.87 7.2366,4.7519c0.0611,2.884 -3.1294,5.0297 -7.0713,5.1405c-3.9443,0.1194 -6.9173,-1.8901 -6.9785,-4.7741c-0.0623,-2.8786 2.8696,-5.0042 6.8132,-5.1183" fill="#ffffff" stroke="#000000"/><path d="M253.17107,168.11469c0.6767,0.4912 0.9151,1.4793 0.5281,2.2135c-0.3849,0.73 -1.2487,0.9273 -1.9249,0.4366c-0.6771,-0.4912 -0.9131,-1.4867 -0.5282,-2.2172c0.387,-0.7337 1.2483,-0.9241 1.925,-0.4329" fill="#000000" stroke="none"/></g></g></g></g></g></svg>