<svg version="1.1" xmlns="http://www.w3.org/2000/svg" xmlns:xlink="http://www.w3.org/1999/xlink" width="444.3116" height="364.15567" viewBox="0,0,444.3116,364.15567"><g transform="translate(-18.28173,-3.34434)"><g data-paper-data="{&quot;isPaintingLayer&quot;:true}" fill="#a5a5a5" fill-rule="nonzero" stroke="none" stroke-width="0" stroke-linecap="butt" stroke-linejoin="miter" stroke-miterlimit="10" stroke-dasharray="" stroke-dashoffset="0" style="mix-blend-mode: normal"><path d="M454.82485,254.02825l-0.08055,1.10088l-0.83769,1.61953l-0.54191,1.50962l-1.30849,2.11976l-1.25802,3.30231l-0.18092,0.36183l-0.30476,0.95783l-0.03695,0.04278l-0.12097,0.36291l-0.9947,2.21895l-0.07935,0.27599l-0.28409,0.53477l-0.2477,0.55257l-0.16914,0.23207l-1.14084,2.14747l-1.13664,1.70496l-1.73485,3.46971l-0.34919,1.09745l-0.93754,3.26101l-0.24947,0.46958l-0.51857,1.62979l-0.90227,1.04473l-0.17147,0.32277l-0.2047,0.30704l-0.60472,1.34898l-0.63116,1.65681l-0.20544,0.41088l-0.43816,1.31448l-0.72524,1.61784l-0.63116,1.65681l-1,2l-0.83011,1.31434l-0.72932,1.37283l-6,9l-1.56364,1.90357l-1.55994,1.9066l-2.71297,2.71297l-0.70034,1.10887l-0.06075,0.06244l-0.04002,0.07738l-2.48592,3.03835l-3,3l-3.03835,2.48592l-0.07738,0.04002l-0.06244,0.06075l-3.31916,2.09631l-6,3l-1.65681,0.63116l-1.61784,0.72524l-1.31448,0.43816l-2.41088,1.20544l-1.65681,0.63116l-1.61784,0.72524l-3,1l-1.51635,0.3424l-1.48644,0.45503l-0.60623,0.12125l-0.57664,0.30634l-0.23207,0.16914l-0.55257,0.2477l-0.53477,0.28409l-0.27599,0.07935l-2.21895,0.9947l-2.0135,0.67117l-3.9345,1.68621l-1.09019,0.7268l-1.37283,0.72932l-1.31434,0.83011l-4,2l-0.97254,0.37049l-0.92303,0.48075l-10,4l-0.70732,0.20403l-0.67175,0.30113l-3,1l-1.51635,0.3424l-1.48644,0.45503l-2.07651,0.4153l-0.54163,0.2821l-5,2l-0.70732,0.20403l-0.67175,0.30113l-3,1l-1.51635,0.3424l-1.48644,0.45503l-3.47378,0.69476l-1.52343,0.50781l-1.90793,0.43082l-1.88779,0.51194l-4.06515,0.67753l-1.13913,0.37971l-3.82932,0.86469l-0.08711,0.00119l-0.08302,0.02641l-2.11018,0.21102l-5.73268,1.43317l-1.92359,0.2815l-0.23355,0.07431l-0.86604,0.0866l-0.86118,0.12603l-0.2446,-0.01545l-1.93443,0.19344h-4.52451l-2.57258,0.51452l-2.45169,0.24036l-2.45122,0.24512h-3.2233l-3.55064,0.50723l-5.35802,1.53086l-2.69649,0.48687l-0.26529,0.08441l-0.45324,0.04532l-0.44825,0.08093l-0.27827,-0.00828l-2.72649,0.27265h-0.41634l-1.68076,0.51452l-5,1l-2.45169,0.24036l-2.45122,0.24512h-29l-1.93443,-0.19344l-0.2446,0.01545l-0.86118,-0.12603l-0.86604,-0.0866l-0.23355,-0.07431l-1.92359,-0.2815l-1.01425,-0.25356h-5.92236l-2.45122,-0.24512l-2.45169,-0.24036l-3.04807,-0.60961l-0.98345,-0.09835l-0.2446,0.01545l-0.86118,-0.12603l-0.86604,-0.0866l-0.23355,-0.07431l-1.92359,-0.2815l-4,-1l-0.70635,-0.25356h-29.23026l-1.93443,-0.19344l-0.2446,0.01545l-0.86118,-0.12603l-0.86604,-0.0866l-0.23355,-0.07431l-1.92359,-0.2815l-1.01425,-0.25356h-9.92236l-3.90625,-0.39062l-0.08302,-0.02641l-0.08711,-0.00119l-3.82932,-0.86469l-2.60422,-0.86807l-0.42451,-0.04245l-0.2446,0.01545l-0.86118,-0.12603l-0.86604,-0.0866l-0.23355,-0.07431l-1.92359,-0.2815l-1.01425,-0.25356h-1.92236l-3.90625,-0.39062l-0.08302,-0.02641l-0.08711,-0.00119l-3.82932,-0.86469l-6,-2l-1.61784,-0.72524l-0.78897,-0.30056l-1.75089,-0.43772l-0.90469,-0.32476l-0.93761,-0.21172l-0.03279,-0.01093l-0.96776,-0.09678l-0.4218,-0.13421l-2.30108,-0.16837l-2.83227,-1.46497l-3.0386,-0.96683l-1.74617,-1.50805l-0.39315,-0.20336l-3.03835,-2.48592l-0.51298,-0.51298l-0.26248,-0.07094l-1.21306,-1.4046l-0.02297,-0.02297l-1.4046,-1.21306l-0.07094,-0.26248l-0.51298,-0.51298l-2.48592,-3.03835l-0.20336,-0.39315l-1.50805,-1.74617l-0.96683,-3.0386l-1.46497,-2.83227l-0.16837,-2.30108l-0.13421,-0.4218l-0.00051,-0.00506l-0.14834,-0.38939l-0.28789,-1.83527l-0.56327,-1.77027l-0.00051,-0.00506l-0.14834,-0.38939l-0.28789,-1.83527l-0.56327,-1.77027l-0.39062,-3.90625v-0.40454l-0.15576,-0.993l0.15576,-0.61332v-6.97827l-0.15576,-0.61332l0.15576,-0.993v-0.40454l0.39063,-3.90625l0.56327,-1.77027l0.04611,-0.29394v-0.02954l0.39063,-3.90625l0.13421,-0.4218l0.16837,-2.30108l1.46497,-2.83227l0.96683,-3.0386l1.50805,-1.74617l0.20336,-0.39315l0.9375,-1.14583l1.38426,-2.67624l0.96683,-3.0386l1.50805,-1.74617l0.20336,-0.39315l2.48592,-3.03835l1.24957,-1.24957l0.62685,-0.94027l1.56364,-1.90357l0.72543,-0.88663l0.54905,-1.31772l0.87345,-0.84984l0.21469,-0.67473l0.57406,-0.6647l0.3378,-0.81072l2.26898,-2.20766l1.09661,-1.26976l0.63441,-1.52259l3.54172,-3.446l3.446,-3.54172l1.71128,-0.71303l1.08381,-0.68451l0.20143,-0.10071l0.47891,-0.41361l0.67473,-0.21469l0.84984,-0.87345l0.99981,-0.41659l1.29794,-1.29794l3.03835,-2.48592l0.39315,-0.20336l1.74617,-1.50805l3.0386,-0.96683l0.84953,-0.43941l1.63644,-1.6819l1.71128,-0.71303l1.08381,-0.68451l1.36281,-0.6814l2.84211,-2.92105l0.99981,-0.41659l1.29794,-1.29794l3.03835,-2.48592l0.07738,-0.04002l0.06244,-0.06075l1.38854,-0.87697l2.47164,-2.02225l0.07738,-0.04002l0.06244,-0.06075l1.71557,-1.08352l0.02571,-0.16391l1.39754,-3.66855l0.18092,-0.36183l0.30476,-0.95783l0.03695,-0.04278l0.11104,-0.33313l-0.00479,-0.00466l-0.7682,-0.24443l-1.04473,-0.90227l-0.32277,-0.17147l-0.30704,-0.2047l-1.33079,-0.59656h-13.48379l-0.61332,0.15576l-0.993,-0.15576h-0.40454l-3.90625,-0.39062l-1.77027,-0.56327l-1.83527,-0.28789l-0.03346,-0.01275l-1.361,-0.1361l-1.77027,-0.56327l-1.83527,-0.28789l-1.925,-0.73333l-0.15867,-0.02489h-0.40454l-3.90625,-0.39062l-1.77027,-0.56327l-1.83527,-0.28789l-0.38939,-0.14834l-0.00506,-0.00051l-1.77027,-0.56327l-1.83527,-0.28789l-3.66855,-1.39754l-0.36183,-0.18092l-0.95783,-0.30476l-0.47891,-0.41361l-2.20143,-1.10071l-1.31434,-0.83011l-1.37283,-0.72932l-1.70496,-1.13664l-1.80466,-0.90233l-1.52913,-0.15291l-0.08302,-0.02641l-0.08711,-0.00119l-3.82932,-0.86469l-2.08915,-0.69638l-3.06855,-0.76714l-3.69488,-1.32637l-0.30166,-0.18621l-0.3407,-0.09795l-2.60292,-1.3828l-0.67297,-0.21413l-1.83527,-0.28789l-3.66855,-1.39754l-0.36183,-0.18092l-0.95783,-0.30476l-0.47891,-0.41361l-2.20143,-1.10071l-1.31434,-0.83011l-1.37283,-0.72932l-1.70496,-1.13664l-0.60787,-0.30394l-1.31434,-0.83011l-1.37283,-0.72932l-1.70496,-1.13664l-0.60787,-0.30394l-3.31916,-2.09631l-0.06244,-0.06075l-0.07738,-0.04002l-3.03835,-2.48592l-2.24957,-2.24957l-0.94027,-0.62685l-3.03352,-2.49182l-0.19219,-0.24024l-0.25053,-0.17857l-2.65625,-2.89062l-6,-8l-1.16173,-1.92133l-1.19895,-1.89833l-1.30394,-2.60787l-3.13664,-4.70496l-0.17147,-0.32277l-0.90227,-1.04473l-0.51857,-1.62979l-0.24947,-0.46958l-0.93754,-3.26101l-0.34919,-1.09745l-0.43092,-0.86183l-0.63116,-1.65681l-0.72524,-1.61784l-0.43816,-1.31448l-0.20544,-0.41088l-0.37049,-0.97254l-0.48075,-0.92303l-1.03325,-2.58313l-0.55609,-0.83413l-1.14084,-2.14747l-0.16914,-0.23207l-0.2477,-0.55257l-0.28409,-0.53477l-0.07935,-0.27599l-0.9947,-2.21895l-1,-3l-0.86469,-3.82932l-0.00119,-0.08711l-0.02641,-0.08302l-0.39062,-3.90625v-23.98913l-0.15576,-0.61332l0.15576,-0.993v-0.40454l0.39063,-3.90625l0.56327,-1.77027l0.04611,-0.29394v-0.01868l-0.15576,-0.61332l0.15576,-0.993v-0.40454l0.39063,-3.90625l0.56327,-1.77027l0.28789,-1.83527l0.14834,-0.38939l0.00051,-0.00506l0.56327,-1.77027l0.28789,-1.83527l1.39754,-3.66855l0.18092,-0.36183l0.30476,-0.95783l0.25446,-0.29464l0.01116,-0.11161l0.56327,-1.77027l0.28789,-1.83527l0.14834,-0.38939l0.00051,-0.00506l0.13421,-0.4218l0.16837,-2.30108l1.46497,-2.83227l0.96683,-3.0386l0.08978,-0.10396l0.06813,-0.30173l0.36411,-1.09232l0.04618,-0.63111l0.46179,-0.89279l0.12793,-0.38378l1.60584,-3.58227l1.09417,-1.5013l0.85348,-1.65006l2.48592,-3.03835l0.24957,-0.24957l2.62685,-3.94027l1.56364,-1.90357l1.55994,-1.9066l4,-4l1.07106,-0.87632l0.98924,-0.96773l10,-8l1.06215,-0.68843l0.05572,-0.05421l1.0923,-0.68987l1.08412,-0.70267l0.07257,-0.02787l1.07017,-0.6759l0.86776,-0.43388l1.67326,-1.36903l0.39315,-0.20336l1.74617,-1.50805l3.0386,-0.96683l2.83227,-1.46497l2.30108,-0.16837l0.4218,-0.13421l1.52913,-0.15291l1.19678,-0.59839l1.31724,-0.50181l0.10483,-0.06471l1.12726,-0.40466l1.11922,-0.42637l0.12171,-0.01909l1.32669,-0.47625l1.75089,-0.43772l2.80071,-1.06694l1.83527,-0.28789l1.77027,-0.56327l2.73461,-0.27346l3.09527,-0.69893l0.08711,-0.00119l0.08302,-0.02641l3.90625,-0.39062h7.92236l5.01425,-1.25356l1.92359,-0.2815l0.23355,-0.07431l0.59576,-0.05958l3.17086,-0.91162l3.23337,-1.0288l0.5291,-0.05291l1.64371,-0.47257l1.36976,0.17122l0.36368,-0.03637h0.34723l2.5764,-0.58177l0.08711,-0.00119l0.08302,-0.02641l3.90625,-0.39062h1.92236l1.01425,-0.25356l1.92359,-0.2815l0.23355,-0.07431l0.86604,-0.0866l0.86118,-0.12603l0.2446,0.01545l1.93443,-0.19344h22.98913l0.61332,-0.15576l0.993,0.15576h0.40454l3.90625,0.39063l1.77027,0.56327l1.83527,0.28789l3.66855,1.39754l0.36183,0.18092l0.69788,0.22205l1.27174,0.19949l3.66855,1.39754l0.36183,0.18092l0.95783,0.30476l0.47891,0.41361l6.20143,3.10071l0.03769,0.0238l0.4111,0.03008l2.83227,1.46497l3.0386,0.96683l1.74617,1.50805l0.39315,0.20336l3.03835,2.48592l2.01148,2.01148l1.4046,1.21306l0.07094,0.26248l0.51298,0.51298l2.48592,3.03835l0.04002,0.07738l0.06075,0.06244l2.09631,3.31916l0.10071,0.20143l0.41361,0.47891l0.30476,0.95783l0.18092,0.36183l1.39754,3.66855l0.19949,1.27174l0.22205,0.69788l0.18092,0.36183l1.39754,3.66855l0.28789,1.83527l0.56327,1.77027l0.39063,3.90625v0.02954l0.04611,0.29394l0.56327,1.77027l0.00051,0.00506l0.14834,0.38939l0.28789,1.83527l0.56327,1.77027l0.39063,3.90625v0.02954l0.04611,0.29394l0.56327,1.77027l0.39063,3.90625v0.40454l0.15576,0.993l-0.15576,0.61332v23.51365l0.51452,2.57258l0.24036,2.45169l0.09413,0.9413l0.86807,2.60422l0.86469,3.82932l0.00119,0.08711l0.02641,0.08302l0.1361,1.361l0.01275,0.03346l0.28789,1.83527l0.30045,0.94426l0.37053,0.82656l0.43816,1.31448l0.39112,0.78224l0.13131,0.13131l1.23106,1.50463l0.18388,0.16203l0.51983,0.69806l0.55114,0.67362l0.1126,0.21769l1.16113,1.55923l1.41657,2.36094l1.15061,1.15061l1.4955,0.47584l1.74617,1.50805l0.39315,0.20336l0.88428,0.7235l2.96436,1.32885l1.5013,1.09417l1.65006,0.85348l1.67326,1.36903l2.86776,1.43388l0.57108,0.36068h2.24858l3.90625,0.39063l0.08302,0.02641l0.08711,0.00119l2.33548,0.52737l0.74348,0.0544h2.84467l3.90625,0.39063l0.4218,0.13421l2.30108,0.16837l2.83227,1.46497l3.0386,0.96683l0.29464,0.25446l0.11161,0.01116l3.23337,1.0288l3.26101,0.93754l0.46958,0.24947l1.01205,0.32202l2.21483,-0.44297l2.45169,-0.24036l2.32181,-0.23218l1.06601,-0.2665l0.97729,-0.14302l3.57431,-1.36164l1.83527,-0.28789l1.77027,-0.56327l3.15351,-0.31535l0.03271,-0.01738l0.23207,-0.16914l0.55257,-0.2477l0.53477,-0.28409l0.27599,-0.07935l1.60104,-0.71771l0.88428,-0.7235l0.07738,-0.04002l0.06244,-0.06075l3.31916,-2.09631l0.86776,-0.43388l1.67326,-1.36903l0.07738,-0.04002l0.06244,-0.06075l1.38854,-0.87697l1.33989,-1.09627l1.90357,-1.56364l0.94027,-0.62685l1.24957,-1.24957l0.67767,-0.55446v-1.69023l-0.25356,-1.01425l-0.2815,-1.92359l-0.07431,-0.23355l-0.0866,-0.86604l-0.12603,-0.86118l0.01545,-0.2446l-0.19344,-1.93443v-30l0.39063,-3.90625l0.02641,-0.08302l0.00119,-0.08711l0.58177,-2.5764v-2.34723l0.19344,-1.93443l-0.01545,-0.2446l0.12603,-0.86118l0.0866,-0.86604l0.07431,-0.23355l0.2815,-1.92359l0.86622,-3.46486l0.08055,-1.10088l0.83769,-1.61953l0.54191,-1.50962l1.4742,-2.38821l1.2894,-2.49284l0.40393,-0.49369l0.39898,-1.04733l4,-8l2.09631,-3.31916l0.06075,-0.06244l0.04002,-0.07738l2.48592,-3.03835l0.36829,-0.36829l0.19814,-0.442l0.2607,-0.35771l0.8874,-2.12975l2.28543,-2.22366l1.87811,-2.57694l1.45633,-0.86643l0.04533,-0.05518l0.20419,-0.75549l1.41171,-1.21921l0.00437,-0.00534l2,-2l3.03835,-2.48592l0.39315,-0.20336l1.74617,-1.50805l2.10151,-0.66866l1.53099,-1.2576l3,-2l0.97203,-0.51639l2.25615,-1.84594l0.39315,-0.20336l1.74617,-1.50805l3.0386,-0.96683l2.83227,-1.46497l1.61814,-0.1184l3.49919,-1.33303l1.83527,-0.28789l1.77027,-0.56327l0.00506,-0.00051l0.38939,-0.14834l1.83527,-0.28789l1.77027,-0.56327l3.90625,-0.39062h0.40454l0.993,-0.15576l0.61332,0.15576h17.98913l3.90625,0.39063l0.08302,0.02641l0.08711,0.00119l2.5764,0.58177h0.34723l3.90625,0.39063l0.08302,0.02641l0.08711,0.00119l3.82932,0.86469l3,1l1.61784,0.72524l1.65681,0.63116l4,2l3.31916,2.09631l0.06244,0.06075l0.07738,0.04002l2.01838,1.6514l1.31772,0.54905l3.05372,3.13854l2.47036,1.56023l0.06244,0.06075l0.07738,0.04002l3.03835,2.48592l2,2l1.55994,1.9066l1.56364,1.90357l2,3l0.51639,0.97203l1.84594,2.25615l0.04002,0.07738l0.06075,0.06244l2.09631,3.31916l0.10071,0.20143l0.41361,0.47891l0.30476,0.95783l0.18092,0.36183l1.39754,3.66855l0.28789,1.83527l0.56327,1.77027l0.1361,1.361l0.01275,0.03346l0.28789,1.83527l0.56327,1.77027l0.39063,3.90625v0.40454l0.15576,0.993l-0.15576,0.61332v3.01868l0.04611,0.29394l0.56327,1.77027l0.39063,3.90625v0.40454l0.15576,0.993l-0.15576,0.61332v38.98913l-0.39062,3.90625l-0.02641,0.08302l-0.00119,0.08711l-0.86469,3.82932l-1,3l-0.00985,0.02197l-0.09786,0.97859l-0.56327,1.77027l-0.28789,1.83527l-0.14834,0.38939l-0.00051,0.00506l-0.56327,1.77027l-0.28789,1.83527l-0.75822,1.99033v9.42881l0.33737,2.02424l0.37971,1.13913l0.86469,3.82932l0.00119,0.08711l0.02641,0.08302l0.39063,3.90625v4.34723l0.58177,2.5764l0.00119,0.08711l0.02641,0.08302l0.39063,3.90625v19.92236l0.25356,1.01425l0.2815,1.92359l0.07431,0.23355l0.0866,0.86604l0.12603,0.86118l-0.01545,0.2446l0.19344,1.93443v5c0,1.19782 -0.08424,2.37596 -0.24712,3.52882l0.24712,2.47118v4.02954l0.04611,0.29394l0.56327,1.77027l0.39063,3.90625v0.40454l0.15576,0.993l-0.15576,0.61332v17.97827l0.15576,0.61332l-0.15576,0.993v0.40454l-0.39062,3.90625l-0.56327,1.77027l-0.28789,1.83527l-1.39754,3.66855l-0.18092,0.36183l-0.30476,0.95783l-0.14394,0.16667l-0.15049,0.47296l-0.93754,3.26101l-0.24947,0.46958l-0.51857,1.62979l-0.90227,1.04473l-0.17147,0.32277l-1.13664,1.70496l-0.07665,0.15329zM411.4375,193.5v-1.92236l-0.25356,-1.01425l-0.2815,-1.92359l-0.07431,-0.23355l-0.0866,-0.86604l-0.12603,-0.86118l0.01545,-0.2446l-0.19344,-1.93443v-19.34723l-0.58177,-2.5764l-0.00119,-0.08711l-0.02641,-0.08302l-0.39062,-3.90625v-4.34723l-0.14791,-0.65501l-0.51194,-1.88779l-1,-6l-0.13494,-2.05789l-0.20521,-2.05208v-14.98913l-0.15576,-0.61332l0.15576,-0.993v-0.40454l0.39063,-3.90625l0.56327,-1.77027l0.28789,-1.83527l1.39754,-3.66855l0.18092,-0.36183l0.22205,-0.69788l0.19949,-1.27174l0.01275,-0.03346l0.1361,-1.361l0.56327,-1.77027l0.28789,-1.83527l0.75822,-1.99033v-32.52742l-0.04611,-0.29394l-0.56327,-1.77027l-0.39062,-3.90625v-0.40454l-0.15576,-0.993l0.15576,-0.61332v-2.65438l-0.47016,-0.74442l-1.50527,-0.62719l-3.446,-3.54172l-0.51389,-0.50001l-0.16005,-0.13095l-1.81088,-0.18109l-0.08302,-0.02641l-0.08711,-0.00119l-2.5764,-0.58177h-12.24008l-0.56497,0.17976l-0.36183,0.18092l-2.1,0.8l-1.9,1.2l-0.37136,0.18568l-1.13131,1.13131l-3.03835,2.48592l-0.39315,0.20336l-1.74617,1.50805l-0.26239,0.08349l-0.34906,0.27924l-0.72496,1.40159l-2.48592,3.03835l-0.28605,0.28605l-0.59201,0.8123l-0.33701,0.2005l-1.12656,2.25312l-0.02923,0.39948l-0.46179,0.89279l-0.12793,0.38378l-1.60584,3.58227l-0.11124,0.15263v0.35941l-0.39062,3.90625l-0.02641,0.08302l-0.00119,0.08711l-0.58177,2.5764v23.26959l0.25356,1.01425l0.2815,1.92359l0.07431,0.23355l0.0866,0.86604l0.12603,0.86118l-0.01545,0.2446l0.19344,1.93443v11.06861l0.13544,0.23576l-0.13544,1.85096v2.84467l-0.39062,3.90625l-0.13421,0.4218l-0.16837,2.30108l-1.46497,2.83227l-0.96683,3.0386l-1.50805,1.74617l-0.20336,0.39315l-2.48592,3.03835l-2.01148,2.01148l-1.21306,1.4046l-0.26248,0.07094l-0.51298,0.51298l-1.37219,1.1227l-1.30548,1.19963l-2.57864,1.93398l-1.74369,1.74369l-1.9066,1.55994l-1.90357,1.56364l-0.94027,0.62685l-0.24957,0.24957l-3.03835,2.48592l-0.07738,0.04002l-0.06244,0.06075l-1.38854,0.87697l-2.47164,2.02225l-0.07738,0.04002l-0.06244,0.06075l-3.31916,2.09631l-0.86776,0.43388l-1.67326,1.36903l-0.07738,0.04002l-0.06244,0.06075l-3.31916,2.09631l-2,1l-1.65681,0.63116l-1.34898,0.60472l-0.30704,0.2047l-0.32277,0.17147l-1.04473,0.90227l-1.62979,0.51857l-0.46958,0.24947l-3.26101,0.93754l-3.23337,1.0288l-0.00506,0.00051l-0.38939,0.14834l-1.03069,0.16168l-0.74767,0.21495l-0.24111,-0.03014l-1.58608,0.50466l-1.86947,0.18695l-2.52499,0.9619l-1.83527,0.28789l-1.77027,0.56327l-2.11018,0.21102l-1.73268,0.43317l-1.92359,0.2815l-0.23355,0.07431l-0.86604,0.0866l-0.86118,0.12603l-0.2446,-0.01545l-1.93443,0.19344h-0.52451l-2.57258,0.51452l-2.45169,0.24036l-2.45122,0.24512h-8l-3.90625,-0.39062l-0.08302,-0.02641l-0.08711,-0.00119l-3.82932,-0.86469l-3,-1l-2.21895,-0.9947l-0.27599,-0.07935l-0.53477,-0.28409l-0.55257,-0.2477l-0.14716,-0.10725l-1.27057,-0.2869l-0.03279,-0.01093l-0.96776,-0.09678l-0.4218,-0.13421l-2.30108,-0.16837l-2.56376,-1.32608l-3.71336,-0.37134l-0.08302,-0.02641l-0.08711,-0.00119l-2.5764,-0.58177h-5.34723l-1.93443,-0.19344l-0.2446,0.01545l-0.86118,-0.12603l-0.86604,-0.0866l-0.23355,-0.07431l-1.92359,-0.2815l-0.46997,-0.11749l-0.9605,0.19439l-2.67797,-1.11582l-3.58645,-1.28744l-1.03137,-0.63665l-3.18579,-1.32741l-1.55696,-1.60021l-1.89986,-1.17275l-0.49489,-0.70289l-0.2532,-0.1266l-3.31916,-2.09631l-0.06244,-0.06075l-0.07738,-0.04002l-0.49369,-0.40393l-1.04733,-0.39898l-2,-1l-2.53053,-1.59823l-2.78913,-0.88745l-1.74617,-1.50805l-0.39315,-0.20336l-3.03835,-2.48592l-2.01148,-2.01148l-1.4046,-1.21306l-0.07094,-0.26248l-4.51298,-4.51298l-1.23106,-1.50463l-0.18388,-0.16203l-0.51983,-0.69806l-0.55114,-0.67362l-0.1126,-0.21769l-1.16113,-1.55923l-1.50468,-2.5078l-1.29561,-1.58353l-1.56364,-1.90357l-2,-3l-0.72932,-1.37283l-0.83011,-1.31434l-2,-4l-0.63116,-1.65681l-0.72524,-1.61784l-0.12097,-0.36291l-0.03695,-0.04278l-0.30476,-0.95783l-0.18092,-0.36183l-1.39754,-3.66855l-0.28789,-1.83527l-0.56327,-1.77027l-0.00051,-0.00506l-0.14834,-0.38939l-0.28789,-1.83527l-0.56327,-1.77027l-0.18695,-1.86947l-0.9619,-2.52499l-0.28789,-1.83527l-0.56327,-1.77027l-0.39062,-3.90625v-0.40454l-0.15576,-0.993l0.10135,-0.39906l-0.4601,-2.3005l-0.24036,-2.45169l-0.24512,-2.45122v-24.02954l-0.04611,-0.29394l-0.56327,-1.77027l-0.39062,-3.90625v-0.02954l-0.04611,-0.29394l-0.56327,-1.77027l-0.00051,-0.00506l-0.14834,-0.38939l-0.28789,-1.83527l-0.56327,-1.77027l-0.02738,-0.27378l-3.23351,-1.61676l-1.64152,-0.25749l-1.99033,-0.75822h-16.42024l-1.01425,0.25356l-1.92359,0.2815l-0.23355,0.07431l-0.86604,0.0866l-0.86118,0.12603l-0.2446,-0.01545l-1.93443,0.19344h-1.34723l-2.5764,0.58177l-0.08711,0.00119l-0.08302,0.02641l-0.59576,0.05958l-3.17086,0.91162l-3.23337,1.0288l-0.5291,0.05291l-1.64371,0.47257l-1.36976,-0.17122l-0.36368,0.03637h-0.92236l-5.01425,1.25356l-1.92359,0.2815l-0.23355,0.07431l-0.86604,0.0866l-0.86118,0.12603l-0.2446,-0.01545l-1.93443,0.19344h-7.34723l-2.5764,0.58177l-0.08711,0.00119l-0.08302,0.02641l-1.361,0.1361l-0.03346,0.01275l-0.12171,0.01909l-1.32669,0.47625l-1.33763,0.33441l-1.54542,0.77271l-1.31724,0.50181l-0.10483,0.06471l-1.12726,0.40466l-1.11922,0.42637l-0.12171,0.01909l-1.32669,0.47625l-1.87054,0.46763l-1.01252,0.63948l-1.6311,0.81555l-6.85065,5.48052l-1.27049,1.27049l-1.99638,2.99457l-0.12493,1.70732l-1.46497,2.83227l-0.96683,3.0386l-0.52657,0.60971l-0.63135,2.79599l-1,3l-0.72524,1.61784l-0.63116,1.65681l-0.34496,0.68993l-0.01572,0.10019v0.01868l0.15576,0.61332l-0.15576,0.993v0.40454l-0.39062,3.90625l-0.56327,1.77027l-0.04611,0.29394v16.41789l0.01593,0.0306l0.6271,1.18042l0.01515,0.0527l0.55373,1.06316l1.6138,4.03451l0.53496,1.06992l0.63116,1.65681l0.72524,1.61784l0.43816,1.31448l0.30615,0.6123l0.41361,0.47891l0.30476,0.95783l0.18092,0.36183l1.39754,3.66855l0.01636,0.10427l1.02668,1.54002l0.72932,1.37283l0.83011,1.31434l0.99187,1.98374l2.2483,2.99773l1.17022,0.96125l1.9066,1.55994l1.5212,1.5212l0.66864,0.35521l1.70496,1.13664l0.60787,0.30394l1.31434,0.83011l1.37283,0.72932l0.51524,0.3435l1.29377,0.41165l1.83527,0.28789l3.66855,1.39754l0.36183,0.18092l0.95783,0.30476l0.47891,0.41361l0.20143,0.10071l1.31434,0.83011l0.4794,0.25468l0.08931,0.02233l0.90469,0.32476l0.93761,0.21172l0.00758,0.00253l0.12694,0.01858l0.86604,0.0866l0.23355,0.07431l1.92359,0.2815l4,1l1.32669,0.47625l0.12171,0.01909l1.11922,0.42637l1.12726,0.40466l0.10483,0.06471l1.31724,0.50181l6,3l1.31434,0.83011l1.37283,0.72932l1.21413,0.80942l1.85279,0.18528l0.2446,-0.01545l0.86118,0.12603l0.86604,0.0866l0.23355,0.07431l1.92359,0.2815l4,1l1.32669,0.47625l0.12171,0.01909l0.03346,0.01275l1.361,0.1361l1.77027,0.56327l0.29394,0.04611h14.09815l0.23576,-0.13544l1.85096,0.13544h2.84467l3.90625,0.39063l0.4218,0.13421l2.30108,0.16837l2.83227,1.46497l3.0386,0.96683l1.74617,1.50805l0.39315,0.20336l0.56848,0.46512l0.19283,0.05544l0.53477,0.28409l0.55257,0.2477l0.23207,0.16914l0.15941,0.08469l0.63234,0.09919l3.66855,1.39754l0.36183,0.18092l0.95783,0.30476l0.47891,0.41361l0.20143,0.10071l1.08381,0.68451l1.71128,0.71303l3.446,3.54172l3.54172,3.446l0.62335,1.49604l0.72295,0.57836l1.01109,1.2309l2.13259,0.57638l4.24103,4.91067l2.26898,2.20766l0.3378,0.81072l0.57406,0.6647l0.95987,3.01673l2.49559,5.98941l-0.45501,2.2483l0.12456,1.24556v5.98913l0.15576,0.61332l-0.15576,0.993v0.40454l-0.39062,3.90625l-0.56327,1.77027l-0.28789,1.83527l-0.14834,0.38939l-0.00051,0.00506l-0.56327,1.77027l-0.28789,1.83527l-0.14834,0.38939l-0.00051,0.00506l-0.56327,1.77027l-0.28789,1.83527l-1.39754,3.66855l-0.18092,0.36183l-0.30476,0.95783l-0.03695,0.04278l-0.12097,0.36291l-0.37053,0.82656l-0.30045,0.94426l-0.28789,1.83527l-1.39754,3.66855l-0.06668,0.13336l0.03646,0.18015l-2.49559,5.98941l-0.95987,3.01673l-0.57406,0.6647l-0.3378,0.81072l-2.26898,2.20766l-4.24103,4.91067l-2.21443,0.59849l-1.05836,0.66844l-4.86776,2.43388l-1.67326,1.36903l-0.07738,0.04002l-0.06244,0.06075l-1.10887,0.70034l-1.71297,1.71297l-2.74235,2.24374l-0.51389,0.50001l-3.446,3.54172l-1.71128,0.71303l-1.08381,0.68451l-1.36281,0.6814l-2.84211,2.92105l-1.71128,0.71303l-1.08381,0.68451l-2.20143,1.10071l-0.47891,0.41361l-0.95783,0.30476l-0.36183,0.18092l-0.24592,0.09368l-3.75134,3.23979l-2.20766,2.26898l-0.71456,0.29773l-0.29773,0.71456l-2.26898,2.20766l-4.24103,4.91067l-0.16593,0.04485l-0.48594,0.72891l-1.10377,1.34372l-0.05445,0.18941l-0.24947,0.46958l-0.51857,1.62979l-0.90227,1.04473l-0.17147,0.32277l-1.06773,1.6016l0.44682,0.17022l0.41088,0.20544l0.46573,0.15524h0.94306l1.93443,0.19344l0.2446,-0.01545l0.86118,0.12603l0.86604,0.0866l0.23355,0.07431l1.92359,0.2815l0.46571,0.11643l0.07336,-0.01863l0.993,0.15576h0.40454l3.90625,0.39063l1.77027,0.56327l1.83527,0.28789l1.99033,0.75822h8.49788l1.93443,0.19344l0.2446,-0.01545l0.86118,0.12603l0.86604,0.0866l0.23355,0.07431l1.92359,0.2815l1.01425,0.25356h29.92236l3.90625,0.39063l0.08302,0.02641l0.08711,0.00119l3.82932,0.86469l2.08915,0.69638l0.80122,0.20031l0.65515,0.06551l2.45169,0.24036l2.57258,0.51452h6.52451l1.93443,0.19344l0.2446,-0.01545l0.86118,0.12603l0.86604,0.0866l0.23355,0.07431l1.92359,0.2815l1.01425,0.25356h23.42024l1.99033,-0.75822l1.83527,-0.28789l1.77027,-0.56327l3.90625,-0.39062h0.40454l0.993,-0.15576l0.34214,0.08689l3.39229,-0.96923l1.67743,-0.30287l1.65506,-0.40777l7,-1l1.77138,-0.07485l1.76416,-0.17642h2.52451l2.57258,-0.51452l2.45169,-0.24036l2.45122,-0.24512h3.92236l5.01425,-1.25356l1.92359,-0.2815l0.23355,-0.07431l0.86604,-0.0866l0.12694,-0.01858l0.00758,-0.00253l1.90793,-0.43082l1.88779,-0.51194l4.06515,-0.67753l1.13913,-0.37971l1.51635,-0.3424l1.48644,-0.45503l3.47378,-0.69476l0.82647,-0.27549l3.3524,-1.34096l1.06992,-0.53496l2.27239,-0.86567l0.25126,-0.13905l0.57902,-0.17725l0.56588,-0.21557l0.2837,-0.0445l2.32519,-0.71179l3.47378,-0.69476l0.82647,-0.27549l8.3524,-3.34096l1.67779,-0.8389l1.70496,-1.13664l2.01859,-1.07238l2.00093,-1.10499l7,-3l0.99262,-0.31274l0.68081,-0.30519l0.30704,-0.2047l3.46688,-1.84178l0.91287,-0.26245l0.83107,-0.45991l3.75379,-1.14912l3.38373,-0.67675l2.33883,-1.16942l1.65681,-0.63116l1.61784,-0.72524l1.10787,-0.36929l2.12015,-2.5913l3.24957,-3.24957l3.4364,-5.15461l0.27462,-0.82385l0.72524,-1.61784l0.63116,-1.65681l0.20544,-0.41088l0.43816,-1.31448l0.9947,-2.21895l0.07935,-0.27599l0.28409,-0.53477l0.2477,-0.55257l0.16914,-0.23207l0.08469,-0.15941l0.09919,-0.63234l1.39754,-3.66855l0.18092,-0.36183l0.30476,-0.95783l0.41361,-0.47891l3.10071,-6.20143l0.83011,-1.31434l0.72932,-1.37283l0.2047,-0.30704l0.13165,-0.29368l0.15811,-2.16089l1.46497,-2.83227l0.96683,-3.0386l1.30853,-1.51514l0.23462,-0.61587l0.40466,-1.12726l0.06471,-0.10483l0.50181,-1.31724l2,-4l0.52366,-0.82913l0.0788,-0.50232l0.75822,-1.99033v-12.52742l-0.04611,-0.29394l-0.56327,-1.77027l-0.39062,-3.90625v-0.40454l-0.15576,-0.993l0.15576,-0.61332v-5.98913l0.24712,-2.47118c-0.16288,-1.15286 -0.24712,-2.33101 -0.24712,-3.52882z"/></g></g></svg>