<svg version="1.1" xmlns="http://www.w3.org/2000/svg" xmlns:xlink="http://www.w3.org/1999/xlink" width="443.31154" height="322.31162" viewBox="0,0,443.31154,322.31162"><g transform="translate(-6.59425,-21.85941)"><g data-paper-data="{&quot;isPaintingLayer&quot;:true}" fill="#a5a5a5" fill-rule="nonzero" stroke="none" stroke-width="0" stroke-linecap="butt" stroke-linejoin="miter" stroke-miterlimit="10" stroke-dasharray="" stroke-dashoffset="0" style="mix-blend-mode: normal"><path d="M138.67188,25.01528l1.01473,-0.25368l1.92359,-0.2815l0.23355,-0.07431l0.86604,-0.0866l0.86118,-0.12603l0.2446,0.01545l1.93443,-0.19344h17.02954l0.29394,-0.04611l1.77027,-0.56327l3.90625,-0.39062h0.40454l0.993,-0.15576l0.61332,0.15576h10.01868l0.29394,-0.04611l1.77027,-0.56327l3.90625,-0.39062h0.40454l0.993,-0.15576l0.61332,0.15576h4.97827l0.61332,-0.15576l0.993,0.15576h0.40454l3.90625,0.39063l1.77027,0.56327l1.83527,0.28789l3.66855,1.39754l0.36183,0.18092l0.95783,0.30476l0.03274,0.02827l2.37351,0.23735l1.77027,0.56327l0.29394,0.04611h4.02954l3.90625,0.39063l0.08302,0.02641l0.08711,0.00119l2.5764,0.58177h13.34723l0.36368,0.03637l1.36976,-0.17122l1.64371,0.47257l0.5291,0.05291l3.23337,1.0288l3.17086,0.91162l0.59576,0.05958l1.77027,0.56327l0.29394,0.04611h11.01868l0.61332,-0.15576l0.993,0.15576h0.40454l3.90625,0.39063l1.77027,0.56327l0.29394,0.04611h7.01868l0.61332,-0.15576l0.993,0.15576h0.40454l3.90625,0.39063l1.77027,0.56327l1.83527,0.28789l0.03346,0.01275l1.361,0.1361l1.77027,0.56327l0.29394,0.04611h11.9726l2.15125,-0.71708l3.82932,-0.86469l0.08711,-0.00119l0.08302,-0.02641l3.90625,-0.39062h2.02954l0.29394,-0.04611l1.77027,-0.56327l3.90625,-0.39062h0.40454l0.993,-0.15576l0.61332,0.15576h11.98913l1.93443,0.19344l0.2446,-0.01545l0.86118,0.12603l0.86604,0.0866l0.23355,0.07431l1.92359,0.2815l4,1l3.69488,1.32637l0.30166,0.18621l0.3407,0.09795l0.37805,0.20084l1.85044,0.1354l2.83227,1.46497l0.40319,0.12829l1.04167,0.10417l0.08302,0.02641l0.08711,0.00119l3.82932,0.86469l0.02873,0.00958l1.96848,0.19299l5,1l1.48644,0.45503l1.51635,0.3424l3,1l1.61784,0.72524l1.65681,0.63116l0.41088,0.20544l1.31448,0.43816l1.61784,0.72524l0.86918,0.33112l0.51354,0.05135l1.77027,0.56327l1.83527,0.28789l3.66855,1.39754l0.36183,0.18092l0.95783,0.30476l0.47891,0.41361l6.20143,3.10071l1.31434,0.83011l1.37283,0.72932l1.70496,1.13664l0.60787,0.30394l1.31434,0.83011l1.37283,0.72932l3,2l1.90357,1.56364l1.9066,1.55994l0.29794,0.29794l0.99981,0.41659l3.446,3.54172l3.54172,3.446l0.71303,1.71128l0.68451,1.08381l0.43388,0.86776l1.36903,1.67326l0.85348,1.65006l0.10358,0.14212l0.57351,0.66407l2.26898,2.20766l0.3378,0.81072l0.57406,0.6647l0.95987,3.01673l1.85131,4.44315l0.11508,0.17261l0.17147,0.32277l0.90227,1.04473l0.51857,1.62979l0.24947,0.46958l0.93754,3.26101l0.57473,1.80629l0.7197,0.83333l0.51857,1.62979l0.24947,0.46958l0.93754,3.26101l0.15049,0.47296l0.14394,0.16667l0.30476,0.95783l0.18092,0.36183l1.39754,3.66855l0.28789,1.83527l0.56327,1.77027l0.39063,3.90625v0.40454l0.15576,0.993l-0.15576,0.61332v10.97827l0.15576,0.61332l-0.15576,0.993v0.40454l-0.39062,3.90625l-0.56327,1.77027l-0.28789,1.83527l-1.39754,3.66855l-0.18092,0.36183l-0.30476,0.95783l-0.41361,0.47891l-0.10071,0.20143l-0.83011,1.31434l-0.16325,0.3073l-0.06052,0.82715l-1.46497,2.83227l-0.96683,3.0386l-1.50805,1.74617l-0.20336,0.39315l-2.48592,3.03835l-2,2l-0.00534,0.00437l-1.21921,1.41171l-0.75593,0.2043l-1.05788,0.86554l-0.07738,0.04002l-0.06244,0.06075l-3.31916,2.09631l-2,1l-1.65681,0.63116l-1.34898,0.60472l-0.30704,0.2047l-0.32277,0.17147l-1.04473,0.90227l-1.62979,0.51857l-0.46958,0.24947l-3.26101,0.93754l-3.23337,1.0288l-0.5291,0.05291l-1.64371,0.47257l-1.18905,-0.14863l-2.64148,0.5283l-2.45169,0.24036l-0.67406,0.06741l-2.63753,0.75829l-3.23337,1.0288l-0.00506,0.00051l-0.38939,0.14834l-1.03069,0.16168l-0.74767,0.21495l-0.24111,-0.03014l-1.58608,0.50466l-3.03943,0.30394l-1.96392,0.6012l-5,1l-2.45169,0.24036l-2.45122,0.24512h-0.02954l-0.29394,0.04611l-1.77027,0.56327l-2.39633,0.23963l-2.60422,0.86807l-3.82932,0.86469l-0.08711,0.00119l-0.08302,0.02641l-1.361,0.1361l-0.03346,0.01275l-1.83527,0.28789l-1.77027,0.56327l-0.00506,0.00051l-0.38939,0.14834l-1.83527,0.28789l-1.77027,0.56327l-3.90625,0.39063h-0.02954l-0.29394,0.04611l-1.77027,0.56327l-3.90625,0.39063h-0.40454l-0.993,0.15576l-0.61332,-0.15576h-3.40548l-1.68076,0.51452l-5,1l-2.45169,0.24036l-2.29497,0.2295l-0.61408,0.19539l-0.36183,0.18092l-3.66855,1.39754l-1.83527,0.28789l-1.77027,0.56327l-2.73461,0.27346l-0.20356,0.04597l-0.90469,0.32476l-4,1l-1.92359,0.2815l-0.23355,0.07431l-0.86604,0.0866l-0.86118,0.12603l-0.2446,-0.01545l-1.93443,0.19344h-1.34723l-2.5764,0.58177l-0.08711,0.00119l-0.08302,0.02641l-0.27913,0.02791l-1.6506,0.8253l-0.2005,0.33701l-3.81878,2.78318l-3.63558,2.90847l0.12321,0.09241l1.12759,0.75173l0.60787,0.30394l1.31434,0.83011l1.37283,0.72932l1.70496,1.13664l6.65718,3.32859l0.39948,0.02923l0.89279,0.46179l0.38378,0.12793l3.58227,1.60584l1.5013,1.09417l1.65006,0.85348l3.03835,2.48592l0.13131,0.13131l3.06129,1.53064l1.64152,0.25749l3.66855,1.39754l0.36183,0.18092l0.95783,0.30476l0.47891,0.41361l1.64821,0.82411l0.27913,0.02791l0.08302,0.02641l0.08711,0.00119l3.82932,0.86469l0.03279,0.01093l0.96776,0.09678l0.08302,0.02641l0.08711,0.00119l3.09527,0.69893l2.73461,0.27346l1.77027,0.56327l0.29394,0.04611h0.02954l3.90625,0.39063l0.08302,0.02641l0.08711,0.00119l2.5764,0.58177h4.8451l1.99033,-0.75822l1.83527,-0.28789l0.94426,-0.30045l0.82656,-0.37053l1.31448,-0.43816l2.41088,-1.20544l1.31724,-0.50181l0.10483,-0.06471l1.12726,-0.40466l1.11922,-0.42637l0.12171,-0.01909l1.32669,-0.47625l4,-1l1.92359,-0.2815l0.23355,-0.07431l0.00506,-0.00051l0.38939,-0.14834l1.83527,-0.28789l1.77027,-0.56327l3.90625,-0.39062h0.40454l0.993,-0.15576l0.61332,0.15576h16.97827l0.61332,-0.15576l0.993,0.15576h0.40454l3.90625,0.39063l1.77027,0.56327l1.83527,0.28789l3.66855,1.39754l0.36183,0.18092l0.95783,0.30476l0.04278,0.03695l3.36291,1.12097l1.61784,0.72524l1.65681,0.63116l4,2l1.31434,0.83011l1.37283,0.72932l1.70496,1.13664l2.60787,1.30394l3.31916,2.09631l0.06244,0.06075l0.07738,0.04002l3.03835,2.48592l2,2l2.48592,3.03835l0.04002,0.07738l0.06075,0.06244l2.09631,3.31916l0.43388,0.86776l1.36903,1.67326l0.20336,0.39315l1.50805,1.74617l0.55373,1.74029l1.73486,2.12039l0.20336,0.39315l1.50805,1.74617l0.96683,3.0386l1.46497,2.83227l0.16837,2.30108l0.13421,0.4218l0.39063,3.90625v2.84467l0.13544,1.85096l-0.13544,0.23576v5.05774l0.15576,0.61332l-0.15576,0.993v0.40454l-0.39062,3.90625l-0.56327,1.77027l-0.28789,1.83527l-0.14834,0.38939l-0.00051,0.00506l-0.56327,1.77027l-0.28789,1.83527l-0.14834,0.38939l-0.00051,0.00506l-0.56327,1.77027l-0.28789,1.83527l-0.14834,0.38939l-0.00051,0.00506l-0.56327,1.77027l-0.28789,1.83527l-0.14834,0.38939l-0.00051,0.00506l-0.56327,1.77027l-0.28789,1.83527l-1.39754,3.66855l-0.18092,0.36183l-0.30476,0.95783l-0.41361,0.47891l-0.65601,1.31201l-0.27069,0.97642l-1.0876,1.3595l-1.18273,1.87266l-1.7741,1.82338l-1.58925,1.98656l-1.7115,1.40587l-1.2141,1.24782l-0.14515,0.06048l-0.40885,0.3978l-3.446,3.54172l-0.99981,0.41659l-4.87605,4.87605l-0.32354,0.54383l-0.62968,0.45892l-0.0526,0.19461l-3.56326,3.07736l-3.07736,3.56326l-1.52611,0.41246l-0.42702,0.36879l-8.59375,2.73438l-0.27913,0.02791l-1.64821,0.82411l-0.47891,0.41361l-0.95783,0.30476l-0.36183,0.18092l-3.66855,1.39754l-1.83527,0.28789l-1.29377,0.41165l-0.51524,0.3435l-2.14747,1.14084l-0.23207,0.16914l-0.55257,0.2477l-0.53477,0.28409l-0.27599,0.07935l-2.21895,0.9947l-0.36291,0.12097l-0.04278,0.03695l-0.95783,0.30476l-0.36183,0.18092l-3.66855,1.39754l-1.27174,0.19949l-2.77866,0.88412l-2.83227,1.46497l-2.30108,0.16837l-0.4218,0.13421l-3.90625,0.39063h-2.84467l-1.85096,0.13544l-0.23576,-0.13544h-10.09815l-0.29394,0.04611l-1.77027,0.56327l-3.90625,0.39063h-0.40454l-0.993,0.15576l-0.61332,-0.15576h-45.97827l-0.61332,0.15576l-0.993,-0.15576h-0.40454l-3.90625,-0.39062l-1.77027,-0.56327l-0.29394,-0.04611h-5.01868l-0.61332,0.15576l-0.993,-0.15576h-0.40454l-3.90625,-0.39062l-1.77027,-0.56327l-1.83527,-0.28789l-1.99033,-0.75822h-26.48701l-0.61332,0.15576l-0.993,-0.15576h-0.40454l-3.90625,-0.39062l-1.77027,-0.56327l-1.83527,-0.28789l-2.80071,-1.06694l-1.17375,-0.29344l-4.41665,-0.88333l-0.34948,-0.10698l-1.37674,-0.10074l-1.51912,-0.78575l-0.50845,-0.15565l-2.96882,-1.64294l-1.68304,-0.87054l-0.59715,-0.13484l-6,-2l-1.61784,-0.72524l-1.65681,-0.63116l-8,-4l-3.31916,-2.09631l-0.06244,-0.06075l-0.07738,-0.04002l-3.03835,-2.48592l-2.5781,-2.5781l-0.54383,-0.32354l-0.59201,-0.8123l-0.28605,-0.28605l-2.48592,-3.03835l-0.85348,-1.65006l-1.09417,-1.5013l-1.60584,-3.58227l-0.12793,-0.38378l-0.46179,-0.89279l-0.02923,-0.39948l-0.32859,-0.65718l-1.13664,-1.70496l-1.14084,-2.14747l-0.16914,-0.23207l-0.2477,-0.55257l-0.28409,-0.53477l-0.07935,-0.27599l-0.9947,-2.21895l-0.86083,-2.58248l-1.38523,-1.34779l-0.3378,-0.81072l-0.57406,-0.6647l-0.95987,-3.01673l-2.49559,-5.98941l0.45501,-2.2483l-0.12456,-1.24556v-12.49466l-0.71708,-1.59965l-1,-3l-0.86469,-3.82932l-0.00119,-0.08711l-0.02641,-0.08302l-0.00051,-0.00506l-0.14834,-0.38939l-0.28789,-1.83527l-0.56327,-1.77027l-0.39062,-3.90625v-0.40454l-0.15576,-0.993l0.15576,-0.61332v-0.01868l-0.04611,-0.29394l-0.56327,-1.77027l-0.15291,-1.52913l-0.59839,-1.19678l-0.50181,-1.31724l-0.06471,-0.10483l-0.40466,-1.12726l-0.42637,-1.11922l-0.01909,-0.12171l-0.47625,-1.32669l-0.2969,-1.18761l-0.32453,-0.37578l-0.30476,-0.95783l-0.18092,-0.36183l-1.39754,-3.66855l-0.28789,-1.83527l-0.56327,-1.77027l-0.39062,-3.90625v-0.40454l-0.15576,-0.993l0.15576,-0.61332v-2.01868l-0.04611,-0.29394l-0.56327,-1.77027l-0.39062,-3.90625v-0.40454l-0.15576,-0.993l0.15576,-0.61332v-0.01868l-0.01572,-0.10019l-1.44568,-2.89135l-0.41361,-0.47891l-0.30476,-0.95783l-0.18092,-0.36183l-1.39754,-3.66855l-0.19949,-1.27174l-0.88412,-2.77866l-1.46497,-2.83227l-0.16837,-2.30108l-0.13421,-0.4218l-0.23204,-2.32041l-1.51926,-2.4055l-0.43388,-0.86776l-0.44306,-0.54151l-1.56364,-1.90357l-2,-3l-0.70109,-1.3197l-1.29725,-0.77178l-0.20419,-0.28017l-0.09331,0.01866l-1.66122,0.16286l-1.29971,1.26459l-0.95061,0.97702l-0.63068,1.26136l-0.68451,1.08381l-0.71303,1.71128l-3.13854,3.05372l-0.14842,0.23501l-0.71303,1.71128l-2.92105,2.84211l-2.6814,5.36281l-2.09631,3.31916l-0.06075,0.06244l-0.04002,0.07738l-2.48592,3.03835l-4,4l-3.03835,2.48592l-0.07738,0.04002l-0.06244,0.06075l-3.03352,1.91591l-0.20162,0.31923l-1.7741,1.82338l-1.58925,1.98656l-1.7115,1.40587l-1.2141,1.24782l-0.93531,0.38971l-2.17261,1.44841l-1.37283,0.72932l-1.31434,0.83011l-4.86776,2.43388l-1.67326,1.36903l-0.07738,0.04002l-0.06244,0.06075l-3.31916,2.09631l-0.20143,0.10071l-0.47891,0.41361l-0.95783,0.30476l-0.36183,0.18092l-3.66855,1.39754l-1.83527,0.28789l-1.77027,0.56327l-0.00506,0.00051l-0.38939,0.14834l-1.83527,0.28789l-1.77027,0.56327l-0.00506,0.00051l-0.38939,0.14834l-1.83527,0.28789l-1.77027,0.56327l-1.86947,0.18695l-2.52499,0.9619l-1.83527,0.28789l-1.77027,0.56327l-3.90625,0.39063h-0.40454l-0.993,0.15576l-0.61332,-0.15576h-7.97827l-0.61332,0.15576l-0.993,-0.15576h-0.40454l-3.90625,-0.39062l-1.77027,-0.56327l-1.83527,-0.28789l-3.66855,-1.39754l-0.36183,-0.18092l-0.95783,-0.30476l-0.47891,-0.41361l-2.20143,-1.10071l-3.31916,-2.09631l-0.06244,-0.06075l-0.07738,-0.04002l-2.12039,-1.73486l-1.74029,-0.55373l-2.01335,-1.7388l-2.28625,-1.36017l-1.20819,-1.65776l-3.08596,-2.66514l-0.14423,-0.53365l-2.85577,-2.46635l-0.59849,-2.21443l-0.66844,-1.05836l-1.03562,-2.07123l-0.05683,-0.01536l-2.29901,-2.66201l-0.14889,-0.1223l-0.54391,-0.67988l-4.43007,-5.12956l-0.21556,-0.67749l-0.44413,-0.55516l-1.81069,-6.53141l-0.26399,-0.82969l-0.00051,-0.00506l-0.14834,-0.38939l-0.09575,-0.61041l-0.71424,-2.57637l0.04729,-0.14079l-0.08845,-0.27798l-0.39062,-3.90625v-0.40454l-0.15576,-0.993l0.15576,-0.61332v-7.33636l-0.58177,-2.5764l-0.00119,-0.08711l-0.02641,-0.08302l-0.39062,-3.90625v-5.98913l-0.15576,-0.61332l0.15576,-0.993v-0.40454l0.39063,-3.90625l0.56327,-1.77027l0.28789,-1.83527l1.39754,-3.66855l0.18092,-0.36183l0.30476,-0.95783l0.41361,-0.47891l2.10071,-4.20143l0.66844,-1.05836l0.59849,-2.21443l2.19262,-1.89363l0.04438,-0.0858l0.24737,-2.47369l0.13421,-0.4218l0.16837,-2.30108l1.46497,-2.83227l0.96683,-3.0386l1.50805,-1.74617l0.20336,-0.39315l1.88362,-2.30221l0.23386,-0.73499l0.28789,-1.83527l0.14834,-0.38939l0.00051,-0.00506l0.02641,-0.08302l0.00119,-0.08711l0.86469,-3.82932l2,-6l0.72524,-1.61784l0.19552,-0.51325l0.18695,-1.86947l0.56327,-1.77027l0.04611,-0.29394v-4.02954l0.12456,-1.24556l-0.45501,-2.2483l2.49559,-5.98941l0.95987,-3.01673l0.57406,-0.6647l0.3378,-0.81072l2.26898,-2.20766l4.24103,-4.91067l2.21443,-0.59849l0.20955,-0.13235l0.10773,-0.11072l2.24374,-2.74235l0.74369,-0.74369l1.51764,-2.02352l1.61509,-2.42263l0.44142,-0.53738l0.35983,-0.59511l1.661,-2.21467l1.77832,-2.81567l1.2,-3.15l0.18092,-0.36183l0.30476,-0.95783l0.41361,-0.47891l0.10071,-0.20143l0.68451,-1.08381l0.71303,-1.71128l3.13854,-3.05372l0.14842,-0.23501l0.71303,-1.71128l3.54172,-3.446l3.446,-3.54172l1.6331,-0.68046l1.03289,-1.25743l0.78245,-0.62596l0.62596,-0.78245l3.03352,-2.49182l3,-2l2.14747,-1.14084l0.23207,-0.16914l0.55257,-0.2477l0.53477,-0.28409l0.27599,-0.07935l2.21895,-0.9947l3,-1l3.82932,-0.86469l0.08711,-0.00119l0.08302,-0.02641l3.90625,-0.39062h0.02954l0.10019,-0.01572l2.89135,-1.44568l0.47891,-0.41361l0.95783,-0.30476l0.36183,-0.18092l3.66855,-1.39754l1.83527,-0.28789l1.77027,-0.56327l3.90625,-0.39062h0.02954l0.29394,-0.04611l0.34318,-0.10919l0.83333,-0.7197l3.0386,-0.96683l2.83227,-1.46497l2.30108,-0.16837l0.4218,-0.13421l0.00506,-0.00051l0.38939,-0.14834l1.83527,-0.28789l1.77027,-0.56327l3.90625,-0.39062h0.40454l0.993,-0.15576l0.62038,0.15756l2.23086,0.22309c2.41682,-0.78741 4.99542,-1.21657 7.6731,-1.22476zM99.93308,87.70932l-2.20766,2.26898l-0.63934,0.26639l-0.15632,0.31264l-0.30476,0.95783l-0.41361,0.47891l-0.10071,0.20143l-2.09631,3.31916l-0.06075,0.06244l-0.04002,0.07738l-2.01892,2.46757l-1.14467,1.89311l-2.58365,3.44487l-1.61509,2.42263l-0.44142,0.53738l-0.35983,0.59511l-3,4l-1.19963,1.30548l-0.28818,0.35223l-0.54905,1.31772l-2.94318,2.86364l-0.05682,0.13636l-0.54427,0.52956l-0.37276,1.17153l-0.04611,0.29394v0.02954l-0.39062,3.90625l-0.56327,1.77027l-0.28789,1.83527l-1.39754,3.66855l-0.18092,0.36183l-0.30476,0.95783l-0.41361,0.47891l-0.30615,0.6123l-0.44909,1.34727l-0.09678,0.96776l-0.56327,1.77027l-0.28789,1.83527l-0.01275,0.03346l-0.1361,1.361l-0.56327,1.77027l-0.28789,1.83527l-0.54132,1.42097l0.11356,0.5611l-1.11582,2.67797l-1.28744,3.58645l-0.63665,1.03137l-1.32741,3.18579l-0.57637,0.5608l-0.07997,1.09291l-1.46497,2.83227l-0.96683,3.0386l-0.14394,0.16667l-0.15049,0.47296l-0.93754,3.26101l-0.24947,0.46958l-0.51857,1.62979l-0.90227,1.04473l-0.17147,0.32277l-1.24189,1.86283l-0.46562,1.72279l-0.32074,0.277l0.22699,2.26987v2.63482l0.77602,0.56558l1.36017,2.28625l1.7388,2.01335l0.62197,1.95475l1.71966,2.89049l0.27159,-0.10346l1.83527,-0.28789l1.77027,-0.56327l3.90625,-0.39062h0.02954l0.29394,-0.04611l1.67557,-0.53314l2.82061,-1.78144l4.71946,-2.35973l0.78321,-0.95726l4,-4l3.03835,-2.48592l0.07738,-0.04002l0.06244,-0.06075l2.45661,-1.55154l2.68222,-5.36443l0.68451,-1.08381l0.71303,-1.71128l3.13854,-3.05372l0.14842,-0.23501l0.71303,-1.71128l2.92105,-2.84211l0.6814,-1.36281l0.68451,-1.08381l0.71303,-1.71128l2.94318,-2.86364l0.05682,-0.13636l2.02117,-1.96654l0.95884,-0.98547l0.01999,-0.04799l0.50062,-0.48709l0.48709,-0.50062l0.04799,-0.01999l0.98547,-0.95884l1.96654,-2.02117l0.13636,-0.05682l2.86364,-2.94318l1.31772,-0.54905l2.01838,-1.6514l0.07738,-0.04002l0.06244,-0.06075l3.31916,-2.09631l0.20143,-0.10071l0.47891,-0.41361l0.95783,-0.30476l0.36183,-0.18092l3.66855,-1.39754l1.83527,-0.28789l1.77027,-0.56327l0.00506,-0.00051l0.38939,-0.14834l1.83527,-0.28789l1.77027,-0.56327l3.90625,-0.39062h0.40454l0.55622,-0.08725l2.13633,-0.42727l2.45169,-0.24036l2.45122,-0.24512h4l1.93443,0.19344l0.2446,-0.01545l0.86118,0.12603l0.86604,0.0866l0.23355,0.07431l1.92359,0.2815l1.73268,0.43317l2.11018,0.21102l0.4218,0.13421l2.30108,0.16837l2.83227,1.46497l3.0386,0.96683l0.35218,0.30416l0.18883,-0.01092l1.89782,1.12909l0.24151,0.092l0.36183,0.18092l0.95783,0.30476l0.47891,0.41361l0.20143,0.10071l3.31916,2.09631l0.31725,0.30867l1.98285,1.17967l1.87811,2.57694l2.28543,2.22366l0.41659,0.99981l1.29794,1.29794l2.48592,3.03835l0.04002,0.07738l0.06075,0.06244l2.09631,3.31916l1.18568,2.37136l0.13131,0.13131l2.48592,3.03835l0.04002,0.07738l0.06075,0.06244l2.09631,3.31916l0.43388,0.86776l1.36903,1.67326l0.04002,0.07738l0.06075,0.06244l2.09631,3.31916l0.10071,0.20143l0.41361,0.47891l0.30476,0.95783l0.18092,0.36183l1.39754,3.66855l0.28789,1.83527l0.56327,1.77027l0.00051,0.00506l0.14834,0.38939l0.19949,1.27174l0.88412,2.77866l1.46497,2.83227l0.16837,2.30108l0.13421,0.4218l0.15291,1.52913l0.69911,1.39821l0.41361,0.47891l0.30476,0.95783l0.18092,0.36183l1.39754,3.66855l0.28789,1.83527l0.56327,1.77027l0.00051,0.00506l0.14834,0.38939l0.28789,1.83527l0.56327,1.77027l0.39063,3.90625v0.40454l0.15576,0.993l-0.15576,0.61332v0.01868l0.04611,0.29394l0.56327,1.77027l0.39063,3.90625v0.40454l0.15576,0.993l-0.15576,0.61332v0.43368l0.33185,0.92444l0.42637,1.11922l0.01909,0.12171l0.47625,1.32669l0.33441,1.33763l0.87342,1.74684l0.41361,0.47891l0.30476,0.95783l0.18092,0.36183l1.39754,3.66855l0.28789,1.83527l0.56327,1.77027l0.39063,3.90625v0.02954l0.04611,0.29394l0.56327,1.77027l0.39063,3.90625v0.40454l0.15576,0.993l-0.15576,0.61332v0.01868l0.04611,0.29394l0.56327,1.77027l0.01116,0.11161l0.25446,0.29464l0.30476,0.95783l0.18092,0.36183l1.39754,3.66855l0.28789,1.83527l0.56327,1.77027l0.39063,3.90625v0.40454l0.15576,0.993l-0.15576,0.61332v7.48379l0.71708,1.59965l0.89956,2.69869l0.71381,1.71315l-0.05393,0.26649l0.38184,1.14553l0.14289,0.21434l0.72932,1.37283l0.83011,1.31434l1.27322,2.54644l0.95732,0.47866l0.9187,0.30623l2.39633,0.23963l0.4218,0.13421l2.30108,0.16837l2.83227,1.46497l3.0386,0.96683l1.74617,1.50805l0.39315,0.20336l0.09506,0.07778l3.32901,0.83225l0.70635,0.25356h27.21939l0.61332,-0.15576l0.993,0.15576h0.40454l3.90625,0.39063l1.77027,0.56327l1.83527,0.28789l1.99033,0.75822h3.48701l0.61332,-0.15576l0.993,0.15576h0.40454l3.90625,0.39063l1.77027,0.56327l0.29394,0.04611h42.05908l0.29394,-0.04611l1.77027,-0.56327l3.90625,-0.39062h0.40454l0.993,-0.15576l0.61332,0.15576h9.83354l2.52647,-1.3068l2.30108,-0.16837l0.4218,-0.13421l2.06655,-0.20666l1.34502,-0.71454l1.31434,-0.83011l2.20143,-1.10071l0.47891,-0.41361l0.95783,-0.30476l0.36183,-0.18092l3.66855,-1.39754l1.83527,-0.28789l1.77027,-0.56327l0.27913,-0.02791l1.44678,-0.72339l0.34348,-0.13085l1.38374,-1.60222l2.4939,-0.67403l0.47126,-0.34346l0.442,-0.19814l5.36829,-5.36829l2.26775,-1.85543l0.36381,-1.14342l0.28789,-1.83527l0.14834,-0.38939l0.00051,-0.00506l0.56327,-1.77027l0.28789,-1.83527l0.14834,-0.38939l0.00051,-0.00506l0.29906,-0.9399l-0.56469,-0.65385l-0.88745,-2.78913l-0.30658,-0.48542l-0.79847,-0.42419l-1.70496,-1.13664l-1.01875,-0.50937l-3.46573,-1.15524h-11.9726l-0.29394,0.04611l-1.77027,0.56327l-1.52913,0.15291l-1.19678,0.59839l-1.65681,0.63116l-1.61784,0.72524l-0.36291,0.12097l-0.04278,0.03695l-0.95783,0.30476l-0.36183,0.18092l-3.66855,1.39754l-1.27174,0.19949l-0.69788,0.22205l-0.36183,0.18092l-3.66855,1.39754l-1.83527,0.28789l-1.77027,0.56327l-3.90625,0.39063h-0.40454l-0.993,0.15576l-0.61332,-0.15576h-11.98913l-3.90625,-0.39062l-0.08302,-0.02641l-0.08711,-0.00119l-2.5764,-0.58177h-0.34723l-3.90625,-0.39062l-1.77027,-0.56327l-1.83527,-0.28789l-0.03346,-0.01275l-1.361,-0.1361l-0.08302,-0.02641l-0.08711,-0.00119l-3.82932,-0.86469l-0.03279,-0.01093l-0.96776,-0.09678l-0.08302,-0.02641l-0.08711,-0.00119l-3.09527,-0.69893l-2.73461,-0.27346l-1.77027,-0.56327l-1.83527,-0.28789l-3.66855,-1.39754l-0.36183,-0.18092l-0.95783,-0.30476l-0.47891,-0.41361l-2.89135,-1.44568l-1.64152,-0.25749l-3.66855,-1.39754l-0.36183,-0.18092l-0.95783,-0.30476l-0.47891,-0.41361l-6.20143,-3.10071l-1.31434,-0.83011l-1.37283,-0.72932l-3,-2l-1.27021,-1.04339l-1.04262,-0.39719l-10,-5l-1.31434,-0.83011l-1.37283,-0.72932l-1.70496,-1.13664l-0.60787,-0.30394l-1.31434,-0.83011l-1.37283,-0.72932l-3,-2l-0.53738,-0.44142l-0.59511,-0.35983l-4,-3l-1.30548,-1.19963l-0.35223,-0.28818l-1.31772,-0.54905l-3.05372,-3.13854l-2.47036,-1.56023l-0.06244,-0.06075l-0.07738,-0.04002l-3.03835,-2.48592l-2,-2l-2.48592,-3.03835l-0.04002,-0.07738l-0.06075,-0.06244l-1.56023,-2.47036l-3.13854,-3.05372l-0.71303,-1.71128l-0.68451,-1.08381l-0.10071,-0.20143l-0.41361,-0.47891l-0.30476,-0.95783l-0.18092,-0.36183l-1.39754,-3.66855l-0.16216,-1.03374l-0.41008,-0.98419l0.08795,-0.43459l-0.36687,-1.15302l-0.39062,-3.90625v-0.40454l-0.15576,-0.993l0.15301,-0.60246l-0.15301,-0.60246l0.15576,-0.993v-0.40454l0.39063,-3.90625l0.56327,-1.77027l0.28789,-1.83527l1.39754,-3.66855l0.18092,-0.36183l0.30476,-0.95783l0.41361,-0.47891l2.65601,-5.31201l0.27069,-0.97642l1.0876,-1.3595l1.18273,-1.87266l1.7741,-1.82338l1.58925,-1.98656l1.7115,-1.40587l1.2141,-1.24782l0.93531,-0.38971l0.11288,-0.07526l0.24957,-0.24957l3.03835,-2.48592l0.39315,-0.20336l1.74617,-1.50805l0.67473,-0.21469l0.84984,-0.87345l1.71128,-0.71303l1.08381,-0.68451l0.86776,-0.43388l1.67326,-1.36903l0.07738,-0.04002l0.06244,-0.06075l3.31916,-2.09631l1.18793,-0.59396l0.66953,-0.53563l1.82338,-1.7741l1.87266,-1.18273l1.3595,-1.0876l0.97642,-0.27069l5.71846,-2.85923l1.70496,-1.13664l0.32277,-0.17147l1.04473,-0.90227l1.62979,-0.51857l0.46958,-0.24947l3.26101,-0.93754l3.23337,-1.0288l0.5291,-0.05291l1.64371,-0.47257l1.36976,0.17122l0.36368,-0.03637h0.34723l2.5764,-0.58177l0.08711,-0.00119l0.08302,-0.02641l3.90625,-0.39062h1.92236l0.0828,-0.0207l2.08915,-0.69638l3.82932,-0.86469l0.08711,-0.00119l0.08302,-0.02641l0.97859,-0.09786l0.02197,-0.00985l6,-2l3.82932,-0.86469l0.08711,-0.00119l0.08302,-0.02641l3.90625,-0.39062h1.49788l1.99033,-0.75822l1.83527,-0.28789l1.77027,-0.56327l3.90625,-0.39062h0.40454l0.993,-0.15576l0.61332,0.15576h4.01868l0.29394,-0.04611l1.77027,-0.56327l3.90625,-0.39062h0.02954l0.29394,-0.04611l1.77027,-0.56327l0.00506,-0.00051l0.38939,-0.14834l1.83527,-0.28789l1.77027,-0.56327l1.86947,-0.18695l2.52499,-0.9619l1.83527,-0.28789l1.77027,-0.56327l3.90625,-0.39062h0.02954l0.29394,-0.04611l1.77027,-0.56327l3.90625,-0.39062h0.40454l0.993,-0.15576l0.30553,0.07759l1.78514,-0.68005l1.83527,-0.28789l1.77027,-0.56327l2.37351,-0.23735l0.03274,-0.02827l1.62979,-0.51857l0.46958,-0.24947l3.26101,-0.93754l3.23337,-1.0288l0.5291,-0.05291l1.64371,-0.47257l1.36976,0.17122l0.36368,-0.03637h1v-0.49788l-0.75822,-1.99033l-0.0788,-0.50232l-0.52366,-0.82913l-0.10071,-0.20143l-0.41361,-0.47891l-0.30476,-0.95783l-0.18092,-0.36183l-1.39754,-3.66855l-0.28749,-1.83275l-0.31497,-0.4987l-1.10071,-2.20143l-0.41361,-0.47891l-0.21469,-0.67473l-0.87345,-0.84984l-0.8874,-2.12975l-0.2607,-0.35771l-0.55767,-1.24402l-0.49469,-0.60462l-0.04002,-0.07738l-0.06075,-0.06244l-0.86976,-1.37711l-0.54355,-0.44472l-1.13131,-1.13131l-0.37136,-0.18568l-1.31434,-0.83011l-1.37283,-0.72932l-1.70496,-1.13664l-2.05466,-1.02733l-0.27913,-0.02791l-1.77027,-0.56327l-1.83527,-0.28789l-3.66855,-1.39754l-0.36183,-0.18092l-0.95783,-0.30476l-0.47891,-0.41361l-0.6123,-0.30615l-1.31448,-0.43816l-1.61784,-0.72524l-1.65681,-0.63116l-0.33883,-0.16942l-1.4318,-0.28636l-2.95527,-0.29553l-0.08302,-0.02641l-0.08711,-0.00119l-2.5764,-0.58177h-1.34723l-3.90625,-0.39062l-0.4218,-0.13421l-2.30108,-0.16837l-2.83227,-1.46497l-3.0386,-0.96683l-0.69087,-0.59666l-2.20976,-0.63531l-0.46958,-0.24947l-1.23693,-0.39357h-4.9224l-0.29394,0.04611l-1.77027,0.56327l-3.90625,0.39063h-0.40454l-0.993,0.15576l-0.30553,-0.07759l-1.78514,0.68005l-1.83527,0.28789l-1.77027,0.56327l-3.90625,0.39063h-0.40454l-0.993,0.15576l-0.61332,-0.15576h-16.97827l-0.61332,0.15576l-0.993,-0.15576h-0.40454l-3.90625,-0.39062l-1.77027,-0.56327l-1.83527,-0.28789l-0.03346,-0.01275l-1.361,-0.1361l-1.77027,-0.56327l-0.29394,-0.04611h-7.01868l-0.61332,0.15576l-0.993,-0.15576h-0.40454l-3.90625,-0.39062l-1.77027,-0.56327l-0.29394,-0.04611h-11.01868l-0.61332,0.15576l-0.993,-0.15576h-0.40454l-3.90625,-0.39062l-1.77027,-0.56327l-0.29394,-0.04611h-0.02954l-0.36368,-0.03637l-1.36976,0.17122l-1.64371,-0.47257l-0.5291,-0.05291l-3.23337,-1.0288l-2.01939,-0.58057h-10.84099l-3.90625,-0.39062l-0.08302,-0.02641l-0.08711,-0.00119l-2.5764,-0.58177h-2.33636l-0.61332,0.15576l-0.993,-0.15576h-0.40454l-3.90625,-0.39062l-1.77027,-0.56327l-0.29394,-0.04611h-0.02954l-3.90625,-0.39062l-1.77027,-0.56327l-1.83527,-0.28789l-3.66855,-1.39754l-0.36183,-0.18092l-0.53935,-0.17161l-0.24197,0.03796l-1.77027,0.56327l-3.90625,0.39063h-0.40454l-0.993,0.15576l-0.61332,-0.15576h-10.01868l-0.29394,0.04611l-1.77027,0.56327l-3.90625,0.39063h-0.40454l-0.993,0.15576l-0.61332,-0.15576h-15.91149l-1.01425,0.25356l-1.92359,0.2815l-0.23355,0.07431l-0.86604,0.0866l-0.86118,0.12603l-0.2446,-0.01545l-1.93443,0.19344h-3c-1.16728,0 -2.31587,-0.08 -3.44059,-0.23481l-1.22608,0.39012l-0.83333,0.7197l-3.0386,0.96683l-2.83227,1.46497l-2.30108,0.16837l-0.4218,0.13421l-0.00506,0.00051l-0.38939,0.14834l-1.83527,0.28789l-1.77027,0.56327l-0.00506,0.00051l-0.38939,0.14834l-1.83527,0.28789l-1.77027,0.56327l-1.52913,0.15291l-1.39821,0.69911l-0.47891,0.41361l-0.95783,0.30476l-0.36183,0.18092l-3.66855,1.39754l-1.83527,0.28789l-1.77027,0.56327l-0.00506,0.00051l-0.38939,0.14834l-1.13544,0.17811z"/></g></g></svg>