<svg version="1.1" xmlns="http://www.w3.org/2000/svg" xmlns:xlink="http://www.w3.org/1999/xlink" width="452.15578" height="338.31161" viewBox="0,0,452.15578,338.31161"><g transform="translate(-13.92213,-10.84433)"><g data-paper-data="{&quot;isPaintingLayer&quot;:true}" fill="#a5a5a5" fill-rule="nonzero" stroke="none" stroke-width="0" stroke-linecap="butt" stroke-linejoin="miter" stroke-miterlimit="10" stroke-dasharray="" stroke-dashoffset="0" style="mix-blend-mode: normal"><path d="M162.98968,160.04597c-2.1523,3.90675 -5.31904,7.1761 -9.14522,9.45306c-0.87034,0.51794 -1.77481,0.98453 -2.70922,1.3956c-0.04054,0.12324 -0.04789,0.26137 -0.01469,0.41804c0.99344,4.68825 0.99191,9.48089 -0.01385,13.90059c0.28194,0.39176 0.56705,0.78144 0.85389,1.16983l1.05004,0.40001l0.5611,-0.11356l5.98941,2.49559l3.01673,0.95987l0.66471,0.57406l0.81072,0.33781l1.77273,1.82197l0.73512,0.3063l3.01673,0.95987l0.66471,0.57406l0.81072,0.33781l2.20766,2.26898l4.91067,4.24103l0.5985,2.21443l0.66843,1.05836l2.10072,4.20143l0.4136,0.47892l0.30477,0.95783l0.18091,0.36183l1.39754,3.66855l0.28789,1.83527l0.56327,1.77026l0.1361,1.361l0.01275,0.03347l0.28789,1.83527l0.56327,1.77026l0.39063,3.90625v0.40454l0.15577,0.993l-0.15577,0.61333v5.97827l0.15577,0.61332l-0.15577,0.99301v0.40454l-0.39062,3.90625l-0.56327,1.77026l-0.28789,1.83527l-0.01275,0.03347l-0.1361,1.361l-0.56327,1.77026l-0.28789,1.83527l-0.9619,2.52499l-0.18695,1.86947l-0.56327,1.77026l-0.28789,1.83527l-1.39754,3.66855l-0.18091,0.36184l-0.30477,0.95782l-0.4136,0.47892l-0.44568,0.89135l-0.25749,1.64153l-1.39754,3.66855l-0.18091,0.36184l-0.30477,0.95782l-0.4136,0.47892l-1.10072,2.20142l-2.09631,3.31916l-0.06075,0.06244l-0.04003,0.07738l-1.6514,2.01838l-0.54905,1.31772l-3.54172,3.446l-0.5,0.5139l-2.24375,2.74235l-2,2l-3.03835,2.48592l-0.07738,0.04003l-0.06244,0.06075l-1.38854,0.87698l-2.47164,2.02225l-0.07738,0.04003l-0.06244,0.06075l-3.31916,2.09632l-2,1l-1.6568,0.63117l-0.99599,0.44647l-0.32845,0.23939l-2.22367,2.28543l-2.12975,0.8874l-0.35771,0.26071l-3.034,1.36006l-0.47854,0.49183l-0.81072,0.33781l-0.66471,0.57406l-3.01673,0.95987l-5.98941,2.49559l-0.18015,-0.03646l-4.33479,2.1674l-0.47892,0.4136l-0.95782,0.30476l-0.36183,0.18092l-2.70365,1.02997l-0.98873,0.7206l-3.58227,1.60584l-0.36292,0.12098l-0.04278,0.03694l-0.09373,0.02982l-0.77715,0.40198l-0.39948,0.02923l-0.04931,0.02465l-3.66855,1.39754l-1.27174,0.19949l-0.69787,0.22205l-0.36183,0.18092l-3.66855,1.39754l-1.83528,0.28789l-1.77026,0.56327l-3.90625,0.39063h-0.40454l-0.993,0.15576l-0.30098,-0.07644l-2.2251,0.50244l-0.08711,0.00119l-0.08302,0.02641l-3.90625,0.39063h-7.98914l-0.61333,0.15576l-0.993,-0.15576h-0.40454l-3.90625,-0.39062l-1.77026,-0.56327l-1.83528,-0.28789l-3.66855,-1.39754l-0.36183,-0.18092l-0.95782,-0.30476l-0.47892,-0.4136l-0.25074,-0.12537l-0.39947,-0.02923l-0.89279,-0.46179l-0.38379,-0.12793l-3.58226,-1.60584l-1.50131,-1.09417l-1.65006,-0.85348l-1.67326,-1.36903l-0.86776,-0.43388l-1.08381,-0.68451l-1.71128,-0.71303l-3.05372,-3.13854l-2.47036,-1.56023l-0.06244,-0.06075l-0.07738,-0.04003l-3.03835,-2.48592l-2,-2l-2.48592,-3.03835l-0.04002,-0.07738l-0.06075,-0.06244l-2.09631,-3.31916l-0.65509,-1.31018l-1.94736,-1.89474l-0.33781,-0.81072l-0.57406,-0.66471l-0.95987,-3.01673l-2.49559,-5.98942l0.45502,-2.2483l-0.12456,-1.24556v-23.02954l-0.04611,-0.29395l-0.56327,-1.77026l-0.12426,-1.24256l-0.14137,-0.16369l-0.51857,-1.62978l-0.24947,-0.46958l-0.93754,-3.26101l-0.15048,-0.47296l-0.14394,-0.16666l-0.30477,-0.95783l-0.18091,-0.36183l-0.6318,-1.65848l-0.88252,-1.02186l-0.96683,-3.0386l-1.46496,-2.83227l-0.16837,-2.30108l-0.13421,-0.4218l-0.00051,-0.00507l-0.14834,-0.3894l-0.28789,-1.83527l-0.56326,-1.77026l-0.39062,-3.90625v-0.02954l-0.04611,-0.29395l-0.56326,-1.77026l-0.39062,-3.90625v-0.40454l-0.0038,-0.0242l-0.51072,-1.66835l-1,-5l-0.24036,-2.45169l-0.24512,-2.45121v-0.89285l-0.17977,-0.56497l-0.18091,-0.36183l-1.39754,-3.66855l-0.28789,-1.83527l-0.56326,-1.77026l-0.39062,-3.90625v-0.40454l-0.15577,-0.99301l0.15577,-0.61332v-17.98914l0.39063,-3.90625l0.02642,-0.08301l0.00119,-0.08711l0.50245,-2.2251l-0.07644,-0.30098l0.15577,-0.993v-0.40454l0.39063,-3.90625l0.56326,-1.77026l0.04611,-0.29395v-15.01868l-0.15577,-0.61333l0.15577,-0.993v-0.40454l0.39063,-3.90625l0.56326,-1.77026l0.04611,-0.29395v-23.9519l-0.25357,-1.01425l-0.2815,-1.92359l-0.07431,-0.23355l-0.08661,-0.86603l-0.12602,-0.86119l0.01545,-0.2446l-0.19344,-1.93443v-11.98914l-0.15577,-0.61332l0.15577,-0.993v-0.40454l0.39063,-3.90625l0.56326,-1.77026l0.04611,-0.29395v-7.01868l-0.15577,-0.61332l0.15577,-0.993v-0.40454l0.39063,-3.90625l0.56326,-1.77026l0.04611,-0.29395v-13.01867l-0.15577,-0.61333l0.15577,-0.993v-0.40454l0.39063,-3.90625l0.56326,-1.77027l0.28789,-1.83527l1.39754,-3.66855l0.18091,-0.36183l0.30477,-0.95782l0.4136,-0.47892l0.10072,-0.20143l2.09632,-3.31916l0.06075,-0.06244l0.04002,-0.07738l1.6514,-2.01838l0.54905,-1.31773l3.54171,-3.44599l3.446,-3.54171l0.11274,-0.04697l1.55325,-1.89091l0.78245,-0.62597l0.62597,-0.78245l3.03352,-2.49182l3,-2l1.37283,-0.72931l1.31433,-0.8301l2,-1l1.31724,-0.50181l0.10483,-0.06471l1.12725,-0.40465l1.11923,-0.42637l0.12171,-0.0191l1.3267,-0.47625l1.18761,-0.2969l0.37578,-0.32453l0.95782,-0.30476l0.36183,-0.18092l3.66855,-1.39754l1.83528,-0.28789l1.77026,-0.56326l0.00507,-0.00051l0.38939,-0.14834l1.83528,-0.28789l1.77026,-0.56326l3.90625,-0.39062h0.40454l0.993,-0.15577l0.61333,0.15577h27.97827l0.61332,-0.15577l0.993,0.15577h0.40454l3.90625,0.39063l1.77026,0.56326l1.83528,0.28789l2.88092,1.09749l0.51354,0.05135l0.08302,0.02642l0.08711,0.00119l2.5764,0.58177h1.33636l0.61332,-0.15577l0.993,0.15577h0.40454l3.90625,0.39063l1.77027,0.56326l0.29394,0.04611h9.02954l1.93443,0.19345l0.2446,-0.01545l0.86119,0.12603l0.86603,0.08661l0.23355,0.07431l1.92359,0.2815l4,1l0.90469,0.32476l0.93761,0.21171l0.03279,0.01093l0.96776,0.09678l1.77027,0.56327l0.29394,0.04611h0.01868l0.61333,-0.15576l0.993,0.15576h0.40454l3.90625,0.39063l1.77027,0.56327l1.83527,0.28789l0.3894,0.14834l0.00506,0.00051l0.23355,0.07431l1.92359,0.2815l4,1l1.32669,0.47625l0.12171,0.0191l1.11923,0.42637l0.68979,0.24761l0.28166,-0.07153l0.993,0.15576h0.40454l3.90625,0.39063l1.77027,0.56327l1.83527,0.28789l2.01977,0.76944l2.37134,0.47427l1.48644,0.45503l1.51635,0.3424l5.08915,1.69638l0.80122,0.20031l2.11018,0.21102l0.08302,0.02642l0.08711,0.00119l3.82932,0.86468l1.68949,0.56317l0.00727,-0.00184l0.993,0.15576h0.40454l3.90625,0.39063l1.77027,0.56327l1.83527,0.28789l2.52499,0.9619l1.86947,0.18695l0.08302,0.02642l0.08711,0.00119l3.82932,0.86469l2.08915,0.69638l0.13455,0.03364l3.77685,0.37768l1.77027,0.56327l0.29394,0.04611h2.02954l1.93443,0.19344l0.2446,-0.01545l0.86119,0.12602l0.86603,0.0866l0.23355,0.07431l1.92359,0.2815l1.06601,0.26651l3.77685,0.37768l1.77027,0.56327l1.83527,0.28789l1.99033,0.75822h1.49787l3.90625,0.39063l0.08302,0.02642l0.08711,0.00119l2.5764,0.58177h17.37676l0.29395,-0.04611l1.77026,-0.56327l1.361,-0.1361l0.03347,-0.01275l1.83527,-0.28789l1.77026,-0.56327l2.7346,-0.27346l0.7823,-0.17665l1.48644,-0.45503l5,-1l2.45169,-0.24036l0.65515,-0.06551l1.73268,-0.43317l1.27585,-0.18671l1.252,-0.30846l4.76841,-0.6812l3.86143,-1.28714l3.82932,-0.86468l0.08711,-0.00119l0.08301,-0.02642l3.90625,-0.39062h4.49788l1.99034,-0.75822l1.83527,-0.28789l1.77026,-0.56327l0.63724,-0.06373l1.08867,-0.68758l2,-1l1.31724,-0.50181l0.10483,-0.06471l1.12725,-0.40465l1.11923,-0.42637l0.1217,-0.0191l1.3267,-0.47625l1.75089,-0.43772l0.4494,-0.1712l0.10483,-0.06471l1.12725,-0.40465l1.11923,-0.42637l0.1217,-0.0191l1.3267,-0.47625l3.59589,-0.89897l6.59947,-1.88556l2.69649,-0.48687l0.26529,-0.08441l0.45324,-0.04532l0.44825,-0.08094l0.27827,0.00828l2.72649,-0.27265h6.02954l0.1002,-0.01572l0.89135,-0.44568l0.47891,-0.41361l0.95783,-0.30476l0.36183,-0.18091l3.66855,-1.39754l1.83527,-0.28789l1.77026,-0.56326l3.90625,-0.39062h0.40454l0.993,-0.15577l0.61333,0.15577h10.48701l1.99034,-0.75822l1.83527,-0.28789l0.94426,-0.30044l0.82656,-0.37053l3,-1l3.82932,-0.86468l0.08711,-0.00119l0.08301,-0.02642l3.90625,-0.39062h3.98914l0.61332,-0.15577l0.993,0.15577h0.40454l3.90625,0.39063l1.77026,0.56326l1.83528,0.28789l3.66855,1.39754l0.36183,0.18092l0.95783,0.30476l0.47892,0.41361l0.20142,0.10071l3.2262,2.0376l0.22259,0.01629l2.83227,1.46496l3.0386,0.96683l1.02186,0.88252l1.65848,0.6318l0.36183,0.18091l0.95783,0.30476l0.47892,0.41361l0.25073,0.12537l0.39947,0.02923l0.89279,0.46179l0.38379,0.12792l3.58226,1.60585l1.50131,1.09417l1.65006,0.85348l3.03835,2.48592l0.13131,0.13131l2.37136,1.18568l1.05836,0.66843l2.21443,0.59849l4.24103,4.91067l2.26898,2.20765l0.33781,0.81072l0.57406,0.6647l0.95987,3.01673l2.49559,5.98941l-0.45502,2.2483l0.12455,1.24556v13.02954l0.04611,0.29395l0.56327,1.77026l0.00051,0.00507l0.14834,0.38939l1.39755,8.90933l-2.79509,11.00565l-2.87124,2.5572l0.30827,4.31582l2.19059,9.49257l2.41993,6.45314l1.00582,3.79469l0.02798,0.55121l0.16735,0.52594l0.29552,2.95528l0.60962,3.04807l0.24036,2.45169l0.24512,2.45122v24.52451l0.51452,2.57259l0.24036,2.45169l0.24512,2.45121v14l-0.39062,3.90625l-0.02641,0.08301l-0.00119,0.08711l-0.58177,2.5764v1.34723l-0.20521,2.05208l-0.13494,2.0579l-0.67712,4.06269l-0.22785,2.27855l-0.24036,2.45169l-0.51452,2.57259v14.87174l0.58177,2.5764l0.00119,0.08711l0.02641,0.08301l0.39063,3.90625v5.02954l0.04611,0.29395l0.56327,1.77026l0.39063,3.90625v0.40454l0.15577,0.993l-0.15577,0.61333v9.97827l0.15577,0.61332l-0.15577,0.99301v0.40454l-0.39062,3.90625l-0.56327,1.77026l-0.28789,1.83527l-1.39754,3.66855l-0.18091,0.36183l-0.30477,0.95783l-0.27787,0.32175l-1.11236,2.7809l-0.76769,2.30304l-0.30113,0.67175l-0.20403,0.70732l-0.45386,1.13465l-0.14869,1.48683l-0.24976,0.78498l-0.05964,0.8216l-1.08806,3.77193l-0.40849,1.02124l-0.10744,0.73421l-0.08661,0.86604l-0.07431,0.23355l-0.2815,1.92359l-1.43317,5.73268l-0.01384,0.13836l0.01545,0.2446l-0.12602,0.86118l-0.08661,0.86604l-0.07431,0.23355l-0.2815,1.92359l-1,4l-0.25357,0.70636v0.23025l-0.39062,3.90625l-0.56327,1.77026l-0.28789,1.83528l-0.14834,0.3894l-0.00051,0.00506l-0.02641,0.08302l-0.00119,0.08711l-0.86469,3.82932l-0.69638,2.08915l-0.76713,3.06854l-0.47625,1.32669l-0.01909,0.12171l-0.01274,0.03346l-0.1361,1.361l-0.56327,1.77026l-0.28789,1.83528l-1.39754,3.66855l-0.18091,0.36184l-0.30477,0.95782l-0.4136,0.47892l-2.10072,4.20142l-1.19894,1.89833l-1.16174,1.92133l-3,4l-1.95606,2.12866l-0.15331,0.21509l-0.28499,0.26189l-0.26189,0.28499l-0.21509,0.15331l-2.12866,1.95606l-4,3l-1.92133,1.16174l-1.89833,1.19894l-2,1l-1.6568,0.63117l-1.61784,0.72523l-1.31448,0.43816l-0.41088,0.20544l-1.6568,0.63117l-1.61784,0.72523l-3,1l-3.82932,0.86469l-0.08711,0.00119l-0.08301,0.02641l-0.00507,0.0005l-0.38939,0.14834l-1.83528,0.28789l-1.77026,0.56327l-3.90625,0.39063h-0.40454l-0.993,0.15576l-0.61332,-0.15576h-5.01868l-0.29395,0.04611l-1.77026,0.56327l-3.90625,0.39063h-0.40454l-0.993,0.15576l-0.61332,-0.15576h-20.98914l-3.90625,-0.39062l-0.08301,-0.02641l-0.08711,-0.00119l-3.82932,-0.86469l-3,-1l-1.61784,-0.72523l-1.65681,-0.63117l-1.06991,-0.53496l-1.23999,-0.49599l-0.00361,0.00073l-0.13056,-0.0544l-1.97824,-0.79129l-2.30304,-0.76769l-3.58227,-1.60584l-0.35771,-0.26071l-2.12975,-0.8874l-2.20416,-2.26538l-1.30838,-0.58651l-1.50131,-1.09417l-1.65006,-0.85348l-2.47164,-2.02225l-1.38855,-0.87698l-0.06243,-0.06075l-0.07738,-0.04003l-3.03835,-2.48592l-3,-3l-2.48592,-3.03835l-0.04003,-0.07738l-0.06075,-0.06244l-2.09632,-3.31916l-0.10071,-0.20142l-0.41361,-0.47892l-0.30476,-0.95782l-0.18092,-0.36184l-1.39754,-3.66855l-0.28789,-1.83528l-0.56327,-1.77026l-0.0005,-0.00506l-0.14834,-0.3894l-0.19949,-1.27174l-0.22206,-0.69787l-0.18092,-0.36184l-1.39754,-3.66855l-0.28789,-1.83528l-0.56327,-1.77026l-0.05957,-0.59576l-0.91163,-3.17086l-1.0288,-3.23338l-0.05291,-0.5291l-0.47257,-1.64371l0.17122,-1.36976l-0.03637,-0.36368v-6.34722l-0.58177,-2.5764l-0.00119,-0.08711l-0.02641,-0.08302l-0.0005,-0.00506l-0.14834,-0.3894l-0.28789,-1.83528l-0.56327,-1.77026l-0.39062,-3.90625v-0.40454l-0.15576,-0.993l0.15576,-0.61332v-9.98914l0.39063,-3.90625l0.02641,-0.08301l0.00119,-0.08711l0.86469,-3.82932l1,-3l0.37053,-0.82656l0.30044,-0.94426l0.28789,-1.83527l0.01274,-0.03347l0.1361,-1.361l0.02641,-0.08301l0.00119,-0.08711l0.58177,-2.5764v-2.34723l0.19344,-1.93443l-0.01545,-0.2446l0.12603,-0.86118l0.0866,-0.86604l0.07431,-0.23355l0.2815,-1.92359l0.25356,-1.01425v-0.9115l-0.15576,-0.61333l0.15576,-0.993v-0.40454l0.39063,-3.90625l0.56327,-1.77026l0.04611,-0.29395v-20.96805l-0.23762,-0.29042l-1.56364,-1.90357l-2,-3l-1.14085,-2.14747l-0.16914,-0.23207l-0.2477,-0.55256l-0.13693,-0.25774l-1.63995,-2.00438l-3.72658,-2.23595l-0.47837,-0.35624l-0.52674,-0.27983l-3,-2l-1.90357,-1.56364l-1.9066,-1.55994l-0.13131,-0.13131l-6.37136,-3.18568l-1.9,-1.2l-2.1,-0.8l-0.36183,-0.18091l-0.95783,-0.30477l-0.04278,-0.03695l-0.36291,-0.12097l-3.58227,-1.60584l-0.47126,-0.34346l-2.49391,-0.67403l-2.66514,-3.08596l-1.65776,-1.20819l-0.2005,-0.33702l-0.20382,-0.1019l-0.69606,-0.43962l-2.60688,-1.0862l-3.01673,-0.95987l-0.6647,-0.57406l-0.81072,-0.33781l-1.89474,-1.94736l-3.31018,-1.65509l-1.34725,-0.8509l-1.50003,-0.50001l-0.57484,0.14599l-0.993,-0.15577h-0.40454l-3.90625,-0.39062l-1.77026,-0.56327l-0.29394,-0.04611h-0.01868l-0.61333,0.15577l-0.993,-0.15577h-0.40454l-3.90625,-0.39062l-1.77026,-0.56327l-0.29394,-0.04611h-0.02954l-3.90625,-0.39062l-1.77026,-0.56327l-0.29394,-0.04611h-21.05908l-0.29394,0.04611l-1.77027,0.56327l-3.90625,0.39063h-0.40454l-0.993,0.15577l-0.61333,-0.15577h-16.97827l-0.61333,0.15577l-0.993,-0.15577h-0.40454l-3.90625,-0.39062l-1.77026,-0.56327l-0.29394,-0.04611h-0.02954l-3.90625,-0.39062l-1.77026,-0.56327l-1.83527,-0.28789l-3.66855,-1.39754l-0.36183,-0.18091l-0.684,-0.21764c-0.50603,1.2086 -1.12433,2.28385 -1.86203,3.08385zM377.18503,65l-0.56497,0.17977l-0.36183,0.18091l-3.66855,1.39754l-1.83528,0.28789l-1.77026,0.56327l-0.00507,0.00051l-0.38939,0.14834l-1.83528,0.28789l-1.77026,0.56327l-3.90625,0.39063h-0.40454l-0.993,0.15577l-0.61332,-0.15577h-4.48776l-3.63334,1.0381l-0.41129,0.07426l-0.39335,0.1412l-1.75089,0.43773l-0.4494,0.1712l-0.10483,0.06471l-1.12726,0.40466l-1.11922,0.42637l-0.12171,0.0191l-1.32669,0.47624l-0.59895,0.14974l-0.59694,0.39795l-2.14747,1.14084l-0.23207,0.16914l-0.55256,0.2477l-0.53476,0.28409l-0.27599,0.07935l-2.21895,0.9947l-3,1l-3.82932,0.86469l-0.08711,0.00119l-0.08301,0.02642l-0.51354,0.05136l-2.88092,1.09749l-1.83528,0.28789l-1.77026,0.56327l-3.90625,0.39063h-0.40454l-0.993,0.15577l-0.61332,-0.15577h-3.9322l-2.15124,0.71708l-2.19011,0.49454l-2.18005,0.53712l-5.7233,0.81762l-2.74884,0.68721l-1.92359,0.28151l-0.23355,0.07431l-0.86604,0.08661l-0.86118,0.12602l-0.2446,-0.01545l-0.98345,0.09834l-1.52186,0.30438l-1.52342,0.5078l-3.82932,0.86469l-0.08711,0.00119l-0.08301,0.02642l-1.361,0.1361l-0.03346,0.01274l-1.83528,0.28789l-1.77026,0.56327l-1.361,0.1361l-0.03346,0.01274l-1.83528,0.28789l-1.77026,0.56327l-3.90625,0.39063h-0.40454l-0.993,0.15577l-0.61332,-0.15577h-22.98914l-3.90625,-0.39062l-0.08301,-0.02642l-0.08711,-0.00119l-2.5764,-0.58177h-1.33636l-0.61333,0.15577l-0.993,-0.15577h-0.40454l-3.90625,-0.39062l-1.77026,-0.56327l-1.83527,-0.28789l-2.88092,-1.09749l-0.51354,-0.05136l-0.23355,-0.07431l-1.92359,-0.28151l-1.01425,-0.25356h-0.9115l-0.61333,0.15577l-0.993,-0.15577h-0.40454l-3.90625,-0.39062l-1.77026,-0.56327l-1.44986,-0.22743l-0.05265,0.00333l-0.86119,-0.12602l-0.86604,-0.08661l-0.23355,-0.07431l-1.92359,-0.28151l-4,-1l-0.70636,-0.25356h-0.23025l-3.90625,-0.39062l-1.77026,-0.56327l-1.83527,-0.28789l-1.925,-0.73333l-0.15867,-0.02489h-0.40454l-3.90625,-0.39062l-1.77026,-0.56327l-1.83527,-0.28789l-2.88092,-1.09749l-0.51354,-0.05136l-0.23355,-0.07431l-1.92359,-0.28151l-4,-1l-0.90469,-0.32476l-0.93761,-0.21172l-4.52343,-1.5078l-3.47378,-0.69476l-1.68076,-0.51452h-0.41634l-1.93443,-0.19344l-0.2446,0.01545l-0.86119,-0.12602l-0.86604,-0.08661l-0.23355,-0.07431l-1.92359,-0.28151l-4,-1l-1.3267,-0.47624l-0.1217,-0.0191l-1.11923,-0.42637l-1.12725,-0.40466l-0.10483,-0.06471l-0.17368,-0.06617l-1.86947,-0.18694l-1.77026,-0.56327l-0.29394,-0.04611h-0.01868l-0.61333,0.15577l-0.993,-0.15577h-0.40454l-3.90625,-0.39062l-1.77026,-0.56327l-1.83527,-0.28789l-0.3894,-0.14834l-0.00507,-0.00051l-0.08301,-0.02642l-0.08711,-0.00119l-3.82932,-0.86469l-2.08915,-0.69638l-0.08279,-0.0207h-7.9115l-0.61333,0.15577l-0.993,-0.15577h-0.40454l-3.90625,-0.39062l-1.77026,-0.56327l-0.29395,-0.04611h-3.02954l-3.90625,-0.39062l-0.08302,-0.02642l-0.08711,-0.00119l-3.09527,-0.69893l-2.73461,-0.27346l-1.77026,-0.56327l-1.83528,-0.28789l-1.99034,-0.75822h-22.52741l-0.10019,0.01572l-0.68993,0.34497l-1.31724,0.5018l-0.10483,0.06471l-1.12725,0.40466l-1.11923,0.42637l-0.0939,0.01473l-0.74023,0.90472l-0.67767,0.67767v7.6338l0.15577,0.61332l-0.15577,0.993v0.40454l-0.39062,3.90625l-0.56327,1.77026l-0.04611,0.29395v7.01868l0.15577,0.61332l-0.15577,0.993v0.40454l-0.39062,3.90625l-0.56327,1.77026l-0.04611,0.29395v6.9519l0.25356,1.01425l0.2815,1.92359l0.07431,0.23355l0.0866,0.86603l0.12603,0.86119l-0.01545,0.2446l0.19344,1.93443v28.98914l0.15577,0.61332l-0.15577,0.99301v0.40454l-0.39062,3.90625l-0.56327,1.77026l-0.04611,0.29395v15.01868l0.15577,0.61332l-0.15577,0.99301v0.40454l-0.39062,3.90625l-0.56327,1.77026l-0.04611,0.29395v1.02954l-0.39062,3.90625l-0.02642,0.08301l-0.00119,0.08711l-0.58177,2.5764v10.8451l0.75822,1.99034l0.28789,1.83527l0.56327,1.77026l0.00051,0.00507l0.14834,0.3894l0.28789,1.83527l0.56327,1.77026l0.39063,3.90625v0.40454l0.15577,0.993l-0.15577,0.61333v0.48701l0.75822,1.99034l0.28789,1.83527l0.56327,1.77026l0.39063,3.90625v0.40454l0.15577,0.993l-0.03822,0.15048l0.49183,1.54574l0.12426,1.24256l0.14137,0.16369l0.96683,3.0386l1.46496,2.83227l0.1184,1.61814l1.2489,3.27836l0.20091,0.23263l0.51857,1.62978l0.24947,0.46958l0.93754,3.26101l1.0288,3.23337l0.00051,0.00507l0.14834,0.3894l0.16168,1.03068l0.21496,0.74767l-0.03014,0.24111l0.50466,1.58608l0.1361,1.361l0.01274,0.03347l0.28789,1.83527l0.56327,1.77026l0.39063,3.90625v0.40454l0.15577,0.993l-0.15577,0.61333v15.07904l2.02914,2.08551l2.47036,1.56023l0.06243,0.06075l0.07738,0.04003l0.19994,0.16359h0.50796l2.5764,-0.58177l0.08711,-0.00119l0.08302,-0.02642l3.2254,-0.32254l2.16906,-0.8263l1.70365,-0.26724l0.16882,-0.13813l0.39315,-0.20335l1.74617,-1.50806l3.03861,-0.96683l2.83227,-1.46497l1.5709,-0.11495l6.07931,-3.03965l0.47892,-0.41361l0.67473,-0.21469l0.84985,-0.87344l0.81072,-0.33781l0.6647,-0.57406l3.01673,-0.95987l0.68967,-0.28736l0.81818,-0.84091l1.71128,-0.71303l1.08381,-0.68451l4,-2l1.65681,-0.63117l0.99993,-0.44824l0.23908,-0.19561l2.8631,-2.78572l0.5,-0.51389l0.09002,-0.11003l0.07317,-0.46644l-1.14747,-14.77111l-0.03279,-0.01093l-0.96776,-0.09678l-1.77026,-0.56327l-1.83527,-0.28789l-0.3894,-0.14834l-0.00507,-0.00051l-0.08301,-0.02641l-0.08711,-0.00119l-3.82932,-0.86469l-2.08915,-0.69638l-0.80123,-0.20031l-2.11018,-0.21102l-1.77026,-0.56327l-1.83528,-0.28789l-3.66855,-1.39754l-0.36183,-0.18091l-0.95782,-0.30477l-0.47892,-0.4136l-0.20143,-0.10072l-3.31916,-2.09632l-0.06244,-0.06075l-0.07738,-0.04003l-3.03835,-2.48592l-1.29794,-1.29794l-0.99981,-0.41659l-3.44599,-3.54171l-3.54172,-3.446l-0.71303,-1.71128l-0.68451,-1.08381l-1.10071,-2.20143l-0.41361,-0.47892l-0.30477,-0.95783l-0.18091,-0.36183l-1.39754,-3.66855l-0.07879,-0.50232l-0.52366,-0.82913l-2.10071,-4.20143l-0.41361,-0.47892l-0.30477,-0.95783l-0.18091,-0.36183l-1.39754,-3.66855l-0.28789,-1.83527l-0.56327,-1.77026l-0.05136,-0.51354l-1.09749,-2.88092l-0.28789,-1.83527l-0.56327,-1.77026l-0.39062,-3.90625v-0.40454l-0.15577,-0.99301l0.15577,-0.61332v-22.97827l-0.15577,-0.61333l0.15577,-0.993v-0.40454l0.39063,-3.90625l0.56327,-1.77026l0.04611,-0.29395v-0.02954l0.39063,-3.90625l0.56327,-1.77026l0.28789,-1.83527l1.39754,-3.66855l0.18091,-0.36183l0.30477,-0.95783l0.41361,-0.47892l0.30615,-0.6123l0.43816,-1.31448l0.72523,-1.61784l0.63116,-1.6568l1.06668,-2.13336l-0.03646,-0.18015l0.41008,-0.98419l0.16216,-1.03375l1.39754,-3.66855l0.18091,-0.36183l0.30477,-0.95782l0.41361,-0.47892l0.10071,-0.20143l0.68451,-1.08381l0.71303,-1.71128l3.54172,-3.44599l3.44599,-3.54171l1.71128,-0.71304l1.08381,-0.68451l4.20143,-2.10071l0.47892,-0.41361l0.95782,-0.30477l0.36183,-0.18091l3.66855,-1.39754l1.83528,-0.28789l1.77026,-0.56327l3.90625,-0.39062h0.40454l0.993,-0.15577l0.61333,0.15577h12.97827l0.61333,-0.15577l0.993,0.15577h0.40454l3.90625,0.39063l1.77027,0.56327l1.83527,0.28789l0.3894,0.14834l0.00506,0.00051l1.77027,0.56327l0.29394,0.04611h0.02954l3.90625,0.39063l0.08302,0.02642l0.08711,0.00119l2.2251,0.50245l0.30098,-0.07644l0.993,0.15577h0.40454l3.90625,0.39063l1.77027,0.56327l0.29394,0.04611h0.02954l3.90625,0.39063l1.77027,0.56327l1.83527,0.28789l0.03347,0.01274l1.36099,0.1361l1.77027,0.56327l1.83527,0.28789l0.3894,0.14834l0.00506,0.00051l1.77027,0.56327l1.83527,0.28789l0.3894,0.14834l0.00506,0.00051l1.77027,0.56327l1.83527,0.28789l3.66855,1.39754l0.36184,0.18091l0.95782,0.30477l0.16369,0.14137l1.24256,0.12426l1.77027,0.56327l0.29394,0.04611h13.05908l0.29394,-0.04611l1.77026,-0.56327l3.90625,-0.39062h0.40454l0.993,-0.15577l0.61333,0.15577h24.97827l0.61333,-0.15577l0.993,0.15577h0.40454l3.90625,0.39063l1.77027,0.56327l0.29394,0.04611h0.02954l3.90625,0.39063l1.77027,0.56327l0.29394,0.04611h0.01868l0.61333,-0.15577l0.993,0.15577h0.40454l3.90625,0.39063l1.77026,0.56327l0.29395,0.04611h1.01868l0.61332,-0.15577l0.993,0.15577h0.40454l3.90625,0.39063l1.77026,0.56327l1.83528,0.28789l2.88092,1.09749l0.51354,0.05136l0.4218,0.13421l2.30108,0.16837l2.83227,1.46496l3.0386,0.96683l1.74617,1.50805l0.39315,0.20336l1.4253,1.16615l0.84108,0.28036l3.58226,1.60585l0.35771,0.26071l2.12975,0.8874l0.40144,0.41259l2.12313,0.67554l1.74617,1.50805l0.39315,0.20336l1.67327,1.36903l4.86775,2.43388l1.05836,0.66843l2.21443,0.5985l1.89363,2.19262l0.11464,0.0593l3.0386,0.96683l1.74617,1.50806l0.39315,0.20335l1.67327,1.36903l4.86775,2.43388l1.31434,0.83011l1.37283,0.72931l3,2l1.90357,1.56365l1.9066,1.55994l0.24956,0.24957l0.44528,0.29685l3.66658,2.19995l3.14124,1.57062l3.31916,2.09632l0.06243,0.06075l0.07738,0.04003l1.05788,0.86553l0.75592,0.20431l1.2192,1.41171l0.00534,0.00437l2,2l2.48592,3.03835l0.20335,0.39316l1.50806,1.74616l0.66943,2.10393l0.61916,0.75675l0.85348,1.65006l1.09417,1.50131l1.01063,2.25449l0.5558,0.55579l1.55994,1.9066l1.56364,1.90357l2.45202,3.67802l1.12859,0.74867l1.43508,3.48519l0.82609,1.55499l0.42987,1.49519l1.6324,3.96438l-0.02241,1.63557l0.45197,1.57205l-0.53178,4.25421l-0.0213,1.55561l-0.38784,1.71756l-0.19393,1.55145v22.64375l0.15577,0.61332l-0.15577,0.99301v0.40454l-0.39062,3.90625l-0.56327,1.77026l-0.04611,0.29395v2.02954l-0.19344,1.93443l0.01545,0.2446l-0.12602,0.86118l-0.08661,0.86604l-0.07431,0.23355l-0.2815,1.92359l-0.25357,1.01425v2.92236l-0.39062,3.90625l-0.02641,0.08301l-0.00119,0.08711l-0.69894,3.09527l-0.27346,2.7346l-0.56327,1.77026l-0.28789,1.83528l-0.14834,0.3894l-0.00051,0.00506l-0.56327,1.77026l-0.28789,1.83528l-0.75822,1.99033v3.52742l0.04611,0.29395l0.56327,1.77026l0.09678,0.96776l0.01093,0.0328l0.86469,3.82932l0.00119,0.08711l0.02641,0.08301l0.39063,3.90625v3.84099l0.58058,2.01939l1.0288,3.23338l0.05291,0.52909l0.47257,1.64372l-0.05509,0.4407l0.67845,1.78095l0.07491,0.47751l1.34722,0.6736l1.08381,0.68451l1.71128,0.71303l1.6367,1.68216l2.67264,1.06906l0.40689,0.21191h14.33789l0.29395,-0.04611l1.77026,-0.56327l3.90625,-0.39062h0.40454l0.993,-0.15576l0.61333,0.15576h5.01867l0.29395,-0.04611l1.77026,-0.56327l0.51354,-0.05135l0.86917,-0.33112l0.30276,-0.13572l0.17467,-0.54895l0.28789,-1.83528l1.06694,-2.80071l0.43772,-1.75089l0.32477,-0.90469l0.21172,-0.93761l0.01093,-0.0328l0.09677,-0.96776l0.56327,-1.77026l0.04611,-0.29395v-0.02954l0.39063,-3.90625l0.02641,-0.08301l0.00119,-0.08711l0.86469,-3.82932l0.69638,-2.08915l0.20031,-0.80123l0.01384,-0.13836l-0.01545,-0.2446l0.12603,-0.86118l0.0866,-0.86604l0.07431,-0.23355l0.2815,-1.92359l1.2665,-5.06601l0.37768,-3.77685l0.24977,-0.78498l0.05964,-0.8216l1.08806,-3.77193l0.45385,-1.13465l0.14869,-1.48684l0.24977,-0.78498l0.05964,-0.8216l1.08806,-3.77193l1.72715,-4.31789l0.76768,-2.30304l0.30113,-0.67175l0.20404,-0.70732l1.21191,-3.0298v-4.71498l-0.04611,-0.29395l-0.56327,-1.77026l-0.39062,-3.90625v-0.40454l-0.15576,-0.99301l0.15576,-0.61332v-3.33636l-0.58177,-2.5764l-0.00119,-0.08711l-0.02641,-0.08301l-0.39062,-3.90625v-21l0.24512,-2.45121l0.24037,-2.45169l0.60961,-3.04807l0.11011,-1.1011l0.13494,-2.0579l0.65985,-3.95909v-2.93094l0.39063,-3.90625l0.02641,-0.08301l0.00119,-0.08711l0.58177,-2.5764v-7.87174l-0.51451,-2.57259l-0.24037,-2.45169l-0.24512,-2.45121v-24.52451l-0.51451,-2.57259l-0.14269,-1.45542l-1.75103,-4.6694l-0.4226,-1.59433l-0.52895,-1.56227l-3,-13l-0.24624,-1.92648l-0.33044,-1.91383l-2,-28l0.02532,-0.89263l-0.08886,-0.88855v-4.96591l-0.5,-0.15909l-0.69087,-0.59666l-2.20976,-0.63531l-0.46958,-0.24947l-1.62979,-0.51857l-0.51109,-0.44139l-3.47712,1.32462l-1.83528,0.28789l-1.77026,0.56327l-3.90625,0.39063h-0.40454l-0.993,0.15577l-0.61332,-0.15577z"/></g></g></svg>