<svg version="1.1" xmlns="http://www.w3.org/2000/svg" xmlns:xlink="http://www.w3.org/1999/xlink" width="450.9945" height="327.4427" viewBox="0,0,450.9945,327.4427"><g transform="translate(-9.97806,-15.82247)"><g data-paper-data="{&quot;isPaintingLayer&quot;:true}" fill="#b3b3b3" fill-rule="nonzero" stroke="none" stroke-width="0" stroke-linecap="butt" stroke-linejoin="miter" stroke-miterlimit="10" stroke-dasharray="" stroke-dashoffset="0" style="mix-blend-mode: normal"><path d="M57.11579,31.65237l1.81229,-0.2641l1.74814,-0.5167l3.85729,-0.3584h0.39955l0.98058,-0.1429l0.60557,0.1429h13.82709l3.85729,0.3584l0.08202,0.0242l0.08601,0.0011l2.06136,0.4325h6.86178l0.60567,-0.1429l0.98058,0.1429h0.39945l3.85729,0.3583l1.74813,0.5168l1.81229,0.2641l3.62265,1.2821l0.34497,0.1603l1.30327,0.1899l0.84076,0.2975l0.86089,0.2545l1.81229,0.2641l0.24369,0.0863l3.65924,0.7676l1.29681,0.4016l1.8054,-0.3787l0.086,-0.0011l0.08191,-0.0242l3.8574,-0.3584h0.47479l0.56553,-0.1314l1.89958,-0.2582l0.23056,-0.0682l0.85528,-0.0794l0.85034,-0.1156l0.24154,0.0141l1.71326,-0.1592l1.61047,-0.476l0.76261,-0.0709l3.46108,-3.1286l0.12013,-0.1146l2.26232,-2.569l1.75697,-1.6323l3.00028,-2.2806l0.07643,-0.0367l0.06167,-0.0557l3.27756,-1.9232l0.54551,-0.2534l1.30973,-0.9956l0.38825,-0.1865l1.72435,-1.3835l3.0005,-0.887l2.79685,-1.344l2.27222,-0.1545l0.41656,-0.1231l0.81621,-0.0758l3.40822,-0.715l0.08601,-0.0011l0.08202,-0.0243l3.85729,-0.3583h6.14943l3.85729,0.3583l0.08202,0.0243l0.086,0.0011l2.06147,0.4324h5.98324l0.60557,-0.1429l0.98057,0.1429h0.39955l3.85729,0.3584l1.54869,0.4578h1.39315l0.60568,-0.1429l0.98047,0.1429h0.39955l3.85729,0.3583l1.74814,0.5168l1.01717,0.1482l1.62716,0.1512l0.08191,0.0242l0.08611,0.0011l3.7813,0.7933l1.47033,0.4553h0.38631l3.85729,0.3584l0.08202,0.0242l0.08601,0.0011l3.78141,0.7933l10.34061,3.2023l0.64421,0.0599l1.74814,0.5167l1.81229,0.2641l3.62253,1.2821l0.35735,0.166l0.94581,0.2796l0.47296,0.3795l5.25185,2.4395l3.27756,1.9232l0.06167,0.0558l0.07643,0.0367l2.16394,1.6449l1.21189,0.7111l0.06168,0.0557l0.07642,0.0367l0.37351,0.284l0.90695,0.3777l0.35326,0.2392l2.10302,0.8141l2.19591,2.0967l2.54465,1.723l0.73354,1.1455l0.16845,0.1043l0.38222,0.1776l3.27767,1.9231l0.06156,0.0558l0.07643,0.0367l3.00028,2.2806l1.33342,1.2388l0.79921,0.4689l1.80045,1.6276l0.54196,0.4027l1.53243,0.5932l2.19581,2.0967l2.3959,1.6223l0.31828,0.1867l0.06157,0.0557l0.07642,0.0368l1.30973,0.9955l0.54551,0.2534l1.07024,0.628l1.68991,0.6541l3.40285,3.2493l3.49735,3.1614l0.4271,0.9524l0.72095,0.548l2.57157,2.389l0.80039,0.3099l1.1288,1.0778l1.80669,0.5341l1.72435,1.3835l0.38815,0.1866l0.17265,0.1311l1.76374,0.6828l2.97897,0.8806l0.21538,0.1728l0.86465,-0.0587l0.23185,-0.1763l0.07642,-0.0368l0.06167,-0.0557l2.12616,-1.2475l2.78382,-2.6581l0.5567,-0.2155l0.26092,-0.3839l0.05996,-0.0573l0.03961,-0.071l1.77052,-2.0105l0.76541,-1.1258l0.30472,-0.2911l1.16496,-1.8191l2.54466,-1.723l2.1958,-2.0967l1.26754,-0.4906l1.22599,-1.3921l1.75696,-1.6323l3.00029,-2.2806l0.07642,-0.0368l0.06167,-0.0557l3.27756,-1.9232l5.27089,-2.4484l0.96034,-0.3399l0.91147,-0.4411l4.39247,-1.6323l0.69846,-0.1871l0.66336,-0.2763l5.64838,-1.7492l0.76315,-0.4727l0.31883,-0.1573l1.03159,-0.8278l1.6094,-0.4757l0.4637,-0.2289l3.02666,-0.8084l1.21641,-0.8476l3.31728,-1.8635l0.08126,-0.0263l0.06953,-0.047l3.53739,-1.4733l1.03784,-0.3214l0.97013,-0.4661l1.48249,-1.0038l3.5374,-1.4733l0.37899,-0.1173l0.88165,-0.4237l0.62312,-0.0423l3.38713,-1.049l0.9259,-0.1942l0.89339,-0.2979l3.51393,-0.8162l1.89947,-0.2582l0.23067,-0.0682l0.85518,-0.0795l0.85033,-0.1156l0.24154,0.0142l1.91024,-0.1775h1.52824l0.60567,-0.1429l0.98057,0.1429h0.39945l3.85739,0.3584l1.74803,0.5167l1.81229,0.2641l0.88381,0.3128l0.00161,0.0001l0.00366,0.0018l2.73356,0.9675l0.35735,0.1659l0.94581,0.2796l0.48372,0.3882l3.24774,1.9056l0.06157,0.0557l0.07643,0.0368l3.00028,2.2806l7.9064,7.3453l2.45477,2.7875l0.03951,0.0709l0.06006,0.0573l2.07008,3.0451l0.84377,1.5679l0.68124,0.6328l2.45477,2.7874l0.0395,0.071l0.05996,0.0573l2.07008,3.0451l0.87853,1.6323l0.62322,1.5199l0.71622,1.4843l1.00426,2.7992l0.5088,0.709l0.7202,1.2594l0.81966,1.2058l0.27276,0.5068l1.07164,1.2168l0.0395,0.071l0.05995,0.0573l2.07009,3.045l1.45052,2.6952l3.17401,5.1604l0.27964,0.5827l0.36672,0.5394l3.08995,5.7414l1.49239,2.3109l0.81869,1.0141l0.51644,0.4797l2.45478,2.7874l0.0395,0.071l0.05996,0.0573l2.07008,3.045l1.75696,3.2646l0.62322,1.52l0.71622,1.4843l1.75696,4.8969l0.20903,0.8601l0.32076,0.83l0.37275,1.3854l0.89501,2.1827l0.28438,1.6837l0.55616,1.6241l0.38578,3.5837v0.3711l0.15381,0.911l-0.15381,0.5627v26.7204l-0.38578,3.5837l-0.02605,0.0761l-0.00118,0.08l-0.46553,1.9151v8.2197l-0.20269,1.8826l-0.13326,1.8879l-0.87842,4.8969l-0.10451,0.3582l-0.03896,0.3693l-0.87854,4.0807l-0.17233,0.5233l-0.08535,0.5414l-0.87843,3.2646l-0.32076,0.83l-0.20903,0.8602l-1.4572,4.0612l-0.64852,2.4101l-0.32065,0.83l-0.20914,0.8602l-0.6454,1.7988l-0.17814,0.5758l-0.05231,0.4854l-1.01588,2.9664l-0.92579,2.9917l-0.1,0.1749l-0.20806,1.1592v19.3218l-0.19095,1.7746l0.01528,0.2244l-0.12453,0.7901l-0.08546,0.7945l-0.0734,0.2143l-0.27792,1.7647l-0.20871,0.7754l-0.3185,2.9587l-0.02605,0.0761l-0.00118,0.0799l-0.85389,3.5131l-0.49007,1.366v0.3589l-0.38577,3.5836l-0.55616,1.6241l-0.15952,0.945l-0.16274,1.5117l-0.55627,1.624l-0.28427,1.6837l-1.38002,3.3656l-0.17868,0.332l-0.30095,0.8787l-0.23379,0.2515l-0.2396,0.5567l-0.43399,2.0159l-0.70287,2.1332l-0.04403,0.2602l-0.2128,0.5192l-0.17502,0.5312l-0.13735,0.2305l-0.85486,2.0847l-0.54507,1.0127l-0.22119,0.8222l-1.30973,3.3897l-0.18385,0.2767l-0.09677,0.3126l-1.81875,3.1806l-1.75696,2.4484l-1.54406,1.7464l-0.85615,0.9721l-0.76541,1.1259l-0.05996,0.0573l-0.03951,0.071l-2.45488,2.7874l-3.51393,3.2646l-3.00028,2.2806l-0.07642,0.0367l-0.06157,0.0558l-3.24774,1.9056l-0.48372,0.3881l-0.94581,0.2796l-0.35735,0.166l-2.73356,0.9675l-0.00366,0.0018l-0.00161,0.0001l-0.88381,0.3127l-1.81229,0.2641l-0.86088,0.2545l-0.84076,0.2976l-1.81229,0.2641l-1.74803,0.5167l-1.72048,0.1599l-0.50052,0.1162l-0.07157,0.0222l-0.18783,0.0872l-3.62253,1.2821l-1.8124,0.2641l-1.74803,0.5168l-1.43965,0.1337l-2.02788,0.7177l-1.81229,0.2641l-1.74803,0.5168l-0.74797,0.0695l-0.8358,0.5176l-0.31871,0.1573l-1.0317,0.8278l-1.6094,0.4757l-0.4637,0.2289l-3.22008,0.8601l-3.19295,0.9438l-0.52247,0.0486l-1.62317,0.4335l-0.64141,-0.0745l-0.3537,0.0822l-1.89947,0.2582l-0.23066,0.0682l-0.85518,0.0794l-0.85044,0.1157l-0.24154,-0.0142l-1.91013,0.1775h-12.29875l-1.91024,-0.1775l-0.24154,0.0142l-0.85044,-0.1157l-0.85518,-0.0794l-0.23066,-0.0682l-1.89948,-0.2582l-1.42028,-0.3299l-1.72047,-0.1599l-0.7751,-0.2291l-0.81137,-0.0547l-3.72468,-0.9982l-4.39247,-1.6323l-0.17158,-0.083l-1.59152,-0.232l-3.62264,-1.2821l-0.35735,-0.166l-0.94581,-0.2796l-0.13196,-0.1059l-0.40773,-0.105l-1.34256,-0.9978l-1.84921,-1.085l-1.80045,-1.6276l-1.96169,-1.458l-1.38831,-1.5702l-1.23224,-1.1138l-0.38481,-0.8581l-1.21231,-1.6894l-0.7202,-1.2594l-0.81966,-1.2058l-0.76143,-1.4149l-1.29982,-1.6101l-2.00583,-3.082l-0.02841,-0.0754l-0.05059,-0.0646l-1.4461,-2.997l-3.83921,-3.5667l-1.21566,-1.3804l-0.18158,-0.1487l-0.51333,-0.6404l-0.54421,-0.618l-0.11119,-0.1997l-1.14656,-1.4304l-1.07185,-1.6597l-2.24348,-2.0843l-1.5404,-1.7491l-1.54406,-1.7464l-3.51393,-4.8969l-1.12654,-1.9701l-0.16705,-0.2129l-0.24455,-0.5069l-0.24746,-0.4328l-0.22012,-0.2499l-0.11119,-0.1998l-1.14666,-1.4304l-1.26786,-1.9632l-0.95238,-1.0814l-1.54406,-1.7464l-0.40095,-0.5588l-0.90695,-0.8426l-1.5404,-1.7491l-1.54406,-1.7464l-0.40105,-0.5588l-2.66391,-2.4749l-1.5404,-1.7491l-1.54405,-1.7464l-0.40095,-0.5588l-1.78549,-1.6588l-1.10867,-1.2588l-1.18455,-1.1977l-2.6355,-3.2646l-0.35531,-0.546l-0.43582,-0.493l-2.15803,-3.0072l-2.66391,-2.4749l-1.5404,-1.7492l-1.54406,-1.7463l-1.3769,-1.9188l-1.17163,-1.4513l-1.39487,-1.2959l-2.45478,-2.7874l-0.0395,-0.071l-0.06007,-0.0573l-0.50471,-0.7424l-2.21184,-2.055l-1.5404,-1.7491l-0.92503,-1.0463l-1.64944,-1.2259l-2.58717,-2.3514l-0.07115,-0.0528l-0.05307,-0.06l-0.05974,-0.0543l-0.05048,-0.0704l-2.29741,-2.5983l-0.40095,-0.5588l-0.90696,-0.8426l-1.21565,-1.3804l-0.18159,-0.1486l-0.51332,-0.6405l-0.54422,-0.6179l-0.11119,-0.1998l-1.14656,-1.4304l-1.07185,-1.6597l-0.48652,-0.4519l-1.5404,-1.7492l-1.54405,-1.7463l-1.75697,-2.4485l-0.22723,-0.3974l-0.20225,-0.1878l-2.45477,-2.7875l-0.20085,-0.3606l-1.48917,-1.602l-0.95474,-2.7877l-4.56383,-7.153l-8.38904,-11.1099l-6.51809,-11.5385l-0.86669,-4.9737l-9.54302,3.4213l-4.02639,5.2455l-3.18983,5.7136l-0.40471,0.752l-0.26738,0.8958l-1.074,1.2472l-1.16787,1.718l-1.7519,1.6728l-1.2642,1.4682l-0.35725,0.6636l-0.2044,1.2109l-0.89167,2.1744l-0.02486,0.2309l-0.49266,1.4387v3.1391l-0.38577,3.5837l-0.02605,0.0761l-0.00118,0.0799l-0.85388,3.5131l-0.87853,2.4485l-0.46833,0.9706l-0.08525,0.2489l-0.28427,1.6837l-0.895,2.1828l-0.37275,1.3853l-0.66638,1.7245l-0.59265,1.7476l-2.51689,5.456l-3.40209,7.9018l-0.5468,0.9754l-0.01497,0.0483l-0.61924,1.083l-0.60976,1.0876l-0.03445,0.0388l-0.5553,0.9712l-0.5088,0.709l-1.8828,5.2477l-0.29729,0.6162l-0.20149,0.6489l-1.75697,4.0808l-0.47479,0.8468l-0.36586,0.8922l-0.97228,1.8067l-0.32366,0.9022l-0.56941,1.18l-0.02809,0.11l-0.50449,0.9937l-0.48383,1.0027l-0.07158,0.0913l-0.59383,1.1696l-2.6355,4.0808l-0.35176,0.4388l-0.27631,0.4833l-10.54179,14.6907l-0.85485,0.9668l-0.24251,0.424l-0.24455,0.5069l-0.16706,0.2129l-1.12653,1.9701l-0.09892,0.1378l-1.243,2.5761l-1.08047,1.3773l-0.8428,1.5138l-0.31107,0.3533l-0.19267,0.4474l-0.13961,0.249l-0.09074,0.2677l-2.6355,5.7131l-0.86346,1.4527l-0.07201,0.1919l-0.48523,0.7455l-0.45326,0.7626l-0.14305,0.1538l-0.19601,0.3011l-0.04187,0.2657l-0.14144,0.5254v3.4399l0.5426,3.0245l0.13326,1.888l0.20268,1.8826c0,0 -6.54628,20.2009 -6.54628,20.9783c0,1.2536 6.24609,4.663 6.24609,4.663l-0.08557,0.7946l-0.07341,0.2142l-0.27792,1.7647l-0.14144,0.5255v1.2573l-0.38566,3.5836l-0.24671,0.7202l-0.05888,0.7537l-1.07444,3.4604l-0.91513,2.1257l-0.434,2.0159l-0.70287,2.1331l-0.04403,0.2603l-0.17749,0.433l-0.1592,2.0218l-1.44664,2.5984l-0.95475,2.7877l-1.48916,1.6019l-0.20085,0.3607l-2.45478,2.7874l-0.07061,0.0656l-0.06996,0.2408l-1.38702,1.1129l-0.45875,0.4261l-1.19778,1.2886l-0.25919,0.0651l-0.07061,0.0655l-3.00029,2.2806l-0.38825,0.1866l-1.72435,1.3835l-3.00049,0.887l-2.79685,1.344l-2.27223,0.1545l-0.41655,0.1231l-1.62716,0.1512l-1.01717,0.1482l-1.74803,0.5167l-3.8574,0.3584h-0.39945l-0.20225,0.0295l-0.43862,0.1019l-1.89959,0.2582l-0.23056,0.0682l-0.85517,0.0794l-0.85045,0.1157l-0.24154,-0.0142l-1.91024,0.1775h-7.90628l-3.8574,-0.3584l-0.08191,-0.0242l-0.08611,-0.0011l-3.7813,-0.7933l-1.47033,-0.4553h-0.38631l-3.85729,-0.3584l-0.08202,-0.0242l-0.086,-0.0011l-3.78141,-0.7933l-1.73598,-0.5376l-6.10809,-1.4187l-0.89339,-0.2979l-0.55272,-0.116l-0.81621,-0.0758l-0.41645,-0.1231l-2.27233,-0.1545l-2.79674,-1.344l-3.0006,-0.887l-1.72424,-1.3835l-0.38825,-0.1865l-0.3735,-0.284l-0.90706,-0.3777l-1.48249,-1.0038l-1.62942,-0.783l-3.00028,-2.2806l-0.28244,-0.2624l-0.80212,-0.5432l-0.31958,-0.4989l-1.58421,-1.4718l-0.53701,-0.2968l-0.58458,-0.7452l-0.28254,-0.2625l-2.45478,-2.7874l-0.79705,-1.4316l-0.38728,-0.4167l-2.24058,-2.0254l-0.33357,-0.7437l-0.56693,-0.6098l-0.81804,-2.3888l-1.41856,-2.0865l-0.42312,-0.7863l-1.71068,-1.5464l-0.70416,-1.5699l-0.65702,-0.9665l-0.41774,-0.4494l-0.30096,-0.8788l-0.17867,-0.3319l-0.90781,-2.2139l-0.60288,-0.7685l-1.58572,-3.2864l-0.12636,-0.3521l-0.45595,-0.8191l-0.04564,-0.5789l-0.25047,-0.6984l-0.85388,-3.513l-0.00118,-0.0799l-0.02615,-0.0762l-0.23928,-2.2232l-0.61192,-2.5176l-0.00118,-0.0799l-0.02605,-0.0762l-0.38577,-3.5837v-56.3144l0.19106,-1.7746l-0.01529,-0.2244l0.12443,-0.7901l0.08557,-0.7945l0.07341,-0.2143l0.27792,-1.7647l0.14143,-0.5254v-6.9704l0.38567,-3.5836l0.02615,-0.0762l0.00118,-0.0799l0.46542,-1.9152v-23.7846l-0.46542,-1.9152l-0.00118,-0.0799l-0.02615,-0.0762l-0.31538,-2.9304l-0.56047,-1.5619l-0.85378,-3.5131l-0.00118,-0.0799l-0.02616,-0.0762l-0.18987,-1.7644l-0.68598,-1.9118l-0.85378,-3.5131l-0.00118,-0.0799l-0.02616,-0.0761l-0.38567,-3.5837v-17.9553l0.38567,-3.5836l0.02616,-0.0762l0.00118,-0.0799l0.46543,-1.9152v-0.8743l0.38577,-3.5836l0.02604,-0.0762l0.00118,-0.0799l0.85389,-3.5131l0.56047,-1.562l0.31537,-2.9303l0.55617,-1.6241l0.12239,-0.7246l-0.01001,-0.1475l0.12443,-0.7901l0.08558,-0.7945l0.0733,-0.2143l0.27802,-1.7647l0.14133,-0.5254v-12.6834l0.38577,-3.5837l0.02605,-0.0761l0.00118,-0.0799l0.46553,-1.9152v-20.4851l-0.02917,-0.0241l-2.76014,-10.0967l1.38012,-8.1736l0.89156,-2.1744l0.02487,-0.2309l0.26867,-0.7845l-0.10226,-0.4694l0.52495,-1.1704l0.14919,-0.8834l1.38002,-3.3656l0.17868,-0.332l0.30095,-0.8787l0.41774,-0.4494l0.65702,-0.9665l0.70416,-1.57l3.49735,-3.1614l3.40284,-3.2492l1.22717,-0.475l1.63114,-1.2399l0.07643,-0.0367l0.06168,-0.0558l3.27755,-1.9232l7.02786,-3.2646l0.76228,-0.2697l0.21453,-0.1631l0.07642,-0.0367l0.06157,-0.0557l3.27767,-1.9232l1.73791,-0.8073l0.47285,-0.3794l0.94581,-0.2796l0.35736,-0.166l3.62264,-1.2821l1.81229,-0.2641l1.74803,-0.5168l0.24854,-0.0231zM64.62306,79.56537v27.7491l-0.38577,3.5837l-0.02605,0.0761l-0.00119,0.0799l-0.46553,1.9152v12.3004l-0.19106,1.7747l0.01528,0.2244l-0.12443,0.7901l-0.08557,0.7945l-0.0733,0.2142l-0.27802,1.7648l-0.2086,0.7754l-0.3185,2.9586l-0.51246,1.4963l-0.36607,3.4006l-0.02605,0.0762l-0.00119,0.0799l-0.85388,3.5131l-0.49007,1.366v0.3588l-0.38577,3.5837l-0.02605,0.0761l-0.00118,0.0799l-0.46553,1.9152v10.6439l0.53076,1.2943l0.28427,1.6837l0.55627,1.6241l0.35359,3.2849l0.17351,0.4492l0.87854,3.2645l0.27792,1.7648l0.07341,0.2142l0.08546,0.7946l0.12443,0.79l-0.01517,0.2244l0.04456,0.4142l0.61192,2.5177l0.00118,0.0799l0.02605,0.0761l0.38578,3.5837v30.1976l-0.38578,3.5836l-0.02605,0.0762l-0.00118,0.0799l-0.46542,1.9151v6.5874l-0.19105,1.7747l0.01528,0.2244l-0.12454,0.79l-0.08546,0.7945l-0.07341,0.2143l-0.27792,1.7647l-0.14144,0.5255v50.2845l0.08428,0.3465l0.3438,0.3699l0.57478,1.6785l1.16022,1.0487l0.87628,1.9538l0.25747,0.3282l1.08401,2.2467l0.50665,0.5753l0.20074,0.3606l1.48927,1.602l0.15898,0.4644l0.69749,0.6305l0.25876,0.577l0.00355,0.0011l6.10809,1.4187l0.20301,0.0677l0.33583,-0.0793l0.98058,0.1429h0.39944l3.85729,0.3584l1.74814,0.5168l0.79598,0.116l0.04424,-0.4109l0.07331,-0.2143l0.27802,-1.7647l0.14143,-0.5255v-18.1305l-0.5426,-3.0246l-0.13326,-1.8879l-0.20268,-1.8826v-8.1615l0.19106,-1.7747l-0.01529,-0.2244l0.12443,-0.7901l0.08557,-0.7945l0.07331,-0.2142l0.27802,-1.7648l0.73602,-2.7351l0.31677,-1.4714l-0.03293,-0.4431l0.30096,-0.8018l0.17846,-0.8293l1.13471,-3.4437l0.78424,-1.3166l0.53323,-1.4209l2.00582,-3.082l0.54616,-0.6765l0.44249,-0.743l0.05199,-0.0375l1.17034,-2.5371l0.55681,-1.2932l0.00721,-0.0915l0.14208,-0.2553l0.93903,-2.1811l1.79076,-3.1942l0.70771,-0.799l0.51171,-0.9191l0.22012,-0.2499l0.24746,-0.4328l0.24456,-0.5069l0.16705,-0.2129l1.12654,-1.9702l0.09892,-0.1378l1.243,-2.576l1.08046,-1.3774l0.8428,-1.5138l2.45478,-2.7874l0.02842,-0.0264l8.86006,-12.347l0.93892,-1.4539l0.02152,-0.06l0.71612,-1.4842l0.62332,-1.52l1.29767,-2.4113l1.10619,-2.5692l2.40613,-6.706l0.71611,-1.4842l0.62322,-1.52l0.87854,-1.6323l0.81965,-1.2058l0.7202,-1.2594l0.3312,-0.4615l2.55918,-5.9442l0.13961,-0.249l0.09085,-0.2677l1.8562,-4.0239l0.39869,-1.4817l0.47026,-1.2172l0.01895,-0.1116l0.32022,-0.7811l0.27394,-0.7998l0.28427,-1.6837l0.53076,-1.2944v-0.5794l-0.15381,-0.5626l0.15381,-0.911v-0.3712l0.38567,-3.5836l0.55627,-1.6241l0.28427,-1.6837l0.09278,-0.2264l0.82634,-3.3995l0.87843,-2.4485l0.46833,-0.9706l0.08525,-0.2489l0.28438,-1.6837l1.38002,-3.3656l0.17868,-0.332l0.30096,-0.8787l0.40837,-0.4393l3.0653,-5.6956l0.26726,-0.8957l1.074,-1.2473l1.16787,-1.718l1.7519,-1.6728l1.56935,-1.8225l0.12615,-0.0962l0.41484,-0.7256l1.75696,-2.4484l1.54417,-1.7464l1.5404,-1.7491l3.86192,-3.5879l0.77811,-2.272l0.56681,-0.6098l0.33357,-0.7438l2.24058,-2.0253l4.18795,-4.5052l0.73818,-0.1853l0.92945,-0.6908l1.80056,-1.6276l0.7991,-0.4689l1.33341,-1.2388l0.97186,-0.7387l0.57898,-0.9042l2.54466,-1.723l2.1958,-2.0967l2.10313,-0.8141l0.35326,-0.2391l3.5374,-1.4733l2.63539,-0.8161l0.01292,-0.0027l1.70831,-0.6613l0.76143,0.1432l1.29875,-0.2725l0.086,-0.0011l0.08202,-0.0242l3.85729,-0.3584h8.78482l0.35918,0.0334l1.35257,-0.1571l1.62317,0.4335l0.52248,0.0486l3.19284,0.9438l3.22019,0.8601l0.4637,0.2289l1.6094,0.4757l1.03171,0.8278l0.31871,0.1573l1.81842,1.1263l0.92352,0.3575l1.19898,1.1448l1.69001,1.2897l0.49653,0.5767l0.12142,0.0712l1.89721,1.0658l1.99322,1.3888l2.7835,1.6332l0.06168,0.0558l0.07642,0.0367l3.00028,2.2806l1.78538,1.6587l0.60148,0.3726l1.87977,1.4345l1.88268,1.4311l7.02786,6.5292l1.54051,1.7492l1.54406,1.7463l0.40095,0.5588l7.05638,6.5557l1.5404,1.7491l1.54405,1.7464l0.40095,0.5588l0.90695,0.8426l1.5404,1.7491l1.54406,1.7464l0.40106,0.5588l0.02841,0.0264l2.45477,2.7874l0.03951,0.071l0.06006,0.0573l2.07009,3.0451l0.27265,0.5067l1.07164,1.2169l0.20085,0.3607l1.48916,1.6019l0.95474,2.7877l1.44654,2.5983l0.04348,0.5518l0.61095,0.8986l0.70589,0.6558l1.21565,1.3804l0.18148,0.1486l0.51343,0.6404l0.54422,0.618l0.11119,0.1997l1.14655,1.4305l1.07185,1.6596l0.48653,0.452l1.54039,1.7491l0.92503,1.0463l1.64944,1.2259l2.58717,2.3514l0.07115,0.0529l0.05306,0.0599l0.05974,0.0543l0.05048,0.0704l2.29741,2.5984l0.40095,0.5588l2.66392,2.4749l2.45478,2.7874l0.0395,0.071l0.06007,0.0573l0.50471,0.7424l0.45488,0.4226l1.10866,1.2589l1.18455,1.1976l2.6355,3.2646l0.35531,0.546l0.43593,0.493l0.40095,0.5588l2.66391,2.4749l1.5404,1.7492l1.54405,1.7463l3.13387,4.3672l1.17163,1.4514l2.2733,2.112l1.5404,1.7492l1.54417,1.7463l0.40095,0.5589l2.66391,2.4748l1.54039,1.7492l1.54406,1.7463l0.40106,0.5589l0.90684,0.8425l1.5404,1.7492l1.54417,1.7463l0.40095,0.5589l0.02841,0.0264l1.21565,1.3804l0.18158,0.1486l0.51332,0.6404l0.54433,0.618l0.11119,0.1997l1.14655,1.4305l1.26786,1.9631l1.86676,2.1197l0.8428,1.5138l1.08047,1.3774l1.243,2.576l0.49987,0.6967l2.66391,2.4748l1.21565,1.3804l0.18159,0.1487l0.51332,0.6404l0.54422,0.618l0.11119,0.1997l1.14666,1.4304l1.07175,1.6597l4.87899,4.5327l2.45478,2.7874l0.0395,0.071l0.05996,0.0573l2.07008,3.045l1.75696,3.2646l0.61978,1.5114l0.56305,0.6975l0.23487,0.3609l0.9372,0.1274l0.56553,0.1314h6.07946l0.04618,-0.0271l3.49488,-1.6235l0.47295,-0.3794l0.94581,-0.2796l0.35725,-0.166l3.62264,-1.2821l1.81229,-0.2641l1.74814,-0.5168l1.89915,-0.1764l2.05781,-0.6373l3.78141,-0.7933l0.086,-0.0011l0.08191,-0.0242l0.64432,-0.0598l2.43422,-0.7539l0.9259,-0.1942l0.89339,-0.298l2.3465,-0.545l0.32743,-0.8475l0.06394,-0.0962l0.49546,-1.2084l0.27845,-0.5174l0.23013,-1.069l0.66067,-2.0051l0.62559,-2.0149l1.21092,-2.8122l0.04456,-0.4149l0.49277,-1.4388v-0.6906l0.38577,-3.5837l0.02605,-0.0762l0.00119,-0.0799l0.85389,-3.513l0.6793,-1.8935l-0.01346,-0.1982l0.12443,-0.79l0.08557,-0.7945l0.07341,-0.2143l0.27792,-1.7647l0.14144,-0.5255v-18.3964l0.20258,-1.8826l0.13325,-1.888l0.56833,-3.1679l-0.15888,-1.181l0.46672,-1.508l0.0522,-0.4854l1.01588,-2.9663l0.92579,-2.9917l0.24638,-0.4308l0.20279,-0.5921l0.20667,-1.2237l1.38002,-3.3656l0.09386,-0.1744l0.0239,-0.0665l0.64851,-2.4101l0.32065,-0.83l0.20914,-0.8602l1.45709,-4.0613l0.50611,-1.8806l0.68522,-3.1829l0.47705,-2.6597v-9.528l0.38577,-3.5836l0.02605,-0.0762l0.00119,-0.0799l0.46553,-1.9152v-21.0625l-0.14144,-0.366l-0.64851,-2.41l-0.63894,-1.7809l-0.66154,-0.6689l-2.6355,-3.2646l-0.65884,-1.0123l-0.76046,-0.9488l-2.6355,-4.0807l-0.40493,-0.7976l-0.50687,-0.7456l-3.20749,-5.9598l-3.1739,-5.1603l-0.27975,-0.5827l-0.36672,-0.5394l-0.27265,-0.5068l-1.07164,-1.2168l-0.0395,-0.071l-0.06006,-0.0573l-2.07008,-3.045l-1.06959,-1.9875l-0.90437,-1.2603l-0.7202,-1.2595l-0.81977,-1.2058l-0.87842,-1.6323l-0.62333,-1.52l-0.71611,-1.4842l-0.25542,-0.7118l-0.52613,-0.6708l-0.28255,-0.2624l-1.81142,-2.0569l-0.03078,0.0021l-0.15005,0.1046l-0.5877,0.3301l-0.53065,0.405l-2.63539,1.6323l-0.31871,0.1573l-1.0317,0.8278l-1.6094,0.4757l-0.4637,0.2289l-3.22019,0.8601l-0.81858,0.242l-0.46209,0.2711l-1.75696,0.8162l-1.63609,0.579l-1.59767,0.6654l-7.21805,2.2353l-2.55607,0.9499l-0.11937,0.1349l-1.54039,1.7492l-0.35283,0.3278l-0.31958,0.4989l-0.80211,0.5432l-0.28244,0.2624l-3.00029,2.2806l-0.36166,0.1738l-0.23314,0.3429l-0.05996,0.0573l-0.03951,0.071l-2.45488,2.7874l-4.39236,4.0808l-2.76509,2.1018l-0.12346,0.1116l-3.40285,3.2492l-1.6898,0.6541l-1.07024,0.628l-0.04348,0.0202l-2.69018,2.0449l-0.07642,0.0367l-0.06168,0.0558l-3.27766,1.9232l-1.75696,0.8161l-1.63598,0.579l-1.59766,0.6654l-2.6354,0.8161l-0.17448,0.0366l-2.68178,0.7928l-2.79674,1.344l-2.27233,0.1544l-0.41645,0.1231l-3.8574,0.3584h-2.80901l-1.82779,0.1243l-0.23282,-0.1243h-1.92951l-0.60557,0.1429l-0.98057,-0.1429h-0.39955l-3.85729,-0.3584l-1.74814,-0.5167l-1.81229,-0.2641l-0.84064,-0.2976l-0.86099,-0.2545l-1.81229,-0.2641l-3.62264,-1.2821l-0.35724,-0.166l-0.94581,-0.2796l-0.47296,-0.3794l-1.73792,-0.8073l-1.07023,-0.628l-1.6898,-0.6541l-0.67865,-0.648l-0.49987,-0.1478l-0.47296,-0.3794l-1.7378,-0.8073l-1.66913,-0.9794l-1.84479,-0.6529l-0.35736,-0.166l-0.94581,-0.2796l-0.48372,-0.3881l-1.04032,-0.6104l-1.6899,-0.6542l-2.7552,-2.6308l-1.63716,-0.6338l-3.40285,-3.2492l-2.71009,-2.4497l-0.03649,-0.0141l-0.37027,-0.3536l-0.38061,-0.344l-0.01517,-0.0339l-0.43281,-0.4133l-1.69012,-1.2898l-1.56936,-1.8225l-1.408,-1.3445l-0.06017,-0.0289l-1.30973,-0.9955l-0.5454,-0.2534l-1.07024,-0.628l-1.6899,-0.6542l-1.80777,-1.7261l-2.67565,-1.9887l-3.77096,-2.5533l-0.76423,-1.1933l-1.66515,-1.2657l-1.08068,-1.0041l-0.42775,-0.2111l-1.35666,-0.8402l-0.38222,-0.1776l-3.27767,-1.9232l-0.06167,-0.0557l-0.07632,-0.0367l-3.00039,-2.2806l-1.58076,-1.4687l-0.68974,-0.3315l-2.16405,-1.6449l-1.21189,-0.7111l-0.06168,-0.0557l-0.07631,-0.0367l-1.2388,-0.9416l-1.33093,-0.3934l-1.81229,-0.2642l-3.62264,-1.2821l-0.18772,-0.0872l-4.76499,-1.4756l-0.19655,0.0463l-0.98057,-0.1429h-0.39944l-3.85729,-0.3583l-1.74814,-0.5168l-1.81229,-0.2641l-2.02789,-0.7177l-1.43954,-0.1337l-1.54869,-0.4578h-1.39315l-0.60567,0.1429l-0.98058,-0.1429h-0.39944l-3.8574,-0.3584l-1.54857,-0.4578h-7.77131l-3.85729,-0.3583l-0.06964,-0.0206l-0.07341,0.07l-2.26232,2.569l-3.86688,3.5924l-0.31946,0.4989l-0.80212,0.5431l-0.28244,0.2625l-3.00028,2.2806l-1.62942,0.783l-1.48249,1.0038l-3.5375,1.4732l-0.37888,0.1174l-0.88166,0.4236l-0.26683,0.0182l-1.36926,0.636l-0.47285,0.3795l-0.94592,0.2796l-0.35725,0.1659l-3.62264,1.2822l-1.81229,0.2641l-1.74814,0.5167l-3.66031,0.3401l-1.61058,0.4761l-3.85729,0.3583h-0.39944l-0.20225,0.0295l-0.43873,0.1019l-1.89947,0.2582l-0.23067,0.0682l-0.85518,0.0795l-0.85034,0.1156l-0.24153,-0.0142l-1.91024,0.1775h-0.06265l-2.06147,0.4324l-0.08601,0.0011l-0.08191,0.0243l-3.8574,0.3583h-5.92059l-0.60568,0.1429l-0.98058,-0.1429h-0.39945l-3.8574,-0.3583l-1.74803,-0.5168l-1.81229,-0.2641l-2.34057,-0.8283l-0.24843,-0.0231l-1.74813,-0.5168l-1.81229,-0.2641l-0.84076,-0.2975l-0.86088,-0.2545l-1.81229,-0.2641l-0.84076,-0.2976l-0.86088,-0.2545l-1.81229,-0.2641l-1.39315,-0.4931h-7.00181l-3.8574,-0.3583l-0.08191,-0.0243l-0.086,-0.0011l-2.06147,-0.4324h-7.06435l-1.39315,0.493l-1.34503,0.196l-1.15247,0.5539l-1.42189,0.9628z"/></g></g></svg>