<svg version="1.1" xmlns="http://www.w3.org/2000/svg" xmlns:xlink="http://www.w3.org/1999/xlink" width="490" height="370.8" viewBox="0,0,490,370.8"><g transform="translate(7.5,4.3)"><g data-paper-data="{&quot;isPaintingLayer&quot;:true}" fill-rule="nonzero" stroke-linecap="butt" stroke-linejoin="miter" stroke-miterlimit="10" stroke-dasharray="" stroke-dashoffset="0" style="mix-blend-mode: normal"><path d="M237.5,3.2c65.524,0 124.899,19.934 167.893,52.139c42.994,32.205 69.607,76.68 69.607,125.761c0,49.081 -26.613,93.556 -69.607,125.761c-42.994,32.205 -102.369,52.139 -167.893,52.139c-65.524,0 -124.899,-19.934 -167.893,-52.139c-42.994,-32.205 -69.607,-76.68 -69.607,-125.761c0,-49.081 26.613,-93.556 69.607,-125.761c42.994,-32.205 102.369,-52.139 167.893,-52.139z" fill="#b2b2b2" stroke="#7f7f7f" stroke-width="15"/><path d="M241.25,89c39.659,0 75.597,11.161 101.62,29.191c26.022,18.03 42.13,42.93 42.13,70.409c0,27.479 -16.108,52.379 -42.13,70.409c-26.023,18.03 -61.961,29.191 -101.62,29.191c-39.659,0 -75.597,-11.161 -101.62,-29.191c-26.022,-18.03 -42.13,-42.93 -42.13,-70.409c0,-27.479 16.108,-52.379 42.13,-70.409c26.023,-18.03 61.961,-29.191 101.62,-29.191z" fill="#7f7f7f" stroke="none" stroke-width="0"/></g></g></svg>