<svg version="1.1" xmlns="http://www.w3.org/2000/svg" xmlns:xlink="http://www.w3.org/1999/xlink" width="462.6" height="359.75" viewBox="0,0,462.6,359.75"><g transform="translate(-17.4,-0.25)"><g data-paper-data="{&quot;isPaintingLayer&quot;:true}" fill-rule="nonzero" stroke-linecap="butt" stroke-linejoin="miter" stroke-miterlimit="10" stroke-dasharray="" stroke-dashoffset="0" style="mix-blend-mode: normal"><path d="M104.1,186.635h-9.5162v-8.885h9.5162z" fill="none" stroke="none" stroke-width="0.02239"/><path d="M192.6,198.25h9.5162v8.885h-9.5162z" fill="none" stroke="none" stroke-width="0.02239"/><path d="M173.6,217.5968h-100.4624v-75.3468h100.4624z" fill="none" stroke="none" stroke-width="0.2093"/><path d="M164.05,171.6h9.5162v8.885h-9.5162z" fill="none" stroke="none" stroke-width="0.02239"/><path d="M75.6,200.985h-9.5162v-8.885h9.5162z" fill="none" stroke="none" stroke-width="0.02239"/><path d="M211.15,44.635h-9.5162v-8.885h9.5162z" fill="none" stroke="none" stroke-width="0.02239"/><path d="M299.6,56.25h9.5162v8.885h-9.5162z" fill="none" stroke="none" stroke-width="0.02239"/><path d="M280.6,75.5968h-100.4624v-75.3468h100.4624z" fill="none" stroke="none" stroke-width="0.2093"/><path d="M271.05,29.65h9.5162v8.885h-9.5162z" fill="none" stroke="none" stroke-width="0.02239"/><path d="M182.65,58.935h-9.5162v-8.885h9.5162z" fill="none" stroke="none" stroke-width="0.02239"/><path d="M17.4,8.3h450v341.65h-450z" fill="#7f7f7f" stroke="none" stroke-width="0.94328"/><path d="M75.8,66.8h325.85v228.35h-325.85z" fill="#000000" stroke="none" stroke-width="1"/><path d="M243.35,360v0h-1.65z" fill="#b2b2b2" stroke="none" stroke-width="1"/><path d="M94.25,0.95h290v69.15h-290z" fill="#006622" stroke="none" stroke-width="1"/><path d="M399.2,91.7h80.8v177.5h-80.8z" fill="#006622" stroke="none" stroke-width="1"/><path d="M187.05071,309.34999h113.2582v27.5h-113.2582z" fill="#ff0000" stroke="#ff0000" stroke-width="5.35551"/></g></g></svg>