<svg version="1.1" xmlns="http://www.w3.org/2000/svg" xmlns:xlink="http://www.w3.org/1999/xlink" width="431.22499" height="344.59453" viewBox="0,0,431.22499,344.59453"><g transform="translate(-29.38341,-0.25)"><g data-paper-data="{&quot;isPaintingLayer&quot;:true}" fill-rule="nonzero" stroke="none" stroke-linecap="butt" stroke-linejoin="miter" stroke-miterlimit="10" stroke-dasharray="" stroke-dashoffset="0" style="mix-blend-mode: normal"><path d="M104.10002,186.635h-9.5162v-8.885h9.5162z" fill="none" stroke-width="0.02239"/><path d="M192.60002,198.25h9.5162v8.885h-9.5162z" fill="none" stroke-width="0.02239"/><path d="M173.60002,217.5968h-100.4624v-75.3468h100.4624z" fill="none" stroke-width="0.2093"/><path d="M164.05002,171.6h9.5162v8.885h-9.5162z" fill="none" stroke-width="0.02239"/><path d="M75.60002,200.985h-9.5162v-8.885h9.5162z" fill="none" stroke-width="0.02239"/><path d="M211.15002,44.635h-9.5162v-8.885h9.5162z" fill="none" stroke-width="0.02239"/><path d="M299.59999,56.25h9.5162v8.885h-9.5162z" fill="none" stroke-width="0.02239"/><path d="M280.59999,75.5968h-100.4624v-75.3468h100.4624z" fill="none" stroke-width="0.2093"/><path d="M271.05001,29.65h9.5162v8.885h-9.5162z" fill="none" stroke-width="0.02239"/><path d="M182.65002,58.935h-9.5162v-8.885h9.5162z" fill="none" stroke-width="0.02239"/><path d="M35.45,187.75h61.65v104.15h-61.65z" fill="#ff0000" stroke-width="1"/><path d="M57.96665,239.24007l102.94688,47.31638l-26.79025,58.28808l-102.9469,-47.31629z" fill="#00ffff" stroke-width="1"/><path d="M34.06642,99.25h63.1v100.85h-63.1z" fill="#ff9400" stroke-width="1.1507"/><path d="M117.95002,11.1h140v59.15h-140z" fill="#00ff55" stroke-width="1"/><path d="M29.38342,103.7379l89.1512,-92.3352l42.5886,41.12l-89.1512,92.3352z" fill="#ffff00" stroke-width="1"/><path d="M246.95002,9.65h120v61.65h-120z" fill="#00ffff" stroke-width="1"/><path d="M393.83922,189.5h61.7v104.15h-61.7z" fill="#ff0000" stroke-width="1.00041"/><path d="M413.87802,141.5579l-89.1512,-92.3352l42.5886,-41.12l89.1512,92.3352z" fill="#7f00ff" stroke-width="1"/><path d="M394.80002,103.8h61.65v104.15h-61.65z" fill="#ff99e5" stroke-width="1"/><path d="M319.2951,291.5003l115.3885,-56.2069l25.9248,53.2217l-115.3885,56.2069z" fill="#ff9400" stroke-width="1"/><path d="M236.00002,276.8h115v66.7h-115z" fill="#ffff00" stroke-width="1"/><path d="M122.25002,277.1h115v66.7h-115z" fill="#00ff55" stroke-width="1"/><path d="M34.45,188.55h62.5v11.65h-62.5z" fill="#ffffff" stroke-width="1"/></g></g></svg>