<svg version="1.1" xmlns="http://www.w3.org/2000/svg" xmlns:xlink="http://www.w3.org/1999/xlink" width="465.18254" height="332.673" viewBox="0,0,465.18254,332.673"><g transform="translate(-9.10621,-7.98351)"><g data-paper-data="{&quot;isPaintingLayer&quot;:true}" fill="#b3b3b3" fill-rule="nonzero" stroke="none" stroke-width="0.5" stroke-linecap="butt" stroke-linejoin="miter" stroke-miterlimit="10" stroke-dasharray="" stroke-dashoffset="0" style="mix-blend-mode: normal"><path d="M15.23905,131.65277c-0.09949,-2.89228 -1.6342,-5.60873 -1,-8.65277c0,-0.32205 0.00609,-0.64268 0.01816,-0.96177c-0.65229,-1.15946 -1.29126,-2.33444 -1.89316,-3.53823c-3.37725,-6.75451 -3.81176,-15.04415 -2.73437,-22.40625c0.65249,-4.45866 1.97494,-8.98032 4.17205,-12.95614c1.10859,-2.00608 3.66519,-7.02006 5.6613,-8.93721c15.93926,-15.30874 42.29294,-7.72744 61.25704,-8.25224c6.13576,-0.1698 13.42164,0.26661 18.01754,-3.80205c3.2126,-2.84406 6.9773,-6.19907 9.64756,-9.64756c1.81576,-2.34495 3.07035,-5.03486 5.17622,-7.17622c4.95804,-5.04161 9.95839,-10.04196 15,-15c10.57267,-10.39743 25.11909,-16.81369 39.16588,-21.08055c7.71521,-2.34358 15.27868,-0.82612 23.11474,-0.12374c12.86536,1.15318 16.80464,1.53669 29.04556,3.88196c6.15041,1.17837 18.03147,1.77375 21.27252,2.17123c6.36122,0.78014 15.8325,2.95385 19.65551,3.67958c2.96234,0.56235 6.01955,0.51747 8.93525,1.39096c5.18934,1.55462 10.63823,2.78492 15.64167,4.91293c3.9072,1.66177 9.58745,5.30214 14.00607,6.85733c6.715,2.36343 12.7335,5.12581 19.44312,7.5032c4.91386,1.7411 10.22507,2.89835 14.88531,5.37352c2.78376,1.47853 4.95138,3.96666 7.48543,5.64339c6.38909,4.22751 13.08083,8.37865 19.72824,12.22268c3.11551,1.80162 6.80939,2.3329 10.20406,3.52809c5.44513,1.91711 10.28401,5.26642 15.71056,7.263c2.45443,0.90306 5.43256,1.31123 7.88374,2.57908c3.13481,1.62146 5.37073,5.02706 8.1944,7.07698c4.21848,3.06252 10.65155,6.97921 14.98327,11.12035c4.48279,4.28556 7.59594,9.21351 11.86138,13.58196c3.41981,3.5024 7.43201,6.29077 9.58595,11.09571c5.11317,11.4063 10.67067,22.91418 13.9131,35.13197c1.91003,7.19716 0.8471,15.4935 4.11714,22.27681c1.8734,3.88615 4.84706,7.34503 6.71976,11.09122c2.06874,4.13835 1.75202,9.0665 3.125,13.09563c5.71313,16.76571 7.37224,27.26676 7,45.40437c-0.19261,9.38493 -4.77517,22.46325 -9.01496,30.66112c-5.84068,11.29329 -12.91473,23.26941 -22.30737,32.01655c-6.6468,6.19 -18.99454,11.4781 -28.07521,11.4781c-3.26461,0 -6.46771,-1.06462 -9.6801,-1.15576c-13.32271,-0.37801 -25.86152,-3.21335 -37.82406,-9c-2.0057,-0.97022 -5.55232,-0.15296 -7.59216,-0.66954c-3.19956,-0.81028 -7.61987,-2.60084 -10.48157,-4.36732c-14.24358,-8.79234 -15.65632,-32.69273 -12.27814,-47.02653c1.32839,-5.63645 2.36165,-10.53751 4.32637,-15.69488c0.54226,-1.42344 1.65475,-2.64476 1.9272,-4.14343c0.284,-1.56225 0.30644,-3.20555 0,-4.76355c-0.9933,-5.05015 -6.72426,-5.22451 -10.48796,-7.22351c-7.09648,-3.76912 -13.97821,-8.20815 -20.11078,-13.54955c-1.65822,-1.44429 -4.22244,-1.63255 -6.15952,-2.63449c-9.11394,-4.71411 -15.83765,-11.59804 -24.17652,-17.44374c-9.74386,-6.83061 -20.6482,-11.06467 -31.69622,-15.1516c-3.06875,-1.1352 -7.96345,-4.24854 -11.27069,-4.33185c-4.53062,-0.11413 -9.06469,-0.07228 -13.59618,0c-3.34443,0.05335 -7.5009,2.56058 -10.59643,3.71708c-4.13585,1.54516 -10.00178,2.82637 -13.68841,5.15545c-2.91866,1.8439 -0.41876,4.81847 0.4998,7.22178c1.98043,5.1816 2.7947,11.02414 8.05149,14.33913c5.33461,3.36406 12.34955,6.23674 17.85855,8.92927c2.45121,1.19804 6.24153,1.06966 8.88467,1.87907c3.63083,1.11186 8.72009,3.19282 11.98821,4.88322c2.64056,1.3658 5.08385,4.20052 7.18915,6.20881c5.25776,5.0155 11.0788,9.78023 16.11045,14.89016c3.00438,3.05113 4.17217,6.2981 6.39206,9.69824c0.34982,0.53581 4.83843,5.67225 5.68334,7.57778c5.38673,12.14879 4.0248,24.23562 4.125,37.48913c0.08586,11.35634 -5.43857,20.481 -14.60936,26.97557c-4.21103,2.98216 -7.57079,6.61185 -12.76151,8.34209c-10.44713,3.48238 -20.57379,2.06415 -31.48241,3.50322c-10.13839,1.33746 -20.82418,4.14295 -31.14672,4.18998c-32.31209,0.14721 -61.93378,-1.18626 -94.23026,-1c-3.94449,0.02275 -8.38925,2.40186 -12.59071,2.82201c-12.43657,1.24366 -25.04001,1.18196 -37.35271,-0.76164c-3.61322,-0.57036 -7.87678,0.3851 -11.45544,-0.75357c-3.22322,-1.02557 -5.65106,-3.06074 -8.50389,-4.54713c-1.56914,-0.81756 -5.071,-1.59991 -6.32011,-2.66591c-10.79814,-9.21526 -13.44815,-20.6065 -13.54687,-34.12329c-0.01858,-2.54386 -1.01185,-5.35021 -1,-7.98132c0.06026,-13.38182 -2.76015,-27.28123 0.54823,-40.19311c-0.88608,-1.51707 -1.60679,-3.11064 -2.13,-4.75501c-0.2611,-0.82059 0.15679,-1.71798 0.1492,-2.57907c-0.02959,-3.36029 -1.3986,-6.68808 -1.4819,-10.07524c-0.08302,-3.37558 0.83223,-5.89177 0.91447,-9.16339c0.34578,-13.75646 0.04335,-16.66917 2.38704,-28.70931c0.09948,-0.51106 0.19706,-1.04955 0.29511,-1.61073c-0.53228,-6.84961 0.0709,-13.79483 0.58222,-18.90802c0.25447,-2.54474 1.48092,-5.01063 1.73563,-7.49661c0.22079,-2.15493 -0.33476,-4.35844 0,-6.49863c0,-0.80829 0.03836,-1.60761 0.11336,-2.39626c-1.04605,-8.70323 -0.86757,-17.80569 -1.11336,-24.95097zM64.23905,179.50137c-0.16581,2.73634 -0.0921,5.47922 -0.03202,8.22227c0.02126,0.42277 0.03202,0.8483 0.03202,1.27635c0,0.08816 -0.00046,0.17621 -0.00137,0.26415c0.02094,1.24569 0.0293,2.49117 0.00137,3.73585c-0.07351,3.27544 -0.9944,7.77726 -2.32236,10.88778c-0.29563,1.94974 -0.54439,3.90458 -0.67764,5.85652c-0.36105,5.28898 0.27607,10.62116 -0.16648,15.90331c0.27561,0.5462 0.53366,1.10262 0.77489,1.66812c0.16565,0.34991 0.32342,0.70429 0.47308,1.06289c0.68289,0.80521 1.40566,1.61127 1.50028,2.58036c0.14106,1.44481 0.26043,2.91317 0.31994,4.38566c1.10649,6.53896 0.72537,13.50535 -0.29233,19.5616c-1.77479,10.56161 -0.62564,21.41361 -0.60937,32.12329c0.00155,1.01727 -0.31644,2.92917 0.7,2.97046c7.40135,0.30061 14.81774,0.20485 22.22236,0c4.855,-0.13431 9.37873,-3.15576 14.47518,-3.15576c15.89,0 33.31492,0 49.20492,0c2.45894,0 5.02848,1.15302 7.368,1.15576c14.3082,0.01681 28.73457,1.21387 42.91957,-0.65985c7.79999,-1.03031 15.83818,-2.38914 23.62238,-3.21608c3.33121,-0.35389 6.66321,-0.70331 10,-1c0.53705,-0.04775 4.37549,0.06276 4.48759,-0.12407c1.52935,-2.54891 -0.86268,-4.33997 -2,-6c-2.26278,-3.30275 -4.87823,-6.83123 -7.87579,-9.52045c-6.22497,-5.58465 -9.66635,-5.01142 -17.0299,-7.76246c-4.73924,-1.77059 -9.33759,-4.50001 -13.78477,-6.61146c-2.15768,-1.02443 -4.62603,-1.26246 -6.80954,-2.23062c-1.48829,-0.6599 -3.32217,-2.71311 -4.6966,-3.52245c-1.1368,-0.66941 -5.37535,-2.23155 -6.77882,-3.38941c-4.5675,-3.76819 -10.33784,-9.30713 -13.98771,-13.98771c-1.19927,-1.53794 -1.54248,-3.98468 -2.6249,-5.63095c-6.98225,-10.61946 -8.10352,-16.97638 -11.49173,-29.05173c-1.32721,-4.73008 -3.08153,-9.71115 -3.076,-14.69028c0.00418,-3.75918 1.74051,-6.96052 2.13109,-10.58538c0.34451,-3.19734 1.60901,-9.15274 4.06154,-11.9925c4.46999,-5.17577 10.25761,-13.62187 16.46314,-16.89958c13.44482,-7.10143 27.60855,-13.13691 42.5971,-16.63952c11.51982,-2.69202 24.17214,-3.05036 35.80915,-1.09486c6.52116,1.09583 12.66118,4.65655 18.81951,7.0214c10.06757,3.86604 20.22534,7.41146 29.7622,12.47673c6.33793,3.36624 13.35578,8.53788 19.04299,12.7679c1.67563,1.24629 3.25597,3.50823 5.00688,4.52583c6.48023,3.76622 13.47074,7.41269 19.96167,11.55314c2.20937,1.40932 3.74093,3.45477 5.86206,4.93799c1.9418,1.35783 4.09256,1.39316 6.13844,2.45137c0.95091,0.49185 2.58544,2.2526 3.56461,2.87756c4.4804,2.85961 10.78218,3.62818 14.91081,7.03431c7.16977,5.91506 13.27693,15.28599 17.23649,23.67837c4.80251,10.17903 5.12926,22.21368 3.3026,33.18767c-1.00425,6.03323 -2.821,9.29794 -4.92655,14.82285c-0.39344,1.03237 -1.24861,2.20412 -0.80386,3.21545c0.73956,1.68173 9.26069,3.25339 10.39623,3.69812c3.88087,1.5199 6.06968,1.25718 10.81966,1.36068c1.03209,0.02249 2.49843,1.15998 3.08163,0.30816c5.34982,-7.81382 11.55101,-17.5406 12.91837,-26.97738c1.48422,-10.24327 -2.35825,-19.42274 -5.49484,-28.7872c-0.1389,-0.41469 -0.74567,-4.8083 -1.24684,-5.96036c-2.45686,-5.64758 -6.12774,-10.67335 -7.9754,-16.67753c-2.60107,-8.45247 -3.22515,-15.92372 -4.79015,-24.67964c-1.30627,-7.30837 -5.16165,-15.0696 -8.92073,-21.53824c-1.48487,-2.55517 -5.60391,-6.18606 -7.09375,-8.07044c-12.62123,-15.96353 -30.92895,-20.89396 -48.76305,-28.40546c-9.45226,-3.98118 -19.56354,-11.54675 -28.13712,-17.12038c-0.80476,-0.52317 -1.78656,-1.77937 -2.67767,-2.10574c-6.55844,-2.40205 -14.33711,-3.80934 -20.54106,-6.95454c-9.88605,-5.0119 -21.03069,-11.31662 -31.9068,-13.28364c-7.41879,-1.34174 -14.8121,-2.83322 -22.2568,-4.02275c-7.17337,-1.14618 -15.18455,-0.79557 -22.434,-2.2798c-8.31006,-1.70137 -22.93132,-4.78511 -32.01976,-4.37096c-6.89182,0.31405 -12.772,5.57377 -18.24057,9.77979c-6.69227,5.14719 -13.19768,14.1115 -18.53831,21.12153c-3.33712,4.38026 -8.74404,8.6742 -12.95214,12.11719c-17.66545,14.45355 -40.79575,14.34809 -62.51244,14.51421c-0.17807,0.00136 0.15979,0.31937 0.21853,0.48748c0.59383,1.69958 1.08091,3.43793 1.49454,5.19011c0.65971,2.79457 0.96857,5.66053 1.43898,8.49312c1.19287,7.18284 1.5506,12.54465 1.3494,20.22247c-0.16537,6.31043 -2.49549,13.95805 -6.46679,20.45815c-0.57999,2.62973 -1.30057,5.204 -1.53321,9.04322z"/></g></g></svg>