<svg version="1.1" xmlns="http://www.w3.org/2000/svg" xmlns:xlink="http://www.w3.org/1999/xlink" width="447.66227" height="307.34055" viewBox="0,0,447.66227,307.34055"><g transform="translate(-14.83772,-25.09951)"><g data-paper-data="{&quot;isPaintingLayer&quot;:true}" fill="#b3b3b3" fill-rule="nonzero" stroke="#747474" stroke-width="0" stroke-linecap="butt" stroke-linejoin="miter" stroke-miterlimit="10" stroke-dasharray="" stroke-dashoffset="0" style="mix-blend-mode: normal"><path d="M403.5,332.11748c-3.57247,-0.08773 -7.05504,-1.97404 -10.47549,-2c-8.84125,-0.06711 -17.6831,0.03951 -26.52451,0c-7.01201,-0.03133 -14.91233,-1.87013 -21.24689,-2c-14.22159,-0.29157 -29.42272,-0.17427 -44.42165,-0.03555c-1.31018,-1.01225 -2.87852,-1.70655 -4.58942,-1.96729c-0.76033,-0.46204 -1.58717,-0.82554 -2.46278,-1.07277c-1.59807,-1.21803 -3.57399,-1.96567 -5.72122,-2.03637c-0.81616,-0.47235 -1.70528,-0.83264 -2.64632,-1.05985c-1.23785,-1.02009 -2.72523,-1.74828 -4.35682,-2.07924c-1.20308,-1.29655 -2.74586,-2.27346 -4.4868,-2.7892c-1.5624,-1.34179 -3.54382,-2.20943 -5.72111,-2.37975c-1.38739,-1.17445 -3.09913,-1.97759 -4.98181,-2.25603c-0.45628,-0.35563 -0.9442,-0.67255 -1.45884,-0.94584c-1.2797,-1.93738 -3.21559,-3.40322 -5.49103,-4.08092c-0.93624,-1.06907 -2.09662,-1.9369 -3.40778,-2.53015c-0.92065,-1.68761 -2.31344,-3.08064 -4.00086,-4.00158c-0.68973,-1.26378 -1.64426,-2.3623 -2.78902,-3.22098c0.00352,-0.10911 0.0053,-0.21866 0.0053,-0.32862c0,-2.21028 -0.71708,-4.25307 -1.93129,-5.90843c1.01101,-1.56263 1.59796,-3.42522 1.59796,-5.42491c0,-0.25603 -0.00962,-0.50982 -0.02852,-0.76101c1.07051,-1.59231 1.69519,-3.50937 1.69519,-5.57232c0,-0.15251 -0.00341,-0.30423 -0.01017,-0.45508c0.85283,-1.27759 1.41933,-2.7626 1.60776,-4.36331c1.70732,-1.5001 2.89921,-3.57279 3.27559,-5.91802c1.52285,-1.44149 2.59266,-3.35673 2.97354,-5.50983c2.79249,-1.28667 4.89068,-3.82267 5.57817,-6.8916c3.01349,-2.18695 5.73887,-4.69963 8.82963,-6.84578c6.31191,-4.38284 14.35055,-7.03723 18.07796,-14.05353c0.82485,-1.55266 6.46825,-8.95622 4.89451,-10.12086c-4.87794,-3.60991 -7.60803,-6.0263 -11.96439,-9.53089c-8.2079,-6.60305 -19.64233,-10.06162 -28.31839,-15.59593c-2.1515,-1.3724 -3.03504,-2.92387 -4.93506,-4.34359c-0.6052,-0.45221 -2.5096,-0.75049 -3.06544,-1.04578c-7.30806,-3.88241 -13.84635,-11.51213 -21.88045,-14.34851c-1.07587,-0.37983 -1.54386,1.68035 -2.3134,2.5227c-1.17601,1.28728 -0.35748,4.91542 -0.99935,6.57993c-0.59265,1.53686 -1.53361,2.91587 -2.27025,4.38915c-5.13509,10.27017 -10.10352,17.03178 -20.37986,22.34713c-8.52817,4.41112 -25.08815,2.69158 -32.65669,2.6346c-15.33371,-0.11544 -30.77921,-3.24096 -44.62712,-9.36271c-2.7337,-1.20849 -6.04101,-1.34635 -8.87288,-2.76229c-19.39693,-9.69846 -16.52035,-30.37548 -11.14304,-47.27563c1.68031,-5.28098 5.45623,-9.94991 7.26975,-15.39047c0.52088,-1.56265 0.83063,-3.20311 1.49829,-4.7089c0.42223,-0.95226 2.91363,-2.42053 1.875,-2.5c-4.98543,-0.38145 -10.00107,0.10328 -15,0c-6.20637,-0.12823 -12.32353,-1.81965 -18.55644,-2c-6.22641,-0.18016 -18.98676,0.97261 -27.34981,-0.39062c-15.90452,-2.59254 -30.42024,-13.32786 -35.40055,-28.98025c-2.74055,-8.61315 -0.59539,-22.32852 0.11794,-31.16506c0.57892,-7.17146 4.09198,-13.07691 7.71161,-19.04318c6.10784,-10.06761 16.14139,-21.14399 27.84812,-24.72768c2.30958,-0.70701 4.95155,-0.6245 7.31662,-1.38449c6.82148,-2.192 14.06451,-4.21606 21.3125,-4.30872c16.83482,-0.21521 20.03645,1.56668 39.03986,2c20.31476,0.46322 40.64019,-0.0625 60.96014,0c10.43694,0.0321 21.92445,3.57157 32.06906,5c12.15167,1.71104 26.56782,0.32037 37.68921,6.0728c5.8895,3.04629 10.84813,7.30574 15.41274,12.07504c2.10606,2.2005 8.70303,4.80152 12.19504,7.23673c9.30759,6.49082 18.04019,13.70994 28.20642,18.9508c12.62438,6.50808 24.58489,13.11599 36.67751,20.46466c4.98096,3.02693 10.94629,7.61721 16.50447,9.76579c8.85772,3.42406 18.00247,6.57066 26.11306,11.63291c10.65467,6.65015 18.49646,16.90447 28.47482,24.15766c15.82334,11.50186 31.31582,21.53441 40.53267,40.1436c3.67657,7.42315 2.71368,14.32914 3.125,22.34099c0.12952,2.52278 1.88184,4.89549 2.13485,7.42557c0.30418,3.04176 -0.85993,6.35541 0.15433,9.39945c0.47486,0.93199 0.89298,1.89772 1.24981,2.89264c0.94576,2.63696 1.46101,5.47898 1.46101,8.44135c0,3.04877 -0.54574,5.97007 -1.54486,8.67155c0.57477,4.68454 0.30358,9.6224 -0.39982,13.80827c-0.22592,1.34445 -1.09357,2.92104 -1.11088,4.28732c-0.06857,5.41386 0.90535,18.0305 -0.39062,25.74271c-0.64194,3.82014 -2.55181,7.94417 -2.61238,11.79482c-0.03704,2.35447 0.06498,5.0567 0.11938,7.89901c-0.7699,0.53567 -1.44526,1.25006 -2.04615,2.03071c-1.26297,1.17781 -2.22058,2.67883 -2.74109,4.3713l-0.34576,1.03727c-4.06107,4.73791 -11.62585,12.5473 -17.717,15.23271c-1.51709,0.66884 -3.10852,0.83289 -4.56977,1.63004c-3.2238,1.75866 -8.73415,2.26305 -14.13475,2.8169c-0.19872,-0.1575 -0.39583,-0.32133 -0.59152,-0.49196c-3.8875,0.23617 -7.61166,0.25045 -10.9148,0.16934zM409.5,220.2765c-0.37942,-2.52282 -1.88058,-4.88284 -2.13485,-7.42557c-0.97835,-9.78353 1.6367,-10.74098 -5.16369,-17.03684c-1.4067,-1.30234 -4.18535,-1.50295 -5.67688,-2.73347c-1.55684,-1.28439 -2.47919,-3.36056 -4.26851,-4.29423c-0.85041,-0.44375 -3.14731,-1.28001 -3.73149,-1.70577c-8.08099,-5.88953 -14.89802,-13.55144 -22.48719,-20.14872c-2.36487,-2.05579 -4.33259,-4.69869 -7.10985,-6.1498c-7.33799,-3.83407 -16.05876,-5.43802 -23.06816,-9.63337c-12.26605,-7.34162 -24.41486,-15.44702 -36.93184,-22.36663c-8.35857,-4.62077 -17.17139,-8.76181 -25.60787,-13.30394c-9.07761,-4.88731 -16.75182,-11.97071 -25.1703,-17.73429c-3.15845,-2.16238 -7.52059,-4.05403 -10.9167,-6.0917c-1.60813,-0.96488 -7.49647,-7.07875 -8.41078,-7.29991c-7.4648,-1.80564 -14.96742,-1.41028 -22.43184,-2.57494c-9.20106,-1.43562 -18.7546,-2.67426 -27.95342,-4.40629c-20.31502,-3.82508 -41.45293,1.2844 -62.01275,-0.33992c-7.65725,-0.60496 -15.29486,-1.48016 -22.96373,-1.91364c-3.62457,-0.20488 -7.26377,-0.14898 -10.89107,0c-1.07966,0.04434 -12.60168,2.69477 -13.24158,3.45827c-1.11649,1.33215 -2.87558,2.3862 -3.23997,4.08572c-0.17399,0.81152 -1.2275,2.31658 -0.40933,2.45601c4.8704,0.82996 9.88144,-0.04669 14.82182,0c6.87603,0.06498 13.85802,1.81969 20.65277,2c17.09924,0.45375 34.34019,-1.48787 46.93577,12.40644c10.19212,11.24303 16.63203,23.95806 15.28739,39.08115c-0.74065,8.32999 -1.07088,14.92233 -5.35329,22.12702c-0.65168,1.09637 -4.35481,5.52977 -3.27374,6.71028c0.52893,0.57758 3.07097,0.55497 3.8805,0.68805c5.19573,0.85411 10.71623,1.26237 15.97543,0.98706c1.48233,-0.0776 0.97395,-2.80589 1.53449,-4.18034c1.98393,-4.86457 4.16376,-9.52559 7.68301,-13.49733c5.57947,-6.29685 10.41944,-15.18445 18.17767,-19.19733c9.93207,-5.13728 29.9811,-4.96221 40,0c11.21661,5.55542 20.71488,13.78035 32,19c3.8975,1.80269 6.53035,6.41948 10.30898,8.32864c8.61424,4.35236 22.27509,10.57116 30.16645,16.58322c1.86484,1.42074 3.12617,3.73196 4.94959,5.08708c9.80407,7.28617 20.85976,15.38483 24.83321,27.36427c3.36332,10.13998 2.0019,30.14854 -2.88322,40.01179c-2.23365,4.50983 -5.57137,8.398 -7.76376,12.98796c-1.98026,4.14584 -5.25816,7.88749 -8.43357,11.18971c-1.30698,1.35918 -2.63134,2.70295 -4,4c-0.50523,0.4788 -2.3113,1.28603 -1.61618,1.32233c8.96729,0.46827 17.9591,-0.03954 26.93851,0c6.93926,0.03055 15.54462,1.77002 21.24689,2c9.24352,0.37281 18.50238,-0.07507 27.75311,0c3.93572,0.03194 7.87588,1.95469 11.65277,2c0.43443,0.00521 0.86938,-0.00277 1.30479,-0.02252c0.52494,-1.87667 0.96394,-3.75274 0.98688,-5.56444c0.11478,-9.06289 -1.15356,-18.58567 0.95389,-27.51298c0.90413,-3.82998 0.73607,-7.47717 1.4156,-11.14612c-1.2744,-5.0349 -1.24337,-10.47648 -2.31394,-17.59492z"/></g></g></svg>