<svg version="1.1" xmlns="http://www.w3.org/2000/svg" xmlns:xlink="http://www.w3.org/1999/xlink" width="437.32501" height="258.12584" viewBox="0,0,437.32501,258.12584"><g transform="translate(-25,-17.95)"><g data-paper-data="{&quot;isPaintingLayer&quot;:true}" fill-rule="nonzero" stroke-linejoin="miter" stroke-miterlimit="10" stroke-dasharray="" stroke-dashoffset="0" style="mix-blend-mode: normal"><path d="M280.86314,144.48711c-0.091,0 -0.147,0 -0.147,0c0,0 0.056,0 0.147,0c0.09,0 0.215,0 0.353,0c0.138,0 0.263,0 0.353,0c0.091,0 0.147,0 0.147,0c0,0 -0.056,0 -0.147,0c-0.09,0 -0.215,0 -0.353,0c-0.138,0 -0.263,0 -0.353,0z" fill="#ffd499" stroke="none" stroke-width="1" stroke-linecap="butt"/><path d="M155.02471,172.33285l43,8l11,34h-69z" data-paper-data="{&quot;origPos&quot;:null}" fill="#dbdbdb" stroke="none" stroke-width="1" stroke-linecap="round"/><path d="M158.02471,173.33285h38v13h-38z" data-paper-data="{&quot;origPos&quot;:null}" fill="#c2c2c2" stroke="none" stroke-width="1" stroke-linecap="butt"/><path d="M236.02473,118.33285c12.139,0 23.139,5.883 31.104,15.387c7.966,9.504 12.896,22.629 12.896,37.113c0,14.484 -4.93,27.609 -12.896,37.113c-7.965,9.504 -18.965,15.387 -31.104,15.387c-12.139,0 -23.139,-5.883 -31.104,-15.387c-7.966,-9.504 -12.896,-22.629 -12.896,-37.113c0,-14.484 4.93,-27.609 12.896,-37.113c7.965,-9.504 18.965,-15.387 31.104,-15.387z" data-paper-data="{&quot;origPos&quot;:null}" fill="#ffffff" stroke="none" stroke-width="1" stroke-linecap="butt"/><path d="M273.02468,191.33287l64,-5l6,46l-67,16l-26,-39z" data-paper-data="{&quot;origPos&quot;:null}" fill="#dbdbdb" stroke="none" stroke-width="1" stroke-linecap="round"/><g fill="#000000" stroke="#000000" stroke-width="1.29577" stroke-linecap="butt"><path d="M120.53174,207.16877c4.3791,0 8.3474,3.5938 11.2215,9.3996c2.8733,5.805 4.6518,13.8226 4.6518,22.6708c0,8.8482 -1.7785,16.8658 -4.6518,22.6709c-2.8741,5.8057 -6.8424,9.3996 -11.2215,9.3996c-4.379,0 -8.3473,-3.5939 -11.2214,-9.3996c-2.8733,-5.8051 -4.6518,-13.8227 -4.6518,-22.6709c0,-8.8482 1.7785,-16.8658 4.6518,-22.6708c2.8741,-5.8058 6.8424,-9.3996 11.2214,-9.3996z"/><path d="M135.14085,204.54765c3.9327,0 7.4961,3.739 10.0759,9.7792c2.5806,6.0403 4.1776,14.3818 4.1776,23.587c0,9.2052 -1.597,17.5467 -4.1776,23.587c-2.5798,6.0402 -6.1432,9.7792 -10.0759,9.7792c-3.9327,0 -7.4961,-3.739 -10.0759,-9.7792c-2.5806,-6.0403 -4.1776,-14.3818 -4.1776,-23.587c0,-9.2052 1.597,-17.5467 4.1776,-23.587c2.5798,-6.0402 6.1432,-9.7792 10.0759,-9.7792z"/><path d="M127.33103,266.74485c2.8598,0 5.4514,0.2902 7.3283,0.7593c1.8763,0.4691 3.0379,1.117 3.0379,1.8322c0,0.7153 -1.1616,1.3632 -3.0379,1.8323c-1.8769,0.469 -4.4685,0.7593 -7.3283,0.7593c-2.8597,0 -5.4513,-0.2903 -7.3282,-0.7593c-1.8763,-0.4691 -3.038,-1.117 -3.038,-1.8323c0,-0.7152 1.1617,-1.3631 3.038,-1.8322c1.8769,-0.4691 4.4685,-0.7593 7.3282,-0.7593z"/><path d="M127.97892,204.54765c2.324,0 4.4296,0.254 5.9541,0.6647c1.5245,0.4101 2.4685,0.977 2.4685,1.6029c0,0.6259 -0.944,1.1928 -2.4685,1.6029c-1.5245,0.4107 -3.6301,0.6647 -5.9541,0.6647c-2.3239,0 -4.4296,-0.254 -5.9541,-0.6647c-1.5244,-0.4101 -2.4684,-0.977 -2.4684,-1.6029c0,-0.6259 0.944,-1.1928 2.4684,-1.6029c1.5245,-0.4107 3.6302,-0.6647 5.9541,-0.6647z"/></g><path d="M157.02561,168.33057l16.29798,4.728l-28.39104,37.58988l-5.21235,-4.67146z" data-paper-data="{&quot;origPos&quot;:null}" fill="#c2c2c2" stroke="none" stroke-width="1" stroke-linecap="round"/><g fill="#000000" stroke="#000000" stroke-width="1.29577" stroke-linecap="butt"><path d="M245.53173,210.76877c4.3791,0 8.3474,3.5938 11.2215,9.3996c2.8733,5.805 4.6518,13.8226 4.6518,22.6708c0,8.8482 -1.7785,16.8658 -4.6518,22.6709c-2.8741,5.8057 -6.8424,9.3996 -11.2215,9.3996c-4.379,0 -8.3473,-3.5939 -11.2214,-9.3996c-2.8733,-5.8051 -4.6518,-13.8227 -4.6518,-22.6709c0,-8.8482 1.7785,-16.8658 4.6518,-22.6708c2.8741,-5.8058 6.8424,-9.3996 11.2214,-9.3996z"/><path d="M260.1409,208.04765c3.9327,0 7.4961,3.739 10.0759,9.7792c2.5806,6.0403 4.17759,14.3818 4.17759,23.587c0,9.2052 -1.59699,17.5467 -4.17759,23.587c-2.5798,6.0402 -6.1432,9.7792 -10.0759,9.7792c-3.9327,0 -7.49609,-3.739 -10.07589,-9.7792c-2.5806,-6.0403 -4.1776,-14.3818 -4.1776,-23.587c0,-9.2052 1.597,-17.5467 4.17761,-23.587c2.5798,-6.0402 6.14319,-9.7792 10.07589,-9.7792z"/><path d="M252.33103,270.24485c2.8598,0 5.4514,0.2902 7.32829,0.7593c1.8763,0.4691 3.03791,1.117 3.03791,1.8322c0,0.7153 -1.16161,1.3632 -3.03791,1.8323c-1.8769,0.469 -4.46849,0.7593 -7.32829,0.7593c-2.8597,0 -5.4513,-0.2903 -7.3282,-0.7593c-1.8763,-0.4691 -3.038,-1.117 -3.038,-1.8323c0,-0.7152 1.1617,-1.3631 3.038,-1.8322c1.8769,-0.4691 4.4685,-0.7593 7.3282,-0.7593z"/><path d="M252.97894,208.04765c2.324,0 4.4296,0.254 5.9541,0.6647c1.5245,0.4101 2.4685,0.977 2.4685,1.6029c0,0.6259 -0.944,1.1928 -2.4685,1.6029c-1.5245,0.4107 -3.6301,0.6647 -5.9541,0.6647c-2.3239,0 -4.4296,-0.254 -5.9541,-0.6647c-1.5244,-0.4101 -2.4684,-0.977 -2.4684,-1.6029c0,-0.6259 0.944,-1.1928 2.4684,-1.6029c1.5245,-0.4107 3.6302,-0.6647 5.9541,-0.6647z"/></g><path d="M127.02472,245.33286h106v20h-106.00001z" data-paper-data="{&quot;origPos&quot;:null}" fill="#c2c2c2" stroke="none" stroke-width="1" stroke-linecap="butt"/><path d="M137.02471,211.33797l98,4.0051l-3,30.9949h-104z" data-paper-data="{&quot;origPos&quot;:null}" fill="#ffffff" stroke="none" stroke-width="0.79382" stroke-linecap="round"/><path d="M272.50095,226.48262l61.89744,-19.84605l13.6278,24.7531l-73.18587,17.84861z" data-paper-data="{&quot;origPos&quot;:null}" fill="#c2c2c2" stroke="none" stroke-width="1.75011" stroke-linecap="round"/><path d="M343.91065,187.06106c4.7599,0 9.0733,3.9063 12.1972,10.2169c3.1232,6.3098 5.0563,15.0246 5.0563,24.6422c0,9.6176 -1.9331,18.3324 -5.0563,24.6423c-3.1239,6.3105 -7.4373,10.2169 -12.1972,10.2169c-4.7598,0 -9.0732,-3.9064 -12.1972,-10.2169c-3.1232,-6.3099 -5.0563,-15.0247 -5.0563,-24.6423c0,-9.6176 1.9331,-18.3324 5.0563,-24.6422c3.124,-6.3106 7.43741,-10.2169 12.1972,-10.2169z" fill="#000000" stroke="#000000" stroke-width="1.40845" stroke-linecap="butt"/><path d="M359.79234,184.15327c4.2747,0 8.1479,4.0641 10.9521,10.6296c2.805,6.5655 4.5409,15.6324 4.5409,25.638c0,10.0057 -1.7359,19.0726 -4.5409,25.6381c-2.8042,6.5655 -6.6774,10.6295 -10.9521,10.6295c-4.2746,0 -8.1479,-4.064 -10.9521,-10.6295c-2.8049,-6.5655 -4.5408,-15.6324 -4.5408,-25.6381c0,-10.0056 1.7359,-19.0725 4.5408,-25.638c2.8042,-6.5655 6.6775,-10.6296 10.9521,-10.6296z" fill="#000000" stroke="#000000" stroke-width="1.40845" stroke-linecap="butt"/><path d="M351.21205,251.75895c3.1085,0 5.9254,0.3155 7.9655,0.8253c2.0395,0.5099 3.3021,1.2141 3.3021,1.9916c0,0.7774 -1.2626,1.4817 -3.3021,1.9915c-2.0401,0.5099 -4.857,0.8254 -7.9655,0.8254c-3.1084,0 -5.9253,-0.3155 -7.9655,-0.8254c-2.0394,-0.5098 -3.3021,-1.2141 -3.3021,-1.9915c0,-0.7775 1.2627,-1.4817 3.3021,-1.9916c2.0402,-0.5098 4.8571,-0.8253 7.9655,-0.8253z" fill="#000000" stroke="#000000" stroke-width="1.40845" stroke-linecap="butt"/><path d="M351.91635,184.15327c2.526,0 4.8147,0.2761 6.4718,0.7226c1.657,0.4457 2.6831,1.0619 2.6831,1.7422c0,0.6803 -1.0261,1.2965 -2.6831,1.7423c-1.6571,0.4464 -3.9458,0.7225 -6.4718,0.7225c-2.5261,0 -4.8148,-0.2761 -6.4719,-0.7225c-1.657,-0.4458 -2.6831,-1.062 -2.6831,-1.7423c0,-0.6803 1.0261,-1.2965 2.6831,-1.7422c1.6571,-0.4465 3.9458,-0.7226 6.4719,-0.7226z" fill="#000000" stroke="#000000" stroke-width="1.40845" stroke-linecap="butt"/><path d="M271.02468,191.33287l65,-4l-7,13l-64,1z" data-paper-data="{&quot;origPos&quot;:null}" fill="#c2c2c2" stroke="none" stroke-width="0.58823" stroke-linecap="butt"/><path d="M189.02473,214.33286l2,-14" fill="none" stroke="#000000" stroke-width="2" stroke-linecap="round"/><path d="M190.52473,175.33285c4.828,0 9.20299,1.681 12.37099,4.396c3.168,2.716 5.12901,6.466 5.12901,10.604c0,4.138 -1.961,7.888 -5.12901,10.604c-3.168,2.715 -7.54299,4.396 -12.37099,4.396c-4.828,0 -9.203,-1.681 -12.371,-4.396c-3.168,-2.716 -5.129,-6.466 -5.129,-10.604c0,-4.138 1.961,-7.888 5.129,-10.604c3.168,-2.715 7.543,-4.396 12.371,-4.396z" data-paper-data="{&quot;origPos&quot;:null}" fill="none" stroke="#000000" stroke-width="7" stroke-linecap="butt"/><path d="M194.02473,177.33287l-3,21" fill="none" stroke="#000000" stroke-width="7" stroke-linecap="round"/><path d="M174.02473,189.33287l30,3" fill="none" stroke="#000000" stroke-width="7" stroke-linecap="round"/><path d="M258.52468,223.33286c2.897,0 5.522,2.241 7.423,5.862c1.9,3.62 3.077,8.62 3.077,14.138c0,5.518 -1.177,10.518 -3.077,14.138c-1.901,3.621 -4.526,5.862 -7.423,5.862c-2.897,0 -5.522,-2.241 -7.423,-5.862c-1.9,-3.62 -3.077,-8.62 -3.077,-14.138c0,-5.518 1.177,-10.518 3.077,-14.138c1.901,-3.621 4.526,-5.862 7.423,-5.862z" data-paper-data="{&quot;origPos&quot;:null}" fill="#ffffff" stroke="none" stroke-width="1" stroke-linecap="butt"/><path d="M358.02475,195.41787c2.897,0 5.522,2.6864 7.423,7.0271c1.9,4.3395 3.077,10.3332 3.077,16.9479c0,6.6147 -1.177,12.6085 -3.077,16.9479c-1.901,4.3407 -4.526,7.0271 -7.423,7.0271c-2.897,0 -5.522,-2.6864 -7.423,-7.0271c-1.9,-4.3394 -3.077,-10.3332 -3.077,-16.9479c0,-6.6147 1.177,-12.6084 3.077,-16.9479c1.901,-4.3407 4.526,-7.0271 7.423,-7.0271z" data-paper-data="{&quot;origPos&quot;:null}" fill="#ffffff" stroke="none" stroke-width="1.10386" stroke-linecap="butt"/><text transform="translate(145.98949,235.99106) scale(0.41834,0.41834)" font-size="40" xml:space="preserve" fill="#d4d4d4" fill-rule="nonzero" stroke="none" stroke-width="1" stroke-linecap="butt" stroke-linejoin="miter" stroke-miterlimit="10" stroke-dasharray="" stroke-dashoffset="0" font-family="Handwriting" font-weight="normal" text-anchor="start" style="mix-blend-mode: normal"><tspan x="0" dy="0">Your Name</tspan></text><text transform="translate(25.25,37) scale(0.5,0.5)" font-size="40" xml:space="preserve" fill="#000000" fill-rule="nonzero" stroke="none" stroke-width="1" stroke-linecap="butt" stroke-linejoin="miter" stroke-miterlimit="10" stroke-dasharray="" stroke-dashoffset="0" font-family="Handwriting" font-weight="normal" text-anchor="start" style="mix-blend-mode: normal"><tspan x="0" dy="0">Copy this costume and add your character</tspan><tspan x="0" dy="46.15px">in it. You can also change the color and the name.</tspan><tspan x="0" dy="46.15px">You can remove this text after you copied this costume.</tspan></text></g></g></svg>