<svg version="1.1" xmlns="http://www.w3.org/2000/svg" xmlns:xlink="http://www.w3.org/1999/xlink" width="461.88051" height="357.26776" viewBox="0,0,461.88051,357.26776"><g transform="translate(-9.05966,-1.38344)"><g data-paper-data="{&quot;isPaintingLayer&quot;:true}" fill="none" fill-rule="nonzero" stroke="#757575" stroke-width="3.5" stroke-linecap="butt" stroke-linejoin="miter" stroke-miterlimit="10" stroke-dasharray="" stroke-dashoffset="0" style="mix-blend-mode: normal"><path d="M18.09633,325.01824l-0.7589,-0.8787l-0.3117,-0.9795c-1.8647,-3.5723 -2.919,-7.6347 -2.919,-11.9434v-53.6792l-0.2622,-1.0486l-0.291,-1.9887l-0.0768,-0.2414l-0.0896,-0.8954l-0.1303,-0.8903l0.016,-0.2529l-0.2,-1.9999v-0.5147l-0.7838,-2.0577l-0.2977,-1.8973l-0.5823,-1.8302l-0.4038,-4.0384v-0.4183l-0.1611,-1.0266l0.1611,-0.634v-6.1806l-0.1611,-0.6341l0.1611,-1.0266v-0.4182l0.4038,-4.0384l0.5823,-1.8302l0.0477,-0.3039v-7.2673l0.2,-1.9999l-0.016,-0.2529l0.1303,-0.8903l0.0895,-0.8954l0.0769,-0.2414l0.291,-1.9887l0.8847,-3.5387l0.4113,-2.0565v-1.5649l-0.161,-0.6341l0.161,-1.0266v-0.4182l0.4038,-4.0384l0.5824,-1.8302l0.0476,-0.3039v-16.9309l-0.6014,-2.6635l-0.0012,-0.0901l-0.0273,-0.0858l-0.4039,-4.0384v-43.4212l0.4039,-4.0384l0.0273,-0.0858l0.0012,-0.0901l0.6015,-2.6635v-6.562l0.4038,-4.0384l0.0273,-0.0859l0.0013,-0.09l0.6014,-2.6636v-16.9004l0.4039,-4.0384l0.0273,-0.0858l0.0012,-0.0901l0.8939,-3.9589l0.0113,-0.0338l0.1001,-1.0006l0.5823,-1.8301l0.2977,-1.8974l0.1533,-0.4026l0.0005,-0.0052l0.5824,-1.8302l0.2976,-1.8973l0.1534,-0.4026l0.0005,-0.0052l0.5823,-1.8302l0.2976,-1.8974l1.4449,-3.7927l0.187,-0.374l0.3151,-0.9903l0.4276,-0.4951l3.2056,-6.4112l2.1673,-3.4315l0.0628,-0.0646l0.0413,-0.08l2.5701,-3.1411l0.258,-0.258l0.6481,-0.9721l1.6165,-1.968l1.6127,-1.9711l2.0677,-2.0677l1.9711,-1.6127l1.968,-1.6166l0.0411,-0.0274l0.0274,-0.0411l1.6165,-1.9679l1.1334,-1.3853l0.9066,-1.4355l0.0629,-0.0645l0.0413,-0.08l2.5701,-3.1412l2.0676,-2.0677l3.1412,-2.57l0.08,-0.0414l0.0645,-0.0628l3.4315,-2.1672l4.1354,-2.0677l1.7128,-0.6525l1.6726,-0.7498l1.359,-0.453l0.4247,-0.2124l1.7129,-0.6525l1.0338,-0.4634l0.9142,-0.748l0.4064,-0.2102l1.8053,-1.5591l3.1414,-0.9996l2.9281,-1.5145l2.379,-0.1741l0.436,-0.1387l4.0385,-0.4038h2.4266l2.6636,-0.6015l0.09,-0.0012l0.0859,-0.0273l0.5309,-0.0531l2.9784,-1.1346l1.8973,-0.2977l1.8302,-0.5823l3.9543,-0.3954l2.2493,-0.7498l3.9589,-0.8939l0.09,-0.0013l0.0859,-0.0273l0.0052,-0.0005l0.4026,-0.1534l1.8973,-0.2976l1.8302,-0.5823l0.0052,-0.0005l0.4026,-0.1534l1.8974,-0.2976l1.8301,-0.5824l4.0199,-0.4019l0.6414,-0.1629l0.411,0.0644l0.411,-0.0644l0.6413,0.1629l4.0199,0.4019l1.8302,0.5824l0.3039,0.0476h22.2235l3.8824,-1.4558l1.4219,-0.3769l1.3846,-0.4971l4.1354,-1.0338l1.9886,-0.291l0.2415,-0.0769l0.8953,-0.0895l0.8904,-0.1303l0.2528,0.016l1.9999,-0.2h15.5076l1.9998,0.2l0.2529,-0.016l0.8903,0.1303l0.8954,0.0895l0.2414,0.0769l1.9887,0.291l0.4815,0.1204l0.0758,-0.0193l1.0266,0.161h0.4183l4.0384,0.4039l1.8302,0.5823l1.8973,0.2976l3.7927,1.4449l0.3741,0.187l0.9902,0.3151l0.4951,0.4276l4.3946,2.1973l0.413,0.0302l0.923,0.4774l0.3967,0.1323l3.7035,1.6601l1.5521,1.1312l1.7059,0.8824l0.9142,0.748l3.0647,1.3738l1.5521,1.1312l1.7059,0.8824l3.1411,2.57l0.2958,0.2957l0.8398,0.6121l0.3344,0.5622l2.6654,2.6653l0.906,1.1073l1.0004,1.0228l4.1354,5.1691l0.6104,0.9418l0.7124,0.8673l0.6481,0.9721l1.2918,1.2918l2.57,3.1412l0.0414,0.08l0.0628,0.0646l2.1673,3.4314l1.1391,2.2784l0.3485,0.2073l0.612,0.8398l0.2957,0.2957l2.5701,3.1412l0.8823,1.7058l1.1312,1.5522l0.5744,1.2813l1.1728,1.4278l1.6698,2.5046l1.9062,3.139l-1.1187,6.2879c0,0 8.34552,7.77223 9.58669,8.00907c1.56928,0.29945 3.12207,1.08936 5.18252,1.02242c2.06045,-0.06694 1.8196,-1.2499 1.8196,-1.2499l2.6641,-1.9417l2.2989,-2.3627l2.2018,-0.9175l0.3698,-0.2695l3.7035,-1.6602l1.1958,-0.3986l0.3387,-0.3296l3.5626,-3.6615l1.3623,-0.5676l2.0867,-1.7073l0.08,-0.0414l0.0646,-0.0628l3.3959,-2.1448l2.2896,-1.7172l3.4731,-2.1l1.0236,-0.3569l0.9224,-0.5694l3.8199,-1.3712l0.0924,-0.0231l1.2964,-0.6888l0.24,-0.1748l0.5712,-0.2561l0.5529,-0.2937l0.2853,-0.0821l2.2941,-1.0283l0.4147,-0.1382l4.2644,-4.2644l0.4307,-1.0337l1.7388,-1.6918l0.4543,-0.8782l0.9995,-3.1415l1.5591,-1.8052l0.2102,-0.4065l2.57,-3.1411l0.1358,-0.1358l1.2258,-2.4516l0.7077,-1.1205l0.7371,-1.7692l3.6616,-3.5626l3.5626,-3.6615l1.7691,-0.7372l1.1205,-0.7076l0.8971,-0.4486l1.7299,-1.4153l0.08,-0.0414l0.0646,-0.0628l3.4314,-2.1673l0.2083,-0.1041l0.4951,-0.4276l0.9902,-0.3151l0.3741,-0.187l3.7927,-1.4448l1.8974,-0.2977l1.8301,-0.5823l4.0385,-0.4038h0.4182l0.575,-0.0902l2.2086,-0.4418l1.046,-0.1025l0.3922,-0.1494l1.8974,-0.2977l1.8302,-0.5823l4.0384,-0.4038h0.4182l1.0266,-0.1611l0.6341,0.1611h8.6184l2.6636,-0.6015l0.09,-0.0012l0.0859,-0.0273l4.0384,-0.4038h4.1659l0.3039,-0.0477l1.8301,-0.5823l4.0384,-0.4039h0.4183l1.0266,-0.161l0.6341,0.161h7.2143l0.6341,-0.161l1.0266,0.161h0.4182l4.0385,0.4039l1.8301,0.5823l1.8974,0.2976l3.7927,1.4449l0.1379,0.0689l0.1862,-0.0377l6.1921,2.58l3.1188,0.9924l0.6872,0.5935l0.8381,0.3492l2.2824,2.3458l5.0768,4.3845l0.2474,0.9153l0.6295,0.647l0.647,0.6296l0.9153,0.2473l4.3845,5.0768l2.3458,2.2824l0.3492,0.8382l0.5935,0.6871l0.9175,2.8835l1.6523,2.6162l0.1041,0.2083l0.4276,0.4951l0.3151,0.9902l0.187,0.3741l0.822,2.1575l2.0758,2.5372l0.2102,0.4064l1.5591,1.8053l0.222,0.6975l0.903,0.8786l0.3492,0.8382l0.5935,0.6872l0.9923,3.1188l2.5801,6.192l-0.3317,1.6387l0.0377,0.2402l0.5823,1.8301l0.4039,4.0385v0.4182l0.161,1.0266l-0.0395,0.1555l0.5085,1.5981l0.4038,4.0384v0.4182l0.1611,1.0266l-0.1611,0.6341v2.087l0.0477,0.3039l0.5823,1.8301l0.2182,2.1816l0.4478,1.7913l0.291,1.9887l0.0769,0.2415l0.0895,0.8953l0.1303,0.8903l-0.016,0.2529l0.2,1.9999v7.2256l0.161,0.6341l-0.161,1.0266v0.4182l-0.4038,4.0384l-0.5824,1.8302l-0.2976,1.8974l-1.4448,3.7927l-0.0532,0.1063l-0.6122,2.7112l-0.4554,1.3664l0.0557,0.2755l-0.738,1.7712l-0.93,2.79l-1.6601,3.7034l-0.2696,0.3699l-0.9174,2.2018l-2.3183,2.2556l-0.7832,1.8797l-2.3627,2.2989l-1.9417,2.6642l-2.0499,1.2195l-0.328,0.3192l-3.4315,2.1672l-0.8971,0.4485l-1.7299,1.4154l-0.08,0.0414l-0.0645,0.0628l-1.9353,1.2222l-1.4934,1.2898l-2.2823,2.3457l-0.8382,0.3493l-0.6872,0.5935l-3.1188,0.9923l-6.192,2.58l-1.2553,-0.254l-1.8277,0.6963l-1.3148,0.2062l-0.7215,0.2296l-0.374,0.187l-3.7927,1.4448l-1.8974,0.2977l-1.8302,0.5823l-3.3459,0.3346l-2.8972,1.9315l-1.4192,0.754l-1.3589,0.8582l-0.3839,0.1919l-1.1696,1.1696l-3.1411,2.5701l-0.08,0.0413l-0.0646,0.0628l-3.4314,2.1673l-0.384,0.1919l-1.1696,1.1696l-3.2211,2.6114l-0.0646,0.0628l-3.4314,0.4173l-4.62793,-0.69349l-3.12868,6.53919l2.5701,3.1411l0.0414,0.08l0.0628,0.0646l0.9066,1.4355l1.1334,1.3852l0.6327,0.7703l3.4434,1.7217l3.4315,2.1672l0.0645,0.0628l0.08,0.0414l0.8556,0.7l3.033,0.872l0.4855,0.2579l1.6849,0.5361l1.0801,0.9328l0.3337,0.1773l1.7626,1.1751l2.6962,1.3481l1.1204,0.7077l1.7692,0.7371l3.5626,3.6616l0.4227,0.4112l0.1501,0.0626l1.2551,1.29l1.7694,1.4534l1.6431,2.0538l1.8341,1.8851l0.724,1.1464l0.7371,0.7371l2.5701,3.1411l0.0413,0.08l0.0628,0.0646l2.1673,3.4315l1.0338,2.0676l0.6525,1.7129l0.2356,0.5256l2.0097,2.4562l0.0413,0.08l0.0628,0.0646l2.1673,3.4315l2.0676,4.1353l0.6526,1.7129l0.5905,1.3174l2.5194,3.3592l1.1834,1.9571l2.0872,2.5511l0.8824,1.7059l1.1312,1.5521l1.6602,3.7035l0.1322,0.3967l0.4774,0.923l0.0478,0.6525l1.4102,4.2308l0.894,3.9589l0.0012,0.09l0.0273,0.0859l0.1001,1.0005l0.0113,0.0339l0.8939,3.9588l0.0013,0.0901l0.0273,0.0858l0.4038,4.0384v20.6768l-0.4038,4.0384l-0.0273,0.0858l-0.0012,0.09l-0.894,3.9589l-1.0338,3.1015l-1.0284,2.2941l-0.082,0.2853l-0.2937,0.5529l-0.2561,0.5712l-0.1748,0.24l-0.5065,0.9534l-0.1503,2.0541l-1.5146,2.9281l-0.9995,3.1414l-1.5591,1.8053l-0.2102,0.4064l-2.5701,3.1412l-2.0795,2.0795l-1.2541,1.4521l-0.2714,0.0734l-2.1618,2.1618l-0.3345,0.5622l-0.8398,0.6121l-0.2957,0.2957l-3.1412,2.57l-1.7059,0.8824l-1.5521,1.1312l-0.4569,0.2048l-10.7192,10.7191l-3.1411,2.5701l-0.08,0.0414l-0.0646,0.0628l-3.4314,2.1672l-0.8971,0.4486l-1.7299,1.4153l-0.4065,0.2102l-1.8052,1.5591l-3.1414,0.9996l-2.9282,1.5145l-2.3789,0.1741l-0.4361,0.1387l-2.1815,0.2182l-1.7914,0.4478l-1.9886,0.291l-0.2415,0.0769l-0.6159,0.0616l-3.2781,0.9424l-3.3428,1.0637l-0.547,0.0547l-1.6993,0.4885l-1.4162,-0.177l-0.3759,0.0376h-0.9536l-1.0486,0.2621l-1.9886,0.2911l-0.2415,0.0768l-0.8953,0.0895l-0.8904,0.1303l-0.2528,-0.0159l-1.9999,0.1999h-10.3271l-0.6341,0.1611l-1.0266,-0.1611h-0.4182l-4.0385,-0.4038l-1.8301,-0.5823l-1.8974,-0.2976l-0.4026,-0.1534l-0.0052,-0.0005l-0.0858,-0.0273l-0.0901,-0.0013l-3.9589,-0.8939l-3.1015,-1.0338l-1.6725,-0.7498l-1.7129,-0.6525l-4.5601,-2.2801l-1.359,-0.453l-2.294,-1.0284l-0.2854,-0.082l-0.5528,-0.2937l-0.5713,-0.2561l-0.2399,-0.1748l-2.2201,-1.1795l-1.7627,-1.1751l-2.6961,-1.348l-3.4315,-2.1673l-0.0645,-0.0628l-0.08,-0.0413l-3.1412,-2.5701l-1.2918,-1.2918l-1.2895,-0.8597l-3.4256,-1.5356l-1.5521,-1.1312l-1.7059,-0.8823l-2.843,-2.3262l-2.1422,-1.108l-3.1414,-0.9995l-1.8053,-1.5591l-0.4064,-0.2102l-2.3325,-1.9084l-1.0049,-0.5339l-6.5205,-4.347l-3.4255,-1.5356l-0.3698,-0.2695l-2.2018,-0.9174l-2.2989,-2.3628l-1.8473,-1.3463l-1.023,-0.4262l-3.5626,-3.6616l-3.6615,-3.5626l-0.0038,-0.009l-0.0089,-0.0037l-1.2552,-1.29l-1.7694,-1.4535l-1.643,-2.0538l-1.8342,-1.885l-0.724,-1.1464l-1.7709,-1.771l-2.4588,-3.0052l-1.6143,-1.2913l-2.7086,-2.6498l-0.0745,-0.0596l-0.0555,-0.0676l-0.0625,-0.0612l-0.0529,-0.0793l-2.4052,-2.9281l-2.0677,-3.1015l-0.5338,-1.0049l-1.9084,-2.3325l-0.0414,-0.08l-0.0628,-0.0645l-6.7107,-8.2684l-3.8588,-3.789l-1.3854,-2.0479l-5.1746,-8.2339l-2.2454,-6.6743l-0.5648,-4.4829l-9.3473,4.6118l-7.991,6.3244l-3.1412,2.57l-0.08,0.0414l-0.0646,0.0628l-1.4355,0.9067l-1.3852,1.1333l-1.968,1.6166l-0.9721,0.648l-9.5625,9.5626l-3.1411,2.57l-0.08,0.0414l-0.0646,0.0628l-1.4355,0.9066l-2.5553,2.0907l-1.7059,0.8824l-0.5238,0.3818l-2.592,2.6639l-1.7692,0.7372l-1.0583,0.6684l-0.6177,2.1482l-0.2579,0.4855l-0.5361,1.6849l-0.9328,1.0801l-0.1773,0.3337l-1.1751,1.7626l-2.3819,4.7638l-0.8582,1.3588l-0.754,1.4193l-2.0676,3.1015l-1.6166,1.968l-1.6127,1.9711l-2.8048,2.8048l-0.724,1.1464l-0.0628,0.0645l-0.0414,0.08l-1.7073,2.0867l-0.5676,1.3623l-3.6616,3.5626l-0.3856,0.3964l-0.5445,0.84l-4.1353,5.1692l-1.0005,1.0227l-0.906,1.1073l-0.258,0.258l-0.648,0.9721l-1.6166,1.968l-1.6127,1.9711l-2.0677,2.0677l-3.1411,2.57l-0.08,0.0414l-0.0646,0.0628l-3.4315,2.1672l-2.2759,1.138l-0.4951,0.4276l-0.9902,0.3151l-0.3741,0.187l-3.7927,1.4448l-1.8974,0.2977l-1.8301,0.5823l-0.0053,0.0005l-0.4025,0.1534l-1.8974,0.2976l-1.8302,0.5823l-0.0052,0.0006l-0.4026,0.1533l-1.697,0.2662l-0.9215,0.4608l-0.4951,0.4276l-0.9903,0.3151l-0.3741,0.187l-1.0164,0.3872l-0.2292,0.2356l-0.8382,0.3493l-0.6872,0.5935l-0.6975,0.2219l-0.8786,0.903l-0.8382,0.3493l-0.6871,0.5934l-3.1188,0.9924l-2.6951,1.1229l-0.7196,0.4545l-4.3436,2.1718l-0.4951,0.4276l-0.9903,0.3151l-0.374,0.187l-3.7927,1.4449l-1.8974,0.2976l-1.8302,0.5823l-0.0052,0.0006l-0.4026,0.1533l-1.8973,0.2977l-1.8302,0.5823l-4.0384,0.4038h-0.4182l-1.0266,0.1611l-0.6341,-0.1611h-7.2144l-0.6341,0.1611l-1.0266,-0.1611h-0.4182l-4.0384,-0.4038l-1.8302,-0.5823l-1.8974,-0.2977l-3.7927,-1.4448l-0.374,-0.187l-0.9903,-0.3151l-0.4951,-0.4276l-8.4789,-4.2395l-1.1205,-0.7076l-1.7692,-0.7372l-3.5626,-3.6616l-0.0718,-0.0699l-0.9948,-0.2688l-3.1815,-3.6838l-3.6838,-3.1815l-0.4264,-1.5778l-0.3813,-0.4414l-0.7113,-2.2355l-1.4475,-1.4084l-0.4342,-1.0421c-1.4757,-1.4281 -2.7818,-3.0303 -3.885,-4.7737zM75.96653,300.56715l0.6872,-0.5935l0.6976,-0.222l0.8786,-0.903l0.8381,-0.3492l0.6872,-0.5935l3.1188,-0.9923l6.1921,-2.5801l0.9006,0.1823l0.0833,-0.0265l0.374,-0.187l3.7927,-1.4449l1.8974,-0.2976l1.8302,-0.5823l0.0052,-0.0006l0.4026,-0.1533l1.8973,-0.2976l0.928,-0.2953l1.1385,-1.3915l1.0555,-1.0555l1.769,-2.2112l0.2786,-0.4411l0.7371,-1.7692l3.6616,-3.5626l0.5169,-0.5313l1.8403,-2.2493l0.9067,-1.4355l0.0628,-0.0645l0.0413,-0.08l2.5701,-3.1412l3.2372,-3.2373l2.2597,-4.5192l0.8582,-1.3588l0.1173,-0.2209l0.8002,-2.7834l0.2579,-0.4855l0.5362,-1.6849l0.9328,-1.0801l0.1772,-0.3337l4.1354,-6.203l1.6165,-1.968l1.6128,-1.9711l4.1353,-4.1353l3.1412,-2.5701l0.08,-0.0414l0.0645,-0.0628l0.6708,-0.4236l0.0772,-0.1297l2.6641,-1.9417l2.2989,-2.3627l2.2018,-0.9174l0.3698,-0.2696l1.2862,-0.5765l0.625,-0.5114l0.08,-0.0414l0.0646,-0.0628l1.1464,-0.7241l9.0078,-9.0077l1.9711,-1.6128l1.968,-1.6165l0.972,-0.6481l0.2581,-0.258l3.1411,-2.57l0.08,-0.0414l0.0646,-0.0628l1.1464,-0.724l1.0451,-1.0451l0.4307,-1.0337l3.6615,-3.5626l3.5626,-3.6615l1.7692,-0.7372l1.1205,-0.7077l13.0344,-6.5172l1.7627,-1.1751l0.3337,-0.1773l1.0801,-0.9328l1.6849,-0.5361l0.4855,-0.2579l3.3713,-0.9693l3.3428,-1.0636l0.547,-0.0547l1.6993,-0.4885l1.4162,0.177l0.3574,-0.0358l0.6414,-0.1629l1.0266,0.1611h0.4182l4.0384,0.4038l3.709,0.4312l6.1921,2.4372l3.1188,0.9923l0.6872,0.5935l0.8381,0.3493l2.2824,2.3457l6.7184,5.5426l6.2955,5.2678l1.3852,1.1333l1.4355,0.9067l0.0646,0.0628l0.08,0.0413l3.1411,2.5701l1.771,1.7709l1.1464,0.724l0.0645,0.0628l0.08,0.0414l0.5877,0.4809l0.1994,0.0573l0.5528,0.2937l0.5713,0.2561l0.2399,0.1748l2.2202,1.1795l6.203,4.1353l1.968,1.6166l1.9711,1.6127l4.1353,4.1353l1.6127,1.9711l1.6166,1.968l2.0677,3.1015l0.754,1.4193l0.8582,1.3588l2.5162,5.0325l1.4153,1.7299l0.0414,0.08l0.0628,0.0645l1.6158,2.5584l0.1531,0.0638l0.5804,0.5964l1.1172,0.8938l2.9012,2.8381l0.8431,1.2647l1.0599,1.0893l0.724,1.1464l1.771,1.771l1.8584,2.2714l0.3058,0.2512l1.9711,1.6127l3.1015,3.1015l0.223,0.2726l1.1187,0.4661l2.2783,2.3416l1.7454,0.9273l7.9657,5.3104l0.6285,0.3142l1.9643,1.2406l2.171,0.8271l0.3741,0.1871l0.9902,0.315l0.4951,0.4276l2.276,1.138l3.4314,2.1672l0.0646,0.0628l0.08,0.0414l3.1411,2.57l0.3808,0.3808l0.4569,0.2048l0.24,0.1749l2.2201,1.1794l6.203,4.1354l1.968,1.6165l1.9711,1.6127l0.1357,0.1358l0.384,0.192l1.3588,0.8582l1.4193,0.754l0.3174,0.2116l1.3946,0.6252l1.7129,0.6525l3.5634,1.7817l0.2886,0.0288l1.8301,0.5824l0.3039,0.0476h5.1195l1.0485,-0.2621l1.9887,-0.291l0.2415,-0.0768l0.6159,-0.0616l3.2781,-0.9425l3.3428,-1.0636l0.547,-0.0547l1.6993,-0.4886l1.4161,0.177l0.376,-0.0376h0.257l0.5904,-0.3729l0.384,-0.1919l10.0379,-10.038l0.3345,-0.5622l0.8398,-0.612l0.2957,-0.2958l3.1412,-2.57l1.7059,-0.8824l0.4946,-0.3604l0.8151,-1.8184l0.082,-0.2854l0.2937,-0.5528l0.2561,-0.5713l0.115,-0.1578v-11.0689l-0.6014,-2.6636l-0.0012,-0.0839l-1.8155,-2.8746l-1.7172,-2.2896l-0.372,-0.6153l-0.4564,-0.5555l-2.0677,-3.1015l-1.1794,-2.2202l-0.1748,-0.2399l-0.2561,-0.5712l-0.2937,-0.5529l-0.0821,-0.2853l-1.0283,-2.2941l-0.1606,-0.4818l-2.3687,-2.8951l-0.0414,-0.08l-0.0628,-0.0645l-2.1672,-3.4315l-1.0339,-2.0676l-0.6525,-1.7129l-0.2356,-0.5256l-1.298,-1.5865l-1.474,-1.2108l-0.4307,-0.5383l-0.2007,-0.0315l-3.7927,-1.4449l-0.3741,-0.187l-0.9902,-0.3151l-0.4951,-0.4276l-2.2759,-1.1379l-3.4315,-2.1673l-0.0646,-0.0628l-0.08,-0.0414l-1.7298,-1.4153l-5.0325,-2.5162l-3.4315,-2.1673l-0.0645,-0.0628l-0.08,-0.0414l-3.1412,-2.57l-2.0677,-2.0677l-1.6127,-1.9711l-1.6165,-1.9679l-0.6481,-0.9721l-0.258,-0.258l-2.57,-3.1412l-0.0414,-0.08l-0.0628,-0.0645l-0.7241,-1.1464l-3.8386,-3.8386l-2.57,-3.1412l-0.0414,-0.08l-0.0628,-0.0646l-0.9066,-1.4355l-2.0907,-2.5552l-0.0414,-0.08l-0.0628,-0.0646l-2.1672,-3.4315l-0.1041,-0.2082l-0.4276,-0.4951l-0.3151,-0.9903l-0.187,-0.374l-1.4449,-3.7927l-0.2976,-1.8974l-0.5823,-1.8302l-0.4039,-4.0384v-0.4182l-0.161,-1.0266l0.161,-0.6341v-10.3159l-0.161,-0.6341l0.161,-1.0266v-0.4182l0.4039,-4.0384l0.5823,-1.8302l0.2977,-1.8973l1.4448,-3.7927l0.187,-0.3741l0.3151,-0.9902l0.4276,-0.4951l1.138,-2.276l2.1672,-3.4314l0.0628,-0.0646l0.0414,-0.08l1.7073,-2.0867l0.5676,-1.3623l3.6616,-3.5626l3.5626,-3.6615l1.7691,-0.7372l0.243,-0.1534l3.157,-3.2447l1.7692,-0.7372l1.1205,-0.7077l0.2083,-0.1041l0.4951,-0.4276l0.9902,-0.3151l0.3741,-0.187l3.7927,-1.4448l1.0687,-0.1677l1.0175,-0.424l0.1862,0.0377l2.5895,-1.2947l1.1696,-1.1696l3.1411,-2.57l0.08,-0.0414l0.0646,-0.0628l3.4314,-2.1672l0.384,-0.192l1.1696,-1.1696l3.1411,-2.57l0.08,-0.0414l0.0646,-0.0628l3.4314,-2.1672l2.4516,-1.2258l1.1696,-1.1696l3.1412,-2.5701l0.4064,-0.2102l1.8053,-1.5591l3.1414,-0.9995l2.9281,-1.5145l2.379,-0.1741l0.436,-0.1388l0.0053,-0.0005l0.4025,-0.1534l1.8974,-0.2976l1.8302,-0.5823l4.0384,-0.4039h0.4182l0.1641,-0.0257l1.9901,-0.7581l1.3147,-0.2063l0.7215,-0.2295l0.3741,-0.1871l1.0164,-0.3872l0.2293,-0.2356l1.7692,-0.7372l1.1205,-0.7076l0.8971,-0.4486l1.0628,-0.8696l0.2831,-0.2754l0.261,-1.6642l0.7839,-2.0576v-0.4345l-0.2621,-1.0486l-0.2911,-1.9886l-0.0768,-0.2415l-0.0005,-0.0052l-0.1534,-0.4026l-0.2976,-1.8974l-0.5823,-1.8301l-0.4038,-4.0385v-0.4182l-0.1611,-1.0266l0.1611,-0.634v-2.087l-0.0477,-0.3039l-0.5823,-1.8302l-0.1285,-1.2846l-0.1462,-0.1692l-0.9174,-2.8835l-0.3917,-0.6203l-2.0907,-2.5552l-0.2103,-0.4065l-1.559,-1.8052l-0.9996,-3.1415l-0.8095,-1.565l-1.2924,-1.4965l-0.212,-0.6662l-0.3954,-0.4064l-0.4065,-0.3955l-0.26,-0.0827h-0.9536l-0.3039,0.0477l-1.8302,0.5823l-4.0384,0.4038h-0.4182l-1.0266,0.1611l-0.6341,-0.1611h-2.4154l-2.6636,0.6015l-0.09,0.0012l-0.0858,0.0273l-4.0385,0.4039l-8.4227,-1.2024l-5.3855,-1.8621l-2.7536,4.2007l-1.0752,1.6128l-0.5991,1.5728l-0.1871,0.3741l-0.315,0.9902l-0.4276,0.4951l-1.138,2.2759l-0.7077,1.1205l-0.7371,1.7692l-3.6616,3.5626l-0.5169,0.5313l-2.3197,2.8351l-5.4772,5.4772l-0.4307,1.0336l-3.6615,3.5626l-3.5626,3.6616l-1.7692,0.7372l-1.1205,0.7076l-2.0676,1.0339l-1.7129,0.6525l-1.6726,0.7498l-2.9194,0.9731l-0.2216,0.1477l-3.5842,1.9041l-0.3522,0.1013l-0.3119,0.1925l-2.6331,0.9452l-0.2185,0.1639l-1.9572,1.1834l-2.0172,1.6505l-1.2971,1.6214l-1.7694,1.4534l-1.2552,1.2901l-0.9669,0.4029l-2.2462,1.4974l-1.4193,0.754l-1.3041,0.8237l-0.2792,0.67l-3.6616,3.5626l-3.5626,3.6616l-1.3623,0.5676l-0.9166,0.75l-1.968,1.6165l-0.9721,0.6481l-0.258,0.258l-3.1411,2.57l-0.4065,0.2103l-1.8053,1.559l-3.1414,0.9996l-1.9721,1.02l-0.0556,0.0481l-0.0969,0.0308l-0.8035,0.4156l-0.6528,0.0477l-0.1318,0.042l-0.4855,0.2579l-3.3713,0.9693l-3.3428,1.0636l-0.547,0.0547l-1.6993,0.4885l-4.4826,0.0216l-1.0266,-0.161h-0.4182l-4.0385,-0.4038l-1.8301,-0.5823l-1.8974,-0.2977l-7.3582,-2.5344l-6.0695,-2.514l-3.2635,-1.5607l-1.4073,-0.7788l-4.0914,-1.7048l-2.6589,-2.0308l-2.5103,-2.1045l-3.5626,-3.6616l-3.6615,-3.5626l-0.5676,-1.3623l-0.75,-0.9166l-1.6166,-1.968l-2.0676,-3.1015l-0.754,-1.4192l-0.8582,-1.3589l-4.4496,-8.8991l-0.7772,-1.1657l-2.671,-3.5615l-0.372,-0.6152l-0.4564,-0.5556l-0.648,-0.972l-0.2581,-0.2581l-2.57,-3.1411l-0.8823,-1.7059l-1.1312,-1.5521l-0.3488,-0.778l-0.8157,-0.997l-1.6166,-1.968l-2.0677,-3.1015l-0.754,-1.4193l-0.8581,-1.3588l-0.192,-0.3839l-0.1358,-0.1358l-1.6127,-1.9711l-1.6165,-1.968l-1.4455,-2.1682l-1.9687,-2.4609l-0.0793,-0.0302l-2.0676,-1.0338l-3.4315,-2.1672l-0.0646,-0.0628l-0.0799,-0.0414l-0.5104,-0.4176l-1.0828,-0.4125l-3.2151,-1.6076l-0.7754,-0.1134l-0.8953,-0.0896l-0.2415,-0.0768l-1.9887,-0.291l-1.0485,-0.2622h-9.0175l-6.6392,2.4898l-3.9231,1.0398l-0.5699,0.0289l-0.5437,0.173l-4.0384,0.4039h-28.9362l-0.6341,0.161l-1.0266,-0.161h-0.4182l-2.5573,-0.2557l-0.0151,0.0057l-1.8974,0.2977l-1.8301,0.5823l-0.531,0.0531l-2.9784,1.1346l-1.8973,0.2976l-1.8302,0.5824l-3.9543,0.3954l-2.2493,0.7498l-3.9589,0.8939l-0.09,0.0013l-0.0858,0.0273l-1.0005,0.1l-0.0339,0.0113l-3.9589,0.894l-0.0901,0.0012l-0.0858,0.0273l-1.5809,0.1581l-1.2372,0.6186l-1.7129,0.6525l-1.6726,0.7498l-1.3589,0.453l-0.4248,0.2124l-1.7129,0.6525l-0.7617,0.3415l-1.1466,1.4014l-0.258,0.258l-0.6481,0.9721l-1.6165,1.9679l-1.6128,1.9712l-2.0676,2.0676l-1.9711,1.6127l-1.968,1.6166l-0.0411,0.0274l-0.0274,0.0411l-1.6166,1.968l-0.458,0.5598l-0.8052,1.6104l-0.2662,1.6971l-0.1534,0.4025l-0.0005,0.0053l-0.5823,1.8301l-0.2977,1.8974l-0.1533,0.4026l-0.0005,0.0052l-0.0273,0.0858l-0.0013,0.0901l-0.6014,2.6636v16.9003l-0.4039,4.0384l-0.0273,0.0859l-0.0012,0.09l-0.6014,2.6636v6.562l-0.4039,4.0384l-0.0273,0.0858l-0.0012,0.0901l-0.6014,2.6636v35.8683l0.6014,2.6636l0.0012,0.0901l0.0273,0.0858l0.4039,4.0384v22.7332l0.161,0.6341l-0.161,1.0266v0.4182l-0.4039,4.0384l-0.5823,1.8302l-0.0477,0.3039v2.0982l-0.2534,2.5341l-0.2485,2.5347l-1.0338,5.1692l-0.1805,0.5896l-0.0893,0.6101l-0.2621,1.0486v6.1115l0.161,0.6341l-0.161,1.0266v0.4182l-0.4039,4.0384l-0.5823,1.8302l-0.0477,0.3039v1.4948l0.532,1.7376l1.0338,5.1692l0.2485,2.5346l0.24,2.4004l0.2755,1.1021l0.291,1.9887l0.0769,0.2414l0.0895,0.8954l0.1303,0.8903l-0.016,0.2529l0.2,1.9998v46.641c0,0 1.54138,2.1343 3.0296,2.4747c1.48822,0.3404 6.1353,-0.3784 6.1353,-0.3784z" data-paper-data="{&quot;origPos&quot;:null}"/></g></g></svg>