<svg version="1.1" xmlns="http://www.w3.org/2000/svg" xmlns:xlink="http://www.w3.org/1999/xlink" width="458.3706" height="346.18548" viewBox="0,0,458.3706,346.18548"><g transform="translate(-10.81473,-6.89262)"><g data-paper-data="{&quot;isPaintingLayer&quot;:true}" fill="none" fill-rule="nonzero" stroke="#7e7e7e" stroke-width="3" stroke-linecap="butt" stroke-linejoin="miter" stroke-miterlimit="10" stroke-dasharray="" stroke-dashoffset="0" style="mix-blend-mode: normal"><path d="M242.5,348.57788h-10.98913l-0.61332,0.15576l-0.993,-0.15576h-0.40454l-3.90625,-0.39062l-1.77027,-0.56327l-0.29394,-0.04611h-6.05908l-0.29394,0.04611l-1.77027,0.56327l-3.73359,0.37336l-4.06268,0.67711l-2.05789,0.13494l-2.05208,0.20521h-88l-3.90625,-0.39062l-0.08302,-0.02641l-0.08711,-0.00119l-3.82932,-0.86469l-2.17565,-0.72522l-2.36987,-0.23699l-2.45169,-0.24036l-3.04807,-0.60961l-2.95527,-0.29553l-0.08302,-0.02641l-0.08711,-0.00119l-3.09527,-0.69893l-2.73461,-0.27346l-0.08302,-0.02641l-0.08711,-0.00119l-3.09527,-0.69893l-2.73461,-0.27346l-1.77027,-0.56327l-1.83527,-0.28789l-2.16906,-0.82631l-3.2254,-0.32254l-1.77027,-0.56327l-0.23228,-0.03644l-1.58506,0.32079l-5.98941,-2.49559l-3.01673,-0.95987l-0.6647,-0.57406l-0.81072,-0.3378l-2.20416,-2.26538l-1.30838,-0.58651l-0.35771,-0.2607l-2.12975,-0.8874l-0.84984,-0.87345l-0.67473,-0.21469l-0.47891,-0.41361l-4.20143,-2.10071l-2.53053,-1.59823l-2.78913,-0.88745l-1.74617,-1.50805l-0.39315,-0.20336l-1.67326,-1.36903l-0.86776,-0.43388l-3.31916,-2.09631l-0.06244,-0.06075l-0.07738,-0.04002l-3.03835,-2.48592l-0.5781,-0.5781l-0.54383,-0.32354l-0.59201,-0.8123l-0.28605,-0.28605l-2.48592,-3.03835l-0.85348,-1.65006l-1.09417,-1.5013l-0.55561,-1.23944l-1.13441,-1.38102l-1.3982,-2.0973l-3.32226,-4.15283l-1.01965,-1.57317l-1.33363,-1.54421l-1.38156,-4.34204l-1.63364,-4.25362l0.07673,-2.03894l-0.18654,-1.86541v-59.98913l-0.15576,-0.61332l0.15576,-0.993v-0.40454l0.39063,-3.90625l0.36687,-1.15302l-0.08795,-0.43459l0.41008,-0.98419l0.16216,-1.03374l1.39754,-3.66855l0.18092,-0.36183l0.30476,-0.95783l0.41361,-0.47891l0.10071,-0.20143l0.68451,-1.08381l0.71303,-1.71128l1.58989,-1.54692l1.01257,-2.658l0.83227,-1.66454l0.43466,-1.60825l1.18126,-1.02018l0.64813,-1.0262l0.06075,-0.06244l0.04002,-0.07738l0.0985,-0.12039l1.19009,-3.74029l0.36879,-0.42702l0.41246,-1.52611l3.29025,-2.84158l0.44282,-0.88563l2.09631,-3.31916l0.06075,-0.06244l0.04002,-0.07738l1.55164,-1.89644l0.51821,-1.91736l4.91067,-4.24103l2.20766,-2.26898l0.81072,-0.3378l0.6647,-0.57406l3.01673,-0.95987l5.98941,-2.49559l2.2483,0.45501l1.24556,-0.12456h2l0.24705,0.0247l0.70167,-0.11007l1.05128,-1.21727v-14.72691l-0.04611,-0.29394l-0.56327,-1.77027l-0.39062,-3.90625v-0.40454l-0.15576,-0.993l0.15576,-0.61332v-6.10218l-0.30094,-0.72225l-0.57406,-0.6647l-0.55591,-1.74715l-2.66284,-2.29972l-0.61821,-2.28736l-2.25118,-2.19034l-0.71303,-1.71128l-0.68451,-1.08381l-2.10071,-4.20143l-0.41361,-0.47891l-0.30476,-0.95783l-0.18092,-0.36183l-0.62117,-1.63058l-0.1119,-0.09664l-0.18334,-0.67837l-0.397,-1.04213l-0.20091,-0.23263l-0.08703,-0.27352l-0.4911,-0.13273l-4.24103,-4.91067l-2.26898,-2.20766l-0.3378,-0.81072l-0.57406,-0.6647l-0.95987,-3.01673l-2.49559,-5.98941l0.45501,-2.2483l-0.12456,-1.24556v-4l0.1202,-1.20197l-0.25563,-3.49366l1.50406,-2.61817l-0.36862,-3.6862v-8.98913l-0.15576,-0.61332l0.15576,-0.993v-0.40454l0.39063,-3.90625l0.36687,-1.15302l-0.08795,-0.43459l0.41008,-0.98419l0.16216,-1.03374l1.39754,-3.66855l0.18092,-0.36183l0.30476,-0.95783l0.41361,-0.47891l0.10071,-0.20143l0.68451,-1.08381l0.71303,-1.71128l3.5069,-3.41212l0.41013,-1.28897l0.28789,-1.83527l1.39754,-3.66855l0.18092,-0.36183l0.30476,-0.95783l0.41361,-0.47891l3.10071,-6.20143l2.09631,-3.31916l0.06075,-0.06244l0.04002,-0.07738l2.48592,-3.03835l2,-2l0.2637,-0.21575l0.45083,-1.082l2.94318,-2.86364l0.05682,-0.13636l2.02117,-1.96654l1.96654,-2.02117l0.13636,-0.05682l2.86364,-2.94318l1.71128,-0.71303l1.08381,-0.68451l2.20143,-1.10071l0.47891,-0.41361l0.95783,-0.30476l0.36183,-0.18092l3.66855,-1.39754l1.83527,-0.28789l1.77027,-0.56327l3.90625,-0.39062h0.40454l0.993,-0.15576l0.61332,0.15576h1.88199l0.56497,-0.17976l0.36183,-0.18092l3.66855,-1.39754l1.83527,-0.28789l1.77027,-0.56327l3.90625,-0.39062h0.40454l0.993,-0.15576l0.61332,0.15576h25.97827l0.61332,-0.15576l0.993,0.15576h0.40454l3.90625,0.39063l1.77027,0.56327l0.29394,0.04611h34.37677l2.5764,-0.58177l0.08711,-0.00119l0.08302,-0.02641l3.90625,-0.39062h10.06861l0.23576,-0.13544l1.85096,0.13544h2.84467l3.90625,0.39063l0.4218,0.13421l2.30108,0.16837l0.51637,0.26709l0.45697,-0.11605l0.993,0.15576h0.40454l3.90625,0.39063l1.77027,0.56327l1.83527,0.28789l0.38939,0.14834l0.00506,0.00051l1.77027,0.56327l0.29394,0.04611h42.02954l1.24556,0.12456l2.2483,-0.45501l5.98941,2.49559l3.01673,0.95987l0.6647,0.57406l0.81072,0.3378l0.84984,0.87345l0.67473,0.21469l0.47891,0.41361l0.20143,0.10071l1.9,1.2l2.1,0.8l0.36183,0.18092l0.95783,0.30476l0.47891,0.41361l0.20143,0.10071l3.31916,2.09631l0.06244,0.06075l0.07738,0.04002l1.67326,1.36903l6.86776,3.43388l3.31916,2.09631l0.06244,0.06075l0.07738,0.04002l1.67326,1.36903l2.86776,1.43388l3.31916,2.09631l0.06244,0.06075l0.07738,0.04002l2.25615,1.84594l0.81704,0.43405l0.79928,0.12538l2.88092,1.09749l0.51354,0.05135l1.77027,0.56327l0.29394,0.04611h0.01868l0.61332,-0.15576l0.993,0.15576h0.40454l3.90625,0.39063l1.77027,0.56327l0.29394,0.04611h2.02954l2.45122,0.24512l2.45169,0.24036l3.04807,0.60961l2.95527,0.29553l1.77027,0.56327l0.29394,0.04611h1.01868l0.61332,-0.15576l0.993,0.15576h0.40454l3.90625,0.39063l1.77027,0.56327l0.29394,0.04611h2.02954l3.90625,0.39063l0.08302,0.02641l0.08711,0.00119l2.5764,0.58177h2.34723l3.90625,0.39063l0.08302,0.02641l0.08711,0.00119l3.82932,0.86469l3,1l0.82656,0.37053l0.94426,0.30045l0.29394,0.04611h0.02954l3.90625,0.39063l1.77027,0.56327l0.29394,0.04611h3.02954l1.93443,0.19344l0.2446,-0.01545l0.86118,0.12603l0.86604,0.0866l0.23355,0.07431l1.92359,0.2815l1.01425,0.25356h28.99097l0.23576,-0.13544l1.85096,0.13544h2.84467l3.90625,0.39063l0.4218,0.13421l2.30108,0.16837l2.83227,1.46497l3.0386,0.96683l1.74617,1.50805l0.39315,0.20336l0.60462,0.49469l1.24402,0.55767l0.35771,0.2607l2.12975,0.8874l2.22366,2.28543l2.57694,1.87811l1.05207,1.76837l0.59333,0.60981l0.51389,0.50001l2.74235,2.24374l2,2l1.55994,1.9066l0.55473,0.67532l1.04672,1.0758l0.13636,0.05682l1.96654,2.02117l2.02117,1.96654l0.05682,0.13636l2.94318,2.86364l0.71303,1.71128l0.68451,1.08381l1.10071,2.20143l0.41361,0.47891l0.30476,0.95783l0.18092,0.36183l1.39754,3.66855l0.28789,1.83527l0.56327,1.77027l0.00051,0.00506l0.14834,0.38939l0.28789,1.83527l0.56327,1.77027l0.00051,0.00506l0.14834,0.38939l0.28789,1.83527l0.56327,1.77027l0.39063,3.90625v0.40454l0.15576,0.993l-0.15576,0.61332v1.98913l-0.27706,2.77059l1.03528,2.71761l0.28789,1.83527l0.56327,1.77027l0.00051,0.00506l0.14834,0.38939l0.28789,1.83527l0.56327,1.77027l0.39063,3.90625v0.40454l0.15576,0.993l-0.15576,0.61332v2.01868l0.04611,0.29394l0.56327,1.77027l0.39063,3.90625v0.40454l0.15576,0.993l-0.15576,0.61332v1.97827l0.15576,0.61332l-0.15576,0.993v0.40454l-0.39062,3.90625l-0.56327,1.77027l-0.28789,1.83527l-1.39754,3.66855l-0.18092,0.36183l-0.30476,0.95783l-0.41361,0.47891l-0.10071,0.20143l-2.09631,3.31916l-0.06075,0.06244l-0.04002,0.07738l-0.86554,1.05788l-0.2043,0.75593l-1.41171,1.21921l-0.00437,0.00534l-2,2l-3.03835,2.48592l-0.39315,0.20336l-1.74617,1.50805l-3.0386,0.96683l-2.83227,1.46497l-2.30108,0.16837l-0.4218,0.13421l-0.51354,0.05135l-2.88092,1.09749l-1.83527,0.28789l-1.77027,0.56327l-3.90625,0.39063h-0.40454l-0.993,0.15576l-0.15015,-0.03813l-1.60764,-0.11763h-2.84467l-3.90625,-0.39062l-0.4218,-0.13421l-2.30108,-0.16837l-2.83227,-1.46497l-3.0386,-0.96683l-1.01316,-0.875h-5.51638l-0.10019,0.01572c0,0 -82.43047,-12.12807 -103.0803,-10.02388c-8.2261,0.83823 -57.87445,-3.7228 -66.85111,1.43202c-8.6668,4.97688 23.19014,19.68982 23.19014,19.68982l1.05137,0.52568l1.31434,0.83011l1.37283,0.72932l1.70496,1.13664l0.60787,0.30394l3.31916,2.09631l0.06244,0.06075l0.07738,0.04002l3.03835,2.48592l1.24957,1.24957l0.94027,0.62685l1.90357,1.56364l1.9066,1.55994l2.24957,2.24957l0.94027,0.62685l1.90357,1.56364l0.54151,0.44306l0.86776,0.43388l0.82913,0.52366l0.50232,0.0788l3.66855,1.39754l0.36183,0.18092l0.95783,0.30476l0.47891,0.41361l1.74684,0.87342l5.33763,1.33441l1.59407,0.57223l1.62731,0.46942l1.46798,0.58719l0.1535,0.01535l0.08302,0.02641l0.08711,0.00119l3.82932,0.86469l2.08915,0.69638l0.80122,0.20031l2.11018,0.21102l0.08302,0.02641l0.08711,0.00119l2.5764,0.58177h0.34723l3.90625,0.39063l1.77027,0.56327l1.83527,0.28789l3.66855,1.39754l0.36183,0.18092l0.51259,0.1631l0.5477,-0.1391l0.993,0.15576h0.40454l3.90625,0.39063l1.77027,0.56327l0.29394,0.04611h12.01868l0.61332,-0.15576l0.993,0.15576h0.40454l3.90625,0.39063l1.77027,0.56327l0.29394,0.04611h8.02954l3.90625,0.39063l0.08302,0.02641l0.08711,0.00119l3.69367,0.83406l1.33993,0.08786l3.91083,0.6518l0.58165,-0.14772l0.993,0.15576h0.40454l3.90625,0.39063l1.77027,0.56327l1.83527,0.28789l0.03346,0.01275l1.361,0.1361l1.77027,0.56327l1.83527,0.28789l3.66855,1.39754l0.36183,0.18092l0.95783,0.30476l0.47891,0.41361l0.13891,0.06945l0.94557,0.13838l1.06601,0.2665l3.77685,0.37768l1.77027,0.56327l1.83527,0.28789l2.48739,0.94758l0.17985,-0.01136l0.86118,0.12603l0.86604,0.0866l0.23355,0.07431l1.92359,0.2815l4,1l1.32669,0.47625l0.12171,0.01909l1.11922,0.42637l1.12726,0.40466l0.10483,0.06471l1.31724,0.50181l10,5l1.05836,0.66844l2.21443,0.59849l4.24103,4.91067l2.26898,2.20766l0.3378,0.81072l0.57406,0.6647l0.95987,3.01673l2.49559,5.98941l-0.45501,2.2483l0.12456,1.24556v2.02954l0.04611,0.29394l0.56327,1.77027l0.39063,3.90625v0.40454l0.15576,0.993l-0.15756,0.62038l-0.12276,1.22763l0.45501,2.2483l-1.29283,3.10279l0.72059,1.89156l0.28789,1.83527l0.56327,1.77027l0.39063,3.90625v0.40454l0.15576,0.993l-0.15576,0.61332v4.98913l-0.12456,1.24556l0.45501,2.2483l-2.49559,5.98941l-0.95987,3.01673l-0.57406,0.6647l-0.3378,0.81072l-0.87345,0.84984l-0.21469,0.67473l-0.36879,0.42702l-0.41246,1.52611l-3.56326,3.07736l-3.07736,3.56326l-1.52611,0.41246l-0.42702,0.36879l-8.59375,2.73438l-3.90625,0.39063h-11.06212l-0.84819,0.82527l-0.21469,0.67473l-0.41361,0.47891l-0.10071,0.20143l-0.66844,1.05836l-0.59849,2.21443l-4.91067,4.24103l-2.20766,2.26898l-0.81072,0.3378l-0.6647,0.57406l-3.01673,0.95987l-5.98941,2.49559l-0.25995,-0.05261l-1.77251,0.56398l-2.83227,1.46497l-2.30108,0.16837l-0.4218,0.13421l-3.2254,0.32254l-2.16906,0.82631l-1.83527,0.28789l-1.77027,0.56327l-3.90625,0.39063h-0.40454l-0.15867,0.02489l-1.925,0.73333l-1.83527,0.28789l-1.77027,0.56327l-3.90625,0.39063h-0.40454l-0.993,0.15576l-0.15047,-0.03821l-1.54574,0.49183l-2.61776,0.26178l-0.42046,0.16695l-6.47768,1.85077l-5.48465,1.82822l-3.82932,0.86469l-0.08711,0.00119l-0.08302,0.02641l-1.86947,0.18695l-0.17368,0.06616l-0.10483,0.06471l-1.12726,0.40466l-1.11922,0.42637l-0.12171,0.01909l-1.32669,0.47625l-4,1l-1.92359,0.2815l-0.23355,0.07431l-0.86604,0.0866l-0.86118,0.12603l-0.2446,-0.01545l-1.93443,0.19344h-1.34723l-0.65501,0.14791l-1.88779,0.51194l-1.96094,0.32682l-0.60686,0.19309l-0.36183,0.18092l-3.66855,1.39754l-1.83527,0.28789l-1.77027,0.56327l-3.90625,0.39063h-0.40454l-0.993,0.15576l-0.61332,-0.15576h-8.01868l-0.29394,0.04611l-1.77027,0.56327l-3.90625,0.39063h-0.40454l-0.993,0.15576l-0.61332,-0.15576h-7.01868l-0.29394,0.04611l-1.77027,0.56327l-0.96776,0.09678l-0.03279,0.01093l-3.82932,0.86469l-0.08711,0.00119l-0.08302,0.02641l-3.90625,0.39063h-10l-3.90625,-0.39062l-0.08302,-0.02641l-0.08711,-0.00119l-3.82932,-0.86469l-3,-1l-1.61784,-0.72524l-0.23806,-0.09069c-0.7374,0.06543 -1.484,0.09885 -2.2384,0.09885zM314.52109,293.11649l0.47891,-0.41361l0.95783,-0.30476l0.36183,-0.18092l3.66855,-1.39754l1.83527,-0.28789l1.77027,-0.56327l2.39633,-0.23963l2.60422,-0.86807l3.82932,-0.86469l0.08711,-0.00119l0.08302,-0.02641l0.00506,-0.00051l0.38939,-0.14834l1.83527,-0.28789l1.77027,-0.56327l3.90625,-0.39062h0.40454c0,0 50.63117,-13.75834 61.21503,-19.79965c6.59057,-3.76192 5.0891,-19.48351 5.0891,-19.48351c0,0 -23.22271,3.93883 -33.25411,6.0713c-11.17024,2.37457 -74.2128,4.13902 -74.2128,4.13902l-0.30166,-0.18621l-0.3407,-0.09795l-1.35211,-0.71831l-3.15351,-0.31535l-1.54574,-0.49183l-0.15047,0.03821l-0.993,-0.15576h-0.40454l-3.90625,-0.39062l-1.77027,-0.56327l-1.83527,-0.28789l-3.66855,-1.39754l-0.36183,-0.18092l-0.95783,-0.30476l-0.47891,-0.41361l-0.20143,-0.10071l-1.31434,-0.83011l-1.37283,-0.72932l-0.30704,-0.2047l-1.34898,-0.60472l-1.65681,-0.63116l-0.04931,-0.02465l-0.39948,-0.02923l-0.89279,-0.46179l-0.38378,-0.12793l-3.58227,-1.60584l-1.5013,-1.09417l-1.65006,-0.85348l-3.03835,-2.48592l-0.28605,-0.28605l-0.8123,-0.59201l-0.32354,-0.54383l-0.29107,-0.29107l-1.10887,-0.70034l-0.06244,-0.06075l-0.07738,-0.04002l-1.56997,-1.28452l-0.72514,-0.07251l-0.2446,0.01545l-0.86118,-0.12603l-0.86604,-0.0866l-0.23355,-0.07431l-1.92359,-0.2815l-0.46571,-0.11643l-0.07336,0.01863l-0.993,-0.15576h-0.40454l-3.90625,-0.39062l-1.77027,-0.56327l-1.83527,-0.28789l-3.66855,-1.39754l-0.36183,-0.18092l-0.95783,-0.30476l-0.04278,-0.03695l-0.36291,-0.12097l-1.61784,-0.72524l-1.65681,-0.63116l-2,-1l-1.08381,-0.68451l-1.71128,-0.71303l-0.17319,-0.178l-1.75764,-0.17576l-1.77027,-0.56327l-1.83527,-0.28789l-3.66855,-1.39754l-0.36183,-0.18092l-0.95783,-0.30476l-0.47891,-0.41361l-2.89135,-1.44568l-0.10019,-0.01572h-0.02954l-3.90625,-0.39062l-1.77027,-0.56327l-1.83527,-0.28789l-3.66855,-1.39754l-0.36183,-0.18092l-0.95783,-0.30476l-0.47891,-0.41361l-2.20143,-1.10071l-1.05836,-0.66844l-2.21443,-0.59849l-4.24103,-4.91067l-2.26898,-2.20766l-0.3378,-0.81072l-0.57406,-0.6647l-0.23129,-0.72692l-0.92285,-0.94848l-0.23501,-0.14842l-1.71128,-0.71303l-3.446,-3.54172l-2.37021,-2.30615l-1.51781,-1.21425l-1.40587,-1.7115l-1.24782,-1.2141l-0.06048,-0.14515l-0.3978,-0.40885l-3.54172,-3.446l-0.71303,-1.71128l-0.68451,-1.08381l-0.10071,-0.20143l-0.41361,-0.47891l-0.30476,-0.95783l-0.18092,-0.36183l-1.39754,-3.66855l-0.16216,-1.03374l-0.41008,-0.98419l0.08795,-0.43459l-0.36687,-1.15302l-0.39062,-3.90625v-0.40454l-0.15576,-0.993l0.15576,-0.61332v-5.97827l-0.15576,-0.61332l0.15576,-0.993v-0.40454l0.39063,-3.90625l0.56327,-1.77027l0.04611,-0.29394v-0.02954l0.39063,-3.90625l0.55127,-1.73255l-0.07733,-1.05683l0.13544,-0.23576v-1.06861l0.12456,-1.24556l-0.45501,-2.2483l2.49559,-5.98941l0.95987,-3.01673l0.57406,-0.6647l0.3378,-0.81072l2.26898,-2.20766l4.24103,-4.91067l2.21443,-0.59849l1.05836,-0.66844l2.20143,-1.10071l0.47891,-0.41361l0.95783,-0.30476l0.36183,-0.18092l1.65847,-0.6318l1.02187,-0.88252l3.0386,-0.96683l2.83227,-1.46497l2.30108,-0.16837l0.4218,-0.13421l0.96776,-0.09678l0.03279,-0.01093l3.82932,-0.86469l0.08711,-0.00119l0.08302,-0.02641l3.90625,-0.39062h6.98913l0.61332,-0.15576l0.993,0.15576h0.40454l3.90625,0.39063l1.77027,0.56327l0.29394,0.04611h22.01868l0.61332,-0.15576l0.993,0.15576h0.40454l3.90625,0.39063l1.77027,0.56327l0.29394,0.04611h2.01868l0.61332,-0.15576l0.993,0.15576h0.40454l3.90625,0.39063l1.77027,0.56327l1.83527,0.28789l1.99033,0.75822h28.48701l0.61332,-0.15576l0.993,0.15576h0.40454l3.90625,0.39063l1.77027,0.56327l0.29394,0.04611h0.01868l0.61332,-0.15576l0.993,0.15576h0.40454l3.90625,0.39063l1.77027,0.56327l1.83527,0.28789l0.38939,0.14834l0.00506,0.00051l1.77027,0.56327l1.83527,0.28789l2.52499,0.9619l1.86947,0.18695l1.77027,0.56327l0.29394,0.04611h2.02954l2.45122,0.24512l2.45169,0.24036l5,1l1.48644,0.45503l0.26343,0.05948h7.29028l2.15125,-0.71708l3.82932,-0.86469l0.08711,-0.00119l0.08302,-0.02641l0.96776,-0.09678l0.03279,-0.01093l3.82932,-0.86469l0.08711,-0.00119l0.08302,-0.02641l0.00506,-0.00051l0.38939,-0.14834l1.83527,-0.28789l0.94426,-0.30045l0.82656,-0.37053l0.36291,-0.12097l0.04278,-0.03695l0.95783,-0.30476l0.36183,-0.18092l3.66855,-1.39754l1.83527,-0.28789l1.77027,-0.56327l3.90625,-0.39062h0.02954l0.29394,-0.04611l1.77027,-0.56327l0.11161,-0.01116l0.29464,-0.25446l3.0386,-0.96683l2.83227,-1.46497l1.57091,-0.11494l6.07931,-3.03965l0.47891,-0.41361l0.95783,-0.30476l0.36183,-0.18092l3.66855,-1.39754l1.83527,-0.28789l1.77027,-0.56327l0.00506,-0.00051l0.38939,-0.14834l1.83527,-0.28789l1.5087,-0.48004l-0.33168,-0.20949l-0.06244,-0.06075l-0.07738,-0.04002l-3.03835,-2.48592l-2.29794,-2.29794l-0.99981,-0.41659l-0.28097,-0.28878l-0.64985,-0.06499l-0.08302,-0.02641l-0.08711,-0.00119l-2.5764,-0.58177h-0.33636l-0.61332,0.15576l-0.993,-0.15576h-0.40454l-3.90625,-0.39062l-1.77027,-0.56327l-1.83527,-0.28789l-2.80071,-1.06694l-1.75089,-0.43772l-1.00358,-0.36026l-2.83928,-0.28393l-1.77027,-0.56327l-1.83527,-0.28789l-3.66855,-1.39754l-0.36183,-0.18092l-0.95783,-0.30476l-0.29464,-0.25446l-0.11161,-0.01116l-1.77027,-0.56327l-1.83527,-0.28789l-2.80071,-1.06694l-1.75089,-0.43772l-0.90469,-0.32476l-0.93761,-0.21172l-8.15125,-2.71708h-9.94306l-3.90625,-0.39062l-0.08302,-0.02641l-0.08711,-0.00119l-3.82932,-0.86469l-3.03279,-1.01093l-0.96776,-0.09678l-1.77027,-0.56327l-1.83527,-0.28789l-0.03346,-0.01275l-1.361,-0.1361l-0.08302,-0.02641l-0.08711,-0.00119l-2.5764,-0.58177h-2.33636l-0.61332,0.15576l-0.993,-0.15576h-0.40454l-3.90625,-0.39062l-1.77027,-0.56327l-1.83527,-0.28789l-3.66855,-1.39754l-0.36183,-0.18092l-0.95783,-0.30476l-0.47891,-0.41361l-8.20143,-4.10071l-1.31434,-0.83011l-0.21364,-0.1135l-2.69231,-0.77404l-0.46958,-0.24947l-1.62979,-0.51857l-0.12972,-0.11203l-2.37028,0.23703h-0.40454l-0.993,0.15576l-0.61332,-0.15576h-11.97827l-0.61332,0.15576l-0.993,-0.15576h-0.40454l-3.90625,-0.39062l-1.77027,-0.56327l-1.83527,-0.28789l-2.80071,-1.06694l-1.75089,-0.43772l-0.90469,-0.32476l-0.93761,-0.21172l-2.08915,-0.69638l-3.06855,-0.76714l-1.32669,-0.47625l-0.12171,-0.01909l-1.11922,-0.42637l-1.12726,-0.40466l-0.10483,-0.06471l-1.14788,-0.43729l-1.61814,-0.1184l-2.83227,-1.46497l-3.0386,-0.96683l-0.78318,-0.67639l-4.79446,-1.19861h-8.92236l-1.93443,-0.19344l-0.2446,0.01545l-0.86118,-0.12603l-0.86604,-0.0866l-0.23355,-0.07431l-1.92359,-0.2815l-0.96965,-0.24241l-0.56942,0.14461l-0.993,-0.15576h-0.40454l-3.90625,-0.39062l-1.77027,-0.56327l-1.83527,-0.28789l-2.52499,-0.9619l-1.86947,-0.18695l-1.77027,-0.56327l-1.83527,-0.28789l-3.66855,-1.39754l-0.36183,-0.18092l-0.95783,-0.30476l-0.47891,-0.41361l-2.07931,-1.03965l-1.57091,-0.11494l-2.83227,-1.46497l-0.55204,-0.17565l-0.09653,-0.00633l-3.95909,-0.65985h-18.33548l-0.993,0.15576l-0.56942,-0.14461l-0.96965,0.24241l-1.92359,0.2815l-0.23355,0.07431l-0.86604,0.0866l-0.86118,0.12603l-0.2446,-0.01545l-1.93443,0.19344h-0.49788l-1.99033,0.75822l-1.83527,0.28789l-1.77027,0.56327l-2.39633,0.23963l-2.60422,0.86807l-3.82932,0.86469l-0.08711,0.00119l-0.08302,0.02641l-3.90625,0.39063h-17.64466l-0.97561,0.97561l-0.41659,0.99981l-2.24242,2.18182l-0.75758,1.81818l-1.29953,1.26441l0.09462,0.24837l0.28789,1.83527l0.56327,1.77027l0.00051,0.00506l0.14834,0.38939l0.28789,1.83527l0.56327,1.77027l0.05135,0.51354l1.09749,2.88092l0.28789,1.83527l0.56327,1.77027l0.07068,0.70685l0.0141,0.01632l2.26898,2.20766l0.3378,0.81072l0.57406,0.6647l0.95987,3.01673l2.49559,5.98941l-0.45501,2.2483l0.12456,1.24556v0.02954l0.04611,0.29394l0.56327,1.77027l0.39063,3.90625v0.40454l0.15576,0.993l-0.15576,0.61332v2.88199l0.17976,0.56497l0.18092,0.36183l0.05781,0.15175l0.45651,0.52859l0.96683,3.0386l1.46497,2.83227l0.16837,2.30108l0.13421,0.4218l0.00051,0.00506l0.14834,0.38939l0.28789,1.83527l0.56327,1.77027l0.39063,3.90625v0.40454l0.15576,0.993l-0.15576,0.61332v13.97827l0.15576,0.61332l-0.15576,0.993v0.40454l-0.39062,3.90625l-0.56327,1.77027l-0.28789,1.83527l-0.14834,0.38939l-0.00051,0.00506l-0.56327,1.77027l-0.28789,1.83527l-0.01275,0.03346l-0.1361,1.361l-0.56327,1.77027l-0.28789,1.83527l-0.82631,2.16906l-0.32254,3.2254l-0.56327,1.77027l-0.28789,1.83527l-0.9619,2.52499l-0.18695,1.86947l-0.56327,1.77027l-0.28789,1.83527l-1.39754,3.66855l-0.18092,0.36183l-0.30476,0.95783l-0.41361,0.47891l-0.10071,0.20143l-1.19895,1.89833l-1.16173,1.92133l-3,4l-1.19963,1.30548l-1.1227,1.37219l-5,5l-1.9066,1.55994l-1.90357,1.56364l-2.39233,1.59488l-1.05376,1.02528l-3.446,3.54172l-1.31772,0.54905l-2.01838,1.6514l-1.27349,0.6587l-0.05904,0.80683l-1.46497,2.83227l-0.82516,2.59337l0.1391,0.5477l-0.15576,0.993v0.40454l-0.39062,3.90625l-0.56327,1.77027l-0.04611,0.29394v11.01868l0.15576,0.61332l-0.15576,0.993v0.40454l-0.39062,3.90625l-0.56327,1.77027l-0.26611,1.69643l0.00521,0.02309l0.08978,0.10396l0.09126,0.28681l2.03374,2.21319l0.24273,0.32363l0.72041,0.70094l0.24338,0.58412l1.79348,2.39131l1.14467,1.89311l2.01892,2.46757l0.04002,0.07738l0.06075,0.06244l2.09631,3.31916l0.18568,0.37136l0.14279,0.14279l1.4046,1.21306l0.11462,0.42409l1.02925,1.25797l0.55473,0.67532l1.62908,1.67433l0.62392,0.60705l2.45417,1.55l1.42522,1.3867l2.8513,2.07807l0.98346,1.65306l1.20365,1.17112l1.18479,2.84348l2.43385,4.09093l-0.08891,1.53691l0.8376,2.01024l-0.30289,1.49661l3.87868,0.38787l1.77027,0.56327l1.83527,0.28789l1.99033,0.75822h81.42881l3.95909,-0.65985l0.41063,-0.02693l0.18755,-0.07145l1.83527,-0.28789l1.77027,-0.56327l3.90625,-0.39062h0.40454l0.993,-0.15576l0.61332,0.15576h9.97827l0.61332,-0.15576l0.993,0.15576h0.40454l3.90625,0.39063l1.77027,0.56327l0.29394,0.04611h3.9224l0.56497,-0.17976l0.36183,-0.18092l3.66855,-1.39754l1.83527,-0.28789l1.77027,-0.56327l3.90625,-0.39062h0.40454l0.993,-0.15576l0.61332,0.15576h0.97827l0.61332,-0.15576l0.993,0.15576h0.40454l3.90625,0.39063l1.77027,0.56327l1.83527,0.28789l1.99033,0.75822h2.49788l3.90625,0.39063l0.08302,0.02641l0.08711,0.00119l2.5764,0.58177h3.69445l2.5764,-0.58177l0.08711,-0.00119l0.08302,-0.02641l3.90625,-0.39062h1.49788l1.99033,-0.75822l1.83527,-0.28789l1.77027,-0.56327l3.90625,-0.39062h0.40454l0.993,-0.15576l0.61332,0.15576h2.01868l0.29394,-0.04611l1.77027,-0.56327l3.90625,-0.39062h0.40454l0.993,-0.15576l0.61332,0.15576h5.08743z"/></g></g></svg>