<svg version="1.1" xmlns="http://www.w3.org/2000/svg" xmlns:xlink="http://www.w3.org/1999/xlink" width="442.18536" height="359.21952" viewBox="0,0,442.18536,359.21952"><g transform="translate(-18.92209,-0.4062)"><g data-paper-data="{&quot;isPaintingLayer&quot;:true}" fill="none" fill-rule="nonzero" stroke="#7e7e7e" stroke-width="3" stroke-linecap="butt" stroke-linejoin="miter" stroke-miterlimit="10" stroke-dasharray="" stroke-dashoffset="0" style="mix-blend-mode: normal"><path d="M32.96545,261.00525v-20.91798l-0.52124,-2.30833l-0.00107,-0.07805l-0.02366,-0.07438l-0.12194,-1.21939l-0.01142,-0.02998l-0.25794,-1.64431l-0.50466,-1.58608l-0.1675,-1.67495l-0.86182,-2.26227l-0.25794,-1.64431l-0.50466,-1.58608l-0.08671,-0.86707l-0.00979,-0.02938l-0.77472,-3.43088l-0.00107,-0.07805l-0.02366,-0.07438l-0.34998,-3.49981v-1.36589l-0.46098,-2.30491l-0.21535,-2.1966l-0.21962,-2.19617v-2.71432l-0.04131,-0.26336l-0.50466,-1.58608l-0.18906,-1.89062l-0.3881,-1.5524l-0.16823,-1.14958l-0.18071,-0.34017l-0.07109,-0.24727l-0.8912,-1.98807l-0.10838,-0.32515l-0.03311,-0.03833l-0.27305,-0.85817l-0.1621,-0.32418l-1.25213,-3.28684l-0.25794,-1.64431l-0.50466,-1.58608l-0.34998,-3.49981v-0.36245l-0.13955,-0.88968l0.03423,-0.13481l-0.44066,-1.38491l-0.08671,-0.86707l-0.00979,-0.02938l-0.77472,-3.43088l-0.00107,-0.07805l-0.02366,-0.07438l-0.34998,-3.49981v-56.44494l0.34999,-3.49981l0.02366,-0.07438l0.00107,-0.07805l0.52124,-2.30833v-6.58276l0.34999,-3.49981l0.02366,-0.07438l0.00107,-0.07805l0.52124,-2.30833v-9.26088l-0.13955,-0.5495l0.13955,-0.88968v-0.36245l0.34999,-3.49981l0.50466,-1.58608l0.25794,-1.64431l0.13291,-0.34887l0.00046,-0.00453l0.50466,-1.58608l0.04131,-0.26336v-0.02647l0.34999,-3.49981l0.50466,-1.58608l0.25794,-1.64431l0.13291,-0.34887l0.00046,-0.00453l0.12025,-0.37791l0.15085,-2.06166l1.31254,-2.53758l0.86623,-2.72244l0.7907,-0.91555l0.56606,-1.48591l0.1621,-0.32418l0.19895,-0.62527l0.17873,-1.13942l1.25213,-3.28684l0.1621,-0.32418l0.27305,-0.85817l0.37057,-0.42908l0.09023,-0.18047l1.87819,-2.97381l0.05443,-0.05594l0.03586,-0.06933l1.22658,-1.49916l1.28469,-2.56937l1.87819,-2.97381l0.05443,-0.05594l0.03586,-0.06933l1.47957,-1.80837l0.49192,-1.18061l2.81198,-2.73598l0.13298,-0.21056l0.63884,-1.53322l2.63695,-2.56568l0.05091,-0.12217l1.81087,-1.76192l1.76192,-1.81087l0.10437,-0.04349l1.95431,-2.38861l8.95951,-8.95951l1.70822,-1.39763l1.70551,-1.40095l0.84244,-0.56163l2.01551,-2.01551l2.72221,-2.22726l0.06933,-0.03586l0.05594,-0.05443l1.24406,-0.78572l2.21447,-1.81184l0.06933,-0.03586l0.05594,-0.05443l2.97381,-1.87819l1.97237,-0.98618l0.42908,-0.37057l0.60453,-0.19235l0.76142,-0.78257l0.72637,-0.30265l0.59554,-0.51433l2.70284,-0.86l5.36622,-2.23593l2.01437,0.40767l1.11596,-0.1116h0.02647l0.26336,-0.04131l1.58608,-0.50466l3.49981,-0.34998h0.36245l0.88968,-0.13955l0.5495,0.13955h26.85907l0.5495,-0.13955l0.88968,0.13955h0.36245l3.49981,0.34999l1.58608,0.50466l1.64431,0.25794l2.26227,0.86182l1.67495,0.1675l1.58608,0.50466l1.64431,0.25794l0.34887,0.13291l0.00453,0.00046l0.37791,0.12025l2.06166,0.15085l2.53758,1.31254l2.72244,0.86623l1.35749,1.17238l2.68413,1.02252l1.44977,0.10608l2.53758,1.31254l2.72244,0.86623l0.91555,0.7907l1.48591,0.56606l0.32418,0.1621l0.85817,0.27305l0.42908,0.37057l1.97237,0.98618l0.97104,0.61329l1.53322,0.63884l0.76142,0.78257l0.60453,0.19235l1.56448,1.35114l0.35224,0.1822l1.80837,1.47957l1.18061,0.49192l2.73598,2.81198l0.21056,0.13298l1.53322,0.63884l0.76142,0.78257l0.60453,0.19235l0.42908,0.37057l1.97237,0.98618l0.97104,0.61329l1.53322,0.63884l0.76142,0.78257l0.37162,0.11825l1.13942,0.17873l3.28684,1.25213l0.32418,0.1621l0.62527,0.19895l1.13942,0.17873l0.34887,0.13291l0.00453,0.00046l1.58608,0.50466l1.64431,0.25794l3.28684,1.25213l0.32418,0.1621l0.85817,0.27305l0.03833,0.03311l0.32515,0.10838l1.44951,0.64978l1.48442,0.56549l0.61814,0.30907l1.47072,0.2307l3.28684,1.25213l0.32418,0.1621l0.85817,0.27305l0.42908,0.37057l0.18047,0.09023l0.74286,0.46917l0.45005,0.0706l0.34887,0.13291l0.00453,0.00046l1.58608,0.50466l0.26336,0.04131h0.02647l3.49981,0.34999l1.58608,0.50466l1.64431,0.25794l1.78324,0.67933h3.12419l0.5495,-0.13955l0.88968,0.13955h0.36245l3.49981,0.34999l1.58608,0.50466l0.26336,0.04131h1.36849l0.91874,-0.34999l0.88585,-0.64561l3.20954,-1.43875l0.34385,-0.11462l0.7999,-0.41374l0.56544,-0.04138l0.97867,-0.32622l2.34966,-0.53056l0.09213,-0.04606l3.28684,-1.25213l1.47072,-0.2307l0.79861,-0.39931l0.42908,-0.37057l0.85817,-0.27305l0.32418,-0.1621l3.28684,-1.25213l1.64431,-0.25794l1.58608,-0.50466l0.46011,-0.04601l0.77874,-0.29667l1.44951,-0.64978l2.68785,-0.89595l2.34966,-0.53056l0.09213,-0.04606l1.8815,-0.71676l1.70231,-1.07514l0.18047,-0.09023l0.42908,-0.37057l0.85817,-0.27305l0.32418,-0.1621l3.28684,-1.25213l1.64431,-0.25794l0.84601,-0.26919l0.74056,-0.33198l2.68785,-0.89595l0.84005,-0.18969l0.81056,-0.29097l1.56871,-0.39218l2.5093,-0.95593l1.64431,-0.25794l1.58608,-0.50466l0.86707,-0.08671l0.02938,-0.00979l2.80641,-0.63371l1.15588,-0.36778l5.36622,-2.23593l2.01437,0.40767l1.11596,-0.1116h1.81837l0.26336,-0.04131l1.58608,-0.50466l0.00453,-0.00046l0.34887,-0.13291l1.64431,-0.25794l1.58608,-0.50466l3.49981,-0.34998h0.36245l0.88968,-0.13955l0.13481,0.03423l1.38491,-0.44066l3.49981,-0.34998h0.36245l0.88968,-0.13955l0.5495,0.13955h26.85907l0.5495,-0.13955l0.88968,0.13955h0.36245l3.49981,0.34999l1.58608,0.50466l0.26336,0.04131h1.80864l0.5495,-0.13955l0.88968,0.13955h0.36245l3.49981,0.34999l1.58608,0.50466l1.64431,0.25794l0.34887,0.13291l0.00453,0.00046l1.58608,0.50466l1.64431,0.25794l3.28684,1.25213l0.04418,0.02209l0.35791,0.02619l0.69629,0.36015l0.08397,0.02672l0.03833,0.03311l0.32515,0.10838l3.20954,1.43875l1.34509,0.98032l1.47837,0.76468l0.62881,0.51448l0.84543,0.33817l0.82699,0.43073l0.87135,0.33194l1.7919,0.89595l2.97381,1.87819l0.05594,0.05443l0.06933,0.03586l2.72221,2.22726l0.2236,0.2236l0.10113,0.06743l0.83799,0.34916l1.08777,1.11799l1.53342,1.25959l1.08791,1.35988l1.71473,1.76237l0.21056,0.13298l1.53322,0.63884l3.08745,3.17321l3.17321,3.08745l0.37324,0.89578l0.72654,0.72654l0.23517,0.06356l3.79976,4.39972l2.0329,1.97796l0.30265,0.72637l0.51433,0.59554l0.86,2.70284l0.92804,2.22728l0.26243,0.32075l0.1822,0.35224l1.35114,1.56448l0.86623,2.72244l1.31254,2.53758l0.10608,1.44977l1.19433,3.1351l0.25794,1.64431l0.50466,1.58608l0.34999,3.49981v0.36245l0.13955,0.88968l-0.13955,0.5495v10.73195l0.13955,0.5495l-0.13955,0.88968v0.36245l-0.34998,3.49981l-0.50466,1.58608l-0.25794,1.64431l-1.25213,3.28684l-0.1621,0.32418l-0.27305,0.85817l-0.37057,0.42908l-0.98618,1.97237l-1.87819,2.97381l-0.05443,0.05594l-0.03586,0.06933l-2.22726,2.72221l-1.7919,1.7919l-2.72221,2.22726l-0.06933,0.03586l-0.05594,0.05443l-2.94305,1.85877l-1.98424,1.48818l-1.69613,1.02557l-2.21082,1.80885l-0.06933,0.03586l-0.05594,0.05443l-2.97381,1.87819l-0.77747,0.38874l-1.49916,1.22658l-0.06933,0.03586l-0.05594,0.05443l-2.97381,1.87819l-0.18047,0.09023l-0.42908,0.37057l-0.85817,0.27305l-0.32418,0.1621l-3.28684,1.25213l-1.47072,0.2307l-0.79861,0.39931l-0.42908,0.37057l-0.85817,0.27305l-0.32418,0.1621l-3.28684,1.25213l-1.64431,0.25794l-1.58608,0.50466l-0.00453,0.00046l-0.34887,0.13291l-1.64431,0.25794l-1.58608,0.50466l-0.00453,0.00046l-0.34887,0.13291l-1.47072,0.2307l-2.59051,1.29526l-0.42908,0.37057l-0.85817,0.27305l-0.32418,0.1621l-1.8815,0.71676l-1.70231,1.07514l-0.18047,0.09023l-0.42908,0.37057l-0.85817,0.27305l-0.32418,0.1621l-3.28684,1.25213l-1.47072,0.2307l-0.79861,0.39931l-0.42908,0.37057l-0.85817,0.27305l-0.32418,0.1621l-3.28684,1.25213l-1.64431,0.25794l-1.58608,0.50466l-0.00453,0.00046l-0.34887,0.13291l-1.47072,0.2307l-0.79861,0.39931l-0.42908,0.37057l-0.85817,0.27305l-0.32418,0.1621l-3.28684,1.25213l-1.64431,0.25794l-1.58608,0.50466l-3.49981,0.34999h-0.36245l-0.88968,0.13955l-0.5495,-0.13955h-0.30136l-2.30833,0.52124l-0.07805,0.00107l-0.07438,0.02366l-1.89062,0.18906l-0.71785,0.17947l-0.36163,0.12054l-0.54859,0.2743l-0.42908,0.37057l-0.85817,0.27305l-0.32418,0.1621l-3.28684,1.25213l-1.64431,0.25794l-1.58608,0.50466l-3.49981,0.34999h-0.02647l-0.26336,0.04131l-1.58608,0.50466l-0.86707,0.08671l-0.02938,0.00979l-3.43088,0.77472l-0.07805,0.00107l-0.07438,0.02366l-0.86707,0.08671l-0.02938,0.00979l-3.43088,0.77472l-0.07805,0.00107l-0.07438,0.02366l-3.49981,0.34999h-3.51424l-0.90872,0.22718l-1.72344,0.25221l-0.20925,0.06658l-0.77593,0.07759l-0.77158,0.11292l-0.21915,-0.01384l-1.73316,0.17331h-11.67384l-0.26336,0.04131l-1.58608,0.50466l-3.49981,0.34999h-0.36245l-0.88968,0.13955l-0.5495,-0.13955h-0.30136l-2.30833,0.52124l-0.07805,0.00107l-0.07438,0.02366l-3.49981,0.34999h-0.02647l-0.26336,0.04131l-1.58608,0.50466l-3.49981,0.34999h-0.36245l-0.88968,0.13955l-0.5495,-0.13955h-0.43345l-1.43321,0.64247l-2.68785,0.89595l-3.43088,0.77472l-0.07805,0.00107l-0.07438,0.02366l-1.21939,0.12194l-0.02998,0.01142l-1.64431,0.25794l-1.58608,0.50466l-1.67495,0.1675l-2.26227,0.86182l-1.64431,0.25794l-1.58608,0.50466l-0.86707,0.08671l-0.35454,0.11818l-0.03833,0.03311l-0.85817,0.27305l-0.32418,0.1621l-3.28684,1.25213l-1.64431,0.25794l-1.58608,0.50466l-0.00453,0.00046l-0.34887,0.13291l-1.64431,0.25794l-1.58608,0.50466l-0.86707,0.08671l-0.02938,0.00979l-3.43088,0.77472l-0.07805,0.00107l-0.07438,0.02366l-1.67495,0.1675l-2.26227,0.86182l-1.64431,0.25794l-1.58608,0.50466l-3.49981,0.34999h-0.36245l-0.88968,0.13955l-0.5495,-0.13955h-0.30136l-2.30833,0.52124l-0.07805,0.00107l-0.07438,0.02366l-3.49981,0.34999l-42.10972,-5.37571l-3.49981,-0.34998l-0.07438,-0.02366l-0.07805,-0.00107l-3.43088,-0.77472l-0.02938,-0.00979l-0.86707,-0.08671l-0.07438,-0.02366l-0.07805,-0.00107l-2.30833,-0.52124h-3.817l-5.01115,2.08798l-0.98959,-0.20027l-0.79681,0.68815l-1.46021,0.46461l-0.42072,0.22351l-1.33025,0.38245l-0.49745,0.99491l-0.61329,0.97104l-0.60582,6.82967v3.71156l0.04131,0.26336l0.50466,1.58608l0.34999,3.49981v0.36245l0.13955,0.88968l-0.12803,0.50413l0.48022,0.39291l0.56578,0.21554l0.32418,0.1621l0.85817,0.27305l0.42908,0.37057l0.18047,0.09023l2.97381,1.87819l0.05594,0.05443l0.06933,0.03586l1.2742,1.04252h77.89268l3.49981,0.34999l0.07438,0.02366l0.07805,0.00107l2.30833,0.52124h4.78112l0.5495,-0.13955l0.88968,0.13955h0.36245l3.49981,0.34999l1.58608,0.50466l1.64431,0.25794l1.78324,0.67933h10.32801l0.26336,-0.04131l1.58608,-0.50466l3.49981,-0.34998h0.36245l0.88968,-0.13955l0.5495,0.13955h0.01674l0.26336,-0.04131l1.58608,-0.50466l3.49981,-0.34998h0.36245l0.88968,-0.13955l0.5495,0.13955h72.5888l0.26336,-0.04131l1.58608,-0.50466l3.49981,-0.34998h0.36245l0.88968,-0.13955l0.5495,0.13955h0.19656l0.63286,-0.22718l3.58381,-0.89595l1.72344,-0.25221l0.20925,-0.06658l0.77593,-0.07759l0.77158,-0.11292l0.21915,0.01384l1.73316,-0.17331h7.19408l0.26336,-0.04131l1.58608,-0.50466l1.67495,-0.1675l2.26227,-0.86182l1.64431,-0.25794l1.58608,-0.50466l3.49981,-0.34998h0.36245l0.88968,-0.13955l0.5495,0.13955h18.79551l0.5495,-0.13955l0.88968,0.13955h0.36245l3.49981,0.34999l1.38491,0.44066l0.13481,-0.03423l0.88968,0.13955h0.36245l3.49981,0.34999l1.58608,0.50466l1.64431,0.25794l3.28684,1.25213l0.32418,0.1621l0.85817,0.27305l0.42908,0.37057l1.97237,0.98618l0.97104,0.61329l1.53322,0.63884l2.56568,2.63695l0.12217,0.05091l0.76142,0.78257l0.60453,0.19235l0.59554,0.51433l0.72637,0.30265l1.97796,2.0329l4.39972,3.79976l0.22534,0.83375l2.34549,2.2821l0.63884,1.53322l0.61329,0.97104l1.88213,3.76428l0.37057,0.42908l0.27305,0.85817l0.1621,0.32418l1.25213,3.28684l0.25794,1.64431l0.23245,0.73057l2.49808,2.15744l0.29391,1.08744l0.8412,0.74919l0.8833,3.478l2.34433,2.28097l0.63884,1.53322l0.61329,0.97104l1.88213,3.76428l0.37057,0.42908l0.27305,0.85817l0.1621,0.32418l1.25213,3.28684l0.25794,1.64431l0.50466,1.58608l0.34999,3.49981v0.36245l0.13955,0.88968l-0.01263,0.04973l0.1427,0.34248l0.51433,0.59554l0.86,2.70284l2.23593,5.36622l-0.28741,1.42014l0.03265,0.20811l0.50466,1.58608l0.34999,3.49981v0.36245l0.13955,0.88968l-0.13955,0.5495v7.14814l0.13955,0.5495l-0.13955,0.88968v0.36245l-0.34998,3.49981l-0.50466,1.58608l-0.25794,1.64431l-1.25213,3.28684l-0.1621,0.32418l-0.27305,0.85817l-0.37057,0.42908l-3.08716,6.17432l-0.2307,1.47072l-1.25213,3.28684l-0.1621,0.32418l-0.27305,0.85817l-0.37057,0.42908l-3.67404,7.34808l-1.31442,2.08117l-0.0656,0.2624l-0.18906,1.89062l-0.3287,1.03305l0.0788,0.38937l-0.36741,0.88179l-0.14529,0.92618l-1.25213,3.28684l-0.1621,0.32418l-0.27305,0.85817l-0.37057,0.42908l-0.09023,0.18047l-0.61329,0.97104l-0.63884,1.53322l-2.02967,1.97482l-0.52548,1.17224l-0.23357,0.32049l-0.79507,1.90815l-2.04763,1.99229l-1.6827,2.30881l-0.11238,0.06686l-0.36716,0.58135l-1.58951,1.63366l-1.42389,1.77986l-1.45764,1.19735l-0.2853,0.27758l-0.27758,0.2853l-1.19735,1.45764l-1.35988,1.08791l-1.58734,1.54443l-0.05091,0.12217l-1.81087,1.76192l-1.76192,1.81087l-0.12217,0.05091l-2.56568,2.63695l-1.36417,0.5684l-1.13764,0.98251l-1.97796,2.0329l-0.72637,0.30265l-0.59554,0.51433l-2.70284,0.86l-5.36622,2.23593l-2.01437,-0.40767l-1.11596,0.1116h-0.02647l-0.26336,0.04131l-1.58608,0.50466l-3.49981,0.34999h-0.36245l-0.88968,0.13955l-0.13481,-0.03423l-1.38491,0.44066l-3.49981,0.34999h-0.36245l-0.88968,0.13955l-0.5495,-0.13955h-12.52385l-0.5495,0.13955l-0.88968,-0.13955h-0.36245l-3.49981,-0.34998l-1.58608,-0.50466l-1.64431,-0.25794l-0.34887,-0.13291l-0.00453,-0.00046l-1.58608,-0.50466l-1.64431,-0.25794l-2.26227,-0.86182l-1.67495,-0.1675l-1.58608,-0.50466l-1.64431,-0.25794l-3.28684,-1.25213l-0.32418,-0.1621l-0.62527,-0.19895l-1.13942,-0.17873l-3.28684,-1.25213l-0.32418,-0.1621l-0.85817,-0.27305l-0.42908,-0.37057l-7.34808,-3.67404l-1.17758,-0.74374l-1.22999,-0.65344l-1.52756,-1.01837l-0.54462,-0.27232l-0.62363,-0.39387l-2.33564,-0.97318l-2.70284,-0.86l-0.59554,-0.51433l-0.72637,-0.30265l-1.97796,-2.0329l-2.37581,-2.05184l-0.5852,-0.26233l-1.34509,-0.98032l-1.47837,-0.76468l-0.54171,-0.44322l-1.11458,-0.49965l-1.34509,-0.98032l-1.47837,-0.76468l-2.43276,-1.99044l-0.13849,-0.08309l-0.35526,-0.11842l-3.20954,-1.43875l-0.32049,-0.23357l-1.90815,-0.79507l-1.97482,-2.02967l-1.17224,-0.52548l-0.32049,-0.23357l-1.90815,-0.79507l-0.76142,-0.78257l-0.60453,-0.19235l-0.42908,-0.37057l-0.54859,-0.2743l-1.17771,-0.39257l-0.38974,-0.17471l-3.19407,-0.72124l-2.68785,-0.89595l-0.50401,-0.22593l-1.93605,-0.14166l-2.53758,-1.31254l-2.72244,-0.86623l-1.35749,-1.17238l-2.83587,-1.08033l-0.32418,-0.1621l-0.85817,-0.27305l-0.42908,-0.37057l-0.18047,-0.09023l-0.97104,-0.61329l-1.53322,-0.63884l-2.73598,-2.81198l-2.21332,-1.39789l-0.03156,-0.0307l-0.84985,-0.35411l-2.70284,-0.86l-0.59554,-0.51433l-0.72637,-0.30265l-0.61088,-0.62785l-5.21984,-2.17493l-2.70284,-0.86l-0.26398,-0.22798l-0.1,-0.01l-1.58608,-0.50466l-1.64431,-0.25794l-3.28684,-1.25213l-0.09213,-0.04606l-2.34966,-0.53056l-2.33325,-0.77775l-2.147,-0.2147l-1.58608,-0.50466l-1.64431,-0.25794l-0.34887,-0.13291l-0.00453,-0.00046l-0.07438,-0.02366l-0.07805,-0.00107l-3.43088,-0.77472l-0.02938,-0.00979l-0.86707,-0.08671l-1.58608,-0.50466l-0.26336,-0.04131h-28.11206l-2.30833,0.52124l-0.07805,0.00107l-0.07438,0.02366l-0.86707,0.08671l-0.02938,0.00979l-3.43088,0.77472l-0.07805,0.00107l-0.07438,0.02366l-3.49981,0.34999h-8.98598l-0.26336,0.04131l-1.58608,0.50466l-1.11327,0.11133l-0.14666,0.12666l-2.00744,0.63873l-2.94231,3.02404l-1.18061,0.49192l-0.76338,0.62459l-0.04251,0.27102l-1.25213,3.28684l-0.1621,0.32418l-0.27305,0.85817l-0.37057,0.42908l-1.88213,3.76428l-1.07514,1.70231l-0.71676,1.8815l-0.1621,0.32418l-0.27305,0.85817l-0.37057,0.42908l-0.09023,0.18047l-0.61329,0.97104l-0.63884,1.53322l-0.78257,0.76142l-0.19235,0.60453l-0.37057,0.42908l-0.09023,0.18047l-0.61329,0.97104l-0.63884,1.53322l-2.81198,2.73598l-0.13298,0.21056l-0.63884,1.53322l-3.17321,3.08745l-0.54389,0.559l-0.12382,0.19604l-0.63884,1.53322l-3.17321,3.08745l-2.0662,2.12359l-1.08791,1.35988l-1.53342,1.25959l-1.08777,1.11799l-0.83799,0.34916l-0.10113,0.06743l-0.2236,0.2236l-2.72221,2.22726l-0.35224,0.1822l-1.56448,1.35114l-2.72244,0.86623l-2.53758,1.31254l-1.40746,0.10298l-1.86296,0.93148l-0.42908,0.37057l-0.85817,0.27305l-0.32418,0.1621l-3.28684,1.25213l-1.64431,0.25794l-1.58608,0.50466l-3.49981,0.34999h-0.36245l-0.88968,0.13955l-0.5495,-0.13955h-0.01674l-0.26336,0.04131l-1.58608,0.50466l-0.00453,0.00046l-0.34887,0.13291l-1.64431,0.25794l-1.58608,0.50466l-0.00453,0.00046l-0.34887,0.13291l-1.64431,0.25794l-1.58608,0.50466l-3.49981,0.34999h-0.36245l-0.88968,0.13955l-0.5495,-0.13955h-0.30136l-2.30833,0.52124l-0.07805,0.00107l-0.07438,0.02366l-3.49981,0.34999h-15.23117l-1.11596,-0.1116l-2.01437,0.40767l-5.36622,-2.23593l-2.70284,-0.86l-0.59554,-0.51433l-0.72637,-0.30265l-0.76142,-0.78257l-0.60453,-0.19235l-0.42908,-0.37057l-1.97237,-0.98618l-0.97104,-0.61329l-1.53322,-0.63884l-3.08745,-3.17321l-3.17321,-3.08745l-0.63884,-1.53322l-0.61329,-0.97104l-1.28713,-2.57427l-0.8225,-1.00131l-1.11799,-1.08777l-0.34916,-0.83799l-1.29771,-1.94655l-0.46266,-0.87089l-1.65387,-2.0214l-0.03586,-0.06933l-0.05443,-0.05594l-0.72673,-1.15066l-2.34619,-2.71665l-2.0329,-1.97796l-0.30265,-0.72637l-0.51433,-0.59554l-0.61641,-1.9373l-1.25446,-1.22055l-0.30265,-0.72637l-0.51433,-0.59554l-0.19235,-0.60453l-0.78257,-0.76142l-0.30265,-0.72637l-0.51433,-0.59554l-0.86,-2.70284l-2.23593,-5.36622l0.03267,-0.16141l-0.05974,-0.11948l-1.25213,-3.28684l-0.25794,-1.64431l-0.50466,-1.58608l-0.34998,-3.49981v-0.36245l-0.13955,-0.88968l0.13955,-0.5495v-0.01674l-0.04131,-0.26336l-0.50466,-1.58608l-0.34998,-3.49981v-0.36245l-0.13955,-0.88968l0.13955,-0.5495v-0.43634l-0.67933,-1.78324l-0.25794,-1.64431l-0.50466,-1.58608l-0.34998,-3.49981v-0.36245l-0.13955,-0.88968l0.13955,-0.5495v-7.14814l-0.13955,-0.5495l0.13955,-0.88968v-0.36245l0.34999,-3.49981l0.50466,-1.58608l0.19451,-1.23999c-0.10117,-0.86381 -0.1532,-1.74265 -0.1532,-2.63364zM80.41786,294.1775l0.30265,0.72637l0.51433,0.59554l0.19235,0.60453l0.78257,0.76142l0.45451,1.09082l1.99235,2.30693l2.0329,1.97796l0.30265,0.72637l0.51433,0.59554l0.86,2.70284l0.35411,0.84985l0.0307,0.03156l0.73434,1.16271l0.64115,0.38144l1.6827,2.30881l2.025,1.97028h2.15866l2.30833,-0.52124l0.07805,-0.00107l0.07438,-0.02366l3.49981,-0.34998h1.81837l0.26336,-0.04131l1.58608,-0.50466l0.00453,-0.00046l0.34887,-0.13291l1.64431,-0.25794l1.58608,-0.50466l0.00453,-0.00046l0.34887,-0.13291l1.64431,-0.25794l1.58608,-0.50466l3.49981,-0.34998h0.08807l0.82678,-0.41338l0.42908,-0.37057l0.85817,-0.27305l0.32418,-0.1621l0.98467,-0.37511l0.56431,-0.54906l0.98432,-1.47647l0.34916,-0.83799l1.11799,-1.08777l1.25959,-1.53342l0.64773,-0.51818l0.55849,-1.34038l1.25446,-1.22055l0.61641,-1.9373l0.51433,-0.59554l0.30265,-0.72637l1.25446,-1.22055l0.61641,-1.9373l1.35114,-1.56448l0.1822,-0.35224l1.05835,-1.29354l0.20079,-1.28005l1.25213,-3.28684l0.1621,-0.32418l0.27305,-0.85817l0.37057,-0.42908l2.77809,-5.55618l0.61329,-0.97104l0.63884,-1.53322l3.17321,-3.08745l3.08745,-3.17321l1.53322,-0.63884l0.97104,-0.61329l0.77747,-0.38874l1.23397,-1.00961l0.46042,-0.44798l3.08745,-3.17321l1.18061,-0.49192l1.80837,-1.47957l0.35224,-0.1822l1.56448,-1.35114l2.72244,-0.86623l0.71506,-0.36986l1.05304,-0.76747l3.20954,-1.43875l0.34385,-0.11462l0.7999,-0.41374l0.56544,-0.04138l0.97867,-0.32622l3.43088,-0.77472l0.07805,-0.00107l0.07438,-0.02366l3.49981,-0.34998h0.92242l0.26336,-0.04131l1.58608,-0.50466l3.49981,-0.34998h0.36245l0.88968,-0.13955l0.5495,0.13955h7.46897l2.30833,-0.52124l0.07805,-0.00107l0.07438,-0.02366l0.86707,-0.08671l0.02938,-0.00979l3.43088,-0.77472l0.07805,-0.00107l0.07438,-0.02366l3.49981,-0.34998h33.14046l0.5495,-0.13955l0.88968,0.13955h0.36245l3.49981,0.34999l1.58608,0.50466l1.64431,0.25794l0.34887,0.13291l0.00453,0.00046l0.07438,0.02366l0.07805,0.00107l3.43088,0.77472l0.02938,0.00979l0.86707,0.08671l1.58608,0.50466l0.26336,0.04131h0.02647l3.49981,0.34999l1.58608,0.50466l1.64431,0.25794l2.58116,0.9833l0.46011,0.04601l1.58608,0.50466l1.64431,0.25794l3.28684,1.25213l0.09213,0.04606l1.69199,0.38206l0.06622,0.00662l2.01437,-0.40767l5.36622,2.23593l2.70284,0.86l0.59554,0.51433l0.72637,0.30265l0.12425,0.1277l0.35631,0.05589l3.28684,1.25213l0.32418,0.1621l0.85817,0.27305l0.42908,0.37057l1.97237,0.98618l0.97104,0.61329l1.53322,0.63884l0.76142,0.78257l0.60453,0.19235l0.42908,0.37057l0.18047,0.09023l2.97381,1.87819l0.05594,0.05443l0.06933,0.03586l1.49916,1.22658l0.77747,0.38874l0.97104,0.61329l1.53322,0.63884l1.05617,1.0855l0.91934,0.35022l0.32418,0.1621l0.85817,0.27305l0.42908,0.37057l0.18047,0.09023l1.70231,1.07514l1.17582,0.44793l0.46011,0.04601l1.58608,0.50466l1.64431,0.25794l3.28684,1.25213l0.32418,0.1621l0.85817,0.27305l0.03833,0.03311l0.32515,0.10838l0.97497,0.43705l0.44795,-0.09065l5.36622,2.23593l2.70284,0.86l0.59554,0.51433l0.72637,0.30265l1.6976,1.74475l1.17386,0.58693l0.97104,0.61329l1.53322,0.63884l1.87549,1.92759l0.7111,0.33543l4.47976,2.68785l1.39699,1.04032l0.19504,0.10088l0.54171,0.44322l1.11458,0.49965l1.34509,0.98032l1.47837,0.76468l0.54171,0.44322l1.11458,0.49965l0.06307,0.04597l0.0737,0.0257l3.00984,1.8199l2.1425,1.60687l0.52334,0.21806l0.62801,0.64545l0.21923,0.16442l0.51871,0.16504l0.93603,0.80839l0.28919,0.15363l1.52756,1.01837l0.54462,0.27232l1.17758,0.74374l1.22999,0.65344l1.52756,1.01837l4.74657,2.37329l1.47072,0.2307l2.26227,0.86182l1.67495,0.1675l1.58608,0.50466l1.64431,0.25794l3.28684,1.25213l0.32418,0.1621l0.50619,0.16106h8.88999l0.26336,-0.04131l1.58608,-0.50466l3.49981,-0.34998h0.08055l0.8674,-0.84396l1.76192,-1.81087l0.12217,-0.05091l0.93781,-0.96386l1.32861,-1.61743l0.70104,-0.56083l0.56083,-0.70104l0.33199,-0.27271l0.50831,-1.21994l1.74475,-1.6976l0.58693,-1.17386l0.61329,-0.97104l0.63884,-1.53322l0.25873,-0.25174l0.05823,-0.58223l0.50466,-1.58608l0.25794,-1.64431l1.25213,-3.28684l0.1621,-0.32418l0.27305,-0.85817l0.37057,-0.42908l0.09023,-0.18047l1.87819,-2.97381l0.05443,-0.05594l0.03586,-0.06933l1.22658,-1.49916l1.59375,-3.18751l0.2307,-1.47072l1.25213,-3.28684l0.1621,-0.32418l0.27305,-0.85817l0.37057,-0.42908l1.75907,-3.51814l-1.23369,-1.42849l-0.86623,-2.72244l-1.31254,-2.53758l-0.15085,-2.06166l-0.12025,-0.37791l-0.07124,-0.71241l-3.37258,-0.91151l-6.64964,-7.69958l-2.44986,-7.69958l-0.34998,-3.49981v-5.25118l-0.29608,-1.46295l0.29608,-0.71058v-1.54499l-0.67196,-0.58033l-0.83012,-0.26413l-0.26336,-0.04131h-13.91181l-1.78324,0.67933l-1.64431,0.25794l-1.58608,0.50466l-3.49981,0.34999h-0.02647l-0.26336,0.04131l-1.58608,0.50466l-3.49981,0.34999h-0.36245l-0.88968,0.13955l-0.5495,-0.13955h-6.19236l-0.07418,0.01855l-1.87178,0.62392l-3.43088,0.77472l-0.07805,0.00107l-0.07438,0.02366l-3.49981,0.34999h-1.81837l-0.26336,0.04131l-1.58608,0.50466l-3.49981,0.34999h-0.36245l-0.88968,0.13955l-0.5495,-0.13955h-72.5888l-0.26336,0.04131l-1.58608,0.50466l-3.49981,0.34999h-0.36245l-0.88968,0.13955l-0.5495,-0.13955h-0.01674l-0.26336,0.04131l-1.58608,0.50466l-3.49981,0.34999h-0.36245l-0.88968,0.13955l-0.5495,-0.13955h-15.21171l-0.5495,0.13955l-0.88968,-0.13955h-0.36245l-3.49981,-0.34998l-1.58608,-0.50466l-1.64431,-0.25794l-1.78324,-0.67933h-4.92583l-3.49981,-0.34998l-0.07438,-0.02366l-0.07805,-0.00107l-2.30833,-0.52124h-76.45724l-0.5495,0.13955l-0.88968,-0.13955h-0.36245l-3.49981,-0.34998l-1.58608,-0.50466l-1.64431,-0.25794l-0.34887,-0.13291l-0.00453,-0.00046l-1.58608,-0.50466l-1.64431,-0.25794l-3.28684,-1.25213l-0.32418,-0.1621l-0.85817,-0.27305l-0.42908,-0.37057l-3.76428,-1.88213l-2.38616,-1.50705l-1.44945,-0.74971l-2.72244,-0.86623l-1.56448,-1.35114l-0.35224,-0.1822l-2.72221,-2.22726l-1.16289,-1.16289l-0.89578,-0.37324l-2.56568,-2.63695l-0.12217,-0.05091l-1.76192,-1.81087l-1.81087,-1.76192l-0.05091,-0.12217l-2.63695,-2.56568l-0.49192,-1.18061l-1.47957,-1.80837l-0.76468,-1.47837l-0.98032,-1.34509l-1.43875,-3.20954l-0.11462,-0.34385l-0.41374,-0.7999l-0.04138,-0.56544l-0.32622,-0.97867l-0.77472,-3.43088l-0.00107,-0.07805l-0.02366,-0.07438l-0.34998,-3.49981v-5.40218l-0.04131,-0.26336l-0.50466,-1.58608l-0.34998,-3.49981v-0.36245l-0.13955,-0.88968l0.13955,-0.5495v-9.836l-0.13955,-0.5495l0.13955,-0.88968v-0.36245l0.34999,-3.49981l0.50466,-1.58608l0.25794,-1.64431l0.485,-1.27312l-0.10174,-0.50272l2.23593,-5.36622l0.86,-2.70284l0.51433,-0.59554l0.30265,-0.72637l2.0329,-1.97796l0.71251,-0.82502l0.48221,-0.96443l1.87819,-2.97381l0.05443,-0.05594l0.03586,-0.06933l2.22726,-2.72221l1.7919,-1.7919l2.45701,-2.01028l0.46042,-0.44798l3.08745,-3.17321l1.53322,-0.63884l0.97104,-0.61329l1.97237,-0.98618l0.42908,-0.37057l0.85817,-0.27305l0.32418,-0.1621l3.28684,-1.25213l0.45005,-0.0706l0.74286,-0.46917l0.18047,-0.09023l0.42908,-0.37057l0.85817,-0.27305l0.32418,-0.1621l3.28684,-1.25213l0.35631,-0.05589l0.12425,-0.1277l0.72637,-0.30265l0.59554,-0.51433l2.70284,-0.86l5.36622,-2.23593l2.01437,0.40767l1.11596,-0.1116h14.33522l3.49981,0.34999l0.07438,0.02366l0.07805,0.00107l3.43088,0.77472l0.02938,0.00979l0.86707,0.08671l0.07438,0.02366l0.07805,0.00107l2.30833,0.52124h35.5643l2.30833,-0.52124l0.07805,-0.00107l0.07438,-0.02366l3.49981,-0.34998h0.84494l1.92742,-0.64247l3.43088,-0.77472l0.07805,-0.00107l0.07438,-0.02366l2.45008,-0.24501l2.77321,-0.62621l0.07805,-0.00107l0.07438,-0.02366l0.00453,-0.00046l0.34887,-0.13291l1.64431,-0.25794l0.84601,-0.26919l0.74056,-0.33198l5.37571,-1.7919l2.34966,-0.53056l0.09213,-0.04606l3.28684,-1.25213l1.64431,-0.25794l1.58608,-0.50466l3.49981,-0.34998h0.02647l0.26336,-0.04131l1.58608,-0.50466l1.11327,-0.11133l0.14666,-0.12666l0.85817,-0.27305l0.32418,-0.1621l3.28684,-1.25213l1.64431,-0.25794l1.58608,-0.50466l3.49981,-0.34998h0.36245l0.88968,-0.13955l0.5495,0.13955h1.80864l0.26336,-0.04131l1.58608,-0.50466l3.49981,-0.34998h0.3111l2.30833,-0.52124l0.07805,-0.00107l0.07438,-0.02366l3.49981,-0.34998h1.81837l0.26336,-0.04131l1.58608,-0.50466l3.49981,-0.34998h0.36245l0.88968,-0.13955l0.5495,0.13955h10.67212l0.90872,-0.22718l1.72344,-0.25221l0.20925,-0.06658l0.77593,-0.07759l0.77158,-0.11292l0.21915,0.01384l1.73316,-0.17331h2.99896l2.30833,-0.52124l0.07805,-0.00107l0.07438,-0.02366l0.86707,-0.08671l0.02938,-0.00979l3.43088,-0.77472l0.07805,-0.00107l0.07438,-0.02366l0.00453,-0.00046l0.34887,-0.13291l1.64431,-0.25794l1.58608,-0.50466l1.67495,-0.1675l0.45985,-0.17518l1.44951,-0.64978l2.68785,-0.89595l0.84005,-0.18969l0.81056,-0.29097l3.58381,-0.89595l1.72344,-0.25221l0.20925,-0.06658l0.77593,-0.07759l0.11373,-0.01665l0.00679,-0.00227l3.43088,-0.77472l0.07805,-0.00107l0.07438,-0.02366l3.35982,-0.33598l0.55019,-0.17506l0.32418,-0.1621l3.28684,-1.25213l1.64431,-0.25794l1.58608,-0.50466l0.00453,-0.00046l0.34887,-0.13291l1.47072,-0.2307l0.79861,-0.39931l0.42908,-0.37057l0.85817,-0.27305l0.32418,-0.1621l2.83587,-1.08033l1.35749,-1.17238l2.72244,-0.86623l2.53758,-1.31254l1.40746,-0.10298l1.86296,-0.93148l0.42908,-0.37057l0.85817,-0.27305l0.32418,-0.1621l3.28684,-1.25213l1.64431,-0.25794l1.58608,-0.50466l0.00453,-0.00046l0.34887,-0.13291l1.64431,-0.25794l1.58608,-0.50466l0.00453,-0.00046l0.34887,-0.13291l1.47072,-0.2307l0.79861,-0.39931l0.42908,-0.37057l0.85817,-0.27305l0.32418,-0.1621l2.82225,-1.07514l2.55346,-1.61271l0.77747,-0.38874l1.49916,-1.22658l0.06933,-0.03586l0.05594,-0.05443l1.34348,-0.84851v-0.25665l-0.14396,-0.37789l-1.07514,-1.70231l-0.98618,-1.97237l-0.37057,-0.42908l-0.19235,-0.60453l-0.78257,-0.76142l-0.37324,-0.89578l-1.16289,-1.16289l-0.1933,-0.23626l-0.96942,-0.40392l-2.56568,-2.63695l-0.12217,-0.05091l-1.76192,-1.81087l-1.81087,-1.76192l-0.05091,-0.12217l-0.96386,-0.93781l-0.60505,-0.49701l-0.01261,-0.01032l-0.1095,-0.05664l-2.13003,-0.85201l-3.11951,-1.62475l-0.78031,-0.64213l-0.89759,-0.46427l-0.15126,-0.12376l-0.14542,-0.02281h-1.80864l-0.5495,0.13955l-0.88968,-0.13955h-0.36245l-3.49981,-0.34998l-1.58608,-0.50466l-0.26336,-0.04131h-23.34767l-0.26336,0.04131l-1.58608,0.50466l-3.49981,0.34999h-0.36245l-0.88968,0.13955l-0.13481,-0.03423l-1.38491,0.44066l-0.00453,0.00046l-0.34887,0.13291l-1.64431,0.25794l-1.58608,0.50466l-0.93329,0.09333l-0.34164,0.10871l-5.36622,2.23593l-2.01437,-0.40767l-1.11596,0.1116h-1.20705l-2.30833,0.52124l-0.07805,0.00107l-0.07438,0.02366l-0.00453,0.00046l-0.34887,0.13291l-0.10905,0.0171l-1.18865,0.4267l-2.55173,0.63794l-0.6031,0.19189l-0.32418,0.1621l-2.83587,1.08033l-1.35749,1.17238l-2.72244,0.86623l-2.53758,1.31254l-1.44977,0.10608l-3.1351,1.19433l-1.64431,0.25794l-1.58608,0.50466l-0.46011,0.04601l-0.77874,0.29667l-1.44951,0.64978l-2.68785,0.89595l-2.34966,0.53056l-0.27259,0.1363l-0.42908,0.37057l-0.85817,0.27305l-0.32418,0.1621l-3.28684,1.25213l-1.13942,0.17873l-0.62527,0.19895l-0.32418,0.1621l-3.28684,1.25213l-0.78682,0.12342l-1.01566,0.87715l-2.72244,0.86623l-2.53758,1.31254l-1.93605,0.14166l-0.50401,0.22593l-2.68785,0.89595l-3.43088,0.77472l-0.07805,0.00107l-0.07438,0.02366l-3.49981,0.34999h-7.15787l-0.5495,0.13955l-0.88968,-0.13955h-0.36245l-3.49981,-0.34998l-1.58608,-0.50466l-0.26336,-0.04131h-4.49649l-0.5495,0.13955l-0.88968,-0.13955h-0.36245l-3.49981,-0.34998l-1.58608,-0.50466l-1.64431,-0.25794l-2.26227,-0.86182l-1.67495,-0.1675l-1.58608,-0.50466l-1.64431,-0.25794l-0.34887,-0.13291l-0.00453,-0.00046l-1.58608,-0.50466l-1.64431,-0.25794l-0.02998,-0.01142l-1.21939,-0.12194l-0.37791,-0.12025l-2.06166,-0.15085l-2.53758,-1.31254l-2.72244,-0.86623l-1.35749,-1.17238l-2.83587,-1.08033l-0.32418,-0.1621l-0.85817,-0.27305l-0.42908,-0.37057l-0.54859,-0.2743l-1.17771,-0.39257l-0.74056,-0.33198l-0.84601,-0.26919l-1.64431,-0.25794l-0.34887,-0.13291l-0.00453,-0.00046l-1.58608,-0.50466l-1.64431,-0.25794l-3.28684,-1.25213l-0.32418,-0.1621l-0.62527,-0.19895l-1.13942,-0.17873l-1.27312,-0.485l-0.50272,0.10174l-5.36622,-2.23593l-2.70284,-0.86l-0.59554,-0.51433l-0.72637,-0.30265l-1.58828,-1.6324l-0.65863,-0.27443l-2.70284,-0.86l-0.59554,-0.51433l-0.72637,-0.30265l-1.97796,-2.0329l-1.13764,-0.98251l-1.36417,-0.5684l-2.94231,-3.02404l-2.00744,-0.63873l-0.59554,-0.51433l-0.72637,-0.30265l-1.46617,-1.5069l-0.76114,-0.39369l-2.72244,-0.86623l-0.91555,-0.7907l-1.48591,-0.56606l-0.32418,-0.1621l-0.62527,-0.19895l-1.13942,-0.17873l-3.28684,-1.25213l-0.32418,-0.1621l-0.85817,-0.27305l-0.42908,-0.37057l-0.18047,-0.09023l-0.80685,-0.50959l-1.63543,-0.16355l-1.58608,-0.50466l-1.64431,-0.25794l-1.78324,-0.67933h-20.95696l-2.35086,0.748l-2.22728,0.92804l-0.32075,0.26243l-0.06933,0.03586l-0.05594,0.05443l-0.99349,0.62747l-1.53474,1.53474l-1.70822,1.39763l-1.70551,1.40095l-0.84244,0.56163l-4.9703,4.9703l-0.37324,0.89578l-2.63695,2.56568l-0.05091,0.12217l-1.81087,1.76192l-1.09987,1.13042l-0.03423,0.05419l-0.63884,1.53322l-3.17321,3.08745l-0.44798,0.46042l-1.00961,1.23397l-1.28469,2.56937l-1.61271,2.55346l-1.01733,2.67051l-0.10608,1.44977l-1.31254,2.53758l-0.86623,2.72244l-0.12666,0.14666l-0.11133,1.11327l-0.50466,1.58608l-0.25794,1.64431l-0.13291,0.34887l-0.00046,0.00453l-0.50466,1.58608l-0.04131,0.26336v10.77788l-0.34998,3.49981l-0.02366,0.07438l-0.00107,0.07805l-0.52124,2.30833v6.58276l-0.34998,3.49981l-0.02366,0.07438l-0.00107,0.07805l-0.52124,2.30833v49.89952l0.52124,2.30833l0.00107,0.07805l0.02366,0.07438l0.00046,0.00453l0.13291,0.34887l0.25794,1.64431l0.50466,1.58608l0.29552,2.95524l0.03002,0.05652l0.80839,0.93603l0.46461,1.46021l0.22351,0.42072l0.83999,2.92171l0.92175,2.89694l0.0474,0.47405l0.4234,1.47268l-0.1534,1.22724l0.02099,0.2099l0.23877,0.95509l0.25221,1.72344l0.06658,0.20925l0.00046,0.00453l0.13291,0.34887l0.25794,1.64431l0.50466,1.58608l0.34999,3.49981v0.36245l0.13955,0.88968l-0.13955,0.5495v2.25211l0.46098,2.30491l0.21535,2.1966l0.21962,2.19617v0.3111l0.27709,1.2271l0.04606,0.09213l1.25213,3.28684l0.25794,1.64431l0.50466,1.58608l0.34999,3.49981v0.02647l0.04131,0.26336l0.50466,1.58608l0.24501,2.45008l0.62621,2.77321l0.00107,0.07805l0.02366,0.07438l0.34999,3.49981v20.76687l0.54597,1.71591l0.34837,3.48375l0.14117,0.55583l-0.13955,0.88968v0.36245l-0.34998,3.49981l-0.50466,1.58608l-0.25794,1.64431l-0.13291,0.34887l-0.00046,0.00453l-0.50466,1.58608l-0.04131,0.26336v2.26445l0.67933,1.78324l0.25794,1.64431l0.50466,1.58608l0.34999,3.49981v0.36245l0.13955,0.88968l-0.13955,0.5495v1.80864l0.04131,0.26336l0.50466,1.58608l0.33598,3.35982l0.09435,0.29654z"/></g></g></svg>