<svg version="1.1" xmlns="http://www.w3.org/2000/svg" xmlns:xlink="http://www.w3.org/1999/xlink" width="433.54684" height="299.34194" viewBox="0,0,433.54684,299.34194"><g transform="translate(-23.22659,-31.21265)"><g data-paper-data="{&quot;isPaintingLayer&quot;:true}" fill="none" fill-rule="nonzero" stroke="#000000" stroke-width="3" stroke-linecap="butt" stroke-linejoin="miter" stroke-miterlimit="10" stroke-dasharray="" stroke-dashoffset="0" style="mix-blend-mode: normal"><path d="M455.27342,63.14026v235.49258c0,16.77592 -13.63997,30.42175 -30.42762,30.42175h-369.69746c-16.77007,0 -30.42175,-13.64583 -30.42175,-30.42175v-235.49844c0,-16.77592 13.65169,-30.42175 30.42175,-30.42175h369.69747c16.78765,0 30.42762,13.65169 30.42762,30.42762z"/><path d="M417.72003,88.44263v184.8869c0,14.12487 -11.48449,25.6143 -25.61924,25.6143h-304.2065c-14.11994,0 -25.61431,-11.48942 -25.61431,-25.6143v-184.89183c0,-14.12488 11.49435,-25.6143 25.61431,-25.6143h304.2065c14.13476,0 25.61924,11.49435 25.61924,25.61924z"/></g></g></svg>