<svg version="1.1" xmlns="http://www.w3.org/2000/svg" xmlns:xlink="http://www.w3.org/1999/xlink" width="321.01114" height="302.28619" viewBox="0,0,321.01114,302.28619"><g transform="translate(-82.32094,-31.64175)"><g data-paper-data="{&quot;isPaintingLayer&quot;:true}" fill="none" fill-rule="nonzero" stroke="#000000" stroke-width="6" stroke-linecap="butt" stroke-linejoin="miter" stroke-miterlimit="10" stroke-dasharray="" stroke-dashoffset="0" style="mix-blend-mode: normal"><path d="M366.3636,317.31858l-0.46746,0.40371l-0.39363,0.09841c-1.93105,1.034 -4.13773,1.62034 -6.48137,1.62034h-0.2885l-0.63118,0.31559l-0.96611,0.21469l-0.83495,0.53133l-1.65795,0.55265l-0.23323,0.20142l-0.38313,0.09578l-0.34268,0.17134l-3.08414,0.68536l-1.20865,0.30216l-0.99928,0.33309l-0.8932,0.4466l-0.96611,0.21469l-0.83495,0.53133l-1.72379,0.5746l-0.8932,0.4466l-1.79282,0.39841l-1.65977,0.78621l-4.41805,0.88361l-1.36797,-0.06514l-1.32863,0.33216h-1.02136l-0.05612,0.04847l-0.38313,0.09578l-0.34268,0.17134l-3.08414,0.68536l-3.06504,0.76626h-0.38313l-0.38552,0.08567l-0.33733,-0.08567h-2.50298l-1.89227,0.47307h-1.6927l-1.64216,0.41054h-5.72117l-0.53401,0.178l-2.20381,0.16952l-2.14432,0.53608h-10.60331l-2.14432,-0.53608l-2.20381,-0.16952l-0.53401,-0.178h-0.41951l-2.14432,-0.53608l-2.20381,-0.16952l-0.53401,-0.178h-5.72117l-2.14432,-0.53608l-2.20381,-0.16952l-0.53401,-0.178h-8.14963l-0.33733,0.08567l-0.38552,-0.08567h-0.38313l-3.06504,-0.76626l-0.52807,-0.11735h-1.48618l-0.33733,0.08567l-0.38552,-0.08567h-0.38313l-3.06504,-0.76626l-3.08414,-0.68536l-0.01005,-0.00502l-1.72333,-0.13256l-0.53401,-0.178h-3.73158l-0.33733,0.08567l-0.38552,-0.08567h-0.38313l-3.06504,-0.76626l-0.52807,-0.11735h-0.82494l-1.32863,-0.33216l-1.36797,0.06514l-3.08297,-0.61659h-19.62274l-0.33733,0.08567l-0.38552,-0.08567h-0.38313l-3.06504,-0.76626l-0.52807,-0.11735h-14.96268l-2.14432,-0.53608l-2.20381,-0.16952l-0.53401,-0.178h-4.83756l-2.14432,-0.53608l-2.20381,-0.16952l-0.53401,-0.178h-3.95395l-1.64216,-0.41054h-1.6927l-3.53444,-0.88361l-1.33612,-0.7126l-1.47821,-0.32849l-0.34268,-0.17134l-0.10761,-0.0269l-3.08414,-0.68536l-0.34268,-0.17134l-0.38313,-0.09578l-0.23323,-0.20142l-1.65795,-0.55265l-0.83495,-0.53133l-0.96611,-0.21469l-2.66042,-1.33021l-1.72379,-0.5746l-0.83495,-0.53133l-0.96611,-0.21469l-0.34268,-0.17134l-0.10761,-0.0269l-2.19247,-0.48722l-0.15572,-0.01139l-0.06144,-0.03686l-0.67451,-0.14989l-0.34268,-0.17134l-0.38313,-0.09578l-0.2634,-0.22748l-0.778,-0.389l-1.6782,-1.43846l-1.89533,-1.1372l-0.18944,-0.18944l-3.3059,-1.65295l-0.29084,-0.24929l-1.24646,-0.51936l-0.7953,-0.92785l-0.31823,-0.07072l-0.34268,-0.17134l-0.38313,-0.09578l-0.2634,-0.22748l-2.54522,-1.27261l-0.29084,-0.24929l-1.24646,-0.51936l-0.7953,-0.92785l-0.31823,-0.07072l-0.34268,-0.17134l-0.38313,-0.09578l-0.2634,-0.22748l-0.778,-0.389l-1.6782,-1.43846l-1.89533,-1.1372l-0.18944,-0.18944l-1.53869,-0.76934l-1.6782,-1.43846l-1.89533,-1.1372l-1.76722,-1.76722l-1.1372,-1.89533l-1.43846,-1.6782l-1.32992,-2.65985l-2.31947,-1.98812l-0.21434,-0.51442l-0.70861,-1.06291l-0.80448,-0.80448l-1.1372,-1.89533l-1.43846,-1.6782l-2.53656,-5.07312l-0.18944,-0.18944l-1.62549,-2.70914l-1.69619,-2.66544l-0.12116,-0.36347l-0.34519,-0.57532l-1.43846,-1.6782l-0.76934,-1.53869l-0.18944,-0.18944l-1.1372,-1.89533l-1.43846,-1.6782l-2.15622,-4.31244l-0.22748,-0.2634l-0.09578,-0.38313l-0.17134,-0.34268l-0.68536,-3.08414l-0.76626,-3.06504v-0.38313l-0.08567,-0.38552l0.08567,-0.33733v-1.48618l-0.11735,-0.52807l-0.30216,-1.20865l-1.19475,-3.58426l-0.20142,-0.23323l-0.09578,-0.38313l-0.17134,-0.34268l-0.68536,-3.08414l-0.76626,-3.06504v-0.38313l-0.08567,-0.38552l0.08567,-0.33733v-2.36979l-0.11735,-0.52807l-0.76626,-3.06504v-0.38313l-0.08567,-0.38552l0.06906,-0.27194l-0.03186,-0.03689l-0.09578,-0.38313l-0.17134,-0.34268l-0.68536,-3.08414l-0.30216,-1.20865l-0.6421,-1.92631l-0.16952,-2.20381l-0.07198,-0.28793l-0.6421,-1.92631l-0.16952,-2.20381l-0.53608,-2.14432v-13.03177l-0.08567,-0.33733l0.08567,-0.38552v-0.38313l0.76626,-3.06504l0.29443,-1.32493l0.20418,-2.79048l0.90899,-1.51498l0.4285,-1.714l0.93208,-1.07925v-14.96092l-0.11735,-0.52807l-0.76626,-3.06504v-0.38313l-0.08567,-0.38552l0.08567,-0.33733v-16.34384l-0.08567,-0.33733l0.08567,-0.38552v-0.38313l0.76626,-3.06504l0.68536,-3.08414l0.00502,-0.01005l0.13256,-1.72333l0.178,-0.53401v-4.61519l-0.08567,-0.33733l0.08567,-0.38552v-0.38313l0.76626,-3.06504l0.11735,-0.52807v-36.16931l0.41054,-1.64216v-1.6927l0.47307,-1.89227v-0.07452l0.53608,-2.14432l0.16952,-2.20381l0.15375,-0.46126l0.02425,-0.10914v-0.38313l0.76626,-3.06504l0.03237,-0.14564l-0.09677,-0.47815l0.43505,-1.04413l0.31472,-1.41622l0.17134,-0.34268l0.09578,-0.38313l0.22748,-0.2634l0.389,-0.778l0.24929,-0.29084l0.51936,-1.24646l2.06944,-1.7738l1.7738,-2.06944l1.24646,-0.51936l0.29084,-0.24929l0.70689,-0.35344l0.40006,-0.34291l0.34291,-0.40006l2.12066,-4.24132l1.43846,-1.6782l1.1372,-1.89533l0.3764,-0.3764l0.46742,-1.1218l2.06944,-1.7738l0.42025,-0.4903l0.16114,-0.38673l0.64207,-0.55034l0.55034,-0.64207l0.38673,-0.16114l0.4903,-0.42025l1.7738,-2.06944l1.24646,-0.51936l0.29084,-0.24929l9.6141,-4.80705l0.2634,-0.22748l0.38313,-0.09578l0.34268,-0.17134l1.44296,-0.32066l1.36566,-1.17944l1.714,-0.4285l1.51498,-0.90899l2.68068,-0.19615l0.0122,-0.0061l0.2634,-0.22748l0.38313,-0.09578l0.34268,-0.17134l3.08414,-0.68536l0.10761,-0.0269l0.34268,-0.17134l0.96611,-0.21469l0.83495,-0.53133l2.65083,-0.88361l2.20381,-0.16952l2.14432,-0.53608h12.44505l1.89227,-0.47307h1.6927l1.64216,-0.41054h41.06554l0.53401,-0.178l2.20381,-0.16952l2.14432,-0.53608h3.47576l0.52807,-0.11735l1.87483,-0.46871l0.23708,-0.11854l0.2634,-0.22748l0.38313,-0.09578l0.34268,-0.17134l3.08414,-0.68536l3.06504,-0.76626h0.38313l0.38552,-0.08567l0.33733,0.08567h24.51869l2.14432,0.53608l2.20381,0.16952l0.53401,0.178h0.41951l2.14432,0.53608l2.20381,0.16952l1.92631,0.6421l0.28793,0.07198l2.20381,0.16952l0.46126,0.15375l0.10914,0.02425h0.38313l3.06504,0.76626l3.08414,0.68536l0.34268,0.17134l0.38313,0.09578l0.2634,0.22748l1.1952,0.5976l0.42797,0.10699h0.07452l3.06504,0.76626l3.08414,0.68536l0.34268,0.17134l0.38313,0.09578l0.2634,0.22748l4.65512,2.32756l0.10761,0.0269l3.08414,0.68536l0.34268,0.17134l0.38313,0.09578l0.2634,0.22748l2.00429,1.00215l1.87483,0.46871l0.52807,0.11735h1.48618l0.33733,-0.08567l0.38552,0.08567h0.38313l3.06504,0.76626l3.08414,0.68536l0.34268,0.17134l0.38313,0.09578l0.23323,0.20142l1.65795,0.55265l0.83495,0.53133l0.96611,0.21469l2.66042,1.33021l1.22282,0.40761l3.02214,0.75553l1.33612,0.7126l1.47821,0.32849l0.34268,0.17134l0.10761,0.0269l3.08414,0.68536l0.34268,0.17134l0.38313,0.09578l0.2634,0.22748l3.43842,1.71921l0.99928,0.33309l1.20865,0.30216l3.08414,0.68536l0.34268,0.17134l0.10761,0.0269l3.08414,0.68536l0.34268,0.17134l0.38313,0.09578l0.2634,0.22748l6.07966,3.03983l1.6782,1.43846l1.89533,1.1372l0.18944,0.18944l1.53869,0.76934l1.6782,1.43846l0.57532,0.34519l0.36347,0.12116l2.66544,1.69619l2.70914,1.62549l0.27091,0.27091l0.33318,0.21202l0.17795,0.29911l6.28683,6.28683l0.47019,0.78365l0.1444,0.06017l1.7738,2.06944l2.06944,1.7738l0.51936,1.24646l0.24929,0.29084l2.53656,5.07312l1.95666,1.95666l1.1372,1.89533l1.43846,1.6782l0.35344,0.70689l0.34291,0.40006l2.06944,1.7738l0.51936,1.24646l0.24929,0.29084l2.53656,5.07312l0.18944,0.18944l1.1372,1.89533l1.43846,1.6782l0.88361,1.76722l0.14989,0.67451l0.03686,0.06144l0.01139,0.15572l0.01654,0.07444l0.53133,0.83495l0.55265,1.65795l0.20142,0.23323l0.09578,0.38313l0.17134,0.34268l0.68536,3.08414l0.76626,3.06504v0.38313l0.08567,0.38552l-0.08567,0.33733v11.20588l0.11735,0.52807l0.76626,3.06504v0.38313l0.08567,0.38552l-0.08567,0.33733v5.4988l0.178,0.53401l0.16952,2.20381l0.53608,2.14432v0.2885l0.70459,1.40919l0.22748,0.2634l0.09578,0.38313l0.17134,0.34268l0.68536,3.08414l0.67987,2.71948l0.2644,0.41548l0.55265,1.65795l0.20142,0.23323l0.09578,0.38313l0.17134,0.34268l0.68536,3.08414l0.76626,3.06504v0.38313l0.08567,0.38552l-0.08567,0.33733v2.36979l0.11735,0.52807l0.76626,3.06504v0.38313l0.08567,0.38552l-0.08567,0.33733v4.13701l0.11735,0.52807l0.76626,3.06504v0.38313l0.08567,0.38552l-0.08567,0.33733v0.06614l0.31559,0.63118l0.21469,0.96611l0.53133,0.83495l0.88361,2.65083l0.16952,2.20381l0.53608,2.14432v11.42825l0.11735,0.52807l0.76626,3.06504v0.38313l0.08567,0.38552l-0.08567,0.33733v17.44982l-0.53608,2.14432l-0.16952,2.20381l-0.88361,2.65083l-0.53133,0.83495l-0.21469,0.96611l-0.61315,1.22629l-0.46871,1.87483l-0.11735,0.52807v13.85671l0.08567,0.33733l-0.08567,0.38552v0.38313l-0.76626,3.06504l-0.68536,3.08414l-0.17134,0.34268l-0.09578,0.38313l-0.22748,0.2634l-2.15622,4.31244l-1.43846,1.6782l-1.1372,1.89533l-0.18944,0.18944l-0.05707,0.11415l-0.0269,0.10761l-0.68536,3.08414l-0.17134,0.34268l-0.09578,0.38313l-0.22748,0.2634l-2.32756,4.65512l-0.0269,0.10761l-0.68536,3.08414l-0.17134,0.34268l-0.0269,0.10761l-0.08404,0.37818l0.05236,0.20618l-0.08567,0.38552v0.38313l-0.76626,3.06504l-0.11735,0.52807v2.36979l0.08567,0.33733l-0.08567,0.38552v0.38313l-0.76626,3.06504l-0.68536,3.08414l-0.17134,0.34268l-0.0269,0.10761l-0.68536,3.08414l-0.17134,0.34268l-0.0269,0.10761l-0.68536,3.08414l-0.17134,0.34268l-0.09578,0.38313l-0.22748,0.2634l-2.15622,4.31244l-0.24929,0.29084l-0.51936,1.24646l-2.06944,1.7738l-1.7738,2.06944l-1.24646,0.51936l-0.29084,0.24929l-0.778,0.389l-0.2634,0.22748l-0.38313,0.09578l-0.34268,0.17134l-1.41622,0.31472l-1.02964,0.42901c-0.52129,0.45214 -1.07695,0.86571 -1.66253,1.23626zM357.556,280.83502l0.08567,-0.38552v-0.38313l0.76626,-3.06504l0.68536,-3.08414l0.17134,-0.34268l0.0269,-0.10761l0.68536,-3.08414l0.17134,-0.34268l0.0269,-0.10761l0.68536,-3.08414l0.17134,-0.34268l0.09578,-0.38313l0.22748,-0.2634l2.32756,-4.65512l0.0269,-0.10761l0.68536,-3.08414l0.17134,-0.34268l0.09578,-0.38313l0.22748,-0.2634l1.27261,-2.54522l1.43846,-1.6782l1.1372,-1.89533l0.18944,-0.18944l0.20133,-0.40265v-12.43667l-0.08567,-0.33733l0.08567,-0.38552v-0.38313l0.76626,-3.06504l0.08404,-0.37818l-0.05236,-0.20618l0.08567,-0.38552v-0.38313l0.76626,-3.06504l0.68536,-3.08414l0.17134,-0.34268l0.09578,-0.38313l0.22748,-0.2634l0.70459,-1.40919v-14.36758l-0.11735,-0.52807l-0.76626,-3.06504v-0.38313l-0.08567,-0.38552l0.08567,-0.33733v-9.78584l-0.70459,-1.40919l-0.22748,-0.2634l-0.09578,-0.38313l-0.17134,-0.34268l-0.68536,-3.08414l-0.76626,-3.06504v-0.38313l-0.08567,-0.38552l0.08567,-0.33733v-1.48618l-0.11735,-0.52807l-0.76626,-3.06504v-0.38313l-0.08567,-0.38552l0.08567,-0.33733v-4.13701l-0.11735,-0.52807l-0.76626,-3.06504v-0.38313l-0.08567,-0.38552l0.08567,-0.33733v-1.33504l-0.178,-0.27972l-0.55265,-1.65795l-0.20142,-0.23323l-0.09578,-0.38313l-0.17134,-0.34268l-0.68536,-3.08414l-0.46871,-1.87483l-0.61315,-1.22629l-0.21469,-0.96611l-0.53133,-0.83495l-0.88361,-2.65083l-0.16952,-2.20381l-0.53608,-2.14432v-0.41951l-0.178,-0.53401l-0.16952,-2.20381l-0.53608,-2.14432v-7.0102l-0.11735,-0.52807l-0.76626,-3.06504v-0.38313l-0.08567,-0.38552l0.08567,-0.33733v-10.17114l-0.178,-0.27972l-0.34206,-1.02618l-1.0079,-1.67983l-1.43846,-1.6782l-2.12066,-4.24132l-0.34291,-0.40006l-2.06944,-1.7738l-0.51936,-1.24646l-0.24929,-0.29084l-0.76934,-1.53869l-1.95666,-1.95666l-1.1372,-1.89533l-1.43846,-1.6782l-2.12066,-4.24132l-0.34291,-0.40006l-2.06944,-1.7738l-0.46742,-1.1218l-3.73995,-3.73995l-1.87979,-1.19623l-2.70914,-1.62549l-0.18944,-0.18944l-1.53869,-0.76934l-1.6782,-1.43846l-1.89533,-1.1372l-0.18944,-0.18944l-3.64859,-1.82429l-0.10761,-0.0269l-3.08414,-0.68536l-0.01005,-0.00502l-1.72333,-0.13256l-2.65083,-0.88361l-0.83495,-0.53133l-0.96611,-0.21469l-3.87712,-1.93856l-0.10761,-0.0269l-3.08414,-0.68536l-0.34268,-0.17134l-0.38313,-0.09578l-0.03036,-0.02622l-1.73116,-0.43279l-0.47571,-0.25371l-0.53755,-0.04135l-2.65083,-0.88361l-0.83495,-0.53133l-0.96611,-0.21469l-2.66042,-1.33021l-1.72379,-0.5746l-0.27972,-0.178h-0.45144l-0.33733,0.08567l-0.38552,-0.08567h-0.38313l-3.06504,-0.76626l-0.37818,-0.08404l-0.20618,0.05236l-0.38552,-0.08567h-0.38313l-3.06504,-0.76626l-3.08414,-0.68536l-0.34268,-0.17134l-0.38313,-0.09578l-0.2634,-0.22748l-2.8879,-1.44395l-0.10761,-0.0269l-3.08414,-0.68536l-0.34268,-0.17134l-0.38313,-0.09578l-0.2634,-0.22748l-3.99749,-1.99874h-1.03507l-3.53444,-0.88361l-1.33612,-0.7126l-1.47821,-0.32849l-1.22629,-0.61315l-0.95411,-0.23853l-2.20381,-0.16952l-1.92631,-0.6421l-0.28793,-0.07198l-2.20381,-0.16952l-0.53401,-0.178h-0.41951l-2.14432,-0.53608l-2.20381,-0.16952l-0.53401,-0.178h-19.99667l-0.05612,0.04847l-0.38313,0.09578l-0.34268,0.17134l-3.08414,0.68536l-3.06504,0.76626h-0.38313l-0.38552,0.08567l-0.20618,-0.05236l-0.37818,0.08404l-3.06504,0.76626h-0.38313l-0.38552,0.08567l-0.33733,-0.08567h-1.96436l-0.53401,0.178l-2.20381,0.16952l-2.14432,0.53608h-41.60415l-1.89227,0.47307h-1.6927l-1.64216,0.41054h-11.62467l-0.05612,0.04847l-0.38313,0.09578l-0.34268,0.17134l-3.08414,0.68536l-0.10761,0.0269l-1.12069,0.56034l-0.2634,0.22748l-0.38313,0.09578l-0.34268,0.17134l-2.6327,0.58504l-1.05953,0.91505l-1.714,0.4285l-1.51498,0.90899l-1.6456,0.12041l-5.39422,2.69711l-0.40006,0.34291l-1.7738,2.06944l-0.1444,0.06017l-0.47019,0.78365l-0.18944,0.18944l-2.53656,5.07312l-0.24929,0.29084l-0.51936,1.24646l-2.06944,1.7738l-0.42025,0.4903l-0.16114,0.38673l-0.64207,0.55034l-0.55034,0.64207l-0.38673,0.16114l-0.4903,0.42025l-0.82547,0.96305l-0.00847,0.11006l-0.58855,1.76564v1.63914l-0.47307,1.89227v35.19652l0.08567,0.33733l-0.08567,0.38552v0.38313l-0.76626,3.06504l-0.11735,0.52807v6.12659l-0.53608,2.14432l-0.16952,2.20381l-0.6421,1.92631l-0.30216,1.20865l-0.11735,0.52807v14.90401l0.11735,0.52807l0.76626,3.06504v0.38313l0.08567,0.38552l-0.08567,0.33733v17.22745l0.08567,0.33733l-0.08567,0.38552v0.38313l-0.76626,3.06504l-0.29443,1.32493l-0.20418,2.79048l-0.90899,1.51498l-0.4285,1.714l-0.93208,1.07925v9.25384l0.178,0.53401l0.16952,2.20381l0.07198,0.28793l0.6421,1.92631l0.13256,1.72333l0.39403,0.78805l0.22748,0.2634l0.09578,0.38313l0.17134,0.34268l0.68536,3.08414l0.76626,3.06504v0.38313l0.08567,0.38552l-0.08567,0.33733v1.48618l0.11735,0.52807l0.76626,3.06504v0.38313l0.08567,0.38552l-0.08567,0.33733v1.33504l0.178,0.27972l1.76722,5.30166l0.13256,1.72333l0.00502,0.01005l0.68536,3.08414l0.76626,3.06504v0.38313l0.08567,0.38552l-0.08567,0.33733v0.06614l0.20133,0.40265l0.18944,0.18944l1.1372,1.89533l1.43846,1.6782l0.76934,1.53869l0.18944,0.18944l1.62549,2.70914l1.69619,2.66544l0.12116,0.36347l0.34519,0.57532l1.43846,1.6782l2.53656,5.07312l0.18944,0.18944l0.70461,1.17435l0.45167,0.41061l0.34192,0.14247l1.7738,2.06944l2.06944,1.7738l0.51936,1.24646l0.24929,0.29084l1.19017,2.38034l0.61312,0.30656l1.29386,1.10902l3.75318,1.56382l0.98044,0.24511l0.36559,0.31573l0.4459,0.18579l0.6577,0.76731l1.03803,0.89648l2.69761,1.124l0.98044,0.24511l0.36559,0.31573l0.4459,0.18579l0.6577,0.76731l2.43911,2.1065l1.55116,0.77558l1.6782,1.43846l1.07777,0.64666l2.54568,0.56571l0.34268,0.17134l0.38313,0.09578l0.23323,0.20142l1.65795,0.55265l0.83495,0.53133l0.96611,0.21469l2.66042,1.33021l1.72379,0.5746l0.83495,0.53133l0.96611,0.21469l0.34268,0.17134l0.10761,0.0269l3.08414,0.68536l0.34268,0.17134l0.38313,0.09578l0.03036,0.02622l0.089,0.02225h4.49256l2.14432,0.53608l2.20381,0.16952l0.53401,0.178h4.83756l2.14432,0.53608l2.20381,0.16952l0.53401,0.178h13.45128l0.33733,-0.08567l0.38552,0.08567h0.38313l3.06504,0.76626l0.52807,0.11735h20.26434l1.32863,0.33216l1.36797,-0.06514l3.08297,0.61659h0.18333l0.33733,-0.08567l0.38552,0.08567h0.38313l3.06504,0.76626l0.52807,0.11735h5.24298l2.14432,0.53608l2.20381,0.16952l1.92631,0.6421l1.20865,0.30216l0.52807,0.11735h1.48618l0.33733,-0.08567l0.38552,0.08567h0.38313l3.06504,0.76626l0.52807,0.11735h9.66103l2.14432,0.53608l2.20381,0.16952l0.53401,0.178h5.72117l2.14432,0.53608l2.20381,0.16952l0.53401,0.178h0.41951l2.14432,0.53608l2.20381,0.16952l0.53401,0.178h6.14068l0.53401,-0.178l2.20381,-0.16952l2.14432,-0.53608h6.25978l1.89227,-0.47307h1.6927l1.64216,-0.41054h2.44102l0.27972,-0.178l2.65083,-0.88361l2.20381,-0.16952l2.14432,-0.53608h2.17292l1.27735,-0.25547l0.12024,-0.06012l0.96611,-0.21469l0.83495,-0.53133l1.72379,-0.5746l0.8932,-0.4466l0.96611,-0.21469l0.83495,-0.53133l2.65083,-0.88361l1.72333,-0.13256l0.01005,-0.00502l0.96611,-0.21469l0.83495,-0.53133l1.72379,-0.5746l0.8932,-0.4466l0.96611,-0.21469l0.83495,-0.53133l2.65083,-0.88361l0.59542,-0.0458l1.13796,-0.9754l0.778,-0.389l0.2634,-0.22748l0.38313,-0.09578l0.34268,-0.17134l0.54591,-0.12131l0.37377,-1.68198l0.17134,-0.34268l0.0269,-0.10761l0.11735,-0.52807v-2.36979l-0.08567,-0.33733l0.08567,-0.38552v-0.38313l0.76626,-3.06504l0.08404,-0.37818z"/></g></g></svg>