<svg version="1.1" xmlns="http://www.w3.org/2000/svg" xmlns:xlink="http://www.w3.org/1999/xlink" width="468.68255" height="333.29718" viewBox="0,0,468.68255,333.29718"><g transform="translate(-7.35622,-7.49179)"><g data-paper-data="{&quot;isPaintingLayer&quot;:true}" fill="none" fill-rule="nonzero" stroke="#747474" stroke-width="3.5" stroke-linecap="butt" stroke-linejoin="miter" stroke-miterlimit="10" stroke-dasharray="" stroke-dashoffset="0" style="mix-blend-mode: normal"><path d="M15.23905,131.65278c-0.09949,-2.89228 -1.63419,-5.60873 -1,-8.65277c0,-0.32205 0.00609,-0.64267 0.01816,-0.96177c-0.65228,-1.15946 -1.29126,-2.33444 -1.89316,-3.53823c-3.37725,-6.75451 -3.81175,-15.04414 -2.73437,-22.40625c0.65249,-4.45865 1.97494,-8.98032 4.17205,-12.95615c1.10859,-2.00608 3.66519,-7.02005 5.6613,-8.9372c15.93926,-15.30873 42.29295,-7.72743 61.25704,-8.25223c6.13576,-0.16979 13.42163,0.26661 18.01754,-3.80206c3.2126,-2.84405 6.9773,-6.19907 9.64756,-9.64756c1.81576,-2.34495 3.07036,-5.03486 5.17622,-7.17622c4.95804,-5.04161 9.95839,-10.04196 15,-15c10.57267,-10.39742 25.11909,-16.81368 39.16588,-21.08055c7.71522,-2.34358 15.27868,-0.82612 23.11473,-0.12374c12.86535,1.15317 16.80464,1.5367 29.04557,3.88196c6.15041,1.17837 18.03146,1.77375 21.27252,2.17123c6.36122,0.78014 15.8325,2.95385 19.65551,3.67958c2.96233,0.56235 6.01955,0.51748 8.93525,1.39096c5.18935,1.55463 10.63823,2.78492 15.64167,4.91293c3.9072,1.66177 9.58745,5.30214 14.00608,6.85733c6.71499,2.36342 12.7335,5.12581 19.44312,7.50319c4.91386,1.7411 10.22507,2.89836 14.88531,5.37353c2.78376,1.47852 4.95139,3.96667 7.48543,5.64339c6.38909,4.22751 13.08082,8.37864 19.72824,12.22268c3.11551,1.80162 6.80939,2.33291 10.20406,3.52809c5.44513,1.91711 10.284,5.26641 15.71056,7.263c2.45443,0.90306 5.43257,1.31123 7.88375,2.57908c3.13482,1.62145 5.37073,5.02707 8.19439,7.07698c4.21848,3.06252 10.65154,6.9792 14.98327,11.12035c4.48279,4.28556 7.59594,9.21351 11.86138,13.58196c3.41981,3.5024 7.43201,6.29076 9.58595,11.09571c5.11317,11.4063 10.67067,22.91418 13.9131,35.13197c1.91003,7.19717 0.8471,15.4935 4.11714,22.27682c1.8734,3.88615 4.84706,7.34503 6.71976,11.09122c2.06874,4.13835 1.75203,9.0665 3.125,13.09563c5.71313,16.76571 7.37225,27.26676 7,45.40437c-0.19261,9.38493 -4.77517,22.46324 -9.01496,30.66112c-5.84069,11.29329 -12.91472,23.26941 -22.30737,32.01655c-6.6468,6.19 -18.99454,11.47809 -28.07521,11.47809c-3.26461,0 -6.46771,-1.06462 -9.6801,-1.15576c-13.32271,-0.37801 -25.86152,-3.21335 -37.82406,-9c-2.0057,-0.97022 -5.55232,-0.15295 -7.59215,-0.66954c-3.19956,-0.81028 -7.61988,-2.60084 -10.48157,-4.36732c-14.24358,-8.79233 -15.65632,-32.69273 -12.27814,-47.02653c1.3284,-5.63645 2.36165,-10.53751 4.32637,-15.69488c0.54226,-1.42344 1.65475,-2.64476 1.9272,-4.14343c0.284,-1.56224 0.30644,-3.20555 0,-4.76355c-0.99331,-5.05014 -6.72426,-5.22451 -10.48796,-7.22351c-7.09648,-3.76913 -13.97821,-8.20815 -20.11078,-13.54955c-1.65821,-1.44429 -4.22244,-1.63255 -6.15953,-2.63449c-9.11394,-4.7141 -15.83765,-11.59805 -24.17652,-17.44374c-9.74385,-6.83061 -20.6482,-11.06467 -31.69622,-15.1516c-3.06875,-1.13521 -7.96345,-4.24854 -11.27069,-4.33185c-4.53062,-0.11414 -9.06469,-0.07228 -13.59617,0c-3.34443,0.05335 -7.5009,2.56058 -10.59643,3.71708c-4.13584,1.54516 -10.00179,2.82638 -13.68841,5.15545c-2.91866,1.84391 -0.41876,4.81846 0.4998,7.22177c1.98042,5.1816 2.7947,11.02414 8.05149,14.33914c5.33461,3.36407 12.34956,6.23673 17.85855,8.92927c2.45121,1.19804 6.24153,1.06967 8.88467,1.87907c3.63082,1.11186 8.72009,3.19281 11.98821,4.88322c2.64056,1.3658 5.08385,4.20051 7.18916,6.20881c5.25776,5.0155 11.0788,9.78023 16.11045,14.89016c3.00438,3.05113 4.17217,6.2981 6.39207,9.69825c0.34982,0.53581 4.83843,5.67225 5.68334,7.57778c5.38673,12.14879 4.02479,24.23562 4.125,37.48913c0.08586,11.35634 -5.43857,20.481 -14.60937,26.97557c-4.21103,2.98216 -7.57079,6.61185 -12.76151,8.34209c-10.44713,3.48237 -20.57378,2.06415 -31.4824,3.50322c-10.13839,1.33746 -20.82418,4.14295 -31.14672,4.18998c-32.31209,0.14722 -61.93378,-1.18626 -94.23025,-1c-3.94448,0.02275 -8.38926,2.40186 -12.59072,2.822c-12.43658,1.24365 -25.04001,1.18196 -37.35271,-0.76164c-3.61321,-0.57036 -7.87678,0.3851 -11.45545,-0.75356c-3.22322,-1.02557 -5.65106,-3.06074 -8.50389,-4.54714c-1.56914,-0.81757 -5.071,-1.5999 -6.32011,-2.66591c-10.79814,-9.21526 -13.44814,-20.60649 -13.54687,-34.12329c-0.01858,-2.54386 -1.01185,-5.35022 -1,-7.98133c0.06026,-13.38182 -2.76014,-27.28123 0.54824,-40.19311c-0.88608,-1.51707 -1.60679,-3.11064 -2.13001,-4.75501c-0.26109,-0.82059 0.15679,-1.71797 0.14921,-2.57907c-0.0296,-3.36029 -1.3986,-6.68807 -1.4819,-10.07524c-0.08302,-3.37557 0.83223,-5.89177 0.91446,-9.16339c0.34578,-13.75646 0.04335,-16.66917 2.38704,-28.70931c0.09948,-0.51105 0.19706,-1.04955 0.29511,-1.61074c-0.53228,-6.84961 0.0709,-13.79483 0.58221,-18.90802c0.25447,-2.54474 1.48092,-5.01063 1.73563,-7.49661c0.22079,-2.15493 -0.33477,-4.35844 0,-6.49863c0,-0.80829 0.03836,-1.60762 0.11336,-2.39626c-1.04605,-8.70323 -0.86757,-17.80569 -1.11336,-24.95096zM64.23905,179.50138c-0.16581,2.73634 -0.09211,5.47922 -0.03202,8.22227c0.02126,0.42277 0.03202,0.8483 0.03202,1.27635c0,0.08816 -0.00046,0.17621 -0.00137,0.26415c0.02094,1.24569 0.0293,2.49117 0.00137,3.73585c-0.07351,3.27544 -0.9944,7.77726 -2.32236,10.88778c-0.29563,1.94974 -0.54439,3.90458 -0.67764,5.85653c-0.36106,5.28897 0.27607,10.62115 -0.16647,15.90331c0.27561,0.5462 0.53366,1.10262 0.77489,1.66812c0.16566,0.34992 0.32342,0.70429 0.47308,1.06289c0.68288,0.80521 1.40566,1.61127 1.50028,2.58035c0.14106,1.44481 0.26042,2.91317 0.31994,4.38566c1.10649,6.53896 0.72537,13.50535 -0.29233,19.5616c-1.77479,10.56161 -0.62564,21.41361 -0.60937,32.12329c0.00155,1.01727 -0.31643,2.92917 0.7,2.97046c7.40135,0.30061 14.81774,0.20485 22.22236,0c4.855,-0.13432 9.37873,-3.15576 14.47518,-3.15576c15.89,0 33.31492,0 49.20492,0c2.45894,0 5.02848,1.15301 7.368,1.15576c14.3082,0.0168 28.73457,1.21386 42.91957,-0.65985c7.79998,-1.03031 15.83818,-2.38913 23.62238,-3.21608c3.33121,-0.35389 6.66321,-0.70331 10,-1c0.53706,-0.04775 4.3755,0.06276 4.48759,-0.12407c1.52935,-2.54892 -0.86268,-4.33997 -2,-6c-2.26279,-3.30275 -4.87823,-6.83124 -7.87579,-9.52046c-6.22496,-5.58465 -9.66636,-5.01142 -17.0299,-7.76246c-4.73924,-1.7706 -9.33759,-4.50001 -13.78477,-6.61146c-2.15768,-1.02444 -4.62603,-1.26246 -6.80954,-2.23062c-1.48829,-0.6599 -3.32217,-2.71311 -4.6966,-3.52245c-1.1368,-0.66941 -5.37536,-2.23155 -6.77883,-3.38942c-4.5675,-3.76819 -10.33784,-9.30713 -13.98771,-13.98771c-1.19927,-1.53794 -1.54248,-3.98468 -2.6249,-5.63095c-6.98225,-10.61946 -8.10352,-16.97638 -11.49173,-29.05173c-1.32721,-4.73009 -3.08153,-9.71115 -3.076,-14.69028c0.00418,-3.75917 1.74051,-6.96052 2.13109,-10.58538c0.34452,-3.19734 1.60901,-9.15274 4.06154,-11.9925c4.46999,-5.17577 10.25761,-13.62187 16.46313,-16.89957c13.44482,-7.10144 27.60854,-13.1369 42.5971,-16.63952c11.51982,-2.69202 24.17213,-3.05036 35.80916,-1.09486c6.52116,1.09583 12.66117,4.65655 18.81951,7.0214c10.06757,3.86604 20.22534,7.41146 29.7622,12.47673c6.33793,3.36623 13.35579,8.53788 19.043,12.76791c1.67563,1.2463 3.25597,3.50823 5.00687,4.52582c6.48023,3.76621 13.47074,7.41269 19.96168,11.55315c2.20938,1.40932 3.74093,3.45476 5.86205,4.93799c1.9418,1.35783 4.09256,1.39317 6.13844,2.45138c0.95091,0.49185 2.58544,2.2526 3.56462,2.87756c4.48041,2.85961 10.78217,3.62819 14.91081,7.03431c7.16976,5.91505 13.27693,15.28599 17.23649,23.67837c4.80251,10.17903 5.12926,22.21367 3.3026,33.18767c-1.00426,6.03323 -2.82099,9.29794 -4.92654,14.82285c-0.39344,1.03238 -1.2486,2.20412 -0.80386,3.21545c0.73956,1.68172 9.26069,3.25339 10.39623,3.69811c3.88087,1.5199 6.06968,1.25718 10.81966,1.36068c1.03209,0.02249 2.49842,1.15998 3.08163,0.30816c5.34982,-7.81383 11.55101,-17.5406 12.91837,-26.97738c1.48422,-10.24327 -2.35825,-19.42274 -5.49484,-28.7872c-0.1389,-0.41469 -0.74567,-4.8083 -1.24685,-5.96035c-2.45686,-5.64758 -6.12773,-10.67335 -7.9754,-16.67753c-2.60107,-8.45247 -3.22515,-15.92372 -4.79016,-24.67965c-1.30628,-7.30837 -5.16165,-15.0696 -8.92073,-21.53824c-1.48487,-2.55516 -5.6039,-6.18606 -7.09375,-8.07044c-12.62124,-15.96353 -30.92895,-20.89396 -48.76304,-28.40546c-9.45225,-3.98117 -19.56354,-11.54675 -28.13712,-17.12038c-0.80476,-0.52317 -1.78656,-1.77936 -2.67767,-2.10574c-6.55843,-2.40205 -14.33711,-3.80934 -20.54107,-6.95454c-9.88605,-5.0119 -21.03069,-11.31663 -31.9068,-13.28364c-7.41879,-1.34173 -14.8121,-2.83322 -22.2568,-4.02275c-7.17337,-1.14618 -15.18455,-0.79558 -22.434,-2.2798c-8.31006,-1.70137 -22.93133,-4.78511 -32.01976,-4.37096c-6.89182,0.31406 -12.77199,5.57378 -18.24057,9.77979c-6.69226,5.14719 -13.19769,14.1115 -18.53832,21.12153c-3.33712,4.38026 -8.74403,8.6742 -12.95213,12.11719c-17.66546,14.45355 -40.79575,14.34809 -62.51244,14.51421c-0.17807,0.00136 0.15979,0.31938 0.21852,0.48748c0.59383,1.69958 1.08091,3.43793 1.49454,5.1901c0.65971,2.79457 0.96857,5.66053 1.43899,8.49312c1.19286,7.18284 1.5506,12.54464 1.3494,20.22247c-0.16537,6.31044 -2.49549,13.95806 -6.46679,20.45816c-0.57998,2.62973 -1.30057,5.204 -1.53321,9.04322z"/></g></g></svg>