<svg version="1.1" xmlns="http://www.w3.org/2000/svg" xmlns:xlink="http://www.w3.org/1999/xlink" width="455.74356" height="313.36324" viewBox="0,0,455.74356,313.36324"><g transform="translate(-12.12817,-23.31139)"><g data-paper-data="{&quot;isPaintingLayer&quot;:true}" fill="none" fill-rule="nonzero" stroke-width="3.5" stroke-linejoin="miter" stroke-miterlimit="10" stroke-dasharray="" stroke-dashoffset="0" style="mix-blend-mode: normal"><path d="M380.59999,227.00406v0.48498c0,1.02764 -0.62004,1.91046 -1.50641,2.29477l-0.27303,0.63707c-0.36945,0.91919 -1.26922,1.56816 -2.32056,1.56816c-0.75977,0 -1.44038,-0.33892 -1.89889,-0.87382c-0.70415,1.48726 -1.72961,2.81619 -2.46505,4.29185l-2.0683,2.24974c0,0 -1.76777,1.76776 -3.53554,0c-1.76776,-1.76776 0,-3.53554 0,-3.53554l1.1317,-0.95027c0.76466,-1.5248 1.87173,-2.87451 2.53028,-4.44805c3.0202,-7.2165 3.19026,-17.46134 0.37243,-24.73647c0,0 -0.89745,-2.33336 1.43591,-3.23081c2.33337,-0.89745 3.23082,1.43591 3.23082,1.43591c0.59424,1.55465 1.07385,3.2117 1.43941,4.93327c0.1638,-0.73735 0.69627,-1.93583 2.42722,-1.93583c2.5,0 2.5,2.5 2.5,2.5c0,0.05827 -0.0001,0.11652 -0.00031,0.17476c0.02286,0.0267 0.04517,0.05388 0.06691,0.08154l1.58557,1.98197l-0.14023,0.11219l0.38412,0.25484c0.19567,0.56533 0.38029,1.13457 0.55522,1.70693c0.08182,-0.00808 0.16479,-0.01222 0.24873,-0.01222c1.38071,0 2.5,1.11929 2.5,2.5c0,0.14474 -0.0123,0.2866 -0.03591,0.42461l-0.39316,2.55553l-0.05667,-0.00872l-0.02276,0.12898l0.03212,0.11286c-0.03342,0.09364 -0.06719,0.18668 -0.10129,0.27914l-0.02442,0.13839c0.99654,1.71836 0.0021,3.98014 0.0021,5.9692v3.6c0,1.38071 -1.11929,2.5 -2.5,2.5c-1.17469,0 -2.16015,-0.81018 -2.42808,-1.90224l-0.42,-1.56001c-0.08338,0.09269 -0.16735,0.1851 -0.25191,0.27727z" stroke="none" stroke-linecap="butt"/><path d="M368.83334,203.33334l3.33333,5.33333l0.33333,11.33334l-2.33333,8.66666l-6,5.66667" stroke="#737373" stroke-linecap="round"/><path d="M104.5,253.66667l8.33334,1l5.33333,4.66667l3.66667,18" stroke="#737373" stroke-linecap="round"/><path d="M22.80927,183.53033l-0.25065,-1.92785l-0.07056,-0.23471l-0.07271,-0.86731l-0.11222,-0.86309l0.01936,-0.24432l-0.16243,-1.93728l0.01675,-1.04533l-0.88776,-3.80941l-0.2909,-0.56196l-0.07368,-1.00244l-0.09182,-0.39398l-0.50613,-3.89297l0.14679,-1.85191l-0.13616,-1.85272l0.52845,-3.89l0.09408,-0.39345l0.07942,-1.002l0.29412,-0.56029l0.51667,-2.16094l0.33283,-8.92006l0.09495,-0.68893l-0.00478,-0.69542l0.84396,-9.06894l0.51145,-8.17263l-0.2515,-2.88148l-0.16751,-0.45421l0.04718,-0.92442l-0.08014,-0.91827l0.0495,-3.92542l0.35954,-1.60033l0.01352,-0.26507l-0.24812,-0.47931l-0.07368,-1.00244l-0.09182,-0.39398l-0.50613,-3.89297l0.14679,-1.85191l-0.02181,-0.29673l-0.0067,-0.02877l-0.25065,-1.92785l-0.07056,-0.23471l-0.07271,-0.86731l-0.11222,-0.86309l0.01936,-0.24432l-0.16243,-1.93728l0.13211,-8.24515l0.11095,-0.95479l-0.00661,-0.96119l0.58603,-6.29735l0.46512,-2.3868l0.01464,-0.2868l0.1553,-0.58529l0.11582,-0.59437l0.11205,-0.2644l0.62367,-2.35036l0.652,-1.73722l0.03683,-0.88745l0.75066,-1.57087l0.72684,-2.09223l1.31396,-2.17845l1.0969,-2.29542l1.34776,-1.75763l0.89921,-1.49081l0.82245,-0.59182l1.78718,-1.90371l0.27543,-0.24025l0.81269,-1.11584l1.46956,-0.87494l0.40071,-0.34954l2.96312,-1.6532l2.91549,-1.7358l0.00481,-0.00165l0.34556,-0.23285l0.1142,-0.04622l1.18398,-0.76493l5.2745,-2.70543l2.48547,-1.67475l1.72204,-0.69691l1.59623,-0.95035l3.71565,-1.267l0.39398,-0.09182l0.93173,-0.37707l0.63267,0.01249l3.80941,-0.88776l8.26754,-4.24064l1.8095,-0.71074l0.21059,-0.12538l0.82378,-0.2809l0.8101,-0.3182l0.24172,-0.04047l0.03782,-0.0129l0.36982,-0.23228l0.57954,-0.09145l0.85286,-0.29082l1.94781,-0.45392l3.89297,-0.50613l0.82118,0.06509l0.81369,-0.1284l3.92045,0.20358l5.8875,0.89914l9.16321,-2.13543l1.1533,-0.44846l7.37622,-6.12023l0.37254,-0.51151l0.86367,-0.5142l0.31133,-0.25832l3.25563,-2.19369l1.72204,-0.69691l1.59623,-0.95035l3.71565,-1.267l0.39398,-0.09182l0.93173,-0.37707l0.63995,0.01265l0.34458,-0.04479l1.29515,-0.47764l1.70807,0.08718l0.5273,-0.06856l3.38249,0.2681l3.3887,0.17295l0.51395,0.13638l1.70495,0.13514l1.22225,0.64161l0.35326,0.09374l16.87817,6.3346l1.43868,0.71049l1.87656,0.59642l3.57727,3.08745l3.71235,2.92363l0.94297,1.72857l0.97153,1.27699l1.85497,3.02073l0.0457,0.03328l0.5142,0.86367l0.25832,0.31133l2.19369,3.25563l0.69691,1.72204l0.95035,1.59623l1.26701,3.71565l0.09182,0.39398l0.37707,0.93173l-0.01249,0.63267l1.59297,6.83552l0.11162,0.2758l0.95035,1.59623l1.26701,3.71565l0.09182,0.39398l0.37707,0.93173l-0.01249,0.63267l3.21709,13.80466l0.32663,0.46787l1.91575,3.42656l0.24455,0.78663l0.42141,0.70781l1.26701,3.71565l2.73025,11.71561l0.11162,0.2758l0.95035,1.59623l0.23359,0.68504l2.97326,2.13618l4.71658,2.07551l0.47623,0.16544l0.5361,0.09671l8.83101,2.52163l8.11806,1.5551l0.38702,0.0591l2.81058,-0.36541l1.85191,0.14679l0.29673,-0.02181l17.1787,-4.00339l30.56057,-8.13622l0.38683,-0.06264l0.3709,-0.12647l3.3537,-0.78156l2.89105,-1.06618l0.87596,-0.59023l1.72204,-0.69691l1.59623,-0.95035l3.71565,-1.267l0.39398,-0.09182l0.93173,-0.37707l0.63267,0.01249l18.92653,-4.41071l3.11643,-2.01341l1.22682,-0.62927l4.45399,-3.69559l2.32301,-2.9497l2.21981,-2.3041l0.13066,-0.17071l0.19499,-0.1673l0.17826,-0.18503l0.17796,-0.12062l2.42814,-2.0834l8.83119,-6.16524l0.64255,-0.35924l0.58587,-0.44573l2.0687,-1.27035l3.81321,-2.66208l1.22741,-0.68623l2.90492,-3.6886l1.18409,-0.64594l0.25872,-0.33605l0.18645,-0.15907l1.25501,-1.48471l4.18863,-4.05652l0.2317,-0.18345l0.64952,-0.84364l1.49901,-1.95487l2.46779,-2.62869l1.8325,-1.59846l0.18763,-0.2174l0.48193,-0.36665l0.45634,-0.39805l0.25078,-0.13992l1.93528,-1.47236l2.69475,-1.65479l3.53314,-1.71124l0.08457,-0.02093l0.07486,-0.04456l3.71565,-1.267l1.79627,-0.41861l2.16394,-1.84611l2.20282,-0.68623l0.38033,-0.22644l3.71565,-1.267l2.77043,-0.64563l1.77192,-0.552l0.26035,0.0784l4.93634,-1.15038l0.96231,-0.12511l1.63017,-0.53269l5.14326,0.45624l5.14731,0.40798l1.51849,0.79712l0.92796,0.28386l18.91534,7.91997l0.76287,0.12768l0.93483,0.59938l3.32003,1.79737l1.58531,1.34775l1.75165,1.1231l2.68785,2.65114l0.84606,0.71928l0.34471,0.69242l1.91577,2.30892l0.51151,0.37254l0.5142,0.86367l0.25832,0.31133l0.36933,0.54813l1.25434,0.61642l0.15769,0.09808l0.40381,0.09655l1.18245,0.41079l2.29248,0.08028l5.24489,3.81997l2.71082,1.63508l0.51299,0.7129l0.70994,0.51706l1.6195,2.72015l3.78983,5.2667l0.06714,2.2929l0.404,1.18478l1.36177,5.84342l0.50614,3.89297l-0.00688,0.08685l0.01861,0.08511l0.02699,3.92564l-0.29302,3.14867l-0.26962,1.38356l-0.00042,0.12319l-0.25178,1.17092l-0.22909,1.17557l-0.04807,0.11343l-0.29632,1.37809l-1.17302,3.6436l-0.51058,3.34322l-0.45557,1.77511l-0.01879,0.22524l-0.26897,0.89601l-0.23255,0.90614l-0.10026,0.20257l-0.5269,1.75526l-2.90001,7.02919l-1.48093,4.60003l-0.77694,1.78207l-0.06025,0.23757l-0.38387,0.78113l-0.34783,0.79782l-0.14231,0.19954l-0.85744,1.74477l-2.24082,3.6026l-1.08157,1.40484l-0.99914,1.46462l-3.21473,3.82956l-1.60752,1.56748l-1.57667,1.59851l-0.17332,0.1438l-0.37254,0.51151l-0.026,0.01549l-8.51771,13.69401l-0.41404,1.02322l-1.29369,1.2849l-0.97847,1.27091l-2.13514,1.82153l-1.9913,1.97776l-1.34723,0.87039l-1.38714,1.1834l-1.05387,0.32831l-0.74602,0.38265c0,0 -16.34372,-2.6169 -21.26778,-1.95952c-3.38248,0.45157 -13.87887,7.71426 -13.87887,7.71426c0,0 14.28105,6.46328 18.65976,6.76966c5.52308,0.38645 16.58732,2.47547 16.58732,2.47547l0.2177,0.41005l0.1027,0.13499l0.26904,0.25257l0.24025,0.27543l1.11584,0.81269l0.87494,1.46956l0.34954,0.40071l1.6532,2.96312l1.7358,2.91549l0.17161,0.50328l0.8333,1.49356l0.14413,1.37287l0.11796,0.34593l4.76374,20.44139l0.2909,0.56196l0.07368,1.00244l0.09182,0.39398l0.50614,3.89297l-0.14679,1.85191l0.13616,1.85272l-0.52845,3.89l-0.09408,0.39345l-0.07942,1.002l-0.29412,0.56029l-0.05236,0.21903l-1.28828,3.70832l-0.04499,0.0746l-0.02141,0.08444l-0.34455,0.70112l-0.26077,1.33813l-0.17271,0.40754l-0.38087,2.27558l-1.7211,2.68434l-1.24423,2.93595l-1.66336,1.59892l-0.23891,0.37262l-2.75676,2.79493l-2.18922,1.81644l-0.12383,0.11903l-3.80111,4.04896l-2.95839,2.58057l-0.59742,0.33332l-0.4979,0.46916l-3.35232,2.04287l-7.14861,3.43226l-1.59576,0.97992l-1.39907,0.67762l-1.34437,0.78052l-4.64256,2.10871l-0.20854,0.07065l-0.19233,0.1072l-20.51803,8.88878l-0.17584,0.05617l-0.16255,0.08748l-22.46584,9.34271l-1.97356,0.59848l-1.95195,0.6656l-77.91229,18.15697l-3.89297,0.50614l-0.08685,-0.00688l-0.08511,0.01861l-2.6412,0.01816l-88.96339,20.73236l-2.0451,0.26589l-2.03481,0.33564l-3.39223,0.21674l-0.25583,0.09435l-0.67866,-0.03463l-1.74367,0.11141l-3.92321,-0.14074l-1.31133,-0.32681l-1.34969,-0.06888l-3.79442,-1.00687l-1.6358,-0.61394l-0.65938,-0.16434l-0.21731,-0.1647l-0.86315,-0.32395l-1.43868,-0.71049l-1.87656,-0.59642l-2.67871,-2.31193l-2.92251,-1.01529l-0.0746,-0.04499l-0.08444,-0.02141l-0.65921,-0.32396l-0.20038,-0.01023l-0.58529,-0.1553l-0.59437,-0.11582l-0.2644,-0.11205l-2.35036,-0.62367l-2.09608,-0.78669l-1.78351,-0.06246l-2.84319,-2.07075l-0.17276,-0.08532l-0.68402,-0.53869l-5.47868,-3.99024l-0.3637,-0.61089l-0.55854,-0.43987l-2.55206,-4.67827l-0.64806,-0.55673l-0.32195,-1.17902l-0.16916,-0.28411l-0.06219,-0.18238l-1.68443,-3.08778l0.16943,-1.77653l-0.14374,-0.61677l-0.24171,-1.85907l-0.53749,-1.96832l0.6256,-4.51339l0.36003,-4.54229l0.94835,-1.8066l0.63599,-1.76354l1.67002,-3.49474l0.05964,-0.35638l0.34607,-0.53975l-0.01572,-2.28633l-0.07881,-0.33817l-0.50613,-3.89297l0.10224,-1.28982l-0.15333,-1.28476l0.35127,-3.90998l-0.6353,-1.65387l-0.20231,-0.10166l-0.89361,-2.70267l-0.64288,-1.77949l-0.23277,-2.24435l-1.4112,-3.45569l-2.23601,-2.46405l-1.41631,-2.47106l-8.8985,-0.67104l-1.54155,0.20042l-1.5222,0.31534l-8.01819,0.84179l-0.91461,0.00451l-0.90676,0.11968l-7.7187,0.24369l-5.38034,1.25385l-2.0451,0.26589l-2.03481,0.33564l-5.66371,0.36188l-14.65686,1.4174l-1.55693,-0.00508l-0.16176,0.02914l-1.10326,-0.03327l-1.10376,-0.0036l-0.16069,-0.03453l-1.55624,-0.04693l-8.47212,-1.10601l-3.82282,-0.893l-0.02809,-0.01316l-1.76574,-0.29554l-3.07041,-1.96864l-3.30323,-1.5465l-1.19206,-1.33573l-0.02611,-0.01674l-2.79493,-2.75676l-1.42783,-1.72085l-0.73326,-1.08821l-1.3865,-1.5536l-0.08729,-0.64682l-0.03286,-0.0812l-0.76493,-1.18398l-1.88175,-3.66865l-0.71074,-1.8095l-0.12538,-0.21059l-0.2809,-0.82378l-0.3182,-0.8101l-0.04047,-0.24172l-0.62743,-1.84004l-1.13481,-4.86952l-0.25065,-1.92785l-0.07056,-0.23471l-0.07271,-0.86731l-0.11222,-0.86309l0.01936,-0.24432l-0.16243,-1.93728l0.02861,-1.78578l-0.27342,-2.10301l0.00688,-0.08685l-0.01861,-0.08511l-0.02699,-3.92564l0.29302,-3.14867l0.46512,-2.3868l0.01464,-0.2868l0.1553,-0.58529l0.11582,-0.59437l0.11205,-0.2644l0.62367,-2.35036l0.97302,-2.59253l-0.13668,-0.29909l0.30636,-1.83045l0.26358,-2.83243l0.75089,-3.85325l0.17271,-0.40754l0.38087,-2.27558l1.7211,-2.68434l1.24423,-2.93595l1.50964,-1.45115zM95.05252,204.68593c0,0 32.45975,-3.62811 38.59873,5.44352c8.63572,12.76111 11.1477,63.90551 11.1477,63.90551c0,0 3.00079,7.11678 8.24354,8.69923c4.8416,1.46137 19.28898,0.46119 19.28898,0.46119l83.75571,-19.51874l3.89297,-0.50613l0.08685,0.00688l0.08511,-0.01861l2.6412,-0.01816l72.33977,-16.85833l20.38567,-8.47764l11.89816,-5.47854l-8.4742,3.12564l2.86842,-0.59032l0.6605,-0.31207l2.1011,-0.921l1.66127,-0.76782l2.5635,-2.66409l1.93857,-3.64515l1.83739,-6.55037l0.28167,-5.33038l0.02747,-4.05305l-0.89913,-2.56985l-1.42279,-2.76539l-0.53133,-1.62601l-1.40098,-0.42185l-0.90148,-0.9669l-3.13852,-1.89305l-4.64597,-6.45646l-1.52361,-1.6342l-0.09717,-0.6182l-0.36551,-0.50795l-0.0654,-2.23333l-1.23519,-7.85781l0.90106,-3.55275l-0.0387,-1.32139l0.69973,-1.28494l0.65497,-2.58243l1.73146,-3.52327l2.24082,-3.6026l2.39485,-3.11064l0.06628,-0.05654l0.04702,-0.07334l2.75676,-2.79493l1.37739,-1.14285l6.83018,-6.09161l4.22233,-6.05381l0.1632,-0.43483l0.71049,-1.43868l0.59642,-1.87656l3.08745,-3.57727l2.92363,-3.71235l1.72857,-0.94297l1.27699,-0.97153l4.40246,-2.70346l4.53435,-7.28993l0.30551,-0.69427l0.05166,-1.47518l2.22833,-3.05955l0.64363,-1.13935l1.07048,-1.21414l2.74256,-3.7656l1.21551,-0.72368l0.93554,-1.0611l1.61706,-0.76899l0.48442,-1.5047l0.3994,-0.91612l0.28733,-0.95719l1.33179,-3.22808l-0.09128,-0.07189l-0.68925,-0.41573l-0.21104,-0.29329l-3.04292,-2.39642l-1.35009,-1.30069l-1.6493,-1.20123l-2.29569,-3.85588l-4.50085,-1.88454l-1.4174,0.44156l-0.38033,0.22644l-3.71565,1.26701l-2.10434,0.4904l-0.1576,0.2047l-0.06628,0.05654l-0.04702,0.07334l-2.75676,2.79493l-0.98195,0.81475l-1.41115,1.36664l-2.1402,2.77988l-1.07842,0.92003l-0.04939,0.09999l-1.57402,1.99865l-1.37314,2.14164l-1.55536,1.57689l-1.07718,1.36777l-0.50086,0.27323l-0.16923,0.23236l-0.86367,0.5142l-0.31133,0.25832l-3.25563,2.19369l-1.72204,0.69691l-1.59623,0.95035l-1.41429,0.48226l-1.00203,0.69954l-0.64255,0.35924l-0.58587,0.44573l-2.0687,1.27035l-5.19111,3.62402l-1.66954,2.11994l-0.87818,0.91153l-0.04196,0.06544l-0.90722,0.91978l-0.89635,0.93039l-0.06435,0.04361l-0.88884,0.90115l-8.60423,7.13914l-1.16897,0.78768l-0.08741,0.08681l-1.006,0.64995l-0.99324,0.66926l-0.1142,0.04622l-0.94548,0.61084l-0.64615,0.88717l-1.46956,0.87494l-0.40071,0.34954l-2.96312,1.6532l-2.91549,1.7358l-0.50328,0.17161l-1.49356,0.8333l-1.37287,0.14413l-0.34593,0.11796l-22.74798,5.30127l-3.26603,1.5897l-7.56427,2.7896l-1.50479,0.39008l-1.47134,0.50171l-4.48918,1.04618l-30.56057,8.13622l-0.38683,0.06264l-0.3709,0.12647l-19.46749,4.53678l-0.56196,0.2909l-1.00244,0.07368l-0.39398,0.09182l-3.89297,0.50614l-1.85191,-0.14679l-0.29673,0.02181l-0.02877,0.0067l-3.89297,0.50614l-0.82118,-0.06509l-0.81369,0.1284l-3.92045,-0.20358l-5.32344,-0.813l-0.45814,-0.11758l-0.47109,-0.04232l-9.67298,-1.85296l-1.06615,-0.31691l-1.09459,-0.19745l-9.3776,-2.67771l-1.64644,-0.39365l-2.12091,-0.73681l-2.13486,-0.69534l-9.153,-4.02772l-1.05936,-0.59843l-0.05808,-0.01892l-1.14731,-0.66201l-1.1533,-0.65151l-0.04581,-0.0404l-1.05385,-0.60807l-8.63302,-6.20249l-1.62779,-1.43541l-0.22987,-0.14738l-0.52924,-0.52201l-0.55755,-0.49166l-0.16301,-0.21907l-1.54513,-1.52404l-0.43397,-0.52302l-1.49394,-1.40249l-0.24025,-0.27543l-1.11584,-0.81269l-0.87494,-1.46956l-0.34954,-0.40071l-1.6532,-2.96312l-1.7358,-2.91549l-0.17161,-0.50328l-0.8333,-1.49356l-0.14413,-1.37287l-0.11796,-0.34593l-0.23367,-1.00267l-0.11162,-0.2758l-0.95035,-1.59623l-1.267,-3.71565l-0.09182,-0.39398l-0.37707,-0.93173l0.01249,-0.63267l-2.08228,-8.93515l-0.32663,-0.46787l-1.91575,-3.42656l-0.24455,-0.78663l-0.42141,-0.70781l-1.267,-3.71565l-3.86506,-16.58513l-0.11162,-0.2758l-0.95035,-1.59623l-1.267,-3.71565l-0.09182,-0.39398l-0.14482,-0.35785l-1.2676,0.85414l-0.08075,0.03268l-0.0678,0.05471l-3.49913,1.77974l-6.59036,2.56264l-1.70817,0.47493l-1.67808,0.57221l-15.58246,3.63139l-3.89297,0.50614l-0.82118,-0.06509l-0.81369,0.1284l-3.92045,-0.20358l-3.47467,-0.53065l-4.94193,2.53485l-1.8095,0.71074l-0.21059,0.12538l-0.82378,0.2809l-0.8101,0.3182l-0.24172,0.04047l-1.84004,0.62743l-4.11987,0.96011l-0.63037,0.40726l-2.30623,1.18293l-0.0272,1.69738l0.03479,0.06722l0.07368,1.00244l0.09182,0.39398l0.50614,3.89297l-0.14679,1.85191l0.02181,0.29673l0.91455,3.92438l0.04712,0.36244l0.47764,1.29515l-0.08718,1.70807l0.06856,0.5273l-0.2681,3.38249l-0.17295,3.3887l-0.13638,0.51395l-0.12489,1.57564l0.10181,1.16647l-0.02356,1.86819l0.06943,1.86705l-0.65209,10.41992l-0.06135,0.37503l0.00261,0.38l-0.81476,8.7551l-0.39925,10.7004l-0.33635,2.44037l-0.3316,2.44102l-0.18755,0.7844l0.55478,2.38059l1.07564,1.50809l1.92631,8.81014l0.02699,3.92564l-0.21014,2.25806c0.93205,4.04036 -14.88563,33.47031 -16.34789,35.47029c0,0 5.66301,1.81347 8.00295,0.88723c6.02263,-2.384 29.15645,-15.59642 29.15645,-15.59642z" stroke="#737373" stroke-linecap="butt"/></g></g></svg>