<svg version="1.1" xmlns="http://www.w3.org/2000/svg" xmlns:xlink="http://www.w3.org/1999/xlink" width="449.80679" height="310.54352" viewBox="0,0,449.80679,310.54352"><g transform="translate(-14.44321,-23.36746)"><g data-paper-data="{&quot;isPaintingLayer&quot;:true}" fill="none" fill-rule="nonzero" stroke="#747474" stroke-width="3.5" stroke-linejoin="miter" stroke-miterlimit="10" stroke-dasharray="" stroke-dashoffset="0" style="mix-blend-mode: normal"><path d="M409.5,220.2765c-0.37942,-2.52282 -1.88058,-4.88284 -2.13485,-7.42557c-0.97835,-9.78353 1.6367,-10.74098 -5.16369,-17.03684c-1.4067,-1.30234 -4.18535,-1.50295 -5.67688,-2.73347c-1.55684,-1.28439 -2.47919,-3.36056 -4.26851,-4.29423c-0.85041,-0.44375 -3.14731,-1.28001 -3.73149,-1.70577c-8.08099,-5.88953 -14.89802,-13.55144 -22.48719,-20.14872c-2.36487,-2.05579 -4.33259,-4.69869 -7.10985,-6.1498c-7.33799,-3.83407 -16.05876,-5.43802 -23.06816,-9.63337c-12.26605,-7.34162 -24.41486,-15.44702 -36.93184,-22.36663c-8.35857,-4.62077 -17.17139,-8.76181 -25.60787,-13.30394c-9.07761,-4.88731 -16.75182,-11.97071 -25.1703,-17.73429c-3.15845,-2.16238 -7.52059,-4.05403 -10.9167,-6.0917c-1.60813,-0.96488 -7.49647,-7.07875 -8.41078,-7.29991c-7.4648,-1.80564 -14.96742,-1.41028 -22.43184,-2.57494c-9.20106,-1.43562 -18.7546,-2.67426 -27.95342,-4.40629c-20.31502,-3.82508 -41.45293,1.2844 -62.01275,-0.33992c-7.65725,-0.60496 -15.29486,-1.48016 -22.96373,-1.91364c-3.62457,-0.20488 -7.26377,-0.14898 -10.89107,0c-1.07966,0.04434 -12.60168,2.69477 -13.24158,3.45827c-1.11649,1.33215 -2.87558,2.3862 -3.23997,4.08572c-0.17399,0.81152 -1.2275,2.31658 -0.40933,2.45601c4.8704,0.82996 27.11517,10.89476 33.90992,11.07507c17.09924,0.45375 14.62538,-3.6784 27.22096,10.21591c10.19212,11.24303 7.24403,36.78833 5.89939,51.91142c-0.61835,6.95454 46.96398,19.83505 52.22318,19.55974c1.48233,-0.0776 -4.62855,-22.46807 -1.1093,-26.43981c5.57947,-6.29685 10.41944,-15.18445 18.17767,-19.19733c9.93207,-5.13728 29.9811,-4.96221 40,0c11.21661,5.55542 20.71488,13.78035 32,19c3.8975,1.80269 6.53035,6.41948 10.30898,8.32864c8.61424,4.35236 22.27509,10.57116 30.16645,16.58322c1.86484,1.42074 3.12617,3.73196 4.94959,5.08708c9.80407,7.28617 20.85976,15.38483 24.83321,27.36427c1.65185,4.98012 3.43531,15.34272 -12.93817,30.97293c-6.30507,6.01885 -15.6951,17.36099 -23.02341,21.76706c-12.38924,7.44891 -18.35086,21.76829 -18.1509,21.77873c3.37638,0.17631 14.99459,-4.25078 23.57604,-5.15502c14.20994,-1.49733 27.17975,0.12343 32.77822,0.14808c6.93926,0.03055 15.54462,1.77002 21.24689,2c9.24352,0.37281 18.50238,-0.07507 27.75311,0c3.93572,0.03194 7.87588,1.95469 11.65277,2c0.43443,0.00521 0.86938,-0.00277 1.30479,-0.02252c0.52494,-1.87667 0.96394,-3.75274 0.98688,-5.56444c0.11478,-9.06289 -1.15356,-18.58567 0.95389,-27.51298c0.90413,-3.82998 0.73607,-7.47717 1.4156,-11.14612c-1.2744,-5.0349 -1.24337,-10.47648 -2.31394,-17.59492zM403.5,332.11748c-3.57247,-0.08773 -7.05504,-1.97404 -10.47549,-2c-8.84125,-0.06711 -17.6831,0.03951 -26.52451,0c-7.01201,-0.03133 -14.91233,-1.87013 -21.24689,-2c-23.55452,-0.48291 -23.12943,-1.17757 -46.6889,-1.17757c-6.42014,0 1.85038,-1.64138 -2.63257,-2.15576c-8.45363,-0.97 -6.81251,1.22856 -13.8979,-4.89065c-4.07976,-3.52343 -27.14091,-9.58453 -28.58415,-14.87033c-1.08147,-3.96084 -6.80116,-6.6879 -6.5178,-10.56404c0.3096,-4.23513 0.73875,-7.26079 2.20428,-9.79553c1.57257,-2.71989 -1.16853,-5.17105 1.57748,-7.30654c0.66848,-0.51986 0.37833,-2.80413 0.95398,-3.50864c1.41198,-1.72805 1.97884,-5.74381 3.85706,-7.02742c4.23576,-2.89479 2.19328,-5.54512 6.45741,-7.84889c4.70557,-2.54227 5.99062,-6.27672 10.32882,-9.28907c6.31191,-4.38284 14.35055,-7.03723 18.07796,-14.05353c0.82485,-1.55266 11.78812,-15.52782 10.21438,-16.69246c-4.87794,-3.60991 -12.9279,-3.83577 -17.28426,-7.34036c-8.2079,-6.60305 -19.64233,-5.68055 -28.31839,-11.21486c-2.1515,-1.3724 -3.03504,-2.92387 -4.93506,-4.34359c-0.6052,-0.45221 -2.5096,-0.75049 -3.06544,-1.04578c-7.30806,-3.88241 -13.84635,-11.51213 -21.88045,-14.34851c-1.07587,-0.37983 -1.54386,1.68035 -2.3134,2.5227c-1.17601,1.28728 -0.35748,4.91542 -0.99935,6.57993c-0.59265,1.53686 -1.53361,2.91587 -2.27025,4.38915c-5.13509,10.27017 -10.10352,17.03178 -20.37986,22.34713c-8.52817,4.41112 -25.08815,2.69158 -32.65669,2.6346c-15.33371,-0.11544 -30.77921,-3.24096 -44.62712,-9.36271c-2.7337,-1.20849 -6.04101,-1.34635 -8.87288,-2.76229c-19.39693,-9.69846 -16.52035,-30.37548 -11.14304,-47.27563c1.68031,-5.28098 5.45623,-9.94991 7.26975,-15.39047c0.52088,-1.56265 0.83063,-3.20311 1.49829,-4.7089c0.42223,-0.95226 -3.97091,-16.1896 -5.00954,-16.26907c-4.98543,-0.38145 -20.75193,5.69075 -26.98484,5.5104c-6.22641,-0.18016 -18.67383,7.23128 -27.03688,5.86805c-15.90452,-2.59254 -30.42024,-13.32786 -35.40055,-28.98025c-2.74055,-8.61315 -0.59539,-22.32852 0.11794,-31.16506c0.57892,-7.17146 4.09198,-13.07691 7.71161,-19.04318c6.10784,-10.06761 16.14139,-21.14399 27.84812,-24.72768c2.30958,-0.70701 4.95155,-0.6245 7.31662,-1.38449c6.82148,-2.192 14.06451,-4.21606 21.3125,-4.30872c16.83482,-0.21521 20.03645,1.56668 39.03986,2c20.31476,0.46322 40.64019,-0.0625 60.96014,0c10.43694,0.0321 21.92445,3.57157 32.06906,5c12.15167,1.71104 26.56782,0.32037 37.68921,6.0728c5.8895,3.04629 10.84813,7.30574 15.41274,12.07504c2.10606,2.2005 8.70303,4.80152 12.19504,7.23673c9.30759,6.49082 18.04019,13.70994 28.20642,18.9508c12.62438,6.50808 24.58489,13.11599 36.67751,20.46466c4.98096,3.02693 10.94629,7.61721 16.50447,9.76579c8.85772,3.42406 18.00247,6.57066 26.11306,11.63291c10.65467,6.65015 18.49646,16.90447 28.47482,24.15766c15.82334,11.50186 31.31582,21.53441 40.53267,40.1436c3.67657,7.42315 2.71368,14.32914 3.125,22.34099c0.12952,2.52278 1.88184,4.89549 2.13485,7.42557c0.30418,3.04176 -0.85993,6.35541 0.15433,9.39945c0.47486,0.93199 0.89298,1.89772 1.24981,2.89264c0.94576,2.63696 1.46101,5.47898 1.46101,8.44135c0,3.04877 -0.54574,5.97007 -1.54486,8.67155c0.57477,4.68454 0.30358,9.6224 -0.39982,13.80827c-0.22592,1.34445 -1.09357,2.92104 -1.11088,4.28732c-0.06857,5.41386 0.90535,18.0305 -0.39062,25.74271c-0.64194,3.82014 -2.55181,7.94417 -2.61238,11.79482c-0.07135,4.53599 -3.37659,5.86275 -3.75053,11.49517c-0.01522,2.35921 -3.10723,3.64086 -3.73302,5.80196c-0.48936,1.98988 -0.67847,-0.63819 -1.64145,1.03333c-0.56395,0.97889 1.23353,-0.89063 0.47499,-0.04994c-1.05219,1.372 1.00659,-0.61823 -0.30261,0.50824c-0.98755,1.14348 1.01975,-0.76023 -0.43881,-0.36603c-2.53038,1.48078 -4.092,3.28185 -5.97942,4.90616c-0.87361,0.75183 -1.42415,2.25156 -2.87914,2.25156c-4.98998,0 -14.1385,11.53805 -18.04062,9.01909c-1.23026,-0.61306 -4.63088,0.89009 -5.73603,-0.07356c-3.8875,0.23617 -7.61166,0.25045 -10.9148,0.16934z" stroke-linecap="butt"/><path d="M456.16667,299.78415l-4.66667,12l-7.33333,7.66667l-11,6.33333l-10.66667,5.66667h-9.33333" stroke-linecap="round"/><path d="M299.16666,327.78415l-6.33333,-3.66667l-4.66667,-0.33333l-11.33333,-6.66667l-13.33333,-4.66667l-9,-6l-7.66667,-10l0.66667,-9l10,-24l3.33333,-1.33333l4.66667,-7" stroke-linecap="round"/></g></g></svg>