<svg version="1.1" xmlns="http://www.w3.org/2000/svg" xmlns:xlink="http://www.w3.org/1999/xlink" width="304.35" height="229.35" viewBox="0,0,304.35,229.35"><g transform="translate(-59.85,-27)"><g data-paper-data="{&quot;isPaintingLayer&quot;:true}" fill="#003fff" fill-rule="nonzero" stroke-linejoin="miter" stroke-miterlimit="10" stroke-dasharray="" stroke-dashoffset="0" style="mix-blend-mode: normal"><path d="M59.85,33.85h75.85v222.5h-75.85z" stroke="none" stroke-width="1" stroke-linecap="butt"/><path d="M134.85,33h192.5v52.5h-192.5z" stroke="none" stroke-width="1" stroke-linecap="butt"/><path d="M324.85,36.35c0.242,-1.963 3.309,0 5,0c0.808,0 1.65,0.1 2.5,0c0.85,-0.15 1.7,-0.5 2.5,-0.85c0.85,-0.45 1.6,-1.25 2.5,-1.65c0.75,-0.4 1.65,-0.6 2.5,-0.85c0.8,-0.3 1.7,-0.4 2.5,-0.85c0.65,-0.45 0.9,-1.4 1.65,-1.65c0.75,-0.35 1.65,0.1 2.5,0c0.85,-0.15 1.65,-0.65 2.5,-0.85c1.1,-0.35 2.2,-0.5 3.35,-0.8c0.8,-0.25 1.6,-0.75 2.5,-0.85c0.8,-0.15 1.7,-0.35 2.5,0c0.7,0.25 1.1,1.1 1.65,1.65c0.55,0.55 1.25,1 1.7,1.7c0.65,1 1.15,2.15 1.65,3.3c0.3,0.8 0.7,1.6 0.85,2.5c0.15,1.1 0.1,2.2 0,3.35c-0.2,1.4 -0.4,2.8 -0.85,4.15c-0.4,0.9 -1.05,1.7 -1.65,2.5c-0.5,0.6 -1.1,1.2 -1.7,1.7c-0.8,0.6 -1.6,1.25 -2.5,1.65c-1.05,0.4 -2.25,0.5 -3.3,0.85c-0.85,0.2 -1.7,0.5 -2.5,0.8c-0.85,0.25 -2.5,0.4 -2.5,0.85c0,0.4 1.6,0.7 2.5,0.85c0.8,0.1 1.65,-0.15 2.5,0c0.85,0.1 1.7,0.4 2.5,0.8c0.9,0.45 1.55,1.2 2.5,1.7c0.75,0.35 1.7,0.4 2.5,0.8c0.9,0.45 2,0.75 2.5,1.7c0.45,0.95 0,2.2 0,3.3c0,0.8 0.1,1.65 0,2.5c-0.15,0.85 -0.6,1.65 -0.85,2.5c-0.3,0.8 -0.6,1.65 -0.85,2.5c-0.3,0.8 -0.4,1.7 -0.8,2.5c-0.45,0.65 -1.05,1.25 -1.7,1.7c-1.05,0.65 -2.2,1.15 -3.3,1.65c-0.85,0.3 -1.7,0.6 -2.5,0.85c-1.15,0.3 -2.25,0.5 -3.35,0.8c-1.15,0.25 -2.25,0.5 -3.35,0.85c-0.85,0.2 -1.65,0.6 -2.5,0.85c-1.4,0.3 -2.8,0.45 -4.15,0.8c-0.9,0.2 -1.7,0.55 -2.5,0.85c-0.85,0.25 -1.65,0.7 -2.5,0.85c-0.85,0.1 -1.7,-0.15 -2.5,0c-1.15,0.15 -2.25,0.6 -3.35,0.8c-0.85,0.1 -1.7,-0.2 -2.5,0c-0.65,0.1 -1.933,5.017 -2.5,1.7v-45.85z" stroke="#003fff" stroke-width="2" stroke-linecap="round"/></g></g></svg>